<svg width="1920" height="316" fill="none" xmlns="http://www.w3.org/2000/svg"><path fill-rule="evenodd" clip-rule="evenodd" d="m1826.71 184.193-2.32-2.28c-1.01-1.215-.69-1.262-2.16-2.433-3.9-3.097-1.94 1.159-6.5-2.61 1.27-2.751.21-.193 1.11-.795 1.47-.993-.15 1.698 1.24-.895-10.46-3.605-15.19-1.935-15.02-4.885.15-2.869 1.41 1.346.13-.748-2.14-2.649-4.38-.38-6.85-3.533-.4-.516-3.36-7.265-11.19-7.733.64-.818.38-.596.79-1.689l-3.12-1.158-.02 3.411c2.08-.396.65.045 2.35-.564.75 1.329.06.238 1.82 1.512 3.13 2.264 7.86 6.47 7.62 9.706-.41 5.624-5.15 5.939-5.73 9.349-.37 2.117 1.55 2.607-1.3 3.757-3.32 1.338-5.96-.803-7.04-1.215l-1.7-.446c-2.71-.977-1.15-1.832-4.64-3.511 0 2.988-.04 3.327-.79 5.633-4.41-1.52-2.05.623-3.29-2.141-.49-1.103-.63-2.922-.63-4.618-2.61 1.374-1.56.579-1.56 7.322-5.69 2.163-4.09 3.932-5.18 7.146-.23.66-3.74 6.013-7.6 6.773l-9.96 1.29c-.36-2.38.77-1.69-3.92-1.69 0-3.474-1.26-2.268-2.35-5.633l-1.67 2.183c-1.06 1.149-.32.181-1.03.952l-2.79 5.315-2.27-2.315c-.87-1.366-.83-2.09-1.65-3.318-3.43 1.805-.65 1.003-3.92 4.506-3.36 0-4.33-.646-7.51-.363-2.65.236-4.95.674-7.45.886-11.22.954-6.29-.691-9.77-.654-1.39.015-1.71.396-3.49.694-.62-.896-.81 1.036 0-1.69-3.75 1.974.5 1.69-7.06 1.69.83-1.131.67-1.014 1.82-2.072 1.6-1.476 1.32-.324 2.1-2.434-3.35 1.272-3.37 2.093-5.93 3.106-4.01 1.592.21.15-2.88.051-2.75-.088-.48.161-3.73.786v-2.817c-4.83.926-.35 2.462-6.28 2.817 1.53-1.636 1.59-.756 2.36-2.817l-3.14-.563c4.7-.901 7.53-3.897 0-6.759-1.05 1.829-.04 3.098.78 5.633-5.47.43-.27.385-2.85 1.125-1.9.549-3.04-.345-5.3-2.025-2.96-2.206-1.54.767-2.04-2.48h-9.4c-2.22 1.837-4.19 3.993 0 6.196.73-1.125-1.12-.791 2.35-4.506 5.03 0 8.38 1.761 9.41 4.506-3.53.277-1.97-.843-2.36 1.69-6.98-.418.61-1.774-5.49-2.253-1.43 2.227 2.21 4.186-2.28 4.548l-.67-.002c-.07.01-.27.048-.35.064-2.56.583.35.777-3.75 1.022l-.6-1.852c-.59-.782-1.82-1.498-2.54-2.09l-1.63 2.767c-.08.12-.17.266-.25.387l-1.18 1.967c-.51.663-.95.9-1.64 1.638h-5.49c-.68-2.089-1.44-1.755.23-3.731 1.26-1.495-.05 1.42 1.34-1.339-3.6.603-3.39.115-5.65 2.703l-1.94 2.548c-.05.081-.14.263-.25.382-.55-1.491.06-.463-.78-1.69.79-.755.78 1.185.78-1.69h-.78v1.69h-1.57c.28-2.457.13-1.208 2-3.067.34-.339 1.09-1.157 1.24-1.362 4.27-5.801 2.5-1.636 8.52-4.02-.41-3.529-1.95-1.322-3.14-4.506h-1.57c-1.51 4.677-4.72 1.987-6.27 1.69.71 1.094.8 2.147-.86 3.857-1.87 1.927.02.225-2.2 1.266-1.56.733.19-.366-1.41.679l-1.02.957-1.41-1.239c-3.26 1.606-3.28 2.813-4.86 5.182l-7.05-2.816v2.816h-3.92c.71 1.028.6.705.78 2.254-4.16-1.434-6.13 1.393-13.36 4.482-.2.086-.74.362-.95.441-2.45.922 1.58.44-2.94.71 3.27-3.504 4.91-2.905 9.41-5.07-.96-1.303-.7-.931-1.92-2.017-.77-.684-1.31-.004-1.74-2.127-.63-3.092 1.95-.401 2.09-4.868-2.66-.447-11.04-1.747-13.65-1.5l-3.88.69c-3.22.769-2.43-.842-2.85 1.936-3.75 0-3.25-.382-6.27-.563l.88 2.231c-4.23.091-6.46 1.522-9.73 1.947-3.5.454 1.09-.119-2.22.01-2.33.092-1.79.107-3.83.882.18-.547.56-1.783.82-2.227 1.09-1.857 4.63-2.82 7.02-3.969-1.74-3.103 2.04 3.077-1.42-1.237l-.5-1.798c-.09-3.72-.04-.563-1.21-3.725-2.23.133-5.36 1.103-7.06 1.69.68-2.309-.35-1.618.78-3.379-2.66-.16-2.87-.43-4.7-1.127-.66.705-3.87 3.603-4.72 3.933-4.54 1.758-4.89-1.385-6.26 2.826h-1.56c-1.33-4.08 3.15-6.406 8.62-7.322-.69-1.86-2.12-2.883-4.7-3.38-1.14 3.062-1.91 1.747-5.89 2.547-5.73 1.154-.95 1.221-7.44.833-.51-4.39-2.77-3.048-3.14-6.196-2.68 1.409-.78.846-.78 4.506-.41.139-1.6.548-2.14.799-.11.052-.31.174-.42.225l-1.22.548c-1.18.374-1.27.053-1.71 1.244-5.25 0-6.86-1.396-11.76-1.69-2.05 1.397-2.35 2.186-4.13 3.793-1.9 1.711-2.36 2.344-6.06 2.403-.23-1.991-1.44-3.049-3.14-3.943.97-2.617 1.24-.498 1.57-3.379-3.13-.05-2.9-.26-4.7-1.127 0 2.939.13 3.548-1.37 5.779-.6.896-.19.184-.73 1.164l-.61 1.255c-.05.112-.17.318-.21.409-.05.091-.11.283-.22.406 1.83 1.794 1.3.458 3.14 2.253-3.83 1.074-.4-.974-2.85.258-.08.043-.26.168-.35.22l-.77.535c-1.94 1.22-3.44 1.9-6.23 2.366-.6-1.622-1.28-1.469-2.97-2.367l-1.24-.799c-1.9-1.771.69-2.385-4.41-2.466 2.61 2.805 1.14 3.378 1.52 6.32.19 1.512.96-.962.05 2.129l-5.45-1.206-.94 3.44c-3.89-.221-1.82-.768-5.37.582v-2.253c-2.28 1.096-1.05 1.14-3.92 1.69 1.52-1.636 1.58-.756 2.35-2.817-9.07 3.126-15.75 2.8-21.28 4.424-1.11.324-1.84.872-3.67 1.33-5.59 1.397-5.06.286-7.98-1.247-1.72 1.074-1.75 1.513-4.7 1.69 3.97-5.953 4.56-1.625 4.7-6.197-4.63.889-.35 1.831-5.49 2.817-5-.96-1.1-1.836-5.48-3.943-1.64 2.45-.09 1.828.78 4.506-6.15-1.03-5.88.274-10.98 1.127.43-1.326.74-1.664.79-3.38-.86.71-1.42 1.422-2.35 1.126 0-2.495-.02-4.151 1.03-6.015 1.01-1.805 2.74-2.259 4.45-3.56-.41-1.284-.6-1.296-.78-2.817h-1.57c-.26 2.253-.46 2.387-2.35 3.38 0-2.928-1.67-8.115 3.92-8.449v-2.817c-3.06-.588-2.47-1.653-3.31-4.382-.58-1.893-1.03-3.748-1.61-6.165-.4-1.665-.9-3.621-1.43-5.729-.65-2.546-2-3.32-2.27-5.692H1401c0 6.595 3.13 7.75 3.13 16.899-4.09-.686-1.33-.248-5.48 0 .56-1.723 1.22-2.165 2.35-3.38-8.64 0-8.6 2.162-11.08 7.809-2.04 4.631-2.24 7.193-8.52 10.216-3.48-5.206-4.42-3.553-12.08-4.19-2.48-.207-2.95-.71-3.6-2.006h-1.57c-.97 2.617-1.23.498-1.57 3.38-12.14-4.186-10.97.226-17.77 4.127-4.8 2.752-12.08 7.59-15.41 6.819-.16-.038-.38-.122-.54-.169l-1.56-.638c-.08 2.749-.12 4.279-3.92 4.506 0-2.224-.24-2.286-.78-3.943l-3.62 1.342c-.15.061-.35.143-.49.208-2.85 1.276-6.2 3.583-9.59 4.381-3.33.785-2.85.232-5.9 1.392v-2.253c-2.85.546-1.38.32-3.37 1.523-2.17 1.311-1.23.219-2.9 1.856 1.05.426.86.308 2.35.563-1.8 1.788.05.64-4.7.564-.31 2.616.84.985-1.57 2.253.68-2.104 1.31-2.673 3.34-4.356l3.14-2.251c.13-.074.32-.168.45-.241 1.87-1.079-.4 1.008 1.69-1.038-.76-2.061-.83-1.181-2.35-2.817 2.06-.394 1.43-.115 3.07-2.299 1.78-2.378 3.12-3.069 3.2-5.587l-7.96 5.549c-1.01.549-.5.288-1.45.647-.55-1.646.1-.811-1.56-1.689 5.19-7.054 6.73-6.949 11.94-9.444 1.84-.883.78-.962 4.52-2.385-.54-1.657-.78-1.719-.78-3.943-5.75 2.764-7.02 6.595-17.25 6.759 2.42-2.602 5.74-2.445 7.84-4.506-4.12.246-3.81 1.421-7.19 1.687-5.12.401-3.99-1.327-5.36-3.377-4.56 2.198-.64-.644-7.84 2.817.18-1.557 5.2-8.598 7.06-9.576 3.02 2.061.57 1.268 2.35 3.943 3.07-.184 5.42-.837 7.29-2.084 1.3-.864 3.53-3.102 4.47-4.112-2.54.488-5.7 2.832-8.62 3.943-.54-1.464.29-.629-1.57-1.127.63-1.957 3.33-5.168 5.49-11.829-1.8-.866-1.58-1.076-4.71-1.126.71-1.028.61-.705.79-2.253-4.6 1.584-5.43-.413-7.06 0-3.42.655-4.09 2.648-7.47 3.691-4.6 1.421-6.41-.379-8.99-.875-3.48 3.736-4.81 2.019-9.37 3.407-1.9.579-.49.583-3.18 1.099 1.58-13.642 16.54-10.199 18.82-16.335-3.77.632-5.86 1.981-8.78 3.31-3.39 1.539-1.92.478-4.24 1.019-1.66.385-2.89 1.258-4.03 2.007-4.78 3.148-13.22 6.867-15.09 8.873 6.06-1.016 8.33-4.675 13.32-5.633-4.11 5.581-3.22 4.82-8.74 6.713l-4.33 1.21c-.03-.001-.17-.058-.25-.037-1.88 1.046.39 2.086-9.66 6.583-2.51 1.126-1.87 1.37-4.46 1.866 3.47-4.702 5.11-3.053 6.28-6.196-2.51 1.206-.55.925-3.92 1.126.18-1.544.9-3.428 1.49-4.584l.86-3.865c.24-2.123 1.99-3.116 3.03-5.143 1.36-2.628 1.3-3.136 3.56-5.328 4.12-3.978 4.76-4.825 7.21-10.029 1.32-2.809 8.46-11.857 11.7-14.692 3.75-3.288 4.2-.714 6.64-3.111-9.78 0-9.68 5.001-17.03 10.296-5.93 4.276-3.99.576-11.65 8.524l-7.2 6.658c-8.9 7.785-7.21 4.628-9.91 5.997-.84.423-1.3 1.163-1.91 1.821-4.28 4.64-3.98 1.686-10.3 2.72-5.88.962-7.47 1.16-14.91 1.16-7.33 9.959-11.7 7.149-16.3 10.255-7.44 5.012-1.82 5.33-19.76 8.334 1.32-1.42 2.5-2.543 3.13-4.506h.79l-.66-.658-.13.658c-2.03 1.07-1.38 1.27-3.31 2.687-1.44 1.056-2.94 1.618-4.53 2.382.28-2.389 1.63-3.946 2.36-6.196-2.68 1.289-2.73 4.352-5.49 5.07-2.71-4.052 8.73-14.665 10.19-19.152-4.87.935-8.58 6.449-10.28 9.514-1.1 1.984-.98 2.661-4.62 2.878.32-2.718 1.75-3.744 3.14-5.633-3.43.892-3.6 3.851-5.43 5.678-1.31 1.319-2 1.149-3.36 2.086l-9.42 7.879c-2.19 2.537-1.45 4.421-6.09 5.199l-.77-1.266c-.07-.13-.32-.541-.4-.695-.63-1.254-1.03-2.361-1.19-3.672-2.66.92-4.25.831-5.58-1.093-.91-1.313-.4-3.777.05-4.3 2.12-2.47 5.31-2.134 3.18-8.689h-1.57c-.6 1.864-2.1 3.549-3.92 4.506-2.86-1.378-1.49-1.541-3.92-2.817 0 4.121.51 2.061-2.54 3.803-4.37 2.496-3.53 5.475-10.55 4.54-3.06-.407-2.76-.858-7.28-1.027-8.44-.315-7.16-1.467-13.77-2.527-7.73-1.24-6.99 1.837-13.97 1.112-5.1-.53-9.54-.478-14.61-1.393-26.39-4.766-14.67-1.407-30.51-2.867-6.6-.608-7.12-5.006-7.12 3.992-3.04 1.05-6.36 1.127-10.972 1.127l3.932-1.116c2.95-.638 2.33-.155 3.91-1.701-2.92 0-8.495.226-10.727.824-8.022 2.147 6.057 2.555-3.387 3.119l-1.568-2.816c-1.404 3.779-3.309 4.138-7.84 3.379-.936-1.455-.557-1.098 0-2.816-5.911.353-1.045.586-3.02 2.922-2.691 3.185-12.121-2.345-18.932-3.485v-1.69c3.088-.517 4.639-.652 6.272-2.254-5.068 0-5.551-1.094-8.066-.711l-9.966.711c-.436-3.766-4.386-2.152-8.078-1.826-4.197.371-5.629-.921-9.954-.99-.213 6.87-10.221 5.107-12.544 5.07-.462-3.994-3.489-3.606-3.919-7.323-3.11 1.637 1.282 7.111 1.567 9.576-13.501 4.654-17.075-1.75-21.617-.779-.535.115-2.003.974-2.707 1.301-1.167.542-1.984.772-3.208 1.101-3.267.877-12.524 3.886-11.68-1.525.398-2.554 3.984-3.407 1.335-4.261-1.656-.535-3.278 1.135-6.81 1.347V171.8c-7.175 0-13.661 6.051-20.384 2.817-.323 2.789-1.924 4.212-4.846 5.004-2.346.635-2.338.243-3.421.629-.013.005-2.462 1.343-3.423 1.724-4.53 1.797-5.315.423-9.734 1.471-1.198.284-6.718 2.144-8.044 2.67l-11.4 4.201c-6.184 1.921-13.935 5.769-20.283 6.832 1.524-1.636 1.586-.756 2.352-2.817-2.002-.69-.215-.122-2.213-.385l-1.707-.178c.903-2.432 4.364-3.023 6.271-5.07l-25.871 9.576c-.577-1.778-.992-3.855-1.568-5.633-3.251 1.687 4.365 5.05-7.556 9.217-4.71 1.646-8.498 2.262-13.428.791-2.163-.646-1.849-.567-2.536-2.685-3.686.231-1.926-.838-1.568 2.253h-2.352c-1.19-2.58-.836-.347-1.466.49-1.525 2.028 1.208 1.497-3.238 1.763-.665-2.05-.433-1.806-2.352-2.817-7.62 1.276-.806 4.363-11.76 6.197-1.044-3.22.4-2.882.784-6.197-3.641-.217-1.371.605-3.136-1.126l-2.476 1.089c-1.536.759-1.344-.437-2.228 2.291 1.787.299 1.803.436 3.92.563-.132 4.246-6.741 5.07-7.272 2.764-.355-1.542.861-.37 1.784-2.201-2.508-1.206-.549-.925-3.92-1.126 0-6.555 13.334-8.19 19.935-11.025 6.995-3.005 7.414-3.933 12.834-6.551 3.014-1.456 5.158-2.824 8.144-4.288l18.411-7.613c4.432-1.726 4.828-3.008 10.451-2.067v1.126c-2.392.401-2.561.432-4.476 1.291-2.299 1.031-1.838 1.008-4.932 1.526 2.284 2.24 7.753-.948 9.964-2.417 2.697-1.79.798-1.627 4.657-2.85 2.242-.71 4.26-.894 6.421-1.583 4.237-1.35 5.393-3.172 11.638-4.03 8.812-1.211 8.872 2.019 8.872-6.018l19.599-3.943c-.043-1.39-.472-2.202-.431-2.942.109-2.014 1.58-2.245-.067-2.91-1.798-.726-4.423-.344-6.558-.344-1.678 1.801-1.287.394-1.568 2.816-2.55-1.227-1.746-.929-3.136-2.816 1.185-1.608 2.49-2.514 3.136-4.507-5.903.899.79-.55-3.705-.186l-9.155 2.212c-2.509.623-2.796.916-4.947 1.516-3.823 1.065-6.801.799-10.359 2.149-1.982.753-1.419 1.406-4.564.993-3.291-.432-1.658-.883-4.117-2.177l-6.614 2.007c-3.169.926-5.113.863-5.93 3.062 4.635 0 6.746-1.447 9.408-.563-3.065 3.289-18.594 8.557-24.314 10.695-2.019.755-2.817 1.254-4.954 2.073-3.339 1.28-8.116 2.746-9.932 4.694 5.847-.094 5.087-1.53 9.408-2.253-.778 2.094-2.438 2.722-4.937 3.775-2.606 1.098-4.241 1.93-6.664 3.098-9.711 4.684-23.453 11.662-35.244 12.981-4.101.459-5.573.279-5.682 3.804-3.3-1.255-3.136-.381-3.136-3.943-4.084-.066-5.156-1.233-7.84-2.254.567-1.748 1.001-1.631 1.568-3.379-5.72 1.097-3.429 3.572-3.253 5.145.165 1.473-.056 1.603-1.286 2.262-1.862.998-.086.052-1.667.522-.183.054-.404.091-.587.144l-4.265 1.485c-4.732 1.531-3.376.64-2.271 2.834-7.001 1.172-7.064 7.125-27.271 2.695-1.722-.377-2.002-.656-4.088-1.006-.568 1.527.262 1.087-1.802 1.604-1.262.317-3.008-.168-3.686-.477l-2.462 1.099c-.116.048-.339.121-.46.172l-.953.406c-2.61 1.282-4.06 3.141-6.22 4.662l-.812.568c-4.025 2.329-2.485-.118-1.637-2.401l-3.175-.535c-3.124-1.137 1.739-.101-2.313-1.155 1.172 1.593 1.857 1.713.784 3.38-.684.174-.834-.916-3.061 1.095-2.276 2.056-.809 1.722-5.563 1.722l-.929-5.619c-11.697.146-12.205 5.633-19.439 9.573-3.519 1.917-6.005 2.73-9.116 5.287-3.445 2.83-6.227 1.094-10.5 3.151.146-4.704 1.538-3.682 4.38-5.865 3.745-2.877-.029-4.7 4.336-6.461l16.029-7.635c4.977-2.728 10.829-4.279 15.451-7.488 3.7-2.569 6.525-4.42 11.203-6.032 2.782-.959 2.675-.401 3.481-2.569h.784l-.654-.657-.13.657-3.114 1.157c1.205-3.334 3.471-1.556 6.249-4.537-4.097-.322-.932.459-2.911-1.287-1.416-1.249.02-.843-2.576-2.092-1.025 3.158-4.567 8.135-10.192 6.196 1.117-3.007 3.586-2.063 4.704-5.07-2.834-2.779-2.611.707-3.92-2.816l-5.463.844c-2.322 1.058 2.242.556-2.377.846-.9-2.421-5.063-2.587-8.608-2.285-3.931.335-.883-.134-3.43.958-.202.087-.744.36-.949.445l-10.52 3.707c-2.465.521-3.641.489-5.643 1.578l-5.126 2.514c-.157.059-.374.121-.523.187-.145.063-.343.15-.477.221l-3.322 2.683c-1.57 1.172-2.752 2.095-4.522 2.947-3.426-.658-2.733-1.878-6.247-2.879-3.288-.937-9.412 1.61-7.938-2.297.389-1.033.346-.702.997-1.418 2.303-2.532 8.026-4.66 8.484-8.615-2.673 1.016-1.893.647-4.13 2.103l-11.781 7.307c-12.452 6.923-9.343 5.365-20.937 4.672.235-2.026 1.032-3.656 2.538-4.936 1.798-1.527 2.867-1.27 4.518-3.513-2.511.482-8.302 2.563-12.544 2.816 2.567-2.517 3.413-.65 8.846-5.473 1.536-1.363 1.495-1.017 2.13-2.976-.918-.985-.999-1.253-2.713-1.995-6.014-2.6-8.794-.761-12.183.869l-1.408-.782c-1.146-.82-1.262.035-.71-1.494.392-1.088 2.234-.516-.234-1.104 3.1-3.084-.554 1.023 3.316-1.555 2.282-1.521.729-1.67 3.765-2.933 2.385-.992 4.02-.657 8.291-4.746 2.572-2.462 2.8-4.369 6.72-5.874 2.494-.956 6.182-1.618 10.052-3.48l-6.617-4.822c-2.482-1.389-5.202-.829-9.847-3.064-1.71 2.322-3.952 4.324-7.84 5.07-.348-3.006-1.828-3.894-5.488-4.506-3.273 3.511-2.98 3.933-6.922 5.165-3.491 1.09-5.868 2.563-9.522 3.861-3.022 1.074-7.811 1.647-10.014 2.945-10.833 6.379-24.278 10.523-35.577 16.684-4.02 2.192-3.248 1.034-5.882 1.969-1.934.687-.975.345-2.642 2.609-4.279-.068-5.889-1.533-10.192-2.253-2.277 1.095-1.052 1.139-3.92 1.69 1.689 4.545 3.246 1.671-4.663 4.535-3.036 1.1-12.438 5.048-14.153 6.73 6.268 1.049 5.706-.807 10.976-1.69-1.439 1.544-5.322 3.439-8.088 4.329-7.661 2.463-3.453.243-7.592 4.684-11.529 0-2.721-2.395-12.005 2.077-1.808.871-11.925 3.86-15.435 8.625-5.82 0-5.608.246-9.408 1.69-6.068-2.919-2.282-1.28-5.488-5.633-5.26 1.814-4.703-.433-4.703 9.013-3.328.053-7.028 1.339-12.04 2.052-4.517.643-2.579-.562-3.641 1.328-4.445-.071-1.779.235-4.141-.967-1.368-.696.208-.05-1.303-.754l-1.546-.579c-3.42-1.307-1.545-.03-3.141-2.25-.822-1.142.017-.248-1.07-1.484-.464-.527-.761-.665-1.342-1.289 2.752-2.275 4.399-3.287 10.192-3.379l.783 2.253c1.16-3.575 7.252-5.457 1.568-8.449 0 2.369.29 2.97-1.568 4.506 0-2.543.93-6.524-3.327-5.736l-1.53.48c-4.657 1.524-20.933 13.12-25.725 14.853-3.68 1.331-4.588-.189-7.049.542-1.172-1.212-.115-.742-2.352-1.127 1.203 1.245.128.7 2.352 1.127-.448.28.698.895-2.036.643l-1.884-.643c-.748 1.119-1.126 2.014-1.568 3.379-2.549-.152-1.291-.146-2.84-.776-.147-.059-.325-.163-.47-.225l-6.098-2.942c-1.895 2.837.402 1.727-3.195 3.94-3.448 2.12-1.158 1.385-5.429 1.13v-3.943l-3.105.632-.031-6.265c-1.359-.516-2.057-.636-3.302-1.007-6.873-2.047-.814-3.658-6.528-6.575-4.317-2.205-3.451-.718-5.59-3.307-3.016-3.653-4.957-5.296-13.615-4.366-2.374.255-6.83.515-8.84.999-1.992.479-4.982 2.117-7.144 2.205-3.141.127-.692-1.928-1.289-5.346-1.058-6.054-10.573-6.169-16.754-9.957-3.272-2.006-1.384-3.342-3.418-5.431-2.558-2.626-12.437-1.557-18.196-1.578-11.004-.042-9.918.962-13.573 1.353-1.732.185-1.602-.177-4.454-.223-3.632 3.897-3.513 3.356-7.762 6.252l-3.998 3.324c-5.185-.31-1.646-3.236-7.838 2.817-.991.968-2.09 2.239-3.519 3.105-.696.422-1.438.706-2.267 1.188-.907.527-.713.632-2.056 1.339-4.229-.253-9.62-2.139-11.773-3.934-3.798-3.166-3.578-4.515-11.746-4.515-4.565 4.897-1.371 2.825-.784 7.886-3.708-1.279-2.875.226-4.747-2.786-.077-.125-.134-.287-.212-.411-.077-.122-.149-.279-.23-.399a9.653 9.653 0 0 0-.261-.375c-.828-1.105.023.11-.943-1.012-1.033-1.201-.95-.806-1.447-2.34-10.177 0-13.82-3.021-16.618-3.883-5.764-1.775.673 2.649-8.47-1.75-1.419.683-2.656 1.464-3.92 2.253-2.031-.389-2.84-.981-4.704-1.69-2.75 2.951-9.048 5.609-11.305 7.086l-2.023 1.927c-2.74-1.318-1.867-1.925-5.624-1.316-3.017.489-3.75 1.126-6.92 1.316-.793-2.134-1.534-1.42-2.352-3.943-3.3 1.737-1.69 5.029 0 7.323-5.337-.327-2.974-.651-3.528-2.136-.292-.784-.078-2.122-4.312-2.934-2.864 1.378-1.497 1.541-3.92 2.817 0-3.106-.717-1.695-1.295-4.958-.289-1.627 2.19.06-.965-1.863-.838-.511-1.87-.805-3.228-1.065-3.343 10.307-9.729 8.606-15.789 14.567-2.703 2.66-10.55 10.176-14.648 9.634l-4.843-.544c-.363 1.121-.614 3.549-.784 6.795V316H1920V150.959l-4.1 2.689c-2.81-.1-.47-.148-3.74-.999-2.29 3.107-4.45 7.195-6.17 8.525-1.64 1.279-1.5-.211-2.45 2.741h-1.57c-.57-1.749-1-1.632-1.57-3.38-3.82.228-6.98 2.79-9.74-.327-.38-.435-1.15-2.626-1.2-3.119-.16-1.631.84-5.664 1.53-6.693-3.32.637-1.3.491-3.84 2.31-6.17 4.419-2.63 1.486-9 3.672-1.98.68-3.07 1.409-4.54 1.843-4.74 1.397-6.05-1.337-8.07 3.169-3.24 7.218-2.6 3.992-5.12 6.467.31.093 2.31-.357 1.09 2.915-.56 1.52-.94 1.94-2.14 3.09-1.88 1.8-4.35 2.944-8.36 3.008 1.24 3.839-.42 6.409-6.27 6.759-3.78-1.815-1.44-3.09-6.28-3.379.97 1.317 1.35 1.466 1.57 3.379-9.71 1.626-4.67-1.922-11.58-4.633l-2.56-.977c-1.88-.748-3.12-1.321-5.46-1.712 1.25 3.36 1.05.04 4.3 3.107 1.38 1.306 1.91 2.747 1.97 4.779h.01Zm-776.16-32.107 1.53.647-1.53-.647c-1.17-1.212-.11-.742-2.35-1.127 1.2 1.245.13.7 2.35 1.127Zm112.11 6.759-.9 1.098.9-1.098.91-1.098-.91 1.098Zm547.23 28.164.78-.563h.79l-.65-.657-.14.657-.78.563h-.78l.65.657.13-.657Zm-433.55-28.164.79-.563h.78l-.65-.658-.13.658-.79.563h-.78l.65.657.13-.657Zm354.37 27.601h.78l-.65-.657-.13.657c-1.92 1.01-1.69.766-2.35 2.816 2.03-.979 2.09-.573 2.35-2.816Zm80.75-64.777v-.564l-.92.47.92.094c.28 2.439.44 3.171 3.92 3.379-.26-2.265-1.23-2.863-3.92-3.379Zm-71.34 32.67h.78l-.65-.657-.13.657c-1.92.365-1.06-.25-1.57 1.126l1.57-1.126Zm-348.1-6.76h.79l-.66-.657-.13.657c-2.71.521-2.41.306-3.13 2.254 2.71-.52 2.41-.306 3.13-2.254Zm370.05 13.519h-.79l.66.657.13-.657 3.1-.632c-.66-.241 1.17-.789-1.46-.366-1.38.221-.86.228-1.64.998Zm-1146.2-18.025h-.784l.653.657.131-.657c4.027-1.047-.627.054 2.253-1.198 1.742-.757.486-.448 3.235-.492-3.17-3.108-7.919-1.312-10.192 1.127.355 0 2.164-.046 2.384-.024l2.32.587Zm1087.4 61.961h-.79l.66.657.13-.657c1.63-.312 2.79-.824 4.1-1.562 1.77-1.002 1.94-.992 2.17-2.944-3.8 1.829-4.02 1.445-6.27 4.506Zm-280.67-25.348h-.79l.66.657.13-.657c2.24-.384 1.18.086 2.35-1.126-2.29.394-1.13-.073-2.35 1.126Zm-239.9-80.549c1.36-.978-.96-.361-.22.012.01.003.17.025.22-.012Zm216.38 79.986c0-1.399-1.26-.144-.49 0 .01.002.49 1.598.49 0Zm310.46 19.715c.31-1.209-1.13-.381-1.06.114l.28.107c1.47-.066.48.943.78-.221Zm-570.75-26.474c-.03-.187-.86-.126-.93-.108-.2.053-1.36-1.304-.34.152.02.031 1.46 1.041 1.27-.044Zm15.68 2.253c-.03-.186-.86-.126-.93-.108-.2.053-1.36-1.303-.34.152.02.032 1.46 1.041 1.27-.044Zm693.05 23.094c.4-1.566-1.87.271-.77.222 1.46-.066.47.942.77-.222Zm-25.87-15.772c.4-1.566-1.87.271-.78.222 1.47-.066.48.942.78-.222Zm-68.99 13.519c.4-1.566-1.87.271-.78.221 1.47-.066.48.943.78-.221Zm47.04 1.127c0-.662-1.69-1.27-1.22 0 .48 1.272-1.99.015.37.166.98.064.85.978.85-.166Zm-235.2-62.524c0-.663-1.69-1.27-1.21 0 .47 1.272-2 .015.36.167.99.063.85.978.85-.167Zm137.98 67.593c0-.662-1.68-1.269-1.21 0 .47 1.273-1.99.016.36.167.99.064.85.978.85-.167ZM174.049 115.472c0-.662-1.687-1.269-1.214 0 .475 1.273-1.994.016.363.167.987.064.851.978.851-.167ZM1920 149.327c-.21-.38-1.11.225-1.06.619.01.003.06.091.07.092.72.137.94.285.99.323v-.015c-.03-.054-.08-.206 0-.514v-.505Zm-664.83 5.012c.32-1.21-1.12-.381-1.05.114 0 .002.05.09.06.091 1.57.299.77.651.99-.206v.001Zm260.29-21.405c-.81-.579-2.84.811-.91.304.02-.005 2.23.641.91-.304Zm128.57 65.34-1.56 1.69c2.06-.552 1.16.011 1.56-1.69Zm-323-2.253c.31-1.209-1.13-.381-1.06.114.02.12.69 1.325 1.06-.114Zm110.54 4.506c-.16-.642-1.72-1.231-1.05-.114.28.472 1.43 1.577 1.05.114ZM192.081.563c-.055-.214-.265-.422-.495-.563h-.725c-.004.1.044.246.165.45.283.471 1.432 1.576 1.055.113ZM1539.76 128.428c-.16-.643-1.72-1.232-1.05-.114.28.472 1.43 1.576 1.05.114Zm216.39 65.34c-.17-.643-1.73-1.232-1.06-.114.28.472 1.43 1.577 1.06.114Zm-85.46-5.633c1.2 1.245.13.7 2.35 1.127-1.23-1.278-.15-.658-2.35-1.127Zm69.78-15.209c1.2 1.245.12.701 2.35 1.127-1.24-1.278-.15-.658-2.35-1.127Zm-367.7 6.76c.55 1.647-.1.811 1.57 1.69-.51-1.544.32-.877-1.57-1.69Zm406.9-24.785c.54 1.647-.11.812 1.56 1.69-.51-1.544.32-.877-1.56-1.69Zm-136.42 35.487h-2.35v.563h2.35v-.563Zm-250.88-20.278h-.78v1.69h.78v-1.69Zm38.42-7.322h-.78v1.689h.78v-1.689Zm339.47-29.291h-2.35v.563h2.35v-.563Zm-279.89 28.164h-.78v1.69h.78v-1.69Zm-70.56.563h-.78v1.69h.78v-1.69Zm205.41-33.796h-2.35v.563h2.35v-.563Zm-88.59-.564h-2.35v.564h2.35v-.564Zm-126.22 37.177h-.79v1.69h.79v-1.69Zm268.91 2.253h-.79v1.69h.79v-1.69Zm139.55.563h-2.36v.564h2.36v-.564ZM1655.8 137.44h-2.36v.564h2.36v-.564Zm85.45 41.683h-.78v1.69h.78v-1.69Zm-925.111 4.506c-2.291.394-1.129-.072-2.352 1.127 1.375-.237 2.101-.071 2.352-1.127Zm480.591-23.657c-2.3.394-1.13-.073-2.36 1.126 1.38-.236 2.11-.071 2.36-1.126Zm-501.758 33.233c-2.292.394-1.13-.073-2.353 1.126 1.375-.236 2.101-.07 2.353-1.126Zm38.415-33.233c-1.732.865-.974.092-1.568 1.689 1.297-.647 1.508-.119 1.568-1.689Zm582.503-1.127c-1.73.865-.97.092-1.56 1.69 1.29-.647 1.5-.119 1.56-1.69Zm211.68 30.98c-1.73.866-.97.093-1.57 1.69 1.3-.647 1.51-.119 1.57-1.69Zm-1289.666 3.38c-1.732.865-.974.092-1.568 1.69 1.297-.647 1.508-.119 1.568-1.69ZM94.083 176.307c-1.733.865-.975.092-1.568 1.69 1.297-.648 1.508-.12 1.568-1.69Zm1511.537 24.221c-1.73.865-.97.092-1.57 1.69 1.3-.648 1.51-.12 1.57-1.69ZM536.255 157.155c-1.733.866-.975.093-1.568 1.69 1.297-.647 1.507-.119 1.568-1.69Zm689.125-5.632c-1.73.865-.97.092-1.56 1.69 1.29-.648 1.5-.12 1.56-1.69Zm161.51 26.474c-2.44 1.263-2.44.426 0 1.69v-1.69Zm29.79-23.095c-2.44 1.264-2.44.427 0 1.69v-1.69Zm240.68 43.936c.36-.257 1.84.052.02-.691-.78-.32-1.93-.101-.98.703 1.23 1.04.43.372.96-.012Zm-30.57-29.854c-2.36.453-1.72-.007-2.35 1.69 3.15-.82.11.469 2.35-1.69Zm205.4-2.253v1.127h2.36c-1.24-1.278-.15-.658-2.36-1.127Zm-503.32 20.278h-2.35c1.2 1.245.13.7 2.35 1.127v-1.127Zm307.33-28.727c-2.3.394-1.13-.073-2.36 1.126h2.36v-1.126Zm-821.628 4.506c-2.292.394-1.129-.072-2.352 1.127h2.352v-1.127Zm-16.464 29.291c-2.292.394-1.129-.073-2.352 1.126h2.352v-1.126Zm954.122-21.405h-1.57c.55 1.647-.1.811 1.57 1.69v-1.69Zm-32.15 19.715c-.18.297-2.48.348 1.57 1.126-.42-1.127 1.01-.227-.63-1.155-1.36-.773.12-.347-.94.029Zm42.34-24.785h-2.35v1.127c1.37-.237 2.1-.071 2.35-1.127Zm-337.12 20.842h-1.57v1.69c1.3-.648 1.51-.12 1.57-1.69Zm156.8-6.197h-1.57v1.69c1.3-.647 1.51-.119 1.57-1.69Zm-298.7-25.91c-.8.152-3.03.077-1.57 1.126.84.605 1.51.489 1.57-1.126Zm338.85 5.753-2.52-.12v1.689l2.52-1.569Zm85.29 19.031c-3.18.532-2.36.151-3.14 1.69 2.56-.973 1.55-.046 3.14-1.69Zm-733.034-6.759c-3.641.217-1.371-.604-3.136 1.126 1.844-.11 2.854.06 3.136-1.126Zm136.414-5.07c-2.41 1.268-1.26-.363-1.57 2.253 2.01-1.056 1.57.195 1.57-2.253Zm672.67-15.209c-2.41 1.269-1.27-.362-1.57 2.254 2-1.056 1.57.195 1.57-2.254Zm-447.66 33.234-3.11-.632c.69.842 2.68 2.827 3.11.632Zm-366.128-12.955c-2.362.453-1.721-.008-2.352 1.689 1.79-.343 2.292-.128 2.352-1.689Zm-253.229 7.885c-2.853.478-2.514.311-3.92 1.69 2.752-.46 2.585-.31 3.92-1.69Zm693.837-12.392h-1.57v1.69h1.57v-1.69Zm-275.19-1.126c-2.82.542-2.09.051-2.35 2.253 2.17-1.143 1.06-.377 2.35-2.253Zm-134.06 2.253c-.5.417-.59.129-1.05.931-.771 1.313-.332.297-.516 1.885 2.156-1.137 1.566.04 1.566-2.816Zm-214.812 9.576c1.765 1.73-.505.908 3.136 1.126-1.489-1.598-1.099-1.731-3.136-1.126Zm637.382 10.139v2.816c.07-.052 1.12-.308 1.31-1.329.27-1.441-.03-.817-1.31-1.487Zm340.26-26.475v2.817c.96-.508 1.26-.184 1.34-1.133.12-1.417-1.33-1.676-1.34-1.684Zm-504.89-10.702-3.12 1.158c.57.728.41.591.76 1.659l2.36-2.817Zm464.9 39.993v1.127h3.14c-1.77-1.737.51-.904-3.14-1.127Zm-301.83-26.474h-1.57c.3 2.616-.84.985 1.57 2.253v-2.253Zm8.62-5.07h-1.57v2.253c2.01-1.055 1.57.195 1.57-2.253Zm25.09 29.291c-2.74.525-1.76.214-3.14 1.69 2.26-.135 3.07.012 3.14-1.69Zm152.09-37.74c-2.03 1.069-1.66 1.262-2.35 3.38 2.03-1.069 1.67-1.262 2.35-3.38Zm-259.5 27.601c-2.36.453-1.72-.007-2.35 1.69h2.35v-1.69Zm176.4-3.943c0-1.586-.34-1.043-1.57-1.69v2.816c.7-.281 1.57-.366 1.57-1.126Zm-211.68 14.645h-3.13v1.69c2.55-.973 1.54-.046 3.13-1.69Zm126.22-7.886h-.78c0 2.994-2.4 1.705.78 3.38v-3.38Zm205.41-10.702-2.52 1.569c3.42 1.202 3.23.556 2.52-1.569Zm-402.19-3.943c-2 .962-2.45.965-3.13 2.817 2.61-.993 2.35-.41 3.13-2.817Zm311.25-45.062c1.38 1.355 1.57 1.502 4.7 1.69-1.38-1.356-1.57-1.503-4.7-1.69Zm203.05 4.506h-3.92v1.126c2.09-.033 3.61.182 3.92-1.126ZM983.914 171.8h-3.919v1.127c2.09-.033 3.608.182 3.919-1.127Zm846.716-2.816c-3.09.516-3.19.62-4.71 2.253 3.09-.516 3.18-.619 4.71-2.253Zm-206.19 24.784c-.1.158-1.79-.183.17 1.051.91.572.64.851 1.62.147 2.07-1.492-.18-1.161-.2-1.169-1.49-.992-1.15-.177-1.59-.029Zm-314.38 1.69h-1.57v2.817h1.57v-2.817Zm427.27-7.322c-3.71.059-3.08-.573-3.92 1.69 2.83-.17 2.83-.244 3.92-1.69Zm-384.16-7.323c-2.77.532-2.41.601-3.13 2.817 3.65-.701 1.52-.404 3.13-2.817Zm-36.06 5.07c-3.27 1.575-1.55 1.002-3.13 3.379 0-.002 1 .228 2.28-1.171.94-1.024.67-.647.85-2.208Zm333.98 10.702c.41 2.688-1.07.95 2.35 2.253.58-1.941 1.22-2.039-2.35-2.253Zm-362.2-45.626c-2.54.487-4.21 1.44-5.49 2.817 3.26-.547 3.87-1.08 5.49-2.817Zm28.22 33.234c-3.64.058-3.89.069-4.7 2.253 2.41-.463 1.58-.308 4.28-1.993.08-.053.28-.173.42-.26Zm-50.17-35.487c-2.4.4-1.9.673-3.92 0-.62 1.667-.32.913-1.57 2.253 2.63-.44 4.12-.91 5.49-2.253Zm284.58-24.784c-.39-.502-.51-1.127-1.56-1.127-2.17 0-1.89.435-2.36 1.69 1.66-.026 3.11.1 3.92-.563Zm-730.676 47.315c-2.081-.717-.839-.513-3.92-.563.282.845.172 1.69 1.568 1.69 1.417 0 2.151-.282 2.352-1.126v-.001ZM1205 153.776c-1.77 1.463-2.28 2.056-2.35 4.506 2.6-2.147 2.35-1.778 2.35-4.506Zm137.98 19.151c1.38 1.356 1.57 1.503 4.71 1.69-1.65-1.765-1.98-2.595-4.71-1.69Zm159.94-9.576c-2.06.989-1.62.285-2.35 2.254.01.009 1.46.563 1.56.563 4.09 0 1.17-.284.79-2.817Zm-386.51 4.507h-1.57l-1.68 3.917c2.55-1.145 3.16-1.097 3.25-3.917Zm566.04 9.012c-.36.173-1.34.491-1.91.881-1.24.848-.6.129-1.22 1.372.94.566 4.51 2.002 3.13-2.253Zm-389.64-25.911c-3.27.547-3.87 1.08-5.49 2.817 2.26-.135 1.94-.06 3.54-.838 2.15-1.043 1.38-.459 1.95-1.979Zm253.23 12.392c-4.57-.785-3.69-1.198-5.49.564 2.31.386 2.39.563 5.49.563v-1.127Zm145.82 24.222c-2.8.469-5.58 1.363-7.06 2.816 4.07-.243 5.29-.916 7.06-2.816Zm-379.45-24.222c-2.69 2.637-2.23-.599-2.36 3.38.13-.059 2.37-1.042 2.43-1.077 2.31-1.346 1.2.242 1.5-2.303h-1.57l1.84-1.65c.92-1.714-1.1-2.4-2.17-7.125-1.17-5.124-1.77-7.094-9.08-5.87v1.127c3.47.055 4.17.587 6.39 4.984 1.66 3.287 1.45 4.012 1.45 8.534h1.57Zm-209.33 3.38c-4.06 0-3.04-.502-4.7 1.127.39.501.51 1.126 1.56 1.126 2.32 0 2.71-.953 3.14-2.253Zm565.26-32.67v-.563c-4.88 0-7.62 1.237-8.62 3.943 2.32-1.121 5.04-3.38 8.62-3.38Zm-460.99 3.943c-2.12 0-2.16.269-3.92.563.56.281.34.333 1.45.653 1.31.382.59.236 1.81.389 1.37.172 3.16.085 4.58.085-.9-.888-1.82-1.69-3.92-1.69Zm41.55 21.405c-2.79 1.346-3.05 2.392-3.92 5.069 2.26-.433 1.96-.388 2.95-1.825.82-1.194.92-1.583.97-3.244Zm179.54 37.176c-3.37-.201-1.42.08-3.92-1.126-.06 1.716-.36 2.053-.79 3.379 3.55-.056 3.98-.074 4.71-2.253Zm399.83-41.683c-.73-1.968-.29-1.265-2.35-2.253-2.97 1.431-3.56 3.079-1.07 3.055.01 0 1.3-.671 3.42-.802Zm-546.44-40.556c-3.94.063-3.83.637-3.92 3.38 3.35-.561 3.83-.455 3.92-3.38Zm617.79 28.728c.21 1.86 1.02 3.379 1.57 5.069h1.56c0-3.063.31-4.409-3.13-5.069Zm-171.7 43.372c-1.74.335-2.35.132-2.35 1.69v2.816c4.93-.294 2.35-.809 2.35-4.506Zm-888.261-36.613c-1.495-2.968-2.114-.906-7.84-.563v1.126c.602-.036 2.605-.309 2.609-.309.94-.039 4.1.738 5.231-.254Zm929.811 19.151c-1.79-1.928-1.89-1.747-4.7-2.816v4.506c1.86-.708 2.67-1.3 4.7-1.69ZM1303 207.288v1.689h-3.92l3.12-1.137c.11-.058.33-.211.42-.261.09-.05.25-.195.38-.291Zm268.91-18.589-6.27 2.817 10.53-2.009c3.36-.875.85.533 2.79-1.371l-7.05.563Zm-129.36-1.126c-3.61.692-3.14 1.17-3.14 4.506 0 1.586.34 1.043 1.57 1.69.89-2.734 1.57-2.546 1.57-6.196Zm384.94-14.646c2.96.982 1.49 1.051 3.14-.563-2.46-1.477-5.48.366-7.06 1.127 1.05 1.566.78 1.09.78 3.379h1.57c.37-3.212 1.2-.731 1.57-3.943ZM753.42 159.409c0-3.033-4.375-2.817-8.624-2.817l2.458 1.051c.989.154 2.742.076 3.814.076.922 3.128-.597 2.638-1.568 5.633 1.596-.768 3.92-2.078 3.92-3.943Zm915.7-19.152c-.68-1.842-1.96-2.44-3.92-3.379-3.35 1.157-2.94-.372-3.92 2.253 3.61.604 5.11 1.831 7.84 1.126Zm-160.72 31.544c-.99-1.495-.71-.603-.78-2.817-1.18.569-2.26 1.144-3.63 1.899-1.96 1.081-2.05 1.355-2.64 3.171 4.32-.069 4.55-1.046 7.06-2.253h-.01Zm167.78-39.43-6.27.563c2.76 1.26 7.9.654 7.84 2.254-.07 1.622 6.46 1.884 3.24-1.14-1.2-1.125-2.18-1.677-4.81-1.677Zm-343.39 56.328c-2.75.527-1.69.224-3.18 1.661-.91.887-1.53 1.543-2.64 2.607-1.88 1.805-3.62 2.981-4.37 5.308 3.19-.191 1.87.347 3.45-1.467l4.61-5.135c1.48-1.416 1.46-.904 2.13-2.974Zm-518.218-3.38c-5.291.886-7.88 2.254-12.106 4.258-2.346 1.112-2.059.536-2.79 2.502 3.026-.507 12.683-4.385 14.896-6.76Zm907.078-11.828c-1.81 0-4.17.779-5.98 1.339-2.57.8-2.86 1.159-4.21 2.603 1.7-.326 7.68-4.305 12.79-.143 2.97 2.417-2.1 1.52 2.89 1.833-.43-3.715-5.42-5.633-5.49-5.633v.001Zm-980.773-2.254c-5.732.343-16.043 5.189-18.032 7.323 3.529-.591 16.281-5.444 18.032-7.323Zm809.083-10.702c-2.04-1.994-3.64-1.074-4.71-3.943h-2.35l-.78 4.506c4.82 1.835 3.08 1.247 7.84-.563Zm-19.6 1.127c0 2.021 2.94 2.997 3.92 5.633 4.08-.784 3.71-3.891 3.15-4.505-.85-.919-7.07-3.226-7.07-1.128Zm58.8-10.703c-1.38-1.475-1.96-2.335-3.14-3.943l-4.68.649c-.03 4.668.39 3.252-.81 4.984 4.24 0 2.24-.018 5.7-.975l2.93-.715Zm-555.85-1.69c-2.34.038-2.75-.109-5.65 1.58-1.59.929-2.69 1.775-3.76 2.927 8.07-1.351 5.9-.68 13.33.563-1.06-2.839-2.76-1.473-3.92-5.07Zm741.65 24.785h4.71c-1.37-1.34-1.64-1.69-8.63-1.69-4.63 0 2.81 1.172-3.96.534-.05-.005-2.31-1.142-2.31 1.719 0 1.964 3.67.563 5.49.563 2.95 0 1.48.371 4.7.564v-1.69Zm-396.7-.563c0-2.087-.76-2.545-2.35-3.38-.18 1.521-.37 1.532-.78 2.816-2.32-.445-1.27-.229-3.14-1.126 0 6.403-2.35.85-3.92 5.069.69.274.14.214.96.273 7.35.535 6.54-.519 8-2.28 1.06-1.273 1.23-.397 1.23-1.372Zm-554.28 3.942c-4.438.071-7.229 1.848-10.447 3.197-2.458 1.029-7.81 3.373-9.153 4.689 3.266-.195 12.841-3.618 15.855-4.943 2.223-.978 3.018-.987 3.745-2.943Zm27.44-5.069c-2.716-.936-5.867.313-8.734 1.048-6.997 1.793-6.969 1.41-7.73 3.458 3.402-.054 6.96-1.149 10.192-1.69-.9 2.701-.534.876 0 1.69 7.166-1.365-.353.344 4.584-2.866l1.688-1.64Zm765.96-30.417c-8.25-1.256-2.66 3.625-10.19 5.069 1.04 1.566.78 1.091.78 3.38 4.22-.252 4.14-.902 5.77-3.18 1.46-2.048 3.37-2.927 3.64-5.269Zm8.62 42.809c3 0 .6.819 5.49 0-1.07-3.3-.94-1.226-3.13-3.38-6.27 2.381-9.93 1.146-14.12 5.633 5.91-.094 9.35-2.253 11.76-2.253Zm-52.52-30.417c3.67-1.266 3.25.499 5.48-1.69-3.05 0-6.23-.15-9.22.16-4.98.517-3.79-.16-8.81-.16 0 6.64 4.48 2.817 6.27 2.817 5.46 0 3.54-.188 6.28 1.126v-2.253Zm62.72-18.025c-2.67-.159-2.87-.429-4.71-1.127-.52 3.419.64.476-3.81 2.892-1.93 1.042-2.41 2.743-2.14 4.314.37 2.152.57 1.939 2.82 2.37 1.23-3.803 6.63-5.199 7.84-8.449Zm-214.03 52.385-2.64.362c-.14.049-.36.164-.48.217l-2.4-12.391c-.01-2.559-.57-11.519-1.54-12.972-1.88.545-.75-.229-1.73 1.056-1.25 1.65 1.47 10.337 1.74 14.708.39 6.212.64 12.22 2.34 17.469 3.21-1.667-.67-.556 1.15-4.198.64-1.273 2.72-2.003 3.56-4.251Z" fill="#fff"/></svg>