<svg width="1920" height="420" fill="none" xmlns="http://www.w3.org/2000/svg"><path fill-rule="evenodd" clip-rule="evenodd" d="m1826.71 70.193-2.32-2.28c-1.01-1.215-.69-1.262-2.16-2.432-3.9-3.097-1.94 1.158-6.5-2.61 1.27-2.752.21-.194 1.11-.796 1.47-.992-.15 1.698 1.24-.895-10.46-3.605-15.19-1.935-15.02-4.885.15-2.869 1.41 1.346.13-.748-2.14-2.648-4.38-.38-6.85-3.533-.4-.516-3.36-7.264-11.19-7.732.64-.819.38-.597.79-1.69l-3.12-1.157-.02 3.41c2.08-.395.65.045 2.35-.563.75 1.328.06.238 1.82 1.51 3.13 2.265 7.86 6.471 7.62 9.707-.41 5.624-5.15 5.939-5.73 9.35-.37 2.116 1.55 2.606-1.3 3.756-3.32 1.338-5.96-.803-7.04-1.214l-1.7-.447c-2.71-.977-1.15-1.832-4.64-3.51 0 2.987-.04 3.326-.79 5.632-4.41-1.52-2.05.624-3.29-2.14-.49-1.104-.63-2.923-.63-4.62-2.61 1.375-1.56.58-1.56 7.323-5.69 2.163-4.09 3.932-5.18 7.146-.23.66-3.74 6.013-7.6 6.773l-9.96 1.29c-.36-2.38.77-1.69-3.92-1.69 0-3.473-1.26-2.268-2.35-5.633l-1.67 2.183c-1.06 1.149-.32.18-1.03.952l-2.79 5.315-2.27-2.315c-.87-1.366-.83-2.09-1.65-3.318-3.43 1.805-.65 1.003-3.92 4.506-3.36 0-4.33-.646-7.51-.363-2.65.236-4.95.674-7.45.886-11.22.954-6.29-.69-9.77-.654-1.39.015-1.71.396-3.49.694-.62-.896-.81 1.036 0-1.69-3.75 1.974.5 1.69-7.06 1.69.83-1.131.67-1.014 1.82-2.072 1.6-1.475 1.32-.324 2.1-2.434-3.35 1.272-3.37 2.093-5.93 3.106-4.01 1.593.21.15-2.88.052-2.75-.088-.48.16-3.73.785v-2.816c-4.83.925-.35 2.462-6.28 2.816 1.53-1.636 1.59-.756 2.36-2.816l-3.14-.564c4.7-.901 7.53-3.897 0-6.76-1.05 1.83-.04 3.1.78 5.634-5.47.43-.27.385-2.85 1.126-1.9.548-3.04-.346-5.3-2.026-2.96-2.206-1.54.767-2.04-2.48h-9.4c-2.22 1.837-4.19 3.994 0 6.196.73-1.125-1.12-.79 2.35-4.506 5.03 0 8.38 1.761 9.41 4.506-3.53.277-1.97-.843-2.36 1.69-6.98-.417.61-1.774-5.49-2.253-1.43 2.227 2.21 4.186-2.28 4.548l-.67-.002c-.07.01-.27.048-.35.064-2.56.583.35.778-3.75 1.023l-.6-1.853c-.59-.781-1.82-1.498-2.54-2.09l-1.63 2.767c-.08.12-.17.266-.25.387l-1.18 1.967c-.51.663-.95.9-1.64 1.638h-5.49c-.68-2.089-1.44-1.755.23-3.73 1.26-1.495-.05 1.42 1.34-1.34-3.6.603-3.39.115-5.65 2.703l-1.94 2.548c-.05.081-.14.263-.25.382-.55-1.49.06-.463-.78-1.69.79-.755.78 1.185.78-1.69h-.78v1.69h-1.57c.28-2.456.13-1.208 2-3.067.34-.34 1.09-1.157 1.24-1.362 4.27-5.8 2.5-1.636 8.52-4.02-.41-3.53-1.95-1.322-3.14-4.506h-1.57c-1.51 4.677-4.72 1.987-6.27 1.69.71 1.094.8 2.147-.86 3.858-1.87 1.926.02.224-2.2 1.265-1.56.733.19-.366-1.41.68l-1.02.957-1.41-1.24c-3.26 1.606-3.28 2.813-4.86 5.183l-7.05-2.817v2.817h-3.92c.71 1.027.6.704.78 2.253-4.16-1.433-6.13 1.393-13.36 4.482-.2.086-.74.362-.95.441-2.45.922 1.58.44-2.94.71 3.27-3.503 4.91-2.905 9.41-5.07-.96-1.302-.7-.931-1.92-2.016-.77-.685-1.31-.005-1.74-2.128-.63-3.092 1.95-.4 2.09-4.868-2.66-.447-11.04-1.747-13.65-1.5l-3.88.69c-3.22.77-2.43-.842-2.85 1.936-3.75 0-3.25-.382-6.27-.563l.88 2.231c-4.23.092-6.46 1.522-9.73 1.947-3.5.454 1.09-.118-2.22.01-2.33.092-1.79.108-3.83.882.18-.547.56-1.783.82-2.227 1.09-1.857 4.63-2.82 7.02-3.97-1.74-3.102 2.04 3.078-1.42-1.236l-.5-1.798c-.09-3.72-.04-.563-1.21-3.725-2.23.133-5.36 1.104-7.06 1.69.68-2.31-.35-1.618.78-3.38-2.66-.158-2.87-.429-4.7-1.126-.66.706-3.87 3.603-4.72 3.933-4.54 1.758-4.89-1.385-6.26 2.826h-1.56c-1.33-4.08 3.15-6.406 8.62-7.322-.69-1.86-2.12-2.883-4.7-3.38-1.14 3.063-1.91 1.747-5.89 2.548-5.73 1.154-.95 1.22-7.44.832-.51-4.39-2.77-3.047-3.14-6.196-2.68 1.409-.78.846-.78 4.506-.41.14-1.6.549-2.14.799-.11.053-.31.174-.42.225l-1.22.548c-1.18.375-1.27.053-1.71 1.244-5.25 0-6.86-1.396-11.76-1.69-2.05 1.398-2.35 2.187-4.13 3.793-1.9 1.712-2.36 2.344-6.06 2.403-.23-1.991-1.44-3.049-3.14-3.942.97-2.617 1.24-.499 1.57-3.38-3.13-.05-2.9-.26-4.7-1.127 0 2.94.13 3.548-1.37 5.779-.6.896-.19.184-.73 1.165l-.61 1.254c-.05.113-.17.318-.21.41-.05.09-.11.282-.22.405 1.83 1.794 1.3.458 3.14 2.253-3.83 1.074-.4-.974-2.85.259-.08.042-.26.167-.35.22l-.77.534c-1.94 1.22-3.44 1.9-6.23 2.366-.6-1.621-1.28-1.469-2.97-2.367l-1.24-.8c-1.9-1.77.69-2.383-4.41-2.465 2.61 2.805 1.14 3.379 1.52 6.32.19 1.512.96-.962.05 2.129l-5.45-1.206-.94 3.44c-3.89-.22-1.82-.767-5.37.582v-2.253c-2.28 1.096-1.05 1.14-3.92 1.69 1.52-1.636 1.58-.756 2.35-2.816-9.07 3.125-15.75 2.799-21.28 4.423-1.11.324-1.84.872-3.67 1.33-5.59 1.398-5.06.286-7.98-1.247-1.72 1.075-1.75 1.513-4.7 1.69 3.97-5.953 4.56-1.625 4.7-6.196-4.63.888-.35 1.83-5.49 2.816-5-.96-1.1-1.836-5.48-3.943-1.64 2.45-.09 1.828.78 4.506-6.15-1.03-5.88.274-10.98 1.127.43-1.326.74-1.664.79-3.38-.86.71-1.42 1.422-2.35 1.127 0-2.496-.02-4.152 1.03-6.016 1.01-1.804 2.74-2.259 4.45-3.56-.41-1.284-.6-1.295-.78-2.817h-1.57c-.26 2.253-.46 2.387-2.35 3.38 0-2.928-1.67-8.115 3.92-8.45v-2.816c-3.06-.587-2.47-1.653-3.31-4.381-.58-1.894-1.03-3.75-1.61-6.166-.4-1.665-.9-3.621-1.43-5.729-.65-2.546-2-3.32-2.27-5.691H1401c0 6.594 3.13 7.749 3.13 16.898-4.09-.686-1.33-.248-5.48 0 .56-1.723 1.22-2.165 2.35-3.38-8.64 0-8.6 2.162-11.08 7.81-2.04 4.63-2.24 7.192-8.52 10.215-3.48-5.206-4.42-3.552-12.08-4.19-2.48-.207-2.95-.71-3.6-2.006h-1.57c-.97 2.617-1.23.498-1.57 3.38-12.14-4.186-10.97.226-17.77 4.127-4.8 2.752-12.08 7.59-15.41 6.82-.16-.04-.38-.122-.54-.17l-1.56-.638c-.08 2.749-.12 4.28-3.92 4.506 0-2.224-.24-2.286-.78-3.943l-3.62 1.342c-.15.061-.35.144-.49.208-2.85 1.276-6.2 3.583-9.59 4.381-3.33.786-2.85.232-5.9 1.392v-2.253c-2.85.546-1.38.32-3.37 1.523-2.17 1.311-1.23.22-2.9 1.856 1.05.427.86.308 2.35.564-1.8 1.787.05.639-4.7.563-.31 2.616.84.985-1.57 2.253.68-2.103 1.31-2.672 3.34-4.356l3.14-2.25c.13-.074.32-.169.45-.242 1.87-1.079-.4 1.008 1.69-1.038-.76-2.06-.83-1.18-2.35-2.817 2.06-.394 1.43-.115 3.07-2.299 1.78-2.378 3.12-3.069 3.2-5.587l-7.96 5.549c-1.01.55-.5.288-1.45.648-.55-1.647.1-.812-1.56-1.69 5.19-7.054 6.73-6.949 11.94-9.444 1.84-.883.78-.962 4.52-2.385-.54-1.657-.78-1.72-.78-3.943-5.75 2.764-7.02 6.595-17.25 6.76 2.42-2.602 5.74-2.446 7.84-4.507-4.12.246-3.81 1.421-7.19 1.687-5.12.401-3.99-1.327-5.36-3.377-4.56 2.198-.64-.644-7.84 2.817.18-1.557 5.2-8.598 7.06-9.576 3.02 2.062.57 1.268 2.35 3.943 3.07-.183 5.42-.837 7.29-2.084 1.3-.864 3.53-3.102 4.47-4.112-2.54.488-5.7 2.832-8.62 3.943-.54-1.464.29-.628-1.57-1.127.63-1.957 3.33-5.168 5.49-11.829-1.8-.866-1.58-1.076-4.71-1.126.71-1.028.61-.705.79-2.253-4.6 1.584-5.43-.413-7.06 0-3.42.656-4.09 2.648-7.47 3.692-4.6 1.42-6.41-.38-8.99-.876-3.48 3.736-4.81 2.019-9.37 3.407-1.9.58-.49.583-3.18 1.1 1.58-13.643 16.54-10.2 18.82-16.336-3.77.632-5.86 1.981-8.78 3.31-3.39 1.54-1.92.479-4.24 1.019-1.66.385-2.89 1.258-4.03 2.007-4.78 3.148-13.22 6.867-15.09 8.873 6.06-1.016 8.33-4.675 13.32-5.633-4.11 5.581-3.22 4.82-8.74 6.713l-4.33 1.21c-.03-.001-.17-.057-.25-.037-1.88 1.046.39 2.086-9.66 6.583-2.51 1.126-1.87 1.37-4.46 1.866 3.47-4.702 5.11-3.053 6.28-6.196-2.51 1.206-.55.925-3.92 1.127.18-1.545.9-3.429 1.49-4.585l.86-3.865c.24-2.123 1.99-3.116 3.03-5.143 1.36-2.627 1.3-3.136 3.56-5.328 4.12-3.978 4.76-4.825 7.21-10.029 1.32-2.809 8.46-11.857 11.7-14.692 3.75-3.288 4.2-.714 6.64-3.11-9.78 0-9.68 5-17.03 10.296-5.93 4.275-3.99.575-11.65 8.523l-7.2 6.658c-8.9 7.786-7.21 4.628-9.91 5.997-.84.423-1.3 1.163-1.91 1.82-4.28 4.641-3.98 1.687-10.3 2.721-5.88.962-7.47 1.16-14.91 1.16-7.33 9.959-11.7 7.15-16.3 10.255-7.44 5.012-1.82 5.33-19.76 8.334 1.32-1.42 2.5-2.543 3.13-4.506h.79l-.66-.657-.13.657c-2.03 1.07-1.38 1.27-3.31 2.687-1.44 1.057-2.94 1.618-4.53 2.382.28-2.388 1.63-3.945 2.36-6.196-2.68 1.29-2.73 4.352-5.49 5.07-2.71-4.052 8.73-14.665 10.19-19.152-4.87.935-8.58 6.45-10.28 9.514-1.1 1.985-.98 2.66-4.62 2.878.32-2.717 1.75-3.743 3.14-5.633-3.43.892-3.6 3.851-5.43 5.678-1.31 1.319-2 1.149-3.36 2.086l-9.42 7.88c-2.19 2.536-1.45 4.42-6.09 5.198l-.77-1.266c-.07-.13-.32-.54-.4-.695-.63-1.254-1.03-2.36-1.19-3.672-2.66.92-4.25.831-5.58-1.093-.91-1.313-.4-3.777.05-4.3 2.12-2.47 5.31-2.134 3.18-8.69h-1.57c-.6 1.866-2.1 3.55-3.92 4.507-2.86-1.378-1.49-1.541-3.92-2.816 0 4.12.51 2.06-2.54 3.803-4.37 2.495-3.53 5.474-10.55 4.54-3.06-.408-2.76-.859-7.28-1.028-8.44-.315-7.16-1.467-13.77-2.527-7.73-1.24-6.99 1.837-13.97 1.112-5.1-.53-9.54-.478-14.61-1.392-26.39-4.767-14.67-1.408-30.51-2.867-6.6-.608-7.12-5.006-7.12 3.991-3.04 1.05-6.36 1.127-10.972 1.127l3.932-1.115c2.95-.639 2.33-.155 3.91-1.702-2.92 0-8.495.226-10.727.824-8.022 2.147 6.057 2.555-3.387 3.12l-1.568-2.817c-1.404 3.78-3.309 4.138-7.84 3.38-.936-1.456-.557-1.099 0-2.817-5.911.354-1.045.586-3.02 2.922-2.691 3.185-12.121-2.345-18.932-3.485v-1.69c3.088-.517 4.639-.652 6.272-2.253-5.068 0-5.551-1.094-8.066-.712l-9.966.712c-.436-3.767-4.386-2.152-8.078-1.827-4.197.371-5.629-.92-9.954-.99-.213 6.87-10.221 5.107-12.544 5.07-.462-3.993-3.489-3.605-3.919-7.323-3.11 1.637 1.282 7.111 1.567 9.576-13.501 4.655-17.075-1.75-21.617-.779-.535.115-2.003.974-2.707 1.301-1.167.542-1.984.773-3.208 1.102-3.267.876-12.524 3.885-11.68-1.526.398-2.554 3.984-3.407 1.335-4.261-1.656-.534-3.278 1.135-6.81 1.347V57.8c-7.175 0-13.661 6.051-20.384 2.817-.323 2.79-1.924 4.213-4.846 5.004-2.346.635-2.338.243-3.421.63-.013.004-2.462 1.342-3.423 1.723-4.53 1.797-5.315.423-9.734 1.471-1.198.285-6.718 2.144-8.044 2.67l-11.4 4.201c-6.184 1.921-13.935 5.77-20.283 6.832 1.524-1.636 1.586-.756 2.352-2.816-2.002-.69-.215-.123-2.213-.386l-1.707-.178c.903-2.432 4.364-3.022 6.271-5.07l-25.871 9.576c-.577-1.778-.992-3.855-1.568-5.633-3.251 1.687 4.365 5.05-7.556 9.217-4.71 1.647-8.498 2.263-13.428.791-2.163-.646-1.849-.567-2.536-2.685-3.686.231-1.926-.838-1.568 2.253h-2.352c-1.19-2.58-.836-.347-1.466.49-1.525 2.028 1.207 1.497-3.238 1.763-.665-2.05-.433-1.806-2.352-2.816-7.62 1.275-.806 4.362-11.76 6.196-1.044-3.22.4-2.881.784-6.196-3.641-.218-1.371.604-3.136-1.127l-2.476 1.09c-1.536.758-1.344-.438-2.228 2.29 1.787.299 1.803.437 3.92.563-.132 4.246-6.741 5.07-7.272 2.765-.355-1.543.861-.37 1.784-2.202-2.508-1.206-.549-.925-3.92-1.126 0-6.555 13.334-8.19 19.935-11.025 6.995-3.004 7.414-3.933 12.834-6.55 3.014-1.457 5.158-2.825 8.144-4.288l18.411-7.614c4.432-1.726 4.828-3.008 10.451-2.067v1.127c-2.392.4-2.561.432-4.476 1.29-2.299 1.031-1.838 1.008-4.932 1.526 2.284 2.24 7.753-.948 9.964-2.417 2.697-1.79.798-1.627 4.657-2.85 2.242-.71 4.26-.893 6.421-1.583 4.237-1.35 5.393-3.172 11.638-4.03 8.812-1.21 8.872 2.02 8.872-6.018l19.599-3.943c-.043-1.39-.472-2.202-.431-2.941.109-2.015 1.58-2.246-.067-2.911-1.798-.726-4.423-.344-6.558-.344-1.678 1.801-1.287.394-1.568 2.816-2.55-1.227-1.746-.93-3.136-2.816 1.185-1.608 2.49-2.514 3.136-4.506-5.903.898.79-.551-3.705-.187l-9.155 2.213c-2.509.622-2.796.915-4.947 1.515-3.823 1.066-6.801.8-10.359 2.15-1.982.752-1.419 1.405-4.564.992-3.291-.432-1.658-.883-4.117-2.177l-6.614 2.008c-3.169.925-5.112.862-5.93 3.061 4.635 0 6.746-1.447 9.408-.563-3.065 3.289-18.594 8.557-24.314 10.695-2.019.755-2.817 1.254-4.954 2.074-3.339 1.28-8.116 2.745-9.932 4.693 5.847-.094 5.087-1.53 9.408-2.253-.778 2.094-2.438 2.723-4.937 3.775-2.606 1.098-4.241 1.93-6.664 3.099-9.711 4.684-23.453 11.661-35.244 12.98-4.101.459-5.573.28-5.682 3.804-3.3-1.255-3.136-.38-3.136-3.943-4.084-.066-5.156-1.233-7.84-2.254.567-1.747 1.001-1.631 1.568-3.379-5.72 1.097-3.429 3.572-3.253 5.145.165 1.473-.056 1.603-1.286 2.262-1.862.999-.086.053-1.667.522-.183.055-.404.092-.587.144l-4.265 1.486c-4.732 1.53-3.376.639-2.271 2.833-7.001 1.172-7.064 7.125-27.271 2.695-1.722-.377-2.002-.656-4.088-1.005-.568 1.526.262 1.086-1.802 1.603-1.262.317-3.008-.168-3.686-.477l-2.462 1.1c-.116.047-.339.12-.46.172l-.953.405c-2.61 1.282-4.06 3.141-6.22 4.662l-.812.569c-4.025 2.328-2.485-.119-1.637-2.401l-3.175-.536c-3.124-1.137 1.739-.1-2.313-1.154 1.172 1.592 1.857 1.712.784 3.38-.684.173-.834-.917-3.061 1.094-2.276 2.056-.809 1.722-5.563 1.722l-.929-5.619c-11.697.146-12.205 5.633-19.439 9.573-3.519 1.917-6.005 2.73-9.116 5.287-3.445 2.83-6.227 1.095-10.5 3.151.146-4.704 1.538-3.682 4.38-5.865 3.745-2.877-.029-4.7 4.336-6.461l16.029-7.635c4.977-2.728 10.829-4.279 15.451-7.487 3.7-2.57 6.525-4.421 11.203-6.033 2.782-.959 2.675-.401 3.481-2.569h.784l-.654-.657-.13.657-3.114 1.157c1.205-3.334 3.471-1.555 6.249-4.537-4.097-.322-.932.459-2.911-1.287-1.416-1.248.02-.843-2.576-2.092-1.025 3.159-4.567 8.135-10.192 6.196 1.117-3.007 3.586-2.063 4.704-5.07-2.834-2.778-2.611.707-3.92-2.816l-5.463.844c-2.322 1.059 2.242.556-2.377.846-.9-2.42-5.063-2.587-8.608-2.285-3.931.335-.883-.134-3.43.958-.202.087-.744.36-.949.445l-10.52 3.708c-2.465.52-3.642.488-5.643 1.577l-5.126 2.514c-.158.06-.374.121-.523.187-.145.064-.343.15-.477.22l-3.322 2.684c-1.57 1.172-2.752 2.095-4.522 2.947-3.426-.657-2.733-1.877-6.247-2.879-3.288-.937-9.412 1.61-7.938-2.297.389-1.033.346-.702.997-1.418 2.303-2.531 8.026-4.66 8.484-8.615-2.673 1.017-1.893.648-4.13 2.103l-11.781 7.307c-12.452 6.923-9.343 5.365-20.937 4.672.235-2.025 1.032-3.655 2.538-4.936 1.798-1.527 2.867-1.27 4.518-3.513-2.511.482-8.302 2.563-12.544 2.817 2.567-2.518 3.413-.65 8.846-5.474 1.536-1.363 1.495-1.017 2.13-2.975-.918-.985-.999-1.254-2.713-1.995-6.014-2.601-8.794-.762-12.183.868l-1.408-.781c-1.146-.82-1.262.034-.71-1.495.392-1.088 2.234-.516-.234-1.104 3.1-3.084-.554 1.023 3.316-1.555 2.282-1.52.73-1.67 3.765-2.933 2.385-.992 4.02-.657 8.291-4.746 2.572-2.462 2.8-4.368 6.72-5.873 2.494-.957 6.182-1.619 10.052-3.48l-6.617-4.823c-2.482-1.389-5.202-.829-9.847-3.064-1.71 2.323-3.952 4.324-7.84 5.07-.348-3.006-1.828-3.894-5.488-4.506-3.273 3.511-2.98 3.934-6.922 5.165-3.491 1.09-5.868 2.563-9.522 3.861-3.022 1.074-7.811 1.648-10.014 2.945-10.833 6.38-24.278 10.523-35.577 16.684-4.02 2.192-3.248 1.034-5.882 1.97-1.933.686-.975.345-2.642 2.608-4.279-.068-5.889-1.533-10.192-2.253-2.277 1.096-1.052 1.14-3.92 1.69 1.689 4.545 3.246 1.67-4.663 4.535-3.036 1.1-12.438 5.048-14.153 6.73 6.268 1.05 5.706-.807 10.976-1.69-1.439 1.544-5.322 3.44-8.088 4.329-7.661 2.463-3.453.243-7.592 4.684-11.529 0-2.721-2.395-12.005 2.077-1.808.87-11.925 3.86-15.435 8.626-5.82 0-5.608.245-9.408 1.69-6.068-2.92-2.282-1.28-5.488-5.633-5.26 1.813-4.703-.434-4.703 9.012-3.328.053-7.028 1.34-12.04 2.052-4.517.643-2.579-.562-3.641 1.328-4.445-.071-1.779.235-4.141-.967-1.368-.696.208-.05-1.303-.754l-1.546-.579c-3.42-1.307-1.545-.03-3.141-2.25-.822-1.142.017-.248-1.07-1.484-.464-.526-.761-.665-1.342-1.288 2.752-2.276 4.399-3.288 10.192-3.38l.783 2.253c1.16-3.575 7.252-5.457 1.568-8.45 0 2.37.29 2.971-1.568 4.507 0-2.542.93-6.524-3.327-5.735l-1.53.479c-4.657 1.525-20.933 13.12-25.725 14.853-3.68 1.332-4.588-.189-7.049.542-1.172-1.212-.115-.742-2.352-1.127 1.203 1.245.128.7 2.352 1.127-.448.28.698.895-2.036.643l-1.884-.643c-.748 1.12-1.126 2.014-1.568 3.38-2.549-.153-1.291-.147-2.84-.776-.147-.06-.325-.164-.47-.226l-6.098-2.942c-1.895 2.837.402 1.727-3.195 3.94-3.448 2.12-1.158 1.385-5.429 1.13V98.92l-3.105.632-.031-6.265c-1.359-.516-2.057-.636-3.302-1.007-6.873-2.047-.814-3.657-6.528-6.575-4.317-2.205-3.451-.718-5.59-3.307-3.016-3.652-4.957-5.296-13.615-4.366-2.374.255-6.83.515-8.84.999-1.992.48-4.982 2.117-7.144 2.205-3.141.127-.692-1.928-1.289-5.346-1.058-6.053-10.573-6.168-16.754-9.957-3.272-2.006-1.384-3.342-3.418-5.43-2.558-2.627-12.437-1.558-18.196-1.58-11.004-.04-9.918.963-13.573 1.354-1.732.185-1.602-.177-4.454-.223-3.632 3.897-3.513 3.357-7.762 6.252l-3.998 3.324c-5.185-.31-1.646-3.236-7.838 2.817-.991.968-2.09 2.239-3.519 3.105-.696.423-1.438.706-2.267 1.188-.907.527-.713.632-2.056 1.34-4.229-.254-9.62-2.14-11.773-3.934-3.798-3.166-3.578-4.516-11.746-4.516-4.565 4.897-1.371 2.825-.784 7.886-3.708-1.278-2.875.226-4.747-2.786-.077-.124-.134-.287-.212-.411-.077-.122-.149-.279-.23-.398a9.67 9.67 0 0 0-.261-.376c-.828-1.105.023.11-.943-1.012-1.033-1.2-.95-.805-1.447-2.34-10.177 0-13.82-3.02-16.618-3.883-5.764-1.775.673 2.65-8.47-1.75-1.419.683-2.656 1.464-3.92 2.254-2.031-.39-2.84-.982-4.704-1.69-2.75 2.95-9.048 5.609-11.305 7.086l-2.023 1.926c-2.74-1.318-1.867-1.925-5.624-1.316-3.017.489-3.75 1.127-6.92 1.316-.793-2.134-1.534-1.42-2.352-3.943-3.3 1.737-1.69 5.029 0 7.323-5.337-.327-2.974-.65-3.528-2.136-.292-.784-.078-2.121-4.312-2.934-2.864 1.379-1.497 1.541-3.92 2.817 0-3.106-.717-1.695-1.295-4.958-.289-1.627 2.19.06-.965-1.863-.838-.51-1.87-.805-3.228-1.065-3.343 10.308-9.729 8.606-15.789 14.567-2.703 2.66-10.55 10.177-14.648 9.634l-4.843-.544c-.363 1.12-.614 3.549-.784 6.796V419.5H1920V36.96l-4.1 2.688c-2.81-.1-.47-.148-3.74-.999-2.29 3.107-4.45 7.195-6.17 8.526-1.64 1.278-1.5-.211-2.45 2.74h-1.57c-.57-1.748-1-1.632-1.57-3.38-3.82.228-6.98 2.79-9.74-.327-.38-.435-1.15-2.626-1.2-3.119-.16-1.63.84-5.664 1.53-6.693-3.32.637-1.3.492-3.84 2.31-6.17 4.42-2.63 1.486-9 3.672-1.98.68-3.07 1.41-4.54 1.843-4.74 1.398-6.05-1.337-8.07 3.169-3.24 7.218-2.6 3.992-5.12 6.468.31.092 2.31-.358 1.09 2.914-.56 1.52-.94 1.94-2.14 3.09-1.88 1.8-4.35 2.944-8.36 3.008 1.24 3.84-.42 6.41-6.27 6.76-3.78-1.815-1.44-3.091-6.28-3.38.97 1.318 1.35 1.466 1.57 3.38-9.71 1.625-4.67-1.922-11.58-4.634l-2.56-.976c-1.88-.75-3.12-1.322-5.46-1.713 1.25 3.36 1.05.04 4.3 3.107 1.38 1.306 1.91 2.747 1.98 4.779Zm-776.16-32.107c-1.17-1.212-.11-.742-2.35-1.127 1.2 1.245.13.7 2.35 1.127Zm659.34 34.923.78-.563h.79l-.65-.657-.14.657-.78.563h-.78l.65.657.13-.657Zm-433.55-28.164.79-.563h.78l-.65-.657-.13.657-.79.563h-.78l.65.657.13-.657Zm354.37 27.6h.78l-.65-.656-.13.657c-1.92 1.01-1.69.767-2.35 2.817 2.03-.98 2.09-.574 2.35-2.817Zm80.75-64.776v-.563l-.92.469.92.094c.28 2.439.44 3.171 3.92 3.38-.26-2.266-1.23-2.864-3.92-3.38Zm-71.34 32.67h.78l-.65-.657-.13.657c-1.92.365-1.06-.25-1.57 1.127l1.57-1.127Zm-348.1-6.76h.79l-.66-.657-.13.658c-2.71.52-2.41.305-3.13 2.253 2.71-.52 2.41-.306 3.13-2.253Zm370.05 13.52h-.79l.66.656.13-.657 3.1-.632c-.66-.24 1.17-.79-1.46-.366-1.38.222-.86.228-1.64.998ZM515.87 29.072h-.784l.653.658.131-.658c4.027-1.047-.627.054 2.253-1.197 1.742-.757.486-.449 3.235-.493-3.17-3.108-7.919-1.312-10.192 1.127.355 0 2.164-.046 2.384-.024l2.32.587Zm1087.4 61.961h-.79l.66.657.13-.657c1.63-.312 2.79-.824 4.1-1.562 1.77-1.002 1.94-.991 2.17-2.944-3.8 1.83-4.02 1.445-6.27 4.506ZM1322.6 65.686h-.79l.66.658.13-.657c2.24-.385 1.18.085 2.35-1.127-2.29.394-1.13-.073-2.35 1.126Zm-23.52-.563c0-1.4-1.26-.144-.49 0 .01.002.49 1.598.49 0Zm310.46 19.715c.31-1.21-1.13-.38-1.06.114l.28.107c1.47-.066.48.943.78-.221Zm-570.75-26.474c-.03-.186-.86-.126-.93-.108-.2.053-1.36-1.303-.34.152.02.032 1.46 1.041 1.27-.044Zm15.68 2.253c-.03-.186-.86-.126-.93-.107-.2.052-1.36-1.304-.34.15.02.033 1.46 1.043 1.27-.043Zm693.05 23.095c.4-1.567-1.87.27-.77.22 1.46-.065.47.944.77-.22Zm-25.87-15.772c.4-1.566-1.87.27-.78.221 1.47-.066.48.943.78-.221Zm-68.99 13.518c.4-1.566-1.87.27-.78.222 1.47-.066.48.942.78-.222Zm47.04 1.127c0-.662-1.69-1.27-1.22 0 .48 1.273-1.99.015.37.167.98.063.85.978.85-.167ZM1464.5 20.06c0-.662-1.69-1.27-1.21 0 .47 1.272-2 .015.36.167.99.063.85.978.85-.167Zm137.98 67.593c0-.662-1.68-1.269-1.21 0 .47 1.273-1.99.016.36.167.99.064.85.978.85-.167ZM1920 35.327c-.21-.38-1.11.226-1.06.62.01.002.06.09.07.091.72.137.94.285.99.323v-.014c-.03-.055-.08-.207 0-.514v-.506Zm-664.83 5.012c.32-1.21-1.12-.381-1.05.114 0 .002.05.09.06.092 1.57.299.77.65.99-.206Zm260.29-21.405c-.81-.579-2.84.81-.91.304.02-.005 2.23.642.91-.304Zm128.57 65.34-1.56 1.69c2.06-.552 1.16.011 1.56-1.69Zm-323-2.253c.31-1.209-1.13-.38-1.06.114.02.12.69 1.325 1.06-.114Zm110.54 4.507c-.16-.643-1.72-1.232-1.05-.114.28.472 1.43 1.576 1.05.114Zm108.19-72.1c-.16-.643-1.72-1.232-1.05-.114.28.472 1.43 1.577 1.05.114Zm216.39 65.34c-.17-.643-1.73-1.231-1.06-.114.28.472 1.43 1.577 1.06.114Zm-85.46-5.633c1.2 1.245.13.7 2.35 1.127-1.23-1.278-.15-.658-2.35-1.127Zm69.78-15.208c1.2 1.245.12.7 2.35 1.126-1.24-1.277-.15-.658-2.35-1.126Zm-367.7 6.76c.55 1.646-.1.81 1.57 1.689-.51-1.544.32-.877-1.57-1.69Zm406.9-24.785c.54 1.646-.11.811 1.56 1.69-.51-1.544.32-.878-1.56-1.69Zm-136.42 35.486h-2.35v.563h2.35v-.563ZM1392.37 56.11h-.78v1.69h.78v-1.69Zm38.42-7.322h-.78v1.69h.78v-1.69Zm339.47-29.29h-2.35v.562h2.35v-.563ZM1490.37 47.66h-.78v1.69h.78v-1.69Zm-70.56.563h-.78v1.69h.78v-1.69Zm205.41-33.796h-2.35v.563h2.35v-.563Zm-88.59-.564h-2.35v.564h2.35v-.564ZM1410.41 51.04h-.79v1.69h.79v-1.69Zm268.91 2.253h-.79v1.69h.79v-1.69Zm139.55.564h-2.36v.563h2.36v-.563ZM1655.8 23.44h-2.36v.563h2.36v-.564Zm85.45 41.682h-.78v1.69h.78v-1.69ZM816.139 69.63c-2.291.395-1.129-.072-2.352 1.127 1.375-.237 2.101-.07 2.352-1.127Zm480.591-23.657c-2.3.394-1.13-.073-2.36 1.126 1.38-.236 2.11-.07 2.36-1.126ZM794.972 79.205c-2.293.395-1.13-.072-2.353 1.127 1.375-.237 2.101-.071 2.353-1.127Zm38.415-33.233c-1.732.865-.974.092-1.568 1.69 1.297-.648 1.508-.12 1.568-1.69Zm582.503-1.127c-1.73.865-.97.092-1.56 1.69 1.29-.647 1.5-.12 1.56-1.69Zm211.68 30.98c-1.73.866-.97.093-1.57 1.69 1.3-.647 1.51-.119 1.57-1.69Zm-1289.666 3.38c-1.732.865-.974.093-1.568 1.69 1.297-.647 1.508-.12 1.568-1.69ZM94.083 62.307c-1.733.865-.975.092-1.568 1.69 1.297-.648 1.508-.12 1.568-1.69ZM1605.62 86.528c-1.73.865-.97.093-1.57 1.69 1.3-.647 1.51-.12 1.57-1.69ZM536.255 43.156c-1.733.865-.975.092-1.568 1.69 1.297-.648 1.507-.12 1.568-1.69Zm689.125-5.633c-1.73.865-.97.092-1.56 1.69 1.29-.648 1.5-.12 1.56-1.69Zm161.51 26.474c-2.44 1.263-2.44.426 0 1.69v-1.69Zm29.79-23.095c-2.44 1.264-2.44.427 0 1.69v-1.69Zm240.68 43.936c.36-.257 1.84.053.02-.691-.78-.32-1.93-.1-.98.703 1.23 1.04.43.373.96-.012Zm-30.57-29.853c-2.36.453-1.72-.007-2.35 1.69 3.15-.82.11.468 2.35-1.69Zm205.4-2.254v1.127h2.36c-1.24-1.278-.15-.658-2.36-1.127ZM1328.87 73.01h-2.35c1.2 1.245.13.7 2.35 1.127V73.01Zm307.33-28.727c-2.3.394-1.13-.072-2.36 1.127h2.36v-1.127Zm-821.628 4.506c-2.292.394-1.129-.072-2.352 1.127h2.352v-1.127Zm-16.464 29.29c-2.292.395-1.129-.072-2.352 1.127h2.352V78.08Zm954.122-21.404h-1.57c.55 1.647-.1.812 1.57 1.69v-1.69Zm-32.15 19.715c-.18.297-2.48.349 1.57 1.126-.42-1.127 1.01-.227-.63-1.155-1.36-.772.12-.347-.94.029Zm42.34-24.784h-2.35v1.126c1.37-.236 2.1-.07 2.35-1.127Zm-337.12 20.84h-1.57v1.69c1.3-.647 1.51-.119 1.57-1.69Zm156.8-6.195h-1.57v1.69c1.3-.648 1.51-.12 1.57-1.69ZM1283.4 40.34c-.79.152-3.03.078-1.57 1.126.84.605 1.51.489 1.57-1.126Zm338.85 5.753-2.52-.12v1.69l2.52-1.57Zm85.29 19.031c-3.18.532-2.36.151-3.14 1.69 2.56-.973 1.55-.046 3.14-1.69Zm-733.034-6.76c-3.641.219-1.371-.603-3.136 1.127 1.844-.11 2.854.06 3.136-1.126Zm136.414-5.069c-2.41 1.268-1.26-.363-1.57 2.254 2.01-1.056 1.57.194 1.57-2.254Zm672.67-15.208c-2.41 1.268-1.27-.363-1.57 2.253 2-1.056 1.57.195 1.57-2.253ZM1335.93 71.32l-3.11-.632c.69.842 2.68 2.827 3.11.632ZM969.802 58.364c-2.362.453-1.721-.008-2.352 1.69 1.79-.344 2.292-.129 2.352-1.69ZM716.573 66.25c-2.853.477-2.514.31-3.92 1.69 2.752-.461 2.585-.31 3.92-1.69Zm693.837-12.393h-1.57v1.69h1.57v-1.69Zm-275.19-1.126c-2.82.542-2.09.051-2.35 2.253 2.17-1.143 1.06-.376 2.35-2.253Zm-134.06 2.253c-.5.417-.59.13-1.05.931-.771 1.313-.332.297-.516 1.885 2.156-1.136 1.566.04 1.566-2.816ZM786.348 64.56c1.765 1.73-.505.909 3.136 1.126-1.489-1.598-1.099-1.731-3.136-1.126Zm637.382 10.139v2.816c.07-.052 1.12-.308 1.31-1.33.27-1.44-.03-.816-1.31-1.486Zm340.26-26.474v2.816c.96-.507 1.26-.183 1.34-1.132.12-1.418-1.33-1.676-1.34-1.684ZM1259.1 37.522l-3.12 1.158c.57.728.41.591.76 1.659l2.36-2.816ZM1724 77.516v1.127h3.14c-1.77-1.737.51-.904-3.14-1.127Zm-301.83-26.474h-1.57c.3 2.616-.84.985 1.57 2.253v-2.253Zm8.62-5.07h-1.57v2.254c2.01-1.056 1.57.194 1.57-2.253Zm25.09 29.291c-2.74.525-1.76.214-3.14 1.69 2.26-.135 3.07.013 3.14-1.69Zm152.09-37.74c-2.03 1.07-1.66 1.262-2.35 3.38 2.03-1.07 1.67-1.262 2.35-3.38Zm-259.5 27.6c-2.36.454-1.72-.006-2.35 1.691h2.35v-1.69Zm176.4-3.942c0-1.586-.34-1.043-1.57-1.69v2.817c.7-.282 1.57-.367 1.57-1.127Zm-211.68 14.645h-3.13v1.69c2.55-.972 1.54-.046 3.13-1.69Zm126.22-7.885h-.78c0 2.993-2.4 1.705.78 3.38v-3.38Zm205.41-10.703-2.52 1.57c3.42 1.201 3.23.555 2.52-1.57Zm-402.19-3.943c-2 .962-2.45.966-3.13 2.817 2.61-.992 2.35-.41 3.13-2.816Zm311.25-45.062c1.38 1.356 1.57 1.502 4.7 1.69-1.38-1.355-1.57-1.502-4.7-1.69Zm203.05 4.506h-3.92v1.127c2.09-.034 3.61.181 3.92-1.127ZM983.914 57.801h-3.919v1.126c2.089-.033 3.608.182 3.919-1.127Zm846.716-2.817c-3.09.516-3.19.62-4.71 2.253 3.09-.516 3.18-.62 4.71-2.253ZM1624.44 79.77c-.1.157-1.79-.184.17 1.05.91.572.64.851 1.62.147 2.07-1.492-.18-1.16-.2-1.169-1.49-.992-1.15-.177-1.59-.028Zm-314.38 1.69h-1.57v2.816h1.57v-2.817Zm427.27-7.323c-3.71.06-3.08-.573-3.92 1.69 2.83-.17 2.83-.244 3.92-1.69Zm-384.16-7.323c-2.77.532-2.41.6-3.13 2.817 3.65-.701 1.52-.404 3.13-2.817Zm-36.06 5.07c-3.27 1.575-1.55 1.002-3.13 3.38 0-.002 1 .227 2.28-1.172.94-1.024.67-.647.85-2.208Zm333.98 10.702c.41 2.688-1.07.95 2.35 2.253.58-1.94 1.22-2.04-2.35-2.253Zm-362.2-45.625c-2.54.486-4.21 1.439-5.49 2.816 3.26-.547 3.87-1.08 5.49-2.817Zm28.22 33.233c-3.64.058-3.89.069-4.7 2.253 2.41-.463 1.58-.307 4.28-1.993.08-.053.28-.173.42-.26Zm-50.17-35.487c-2.4.4-1.9.673-3.92 0-.62 1.667-.32.914-1.57 2.253 2.63-.44 4.12-.91 5.49-2.253Zm284.58-24.784c-.39-.501-.51-1.127-1.56-1.127-2.17 0-1.89.435-2.36 1.69 1.66-.026 3.11.1 3.92-.563ZM820.844 57.238c-2.081-.718-.839-.514-3.92-.564.281.845.172 1.69 1.568 1.69 1.417 0 2.151-.282 2.352-1.127ZM1205 39.775c-1.77 1.463-2.28 2.056-2.35 4.506 2.6-2.147 2.35-1.778 2.35-4.506Zm137.98 19.151c1.38 1.356 1.57 1.503 4.71 1.69-1.65-1.765-1.98-2.594-4.71-1.69Zm159.94-9.575c-2.06.988-1.62.285-2.35 2.253.01.01 1.46.563 1.56.563 4.09 0 1.17-.284.79-2.816Zm-386.51 4.506h-1.57l-1.68 3.917c2.55-1.145 3.16-1.097 3.25-3.917Zm566.04 9.013c-.36.172-1.34.49-1.91.88-1.24.848-.6.13-1.22 1.372.94.566 4.51 2.002 3.13-2.253Zm-389.64-25.912c-3.27.547-3.87 1.08-5.49 2.817 2.26-.135 1.94-.06 3.54-.837 2.15-1.044 1.38-.46 1.95-1.98Zm253.23 12.393c-4.57-.786-3.69-1.2-5.49.563 2.31.386 2.39.563 5.49.563v-1.126Zm145.82 24.22c-2.8.47-5.58 1.364-7.06 2.817 4.07-.243 5.29-.916 7.06-2.816Zm-379.45-24.22c-2.69 2.636-2.23-.6-2.36 3.38.13-.06 2.37-1.043 2.43-1.078 2.31-1.346 1.2.242 1.5-2.302h-1.57l1.84-1.65c.92-1.714-1.1-2.4-2.17-7.125-1.17-5.125-1.77-7.095-9.08-5.87v1.126c3.47.056 4.17.587 6.39 4.984 1.66 3.287 1.45 4.012 1.45 8.535h1.57Zm-209.33 3.38c-4.06 0-3.04-.503-4.7 1.126.39.501.51 1.126 1.56 1.126 2.32 0 2.71-.953 3.14-2.253Zm565.26-32.67v-.564c-4.88 0-7.62 1.237-8.62 3.943 2.32-1.12 5.04-3.38 8.62-3.38Zm-460.99 3.942c-2.12 0-2.16.269-3.92.563.56.281.34.333 1.45.653 1.31.382.59.236 1.81.39 1.37.171 3.16.084 4.58.084-.9-.888-1.82-1.69-3.92-1.69Zm41.55 21.405c-2.79 1.346-3.05 2.392-3.92 5.07 2.26-.434 1.96-.388 2.95-1.826.82-1.194.92-1.583.97-3.244Zm179.54 37.176c-3.37-.201-1.42.08-3.92-1.126-.06 1.716-.36 2.053-.79 3.38 3.55-.057 3.98-.075 4.71-2.254Zm399.83-41.682c-.73-1.968-.29-1.265-2.35-2.253-2.97 1.43-3.56 3.078-1.07 3.055.01 0 1.3-.672 3.42-.802ZM1281.83.346c-3.94.063-3.83.637-3.92 3.38 3.35-.561 3.83-.454 3.92-3.38Zm617.79 28.728c.21 1.86 1.02 3.38 1.57 5.07h1.56c0-3.064.31-4.41-3.13-5.07Zm-171.7 43.372c-1.74.335-2.35.132-2.35 1.69v2.817c4.93-.295 2.35-.81 2.35-4.507ZM839.659 35.833c-1.495-2.967-2.114-.905-7.84-.563v1.126c.602-.036 2.605-.308 2.609-.309.94-.039 4.1.738 5.231-.254Zm929.811 19.152c-1.79-1.929-1.89-1.747-4.7-2.817v4.506c1.86-.708 2.67-1.3 4.7-1.69ZM1303 93.288v1.69h-3.92l3.12-1.138c.12-.058.33-.211.42-.261.09-.05.25-.195.38-.291Zm268.91-18.589-6.27 2.817 10.53-2.01c3.36-.874.85.534 2.79-1.37l-7.05.563Zm-129.36-1.126c-3.61.692-3.14 1.17-3.14 4.506 0 1.586.34 1.043 1.57 1.69.89-2.734 1.57-2.546 1.57-6.196Zm384.94-14.646c2.96.983 1.49 1.05 3.14-.563-2.46-1.476-5.48.366-7.06 1.127 1.05 1.566.78 1.09.78 3.38h1.57c.37-3.212 1.2-.732 1.57-3.944ZM753.42 45.41c0-3.033-4.375-2.817-8.624-2.817l2.458 1.051c.989.154 2.742.076 3.814.076.922 3.128-.597 2.638-1.568 5.633 1.596-.768 3.92-2.078 3.92-3.943Zm915.7-19.152c-.68-1.842-1.96-2.44-3.92-3.38-3.35 1.158-2.94-.37-3.92 2.254 3.61.604 5.11 1.832 7.84 1.126ZM1508.4 57.801c-.99-1.495-.71-.603-.78-2.816a72.431 72.431 0 0 0-3.63 1.899c-1.96 1.08-2.05 1.354-2.64 3.17 4.32-.069 4.55-1.046 7.05-2.253Zm167.78-39.43-6.27.564c2.76 1.26 7.9.653 7.84 2.253-.07 1.623 6.46 1.884 3.24-1.14-1.2-1.125-2.18-1.676-4.81-1.676ZM1332.79 74.7c-2.75.528-1.69.224-3.18 1.661-.91.887-1.53 1.543-2.64 2.607-1.88 1.805-3.62 2.981-4.37 5.308 3.19-.19 1.87.348 3.45-1.466l4.61-5.136c1.48-1.416 1.46-.904 2.13-2.974Zm-518.218-3.38c-5.291.886-7.88 2.254-12.106 4.258-2.346 1.113-2.059.536-2.79 2.502 3.026-.506 12.683-4.385 14.896-6.76Zm907.078-11.828c-1.81 0-4.17.779-5.98 1.339-2.57.8-2.86 1.16-4.21 2.604 1.7-.326 7.68-4.306 12.79-.144 2.97 2.417-2.1 1.52 2.89 1.833-.43-3.715-5.42-5.632-5.49-5.632Zm-980.773-2.254c-5.732.343-16.043 5.19-18.032 7.323 3.529-.59 16.281-5.444 18.032-7.323Zm809.083-10.702c-2.04-1.994-3.64-1.074-4.71-3.943h-2.35l-.78 4.507c4.82 1.835 3.08 1.246 7.84-.564Zm-19.6 1.127c0 2.02 2.94 2.998 3.92 5.633 4.08-.784 3.71-3.891 3.15-4.505-.85-.92-7.07-3.225-7.07-1.128Zm58.8-10.703c-1.38-1.475-1.96-2.335-3.14-3.942l-4.68.648c-.03 4.668.39 3.252-.81 4.984 4.24 0 2.24-.018 5.7-.975l2.93-.715Zm-555.85-1.69c-2.34.038-2.75-.109-5.65 1.58-1.59.93-2.69 1.775-3.76 2.927 8.07-1.351 5.9-.68 13.33.563-1.06-2.838-2.76-1.472-3.92-5.07Zm741.65 24.785h4.71c-1.37-1.34-1.64-1.69-8.63-1.69-4.63 0 2.81 1.172-3.96.534-.05-.005-2.31-1.142-2.31 1.72 0 1.963 3.67.562 5.49.562 2.95 0 1.48.371 4.7.564v-1.69Zm-396.7-.563c0-2.087-.76-2.545-2.35-3.38-.18 1.52-.37 1.532-.78 2.816-2.32-.444-1.27-.229-3.14-1.126 0 6.403-2.35.85-3.92 5.07.69.273.14.213.96.273 7.35.534 6.54-.52 8-2.281 1.06-1.273 1.23-.397 1.23-1.372Zm-554.28 3.943c-4.438.07-7.229 1.847-10.447 3.196-2.458 1.03-7.81 3.373-9.153 4.69 3.266-.196 12.841-3.619 15.855-4.944 2.223-.977 3.018-.987 3.745-2.942Zm27.44-5.07c-2.716-.936-5.867.313-8.734 1.048-6.997 1.793-6.969 1.41-7.73 3.458 3.402-.054 6.96-1.149 10.192-1.69-.9 2.701-.534.876 0 1.69 7.166-1.365-.353.344 4.584-2.865l1.688-1.64Zm765.96-30.417c-8.25-1.256-2.66 3.625-10.19 5.07 1.04 1.566.78 1.09.78 3.38 4.22-.253 4.14-.903 5.77-3.18 1.46-2.05 3.37-2.928 3.64-5.27Zm8.62 42.81c3 0 .6.818 5.49 0-1.07-3.3-.94-1.227-3.13-3.38-6.27 2.38-9.93 1.145-14.12 5.632 5.91-.094 9.35-2.253 11.76-2.253Zm-52.52-30.418c3.67-1.266 3.25.5 5.48-1.69-3.05 0-6.23-.15-9.22.16-4.98.517-3.79-.16-8.81-.16 0 6.64 4.48 2.817 6.27 2.817 5.46 0 3.54-.188 6.28 1.126V40.34Zm62.72-18.025c-2.67-.16-2.87-.43-4.71-1.126-.52 3.418.64.475-3.81 2.892-1.93 1.04-2.41 2.743-2.14 4.313.37 2.153.57 1.939 2.82 2.37 1.23-3.803 6.63-5.199 7.84-8.449ZM1422.17 74.7l-2.64.362c-.14.05-.36.164-.48.217l-2.4-12.39c-.01-2.56-.57-11.52-1.54-12.973-1.88.545-.75-.228-1.73 1.056-1.25 1.65 1.47 10.338 1.74 14.708.39 6.212.64 12.22 2.34 17.47 3.21-1.668-.67-.557 1.15-4.199.64-1.273 2.72-2.003 3.56-4.25Z" fill="#001C54"/></svg>