<svg width="1920" height="819" fill="none" xmlns="http://www.w3.org/2000/svg"><path fill-rule="evenodd" clip-rule="evenodd" d="m1911.21 477.385-6-5.908c-2.61-3.148-1.79-3.272-5.61-6.305-10.1-8.026-5.02 3.003-16.83-6.765 3.29-7.13.55-.501 2.86-2.06 3.82-2.573-.37 4.399 3.23-2.32-27.1-9.343-39.36-5.016-38.94-12.661.41-7.435 3.68 3.489.34-1.938-5.53-6.865-11.34-.986-17.74-9.158-1.04-1.336-8.71-18.828-29-20.04 1.66-2.122.99-1.546 2.03-4.38l-8.06-3-.06 8.84c5.37-1.025 1.67.116 6.09-1.46 1.94 3.443.16.616 4.71 3.916 8.11 5.869 20.38 16.77 19.76 25.156-1.08 14.577-13.35 15.393-14.87 24.231-.94 5.486 4.04 6.757-3.36 9.737-8.61 3.469-15.43-2.08-18.25-3.147l-4.4-1.157c-7.02-2.533-2.99-4.748-12.03-9.1 0 7.745-.1 8.621-2.03 14.6-11.43-3.941-5.33 1.615-8.54-5.549-1.28-2.859-1.62-7.573-1.62-11.97-6.77 3.561-4.07 1.501-4.07 18.978-14.74 5.604-10.6 10.191-13.42 18.519-.58 1.712-9.68 15.586-19.68 17.555l-25.82 3.344c-.94-6.169 2-4.381-10.16-4.381 0-9.002-3.27-5.877-6.1-14.598l-4.32 5.656c-2.75 2.978-.83.469-2.68 2.469l-7.22 13.773-5.87-5.999c-2.27-3.54-2.16-5.415-4.29-8.6-8.89 4.679-1.7 2.6-10.16 11.679-8.7 0-11.22-1.675-19.46-.942-6.88.612-12.84 1.747-19.32 2.297-29.08 2.473-16.3-1.789-25.32-1.694-3.58.038-4.43 1.026-9.04 1.799-1.61-2.324-2.09 2.685 0-4.38-9.72 5.115 1.29 4.38-18.29 4.38 2.16-2.932 1.74-2.628 4.71-5.372 4.15-3.823 3.42-.839 5.45-6.307-8.67 3.296-8.74 5.425-15.36 8.05-10.41 4.128.54.389-7.47.133-7.14-.228-1.24.418-9.68 2.036v-7.3c-12.5 2.399-.89 6.381-16.26 7.3 3.96-4.24 4.11-1.959 6.1-7.3l-8.13-1.459c12.18-2.336 19.51-10.101 0-17.519-2.72 4.741-.1 8.031 2.03 14.599-14.19 1.116-.72.999-7.38 2.918-4.94 1.421-7.9-.895-13.74-5.251-7.68-5.717-4.01 1.989-5.29-6.426h-24.38c-5.74 4.76-10.85 10.35 0 16.058 1.91-2.916-2.88-2.049 6.09-11.678 13.06 0 21.74 4.565 24.39 11.678-9.14.718-5.1-2.184-6.1 4.381-18.09-1.083 1.58-4.598-14.22-5.84-3.72 5.773 5.7 10.849-5.92 11.788l-1.73-.006c-.18.027-.72.125-.91.167-6.64 1.511.89 2.014-9.73 2.649l-1.56-4.802c-1.51-2.025-4.71-3.882-6.57-5.417l-4.24 7.173c-.2.31-.44.689-.63 1.003l-3.07 5.098c-1.32 1.717-2.46 2.332-4.25 4.245h-14.22c-1.75-5.414-3.74-4.548.59-9.669 3.28-3.874-.13 3.679 3.47-3.47-9.34 1.563-8.77.297-14.63 7.005l-5.03 6.604c-.14.209-.38.682-.65.99-1.43-3.864.16-1.201-2.04-4.38 2.06-1.958 2.04 3.071 2.04-4.38h-2.04v4.38h-4.06c.74-6.368.35-3.131 5.19-7.951.88-.879 2.82-2.997 3.22-3.529 11.06-15.033 6.47-4.24 22.07-10.418-1.06-9.148-5.06-3.427-8.13-11.679h-4.06c-3.93 12.122-12.25 5.149-16.26 4.38 1.83 2.835 2.07 5.564-2.23 9.998-4.85 4.992.05.582-5.7 3.28-4.05 1.899.48-.95-3.65 1.76l-2.64 2.481-3.66-3.212c-8.45 4.162-8.49 7.29-12.59 13.431l-18.29-7.299v7.299h-10.16c1.84 2.663 1.57 1.826 2.03 5.84-10.77-3.715-15.9 3.612-34.63 11.617-.52.224-1.92.937-2.47 1.143-6.34 2.39 4.1 1.14-7.6 1.839 8.46-9.079 12.72-7.529 24.38-13.139-2.48-3.376-1.82-2.413-4.98-5.226-2-1.775-3.4-.013-4.51-5.515-1.62-8.013 5.07-1.037 5.43-12.617-6.91-1.157-28.63-4.527-35.38-3.886l-10.07 1.787c-8.34 1.994-6.28-2.182-7.38 5.019-9.7 0-8.42-.992-16.25-1.46l2.28 5.783c-10.96.236-16.73 3.944-25.22 5.046-9.06 1.176 2.84-.308-5.73.027-6.06.236-4.66.277-9.94 2.284.46-1.417 1.45-4.621 2.13-5.771 2.82-4.813 12-7.31 18.19-10.288-4.52-8.042 5.28 7.975-3.68-3.206l-1.31-4.66c-.23-9.642-.09-1.457-3.14-9.653-5.75.344-13.87 2.859-18.28 4.38 1.76-5.985-.91-4.194 2.03-8.759-6.9-.413-7.44-1.113-12.19-2.92-1.71 1.828-10.02 9.339-12.23 10.194-11.77 4.556-12.68-3.591-16.22 7.324h-4.06c-3.43-10.575 8.17-16.604 22.35-18.978-1.79-4.82-5.49-7.472-12.19-8.759-2.95 7.937-4.94 4.528-15.25 6.602-14.86 2.991-2.46 3.163-19.3 2.157-1.31-11.378-7.18-7.898-8.12-16.059-6.94 3.653-2.03 2.194-2.03 11.679-1.05.362-4.14 1.422-5.54 2.071-.3.136-.8.452-1.08.584l-3.18 1.42c-3.06.97-3.28.137-4.43 3.225-13.6 0-17.77-3.62-30.48-4.38-5.31 3.621-6.07 5.666-10.7 9.829-4.93 4.436-6.13 6.076-15.71 6.229-.6-5.162-3.73-7.902-8.13-10.219 2.52-6.782 3.2-1.291 4.07-8.759-8.11-.13-7.53-.674-12.2-2.92 0 7.618.34 9.195-3.53 14.977-1.56 2.322-.49.477-1.9 3.019l-1.57 3.25c-.15.293-.43.825-.56 1.061-.12.235-.28.734-.56 1.051 4.74 4.652 3.38 1.188 8.12 5.84-9.91 2.784-1.03-2.524-7.37.671-.22.11-.67.434-.9.568l-1.99 1.386c-5.03 3.163-8.94 4.926-16.15 6.134-1.56-4.203-3.34-3.808-7.71-6.136l-3.22-2.071c-4.9-4.588 1.81-6.18-11.419-6.391 6.779 7.271 2.967 8.757 3.929 16.38.5 3.918 2.5-2.493.14 5.517l-14.134-3.123-2.434 8.914c-10.076-.572-4.714-1.989-13.915 1.509v-5.84c-5.901 2.84-2.727 2.954-10.16 4.38 3.953-4.24 4.111-1.959 6.096-7.299-23.495 8.1-40.808 7.255-55.158 11.465-2.865.839-4.758 2.26-9.51 3.448-14.48 3.62-13.12.74-20.669-3.234-4.461 2.785-4.538 3.921-12.191 4.38 10.302-15.428 11.823-4.211 12.191-16.059-12.001 2.303-.904 4.744-14.223 7.299-12.966-2.487-2.871-4.757-14.223-10.219-4.239 6.349-.219 4.738 2.032 11.679-15.951-2.67-15.242.71-28.446 2.92 1.115-3.437 1.894-4.312 2.032-8.76-2.228 1.841-3.687 3.686-6.096 2.92 0-6.468-.03-10.76 2.682-15.591 2.626-4.677 7.089-5.855 11.541-9.227-1.079-3.328-1.575-3.357-2.032-7.299h-4.064c-.675 5.838-1.205 6.185-6.095 8.758 0-7.588-4.34-21.031 10.159-21.898v-7.299c-7.94-1.524-6.401-4.285-8.576-11.357-1.509-4.907-2.676-9.716-4.172-15.98-1.032-4.316-2.342-9.385-3.719-14.847-1.663-6.6-5.171-8.606-5.883-14.752h-4.064c0 17.092 8.128 20.084 8.128 43.796-10.622-1.778-3.467-.643-14.223 0 1.448-4.464 3.162-5.611 6.096-8.759-22.382 0-22.297 5.602-28.722 20.24-5.267 12.002-5.79 18.642-22.074 26.477-9.011-13.493-11.458-9.208-31.3-10.861-6.44-.536-7.645-1.84-9.337-5.198h-4.063c-2.521 6.782-3.199 1.291-4.064 8.759-31.47-10.849-28.432.586-46.068 10.697-12.441 7.133-31.314 19.671-39.928 17.674-.432-.1-.989-.315-1.397-.437l-4.041-1.656c-.22 7.125-.327 11.091-10.159 11.679 0-5.763-.639-5.924-2.031-10.219l-9.383 3.478c-.389.159-.904.372-1.28.54-7.37 3.306-16.058 9.286-24.836 11.354-8.641 2.036-7.391.6-15.298 3.607v-5.84c-7.385 1.417-3.572.831-8.727 3.949-5.618 3.397-3.202.569-7.528 4.81 2.739 1.106 2.246.799 6.096 1.46-4.656 4.633.123 1.657-12.191 1.46-.785 6.781 2.179 2.554-4.063 5.84 1.767-5.451 3.387-6.926 8.669-11.29l8.137-5.833c.33-.191.834-.436 1.162-.625 4.849-2.796-1.027 2.613 4.381-2.691-1.984-5.34-2.144-3.059-6.095-7.3 5.328-1.022 3.719-.298 7.959-5.959 4.615-6.164 8.092-7.954 8.295-14.479l-20.624 14.38c-2.629 1.424-1.306.746-3.758 1.679-1.422-4.268.262-2.104-4.063-4.38 13.463-18.282 17.463-18.008 30.955-24.475 4.777-2.289 2.013-2.495 11.713-6.182-1.393-4.296-2.032-4.456-2.032-10.22-14.889 7.164-18.171 17.094-44.701 17.519 6.285-6.743 14.872-6.338 20.319-11.679-10.677.639-9.878 3.683-18.64 4.371-13.248 1.041-10.322-3.438-13.869-8.75-11.84 5.696-1.675-1.671-20.319 7.299.468-4.035 13.472-22.283 18.287-24.818 7.839 5.343 1.466 3.286 6.096 10.219 7.961-.476 14.041-2.17 18.898-5.401 3.367-2.24 9.14-8.039 11.58-10.658-6.592 1.265-14.779 7.341-22.35 10.219-1.401-3.793.753-1.628-4.064-2.919 1.645-5.072 8.626-13.395 14.223-30.658-4.668-2.246-4.084-2.79-12.191-2.92 1.837-2.663 1.567-1.826 2.032-5.839-11.91 4.105-14.064-1.07-18.287 0-8.862 1.699-10.608 6.864-19.369 9.568-11.929 3.682-16.606-.984-23.3-2.269-9.024 9.682-12.464 5.232-24.283 8.831-4.93 1.501-1.255 1.511-8.227 2.849 4.095-35.359 42.855-26.435 48.764-42.337-9.777 1.636-15.179 5.133-22.763 8.579-8.778 3.988-4.957 1.239-10.982 2.639-4.297.999-7.492 3.26-10.441 5.202-12.396 8.159-34.273 17.797-39.119 22.997 15.724-2.632 21.601-12.116 34.541-14.599-10.653 14.465-8.348 12.493-22.668 17.398l-11.218 3.137c-.065-.004-.445-.15-.655-.097-4.86 2.712 1.02 5.407-25.018 17.063-6.52 2.918-4.856 3.551-11.556 4.835 8.976-12.187 13.228-7.913 16.255-16.058-6.498 3.126-1.423 2.397-10.159 2.919.464-4.003 2.349-8.886 3.86-11.882l2.235-10.016c.636-5.502 5.152-8.076 7.861-13.33 3.51-6.81 3.353-8.129 9.227-13.809 10.665-10.311 12.335-12.506 18.683-25.993 3.427-7.28 21.919-30.731 30.31-38.078 9.731-8.521 10.891-1.851 17.224-8.063-25.34 0-25.079 12.961-44.132 26.686-15.384 11.081-10.356 1.492-30.209 22.092l-18.652 17.255c-23.069 20.178-18.687 11.995-25.696 15.542-2.171 1.098-3.362 3.014-4.935 4.72-11.091 12.027-10.312 4.37-26.692 7.05-15.236 2.494-19.357 3.008-38.645 3.008-19.006 25.81-30.319 18.528-42.254 26.576-19.265 12.99-4.701 13.815-51.211 21.6 3.43-3.68 6.478-6.59 8.128-11.679h2.032l-1.693-1.703-.339 1.703c-5.272 2.775-3.585 3.293-8.593 6.965-3.733 2.739-7.607 4.193-11.726 6.174.718-6.191 4.205-10.226 6.097-16.059-6.946 3.342-7.073 11.28-14.223 13.139-7.013-10.5 22.643-38.007 26.414-49.636-12.631 2.423-22.224 16.716-26.637 24.659-2.856 5.142-2.542 6.895-11.969 7.459.816-7.044 4.521-9.704 8.128-14.6-8.889 2.312-9.338 9.981-14.06 14.717-3.407 3.417-5.204 2.976-8.733 5.404l-24.405 20.422c-5.675 6.574-3.747 11.458-15.79 13.473l-1.983-3.28c-.192-.336-.827-1.401-1.03-1.801-1.65-3.25-2.688-6.118-3.081-9.517-6.917 2.384-11.014 2.154-14.465-2.834-2.354-3.401-1.036-9.789.126-11.144 5.49-6.401 13.752-5.53 8.243-22.52h-4.064c-1.566 4.833-5.45 9.2-10.159 11.679-7.423-3.572-3.88-3.994-10.159-7.3 0 10.679 1.307 5.342-6.6 9.857-11.326 6.468-9.148 14.189-27.348 11.765-7.92-1.055-7.137-2.223-18.856-2.66-21.875-.818-18.554-3.805-35.683-6.551-20.034-3.213-18.119 4.762-36.205 2.883-13.217-1.373-24.73-1.239-37.862-3.61-68.412-12.354-38.016-3.649-79.075-7.43-17.108-1.576-18.448-12.975-18.448 10.345-7.89 2.72-16.495 2.92-28.445 2.92l10.2-2.891c7.641-1.654 6.032-.402 10.118-4.409-7.561 0-22.011.585-27.795 2.134-20.789 5.566 15.689 6.623-8.777 8.085l-4.064-7.299c-3.64 9.795-8.576 10.725-20.319 8.759-2.426-3.771-1.444-2.846 0-7.3-15.318.917-2.707 1.52-7.825 7.574-6.977 8.254-31.414-6.079-49.067-9.033v-4.38c8.005-1.34 12.023-1.689 16.255-5.84-13.134 0-14.387-2.836-20.905-1.844l-25.828 1.844c-1.13-9.762-11.368-5.578-20.936-4.733-10.877.96-14.588-2.387-25.796-2.566-.552 17.805-26.49 13.235-32.51 13.139-1.198-10.35-9.043-9.345-10.159-18.979-8.058 4.242 3.324 18.43 4.064 24.818-34.992 12.064-44.255-4.534-56.026-2.018-1.387.298-5.19 2.525-7.015 3.372-3.025 1.405-5.141 2.002-8.315 2.854-8.467 2.273-32.456 10.07-30.27-3.953 1.032-6.62 10.326-8.83 3.46-11.045-4.291-1.384-8.495 2.943-17.65 3.491v-7.3c-18.594 0-35.403 15.684-52.828 7.3-.838 7.23-4.987 10.919-12.56 12.97-6.08 1.646-6.059.629-8.865 1.632-.035.012-6.381 3.478-8.873 4.467-11.739 4.658-13.774 1.095-25.225 3.813-3.106.737-17.413 5.557-20.847 6.919l-29.547 10.889c-16.025 4.978-36.115 14.951-52.567 17.705 3.951-4.239 4.11-1.959 6.096-7.299-5.188-1.788-.556-.317-5.734-.999l-4.426-.461c2.342-6.303 11.311-7.834 16.255-13.14l-67.052 24.819c-1.494-4.609-2.569-9.991-4.063-14.599-8.424 4.371 11.314 13.088-19.583 23.888-12.207 4.267-22.024 5.863-34.799 2.05-5.607-1.674-4.793-1.469-6.573-6.96-9.552.599-4.993-2.171-4.064 5.84h-6.095c-3.086-6.687-2.169-.899-3.8 1.269-3.953 5.258 3.129 3.881-8.392 4.57-1.723-5.312-1.122-4.681-6.096-7.299-19.749 3.305-2.09 11.307-30.478 16.058-2.706-8.344 1.037-7.467 2.032-16.058-9.437-.565-3.554 1.565-8.128-2.92l-6.417 2.823c-3.979 1.967-3.481-1.133-5.774 5.936 4.632.776 4.673 1.132 10.159 1.46-.341 11.004-17.469 13.14-18.846 7.165-.921-3.997 2.232-.959 4.623-5.705-6.498-3.127-1.423-2.397-10.16-2.92 0-16.988 34.558-21.225 51.666-28.573 18.13-7.787 19.214-10.193 33.261-16.979 7.813-3.774 13.368-7.318 21.107-11.112l47.715-19.733c11.488-4.472 12.513-7.796 27.086-5.357v2.92c-6.199 1.038-6.636 1.119-11.6 3.345-5.958 2.672-4.764 2.612-12.782 3.954 5.919 5.805 20.093-2.457 25.824-6.263 6.989-4.64 2.068-4.218 12.069-7.386 5.81-1.841 11.039-2.317 16.64-4.103 10.981-3.5 13.977-8.222 30.163-10.446 22.837-3.139 22.992 5.233 22.992-15.598l50.796-10.219c-.112-3.602-1.223-5.707-1.119-7.623.283-5.222 4.095-5.821-.174-7.544-4.658-1.88-11.462-.892-16.994-.892-4.351 4.669-3.337 1.022-4.063 7.3-6.61-3.18-4.526-2.409-8.128-7.3 3.069-4.167 6.453-6.515 8.128-11.679-15.3 2.328 2.044-1.427-9.603-.484l-23.726 5.735c-6.503 1.614-7.248 2.373-12.822 3.927-9.909 2.762-17.625 2.072-26.847 5.572-5.137 1.95-3.678 3.642-11.829 2.572-8.528-1.119-4.296-2.287-10.671-5.643l-17.14 5.204c-8.213 2.399-13.25 2.235-15.369 7.936 12.013 0 17.484-3.753 24.382-1.46-7.943 8.523-48.188 22.178-63.013 27.719-5.232 1.955-7.301 3.25-12.84 5.373-8.654 3.317-21.034 7.116-25.739 12.165 15.153-.243 13.184-3.965 24.382-5.84-2.017 5.427-6.318 7.057-12.795 9.785-6.754 2.845-10.992 5.002-17.27 8.03-25.17 12.14-60.783 30.224-91.343 33.643-10.629 1.189-14.439.724-14.729 9.858-8.55-3.252-8.12-.987-8.12-10.22-10.59-.169-13.37-3.195-20.32-5.839 1.47-4.531 2.59-4.229 4.06-8.759-14.82 2.843-8.88 9.257-8.43 13.334.43 3.818-.14 4.155-3.33 5.864-4.83 2.587-.22.135-4.32 1.353-.48.14-1.05.236-1.52.373l-11.06 3.849c-12.26 3.967-8.75 1.658-5.88 7.344-18.15 3.037-18.31 18.467-70.68 6.985-4.46-.978-5.19-1.701-10.6-2.606-1.47 3.956.69 2.815-4.66 4.156-3.28.821-7.8-.435-9.56-1.236l-6.38 2.849c-.3.124-.88.313-1.19.446l-2.47 1.052c-6.76 3.321-10.52 8.14-16.12 12.081l-2.11 1.474c-10.43 6.035-6.44-.307-4.24-6.223l-8.23-1.387c-8.09-2.947 4.51-.261-5.99-2.993 3.04 4.127 4.81 4.438 2.03 8.76-1.77.45-2.16-2.375-7.93 2.838-5.9 5.328-2.1 4.462-14.42 4.462l-2.41-14.563c-30.31.379-31.63 14.599-50.38 24.812-9.12 4.968-15.56 7.075-23.62 13.701-8.93 7.336-16.14 2.838-27.22 8.167.38-12.192 3.99-9.542 11.36-15.201 9.7-7.456-.08-12.181 11.23-16.745l41.55-19.788c12.89-7.069 28.06-11.089 40.04-19.406 9.59-6.659 16.91-11.457 29.03-15.635 7.21-2.486 6.94-1.039 9.02-6.658h2.04l-1.7-1.703-.34 1.703-8.06 3c3.12-8.641 8.99-4.033 16.19-11.759-10.62-.835-2.41 1.188-7.54-3.337-3.67-3.236.05-2.184-6.68-5.422-2.66 8.187-11.84 21.084-26.41 16.059 2.89-7.793 9.29-5.347 12.19-13.14-7.35-7.201-6.77 1.832-10.16-7.299l-14.16 2.189c-6.02 2.742 5.81 1.439-6.16 2.19-2.33-6.273-13.12-6.704-22.31-5.921-10.19.869-2.29-.347-8.89 2.483-.52.225-1.93.934-2.46 1.153l-27.26 9.609c-6.39 1.349-9.44 1.266-14.63 4.09l-13.28 6.514c-.41.154-.97.315-1.36.485-.37.165-.89.389-1.23.572l-8.61 6.954c-4.07 3.039-7.14 5.431-11.72 7.638-8.88-1.703-7.09-4.865-16.19-7.461-8.53-2.429-24.4 4.173-20.58-5.954 1.01-2.677.9-1.819 2.59-3.675 5.97-6.561 20.8-12.076 21.99-22.327-6.93 2.634-4.91 1.678-10.71 5.449l-30.53 18.939c-32.27 17.943-24.22 13.906-54.26 12.109.61-5.25 2.67-9.475 6.58-12.793 4.65-3.958 7.43-3.293 11.71-9.105-6.51 1.249-21.52 6.642-32.51 7.3 6.65-6.524 8.84-1.686 22.92-14.185 3.98-3.533 3.87-2.637 5.52-7.713-2.38-2.553-2.59-3.249-7.03-5.171-15.59-6.74-22.79-1.974-31.57 2.251l-3.65-2.025c-2.97-2.126-3.27.09-1.85-3.874 1.02-2.819 5.8-1.337-.6-2.86 8.03-7.993-1.44 2.65 8.59-4.031 5.92-3.941 1.89-4.328 9.76-7.601 6.18-2.571 10.42-1.703 21.49-12.301 6.66-6.382 7.25-11.322 17.42-15.223 6.46-2.48 16.02-4.195 26.05-9.021l-17.15-12.497c-6.43-3.599-13.48-2.149-25.52-7.941-4.44 6.019-10.25 11.205-20.32 13.139-.9-7.789-4.74-10.091-14.22-11.679-8.49 9.102-7.73 10.196-17.95 13.388-9.04 2.826-15.2 6.643-24.67 10.007-7.83 2.782-20.25 4.269-25.95 7.631-28.08 16.535-62.93 27.275-92.21 43.242-10.42 5.682-8.42 2.68-15.24 5.105-5.01 1.779-2.53.894-6.85 6.76-11.09-.177-15.26-3.973-26.42-5.839-5.9 2.84-2.72 2.954-10.15 4.38 4.37 11.78 8.41 4.33-12.09 11.755-7.87 2.85-32.23 13.083-36.68 17.443 16.24 2.719 14.79-2.094 28.45-4.38-3.73 4-13.8 8.913-20.96 11.218-19.86 6.384-8.95.63-19.68 12.14-29.88 0-7.05-6.208-31.11 5.383-4.69 2.257-30.91 10.005-40.01 22.356-15.08 0-14.53.635-24.38 4.379-15.72-7.566-5.91-3.318-14.22-14.599-13.63 4.7-12.19-1.123-12.19 23.359-8.63.138-18.21 3.471-31.2 5.318-11.71 1.666-6.69-1.456-9.44 3.442-11.52-.185-4.61.609-10.73-2.507-3.55-1.803.54-.13-3.38-1.954l-4.01-1.501c-8.86-3.388-4-.078-8.14-5.83-2.13-2.962.05-.643-2.77-3.847-1.2-1.365-1.97-1.725-3.48-3.34 7.14-5.897 11.4-8.519 26.42-8.759l2.03 5.84c3-9.266 18.79-14.144 4.06-21.899 0 6.142.75 7.699-4.06 11.679 0-6.589 2.41-16.908-8.63-14.864l-3.96 1.241c-12.07 3.952-54.25 34.004-66.67 38.498-9.54 3.45-11.89-.491-18.27 1.403-3.04-3.142-.3-1.923-6.1-2.92 3.12 3.226.33 1.814 6.1 2.92-1.16.725 1.81 2.32-5.28 1.667l-4.88-1.667c-1.94 2.901-2.92 5.22-4.06 8.759-6.61-.395-3.35-.38-7.37-2.011-.38-.155-.84-.423-1.21-.585l-15.81-7.623c-4.91 7.352 1.05 4.475-8.28 10.21-8.93 5.494-3 3.591-14.07 2.928v-10.219l-8.05 1.639-.07-16.237c-3.53-1.339-5.34-1.648-8.56-2.61-17.81-5.307-2.11-9.48-16.92-17.043-11.19-5.713-8.95-1.859-14.49-8.57-7.81-9.466-12.85-13.726-35.28-11.316-6.16.662-17.7 1.335-22.91 2.589-5.17 1.243-12.92 5.489-18.52 5.716-8.14.33-1.79-4.998-3.34-13.856-2.74-15.689-27.4-15.987-43.42-25.807-8.48-5.199-3.59-8.661-8.86-14.074-6.63-6.807-32.23-4.036-47.16-4.091-28.51-.108-25.7 2.494-35.17 3.506-4.49.48-4.16-.459-11.55-.577-9.41 10.1-9.1 8.699-20.11 16.204l-10.37 8.614c-13.43-.803-4.26-8.386-20.31 7.302-2.57 2.509-5.42 5.802-9.12 8.048-1.8 1.094-3.73 1.829-5.87 3.077-2.35 1.367-1.85 1.639-5.33 3.472-10.96-.656-24.93-5.545-30.51-10.195-9.85-8.206-9.28-11.704-30.45-11.704-11.83 12.693-3.55 7.323-2.03 20.439-9.61-3.313-7.45.586-12.3-7.22-.2-.323-.35-.744-.55-1.066-.2-.317-.39-.723-.59-1.032-.21-.301-.46-.682-.68-.973-2.15-2.864.06.285-2.45-2.624-2.67-3.112-2.46-2.087-3.75-6.064-26.37 0-35.81-7.83-43.06-10.063-14.94-4.602 1.74 6.865-21.96-4.536-3.67 1.769-6.88 3.793-10.16 5.84-5.26-1.01-7.36-2.544-12.19-4.38-7.12 7.647-23.45 14.537-29.3 18.365l-5.24 4.993c-7.1-3.417-4.84-4.989-14.57-3.411-7.82 1.267-9.72 2.92-17.94 3.411-2.05-5.531-3.97-3.681-6.09-10.219-8.56 4.502-4.38 13.033 0 18.979-13.84-.848-7.71-1.685-9.15-5.536-.75-2.032-.2-5.498-11.17-7.603-7.43 3.572-3.88 3.994-10.16 7.299 0-8.048-1.86-4.393-3.36-12.849-.75-4.217 5.68.155-2.5-4.828-2.17-1.324-4.84-2.086-8.37-2.762-8.66 26.716-25.21 22.305-40.91 37.755-7.01 6.894-27.35 26.376-37.97 24.97l-12.55-1.409c-.94 2.903-1.59 9.196-2.03 17.611V819h4976V391.252l-10.62 6.968c-7.3-.258-1.22-.383-9.7-2.588-5.93 8.051-11.53 18.647-15.98 22.095-4.27 3.313-3.89-.547-6.37 7.102h-4.06c-1.47-4.531-2.6-4.228-4.07-8.759-9.89.591-18.09 7.23-25.24-.847-.99-1.129-2.97-6.806-3.1-8.084-.43-4.227 2.18-14.679 3.96-17.347-8.6 1.65-3.37 1.274-9.95 5.987-16 11.454-6.82 3.851-23.33 9.516-5.14 1.762-7.96 3.653-11.78 4.778-12.28 3.621-15.67-3.465-20.91 8.212-8.4 18.708-6.73 10.346-13.27 16.763.82.239 5.99-.927 2.83 7.554-1.46 3.939-2.44 5.028-5.55 8.01-4.87 4.663-11.27 7.628-21.66 7.795 3.22 9.95-1.08 16.611-16.26 17.518-9.78-4.704-3.73-8.01-16.25-8.759 2.51 3.415 3.49 3.8 4.06 8.759-25.17 4.213-12.1-4.981-30.02-12.008l-6.64-2.531c-4.88-1.941-8.08-3.426-14.14-4.44 3.24 8.71 2.73.105 11.15 8.054 3.58 3.385 4.95 7.119 5.11 12.385Zm-2011.53-83.214 3.962 1.679-3.962-1.679c-3.039-3.141-.297-1.922-6.096-2.919 3.12 3.226.333 1.814 6.096 2.919Zm290.555 17.519-2.337 2.846 2.337-2.846 2.336-2.847-2.336 2.847Zm1418.235 72.995 2.03-1.46h2.03l-1.69-1.703-.34 1.703-2.03 1.46h-2.04l1.7 1.703.34-1.703ZM484.852 411.69l2.032-1.46h2.032l-1.693-1.703-.339 1.703-2.032 1.46h-2.031l1.693 1.703.338-1.703Zm918.398 71.535h2.03l-1.69-1.703-.34 1.703c-4.98 2.618-4.37 1.987-6.1 7.299 5.28-2.537 5.42-1.485 6.1-7.299Zm209.28-167.888v-1.459l-2.37 1.216 2.37.243c.73 6.322 1.14 8.22 10.16 8.76-.68-5.872-3.18-7.421-10.16-8.76Zm-184.9 84.674h2.03l-1.69-1.703-.34 1.703c-4.96.946-2.75-.648-4.06 2.92l4.06-2.92Zm-902.141-17.519h2.032l-1.693-1.703-.339 1.703c-7.025 1.348-6.252.793-8.127 5.84 7.025-1.348 6.251-.792 8.127-5.84Zm959.031 35.038h-2.03l1.69 1.703.34-1.703 8.05-1.639c-1.72-.624 3.04-2.046-3.8-.949-3.58.575-2.21.591-4.25 2.588Zm-2970.56-46.717h-2.03l1.69 1.703.34-1.703c10.44-2.715-1.63.139 5.84-3.104 4.51-1.962 1.26-1.162 8.38-1.276-8.21-8.056-20.52-3.401-26.41 2.92.92 0 5.61-.119 6.18-.061l6.01 1.521Zm2818.17 160.588h-2.03l1.69 1.703.34-1.703c4.22-.81 7.24-2.137 10.62-4.047 4.6-2.599 5.05-2.571 5.64-7.632-9.86 4.742-10.42 3.746-16.26 11.679Zm-727.399-65.695h-2.032l1.693 1.703.339-1.703c5.798-.997 3.057.221 6.096-2.92-5.941 1.022-2.928-.188-6.096 2.92ZM-17.015 256.942c3.528-2.536-2.486-.937-.56.029.015.008.428.065.56-.029Zm560.791 207.304c0-3.627-3.249-.373-1.261 0 .025.005 1.261 4.142 1.261 0Zm804.614 51.096c.8-3.134-2.92-.987-2.74.295l.73.279c3.8-.171 1.23 2.443 2.01-.574Zm-1479.189-68.615c-.083-.482-2.242-.327-2.421-.278-.507.136-3.53-3.379-.883.392.059.083 3.79 2.7 3.304-.114Zm40.637 5.84c-.084-.483-2.241-.327-2.422-.279-.506.136-3.53-3.379-.882.393.058.082 3.79 2.7 3.303-.114Zm1796.152 59.856c1.05-4.06-4.84.7-2.01.573 3.8-.171 1.24 2.443 2.01-.573Zm-67.05-40.877c1.05-4.06-4.84.7-2.01.573 3.8-.171 1.23 2.443 2.01-.573Zm-178.8 35.037c1.04-4.059-4.85.701-2.01.573 3.8-.171 1.23 2.443 2.01-.573Zm121.91 2.919c0-1.716-4.37-3.289-3.15 0 1.23 3.299-5.17.04.94.433 2.56.165 2.21 2.534 2.21-.433ZM972.495 347.454c0-1.716-4.372-3.289-3.145 0 1.23 3.299-5.17.04.938.433 2.559.165 2.207 2.535 2.207-.433ZM1330.1 522.642c0-1.717-4.37-3.29-3.14 0 1.23 3.298-5.17.039.93.432 2.56.165 2.21 2.535 2.21-.432Zm-3702.03-223.364c0-1.716-4.37-3.29-3.14 0 1.23 3.299-5.17.04.93.433 2.56.164 2.21 2.535 2.21-.433ZM2153 387.022c-.55-.985-2.88.584-2.73 1.605 0 .007.14.235.15.238 1.87.354 2.45.738 2.58.836v-.037c-.07-.141-.21-.535 0-1.333v-1.309ZM429.992 400.011c.806-3.135-2.919-.988-2.735.295.001.007.14.235.159.238 4.076.775 2.004 1.687 2.576-.534v.001Zm674.578-55.477c-2.09-1.499-7.35 2.102-2.36.788.05-.013 5.77 1.663 2.36-.788Zm333.22 169.348-4.06 4.38c5.33-1.431 3.01.028 4.06-4.38Zm-837.123-5.84c.806-3.134-2.919-.987-2.735.295.045.31 1.776 3.435 2.735-.295Zm286.491 11.679c-.429-1.666-4.466-3.192-2.735-.295.732 1.223 3.71 4.086 2.735.295ZM-2325.2 1.459c-.14-.555-.68-1.093-1.28-1.459h-1.88c-.01.26.12.64.43 1.165.73 1.223 3.71 4.086 2.74.294h-.01Zm3492.75 331.396c-.43-1.666-4.46-3.192-2.73-.295.73 1.223 3.71 4.087 2.73.295Zm560.79 169.347c-.43-1.666-4.46-3.192-2.73-.295.73 1.223 3.71 4.086 2.73.295Zm-221.47-14.599c3.12 3.226.33 1.814 6.1 2.92-3.2-3.312-.38-1.706-6.1-2.92Zm180.84-39.417c3.12 3.226.33 1.814 6.09 2.92-3.2-3.312-.38-1.706-6.09-2.92Zm-952.94 17.519c1.422 4.268-.262 2.102 4.063 4.379-1.333-4.001.825-2.273-4.063-4.379Zm1054.53-64.236c1.42 4.268-.26 2.103 4.06 4.38-1.33-4.001.83-2.273-4.06-4.38Zm-353.54 91.974h-6.1v1.459h6.1v-1.459Zm-650.194-52.556h-2.031v4.379h2.031v-4.379Zm99.561-18.979h-2.031v4.38h2.031v-4.38Zm879.793-75.914h-6.1v1.459h6.1v-1.459Zm-725.37 72.994h-2.03v4.38h2.03v-4.38Zm-182.869 1.46h-2.031v4.38h2.031v-4.38Zm532.349-87.593h-6.1v1.46h6.1v-1.46Zm-229.6-1.46h-6.1v1.46h6.1v-1.46ZM832.3 427.748h-2.033v4.38h2.033v-4.38Zm696.92 5.84h-2.03v4.38h2.03v-4.38Zm361.67 1.46h-6.09v1.46h6.09v-1.46Zm-422.62-78.834h-6.1v1.46h6.1v-1.46Zm221.47 108.032h-2.03v4.38h2.03v-4.38Zm-2397.582 11.679c-5.94 1.022-2.927-.188-6.096 2.919 3.563-.612 5.444-.183 6.096-2.919ZM537.681 414.61c-5.94 1.021-2.926-.188-6.095 2.919 3.562-.612 5.444-.183 6.095-2.919Zm-1300.383 86.133c-5.941 1.022-2.927-.188-6.096 2.92 3.562-.613 5.444-.183 6.096-2.92Zm99.561-86.133c-4.491 2.241-2.526.239-4.064 4.379 3.361-1.678 3.907-.309 4.064-4.379Zm1509.664-2.92c-4.49 2.242-2.525.239-4.064 4.38 3.362-1.678 3.908-.31 4.064-4.38Zm548.597 80.294c-4.49 2.242-2.52.239-4.06 4.38 3.36-1.678 3.91-.31 4.06-4.38Zm-3342.39 8.759c-4.49 2.243-2.53.24-4.06 4.38 3.36-1.678 3.9-.309 4.06-4.38Zm-631.9-43.796c-4.5 2.242-2.53.239-4.07 4.38 3.36-1.678 3.91-.31 4.07-4.38Zm3917.4 62.775c-4.49 2.243-2.52.24-4.06 4.38 3.36-1.678 3.91-.309 4.06-4.38Zm-2771.44-112.411c-4.49 2.242-2.53.239-4.06 4.38 3.36-1.678 3.9-.31 4.06-4.38Zm1785.995-14.599c-4.491 2.242-2.526.239-4.064 4.38 3.361-1.678 3.908-.309 4.064-4.38Zm418.561 68.615c-6.311 3.274-6.311 1.105 0 4.38v-4.38Zm77.21-59.856c-6.31 3.275-6.31 1.105 0 4.38v-4.38Zm623.774 113.872c.93-.667 4.76.135.05-1.792-2.03-.83-5-.261-2.54 1.822 3.18 2.696 1.11.966 2.49-.03Zm-79.24-77.374c-6.12 1.174-4.46-.018-6.09 4.38 8.17-2.126.3 1.215 6.09-4.38Zm532.35-5.84v2.92h6.09c-3.2-3.312-.38-1.706-6.09-2.92ZM620.989 484.685h-6.096c3.121 3.226.334 1.814 6.096 2.92v-2.92Zm796.481-74.455c-5.94 1.023-2.92-.187-6.09 2.92h6.09v-2.92Zm-2129.375 11.68c-5.939 1.021-2.926-.188-6.095 2.919h6.095v-2.919Zm-42.668 75.914c-5.94 1.022-2.927-.188-6.096 2.919h6.096v-2.919Zm2472.763-55.476h-4.07c1.43 4.268-.26 2.103 4.07 4.38v-4.38Zm-83.31 51.096c-.47.771-6.44.904 4.06 2.92-1.08-2.922 2.61-.59-1.63-2.995-3.52-2.002.3-.9-2.43.075Zm109.72-64.236h-6.09v2.92c3.56-.613 5.44-.183 6.09-2.92Zm-873.694 54.016h-4.064v4.38c3.362-1.678 3.907-.31 4.064-4.38Zm406.374-16.059h-4.07v4.381c3.36-1.679 3.91-.31 4.07-4.381Zm-774.139-67.154c-2.058.395-7.847.201-4.064 2.919 2.181 1.567 3.903 1.266 4.064-2.919Zm878.199 14.911-6.54-.312v4.379l6.54-4.066v-.001Zm221.03 49.324c-8.23 1.378-6.12.391-8.13 4.38 6.64-2.522 4.01-.12 8.13-4.38Zm-1899.777-17.519c-9.437.565-3.554-1.566-8.128 2.92 4.778-.286 7.396.155 8.128-2.92Zm353.541-13.139c-6.242 3.286-3.278-.941-4.063 5.84 5.198-2.737 4.063.505 4.063-5.84Zm1743.326-39.417c-6.24 3.286-3.28-.941-4.06 5.84 5.2-2.737 4.06.505 4.06-5.84ZM639.275 480.304l-8.049-1.639c1.789 2.184 6.953 7.329 8.049 1.639Zm-948.874-33.577c-6.121 1.174-4.461-.019-6.096 4.38 4.64-.891 5.94-.332 6.096-4.38Zm-656.287 20.438c-7.394 1.238-6.516.806-10.159 4.38 7.133-1.194 6.701-.804 10.159-4.38Zm1798.187-32.118h-4.064v4.38h4.064v-4.38Zm-713.179-2.919c-7.325 1.405-5.434.133-6.096 5.839 5.626-2.961 2.739-.975 6.096-5.839Zm-347.447 5.839c-1.309 1.083-1.522.336-2.736 2.414-1.99 3.403-.85.769-1.327 4.886 5.597-2.947 4.063.103 4.063-7.3Zm-556.726 24.819c4.573 4.485-1.309 2.355 8.128 2.919-3.861-4.143-2.849-4.487-8.128-2.919Zm1651.893 26.277v7.3c.164-.135 2.887-.798 3.389-3.446.707-3.734-.087-2.115-3.389-3.854Zm881.828-68.614v7.299c2.49-1.315 3.28-.475 3.48-2.935.31-3.674-3.46-4.343-3.48-4.364ZM440.154 392.711l-8.067 3c1.479 1.887 1.05 1.533 1.971 4.3l6.096-7.3ZM1645.04 496.363v2.92h8.13c-4.59-4.501 1.32-2.342-8.13-2.92Zm-782.26-68.615h-4.064c.785 6.78-2.179 2.553 4.064 5.84v-5.84Zm22.35-13.139h-4.064v5.84c5.199-2.737 4.064.505 4.064-5.84Zm65.019 75.914c-7.099 1.362-4.562.555-8.127 4.38 5.862-.35 7.957.033 8.127-4.38Zm394.181-97.812c-5.27 2.771-4.32 3.271-6.1 8.759 5.27-2.771 4.32-3.271 6.1-8.759Zm-672.544 71.534c-6.122 1.175-4.461-.018-6.096 4.38h6.096v-4.38Zm457.164-10.219c0-4.111-.88-2.703-4.06-4.38v7.3c1.81-.73 4.06-.95 4.06-2.92Zm-548.597 37.958h-8.128v4.38c6.632-2.522 4.007-.12 8.128-4.38Zm327.127-20.438h-2.031c0 7.757-6.214 4.418 2.031 8.758v-8.758Zm532.34-27.738-6.53 4.066c8.87 3.115 8.37 1.44 6.53-4.066ZM397.486 433.589c-5.179 2.492-6.344 2.501-8.128 7.299 6.765-2.572 6.105-1.061 8.128-7.299Zm806.644-116.792c3.58 3.513 4.06 3.894 12.19 4.38-3.58-3.513-4.06-3.893-12.19-4.38Zm526.25 11.679h-10.16v2.92c5.42-.086 9.35.471 10.16-2.92ZM-273.025 445.267h-10.159v2.92c5.417-.086 9.353.471 10.159-2.92Zm2194.395-7.299c-7.99 1.338-8.24 1.606-12.19 5.84 7.99-1.338 8.25-1.606 12.19-5.84ZM1387 502.203c-.25.409-4.63-.476.45 2.723 2.36 1.482 1.65 2.205 4.19.381 5.38-3.867-.47-3.009-.5-3.03-3.87-2.572-3.01-.458-4.14-.073v-.001Zm-814.775 4.38h-4.064v7.3h4.064v-7.3Zm1107.355-18.978c-9.6.153-7.98-1.486-10.16 4.379 7.35-.439 7.34-.63 10.16-4.379Zm-995.604-18.979c-7.187 1.379-6.265 1.557-8.127 7.3 9.465-1.816 3.951-1.046 8.127-7.3Zm-93.465 13.14c-8.483 4.081-4.012 2.596-8.127 8.759.018-.005 2.615.59 5.932-3.037 2.427-2.654 1.726-1.676 2.195-5.722Zm865.569 27.737c1.06 6.967-2.79 2.463 6.09 5.84 1.49-5.031 3.17-5.286-6.09-5.84ZM517.364 391.252c-6.574 1.261-10.896 3.731-14.223 7.3 8.461-1.417 10.029-2.799 14.223-7.3Zm73.146 86.134c-9.448.151-10.087.178-12.19 5.839 6.255-1.2 4.111-.797 11.097-5.166.219-.137.732-.447 1.093-.673Zm-130.037-91.974c-6.198 1.038-4.912 1.744-10.16 0-1.604 4.319-.826 2.367-4.064 5.84 6.813-1.14 10.674-2.359 14.224-5.84Zm737.557-64.235c-1.01-1.299-1.32-2.92-4.06-2.92-5.62 0-4.89 1.127-6.1 4.38 4.3-.068 8.04.259 10.16-1.459v-.001ZM-695.651 443.808c-5.393-1.859-2.173-1.332-10.159-1.46.731 2.19.446 4.38 4.064 4.38 3.673 0 5.574-.73 6.095-2.919v-.001Zm995.607-45.256c-4.588 3.792-5.899 5.328-6.096 11.678 6.733-5.565 6.096-4.608 6.096-11.678Zm357.606 49.636c3.582 3.513 4.064 3.894 12.191 4.38-4.265-4.576-5.133-6.726-12.191-4.38Zm414.498-24.818c-5.32 2.561-4.2.738-6.1 5.839.04.024 3.79 1.46 4.07 1.46 10.6 0 3.03-.736 2.03-7.299ZM70.358 435.049h-4.064l-4.348 10.152c6.592-2.968 8.185-2.844 8.412-10.152Zm1466.992 23.358c-.93.448-3.47 1.272-4.95 2.282-3.21 2.199-1.55.335-3.17 3.557 2.44 1.466 11.7 5.188 8.12-5.839ZM527.524 391.252c-8.461 1.416-10.029 2.799-14.223 7.3 5.848-.35 5.02-.154 9.171-2.17 5.567-2.704 3.588-1.192 5.052-5.13Zm656.286 32.118c-11.83-2.036-9.56-3.107-14.22 1.46 5.98 1.001 6.2 1.459 14.22 1.459v-2.919Zm377.92 62.775c-7.26 1.216-14.44 3.535-18.28 7.3 10.54-.63 13.69-2.375 18.28-7.3ZM578.32 423.37c-6.968 6.834-5.776-1.554-6.096 8.759.32-.154 6.12-2.702 6.274-2.791 5.994-3.49 3.122.627 3.885-5.968h-4.063l4.771-4.278c2.39-4.441-2.845-6.22-5.628-18.465-3.018-13.282-4.572-18.387-23.526-15.214v2.919c8.991.144 10.802 1.521 16.564 12.917 4.308 8.519 3.755 10.399 3.755 22.121h4.064Zm-542.505 8.759c-10.536 0-7.886-1.302-12.191 2.92 1.017 1.299 1.323 2.919 4.064 2.919 5.999 0 7.005-2.471 8.127-5.839Zm1464.965-84.674v-1.459c-12.65 0-19.75 3.207-22.35 10.219 6.03-2.905 13.07-8.76 22.35-8.76Zm-1194.729 10.22c-5.488 0-5.602.696-10.159 1.46 1.457.727.873.862 3.74 1.692 3.413.988 1.539.611 4.694 1.008 3.548.445 8.193.22 11.884.22-2.346-2.301-4.712-4.38-10.159-4.38Zm107.688 55.476c-7.251 3.488-7.91 6.201-10.159 13.139 5.852-1.123 5.075-1.005 7.638-4.731 2.127-3.093 2.387-4.103 2.521-8.408Zm465.294 96.353c-8.737-.522-3.662.206-10.16-2.92-.137 4.448-.917 5.323-2.031 8.76 9.186-.148 10.309-.193 12.191-5.84ZM1915.28 401.472c-1.9-5.101-.78-3.279-6.1-5.84-7.71 3.709-9.22 7.979-2.78 7.918.02 0 3.37-1.741 8.88-2.078ZM499.076 296.359c-10.216.164-9.938 1.65-10.159 8.76 8.688-1.455 9.924-1.178 10.159-8.76Zm1601.094 74.455c.56 4.823 2.65 8.759 4.07 13.139h4.06c0-7.939.8-11.427-8.13-13.139ZM1655.2 483.225c-4.53.869-6.1.341-6.1 4.38v7.3c12.77-.764 6.1-2.097 6.1-11.679v-.001Zm-2302.086-94.893c-3.875-7.69-5.481-2.346-20.319-1.459v2.919c1.56-.093 6.75-.8 6.76-.8 2.437-.102 10.626 1.911 13.559-.66Zm2409.776 49.637c-4.66-4.999-4.9-4.528-12.19-7.3v11.679c4.83-1.835 6.92-3.369 12.19-4.38v.001ZM553.937 537.242v4.379h-10.159l8.087-2.949c.299-.149.86-.546 1.091-.676.231-.128.651-.505.981-.754Zm696.923-48.177-16.25 7.3 27.29-5.207c8.72-2.267 2.22 1.383 7.25-3.553l-18.29 1.46Zm-335.254-2.92c-9.353 1.795-8.128 3.034-8.128 11.679 0 4.111.879 2.704 4.064 4.38 2.297-7.085 4.063-6.597 4.063-16.059h.001Zm997.634-37.957c7.67 2.546 3.87 2.722 8.13-1.46-6.38-3.827-14.19.948-18.28 2.92 2.71 4.059 2.03 2.827 2.03 8.759h4.06c.96-8.324 3.1-1.895 4.06-10.219Zm-2783.63-35.037c0-7.86-11.339-7.3-22.35-7.3l6.37 2.723c2.564.4 7.107.197 9.885.197 2.389 8.107-1.547 6.837-4.064 14.599 4.135-1.989 10.159-5.384 10.159-10.219Zm2373.2-49.637c-1.77-4.774-5.1-6.325-10.16-8.759-8.7 3.001-7.63-.962-10.16 5.84 9.35 1.565 13.24 4.747 20.32 2.919Zm-416.53 81.754c-2.59-3.875-1.85-1.562-2.03-7.299-3.06 1.475-5.85 2.964-9.4 4.922-5.09 2.799-5.33 3.51-6.85 8.217 11.19-.179 11.78-2.71 18.28-5.84Zm434.82-102.192-16.26 1.46c7.17 3.265 20.49 1.693 20.32 5.84-.17 4.206 16.74 4.884 8.41-2.955-3.1-2.916-5.66-4.345-12.47-4.345ZM631.147 489.065c-7.122 1.366-4.375.579-8.231 4.305-2.379 2.298-3.977 3.999-6.85 6.757-4.874 4.677-9.377 7.725-11.332 13.756 8.26-.494 4.841.901 8.933-3.801l11.952-13.311c3.851-3.669 3.788-2.342 5.528-7.707v.001Zm-1343.052-8.76c-13.713 2.296-20.421 5.841-31.375 11.035-6.079 2.883-5.336 1.388-7.23 6.484 7.842-1.312 32.87-11.365 38.605-17.519Zm2350.845-30.657c-4.68 0-10.81 2.019-15.48 3.471-6.68 2.073-7.44 3.006-10.93 6.748 4.41-.845 19.92-11.158 33.15-.372 7.69 6.264-5.44 3.94 7.49 4.751-1.12-9.63-14.04-14.599-14.23-14.599v.001Zm-2541.838-5.84c-14.855.888-41.579 13.448-46.733 18.979 9.145-1.531 42.194-14.11 46.733-18.979ZM1193.97 416.07c-5.27-5.169-9.43-2.783-12.19-10.219h-6.1l-2.03 11.679c12.51 4.756 7.98 3.231 20.32-1.46Zm-50.8 2.92c0 5.238 7.63 7.77 10.16 14.599 10.59-2.031 9.63-10.084 8.16-11.675-2.19-2.382-18.32-8.36-18.32-2.924Zm152.39-27.738c-3.56-3.823-5.06-6.052-8.13-10.219l-12.12 1.681c-.1 12.099 1 8.428-2.1 12.918 10.98 0 5.8-.047 14.77-2.529l7.58-1.851Zm-1440.579-4.38c-6.056.097-7.125-.283-14.621 4.094-4.127 2.409-6.979 4.601-9.761 7.585 20.917-3.501 15.297-1.761 34.541 1.46-2.734-7.357-7.136-3.816-10.159-13.139Zm1922.129 64.235h12.19c-3.54-3.471-4.25-4.379-22.35-4.379-12.01 0 7.27 3.037-10.26 1.384-.13-.012-5.99-2.96-5.99 4.456 0 5.089 9.5 1.459 14.22 1.459 7.65 0 3.84.96 12.19 1.46v-4.38Zm-1028.115-1.459c0-5.408-1.982-6.595-6.096-8.76-.456 3.942-.952 3.972-2.031 7.3-6.012-1.153-3.294-.594-8.128-2.92 0 16.596-6.096 2.205-10.159 13.14 1.791.709.355.552 2.49.707 19.044 1.386 16.943-1.347 20.74-5.911 2.745-3.299 3.184-1.029 3.184-3.556Zm-1436.517 10.219c-11.502.184-18.736 4.789-27.076 8.284-6.37 2.669-20.241 8.742-23.72 12.154 8.463-.506 33.278-9.378 41.091-12.812 5.762-2.533 7.821-2.557 9.705-7.626Zm71.114-13.139c-7.038-2.427-15.205.811-22.634 2.715-18.134 4.648-18.062 3.656-20.034 8.964 8.817-.141 18.038-2.978 26.414-4.38-2.333 7-1.384 2.269 0 4.38 18.573-3.539-.915.891 11.881-7.428l4.374-4.251h-.001Zm1985.118-78.834c-21.38-3.255-6.9 9.394-26.41 13.139 2.71 4.059 2.03 2.827 2.03 8.759 10.92-.652 10.72-2.339 14.94-8.241 3.8-5.31 8.74-7.587 9.44-13.657Zm22.35 110.951c7.75 0 1.54 2.123 14.22 0-2.77-8.552-2.43-3.177-8.12-8.759-16.24 6.171-25.74 2.969-36.58 14.599 15.31-.245 24.22-5.84 30.48-5.84Zm-136.13-78.833c9.52-3.283 8.43 1.293 14.22-4.38-7.93 0-16.17-.389-23.92.415-12.89 1.339-9.82-.415-22.81-.415 0 17.21 11.61 7.299 16.25 7.299 14.13 0 9.17-.487 16.26 2.92v-5.84.001Zm162.54-46.717c-6.9-.413-7.43-1.113-12.19-2.92-1.35 8.861 1.67 1.232-9.89 7.495-4.98 2.699-6.24 7.11-5.54 11.18.97 5.579 1.47 5.025 7.31 6.143 3.19-9.857 17.18-13.474 20.31-21.898ZM862.779 489.064l-6.823.938c-.368.128-.929.425-1.251.563l-6.211-32.114c-.025-6.633-1.487-29.854-4.003-33.621-4.869 1.412-1.942-.593-4.47 2.737-3.249 4.277 3.788 26.792 4.499 38.119 1.011 16.101 1.656 31.672 6.067 45.277 8.327-4.321-1.741-1.441 2.987-10.881 1.652-3.299 7.039-5.192 9.204-11.018h.001Z" fill="#F2F2F2"/></svg>