<svg width="1920" height="1107" fill="none" xmlns="http://www.w3.org/2000/svg"><path fill-rule="evenodd" clip-rule="evenodd" d="m1911.21 477.385-6-5.908c-2.61-3.148-1.79-3.272-5.61-6.305-10.1-8.026-5.02 3.003-16.83-6.765 3.29-7.13.55-.501 2.86-2.06 3.82-2.573-.37 4.399 3.23-2.32-27.1-9.343-39.36-5.016-38.94-12.661.41-7.435 3.68 3.489.34-1.938-5.53-6.865-11.34-.986-17.74-9.158-1.04-1.336-8.71-18.828-29-20.04 1.66-2.122.99-1.546 2.03-4.38l-8.06-3-.06 8.84c5.37-1.025 1.67.116 6.09-1.46 1.94 3.443.16.616 4.71 3.916 8.11 5.869 20.38 16.77 19.76 25.156-1.08 14.577-13.35 15.393-14.87 24.231-.94 5.486 4.04 6.757-3.36 9.737-8.61 3.469-15.43-2.08-18.25-3.147l-4.4-1.157c-7.02-2.533-2.99-4.748-12.03-9.1 0 7.745-.1 8.621-2.03 14.6-11.43-3.941-5.33 1.615-8.54-5.549-1.28-2.859-1.62-7.573-1.62-11.97-6.77 3.561-4.07 1.501-4.07 18.978-14.74 5.604-10.6 10.191-13.42 18.519-.58 1.712-9.68 15.586-19.68 17.555l-25.82 3.344c-.94-6.169 2-4.381-10.16-4.381 0-9.002-3.27-5.877-6.1-14.598l-4.32 5.656c-2.75 2.978-.83.469-2.68 2.469l-7.22 13.773-5.87-5.999c-2.27-3.54-2.16-5.415-4.29-8.6-8.89 4.679-1.7 2.6-10.16 11.679-8.7 0-11.22-1.675-19.46-.942-6.88.612-12.84 1.747-19.32 2.297-29.08 2.473-16.3-1.789-25.32-1.694-3.58.038-4.43 1.026-9.04 1.799-1.61-2.324-2.09 2.685 0-4.38-9.72 5.115 1.29 4.38-18.29 4.38 2.16-2.932 1.74-2.628 4.71-5.372 4.15-3.823 3.42-.839 5.45-6.307-8.67 3.296-8.74 5.425-15.36 8.05-10.41 4.127.54.389-7.47.133-7.14-.228-1.24.418-9.68 2.036v-7.3c-12.5 2.399-.89 6.381-16.26 7.3 3.96-4.24 4.11-1.959 6.1-7.3l-8.13-1.459c12.18-2.336 19.51-10.101 0-17.519-2.72 4.741-.1 8.031 2.03 14.599-14.19 1.116-.72.999-7.38 2.918-4.94 1.421-7.9-.895-13.74-5.251-7.68-5.717-4.01 1.989-5.29-6.426h-24.38c-5.74 4.76-10.85 10.35 0 16.058 1.91-2.916-2.88-2.049 6.09-11.678 13.06 0 21.74 4.565 24.39 11.678-9.14.718-5.1-2.184-6.1 4.381-18.09-1.083 1.58-4.598-14.22-5.84-3.72 5.773 5.7 10.849-5.92 11.788l-1.73-.006c-.18.027-.72.125-.91.167-6.64 1.511.89 2.014-9.73 2.649l-1.56-4.802c-1.51-2.025-4.71-3.882-6.57-5.417l-4.24 7.173c-.2.31-.44.689-.63 1.003l-3.07 5.098c-1.32 1.717-2.46 2.332-4.25 4.245h-14.22c-1.75-5.414-3.74-4.548.59-9.669 3.28-3.874-.13 3.679 3.47-3.47-9.34 1.563-8.77.297-14.63 7.005l-5.03 6.604c-.14.209-.38.682-.65.99-1.43-3.864.16-1.201-2.04-4.38 2.06-1.958 2.04 3.071 2.04-4.38h-2.04v4.38h-4.06c.74-6.368.35-3.131 5.19-7.951.88-.879 2.82-2.997 3.22-3.529 11.06-15.033 6.47-4.24 22.07-10.418-1.06-9.148-5.06-3.427-8.13-11.679h-4.06c-3.93 12.122-12.25 5.149-16.26 4.38 1.83 2.835 2.07 5.564-2.23 9.998-4.85 4.992.05.582-5.7 3.28-4.05 1.899.48-.95-3.65 1.76l-2.64 2.481-3.66-3.212c-8.45 4.162-8.49 7.29-12.59 13.431l-18.29-7.299v7.299h-10.16c1.84 2.663 1.57 1.826 2.03 5.84-10.77-3.715-15.9 3.612-34.63 11.617-.52.224-1.92.937-2.47 1.143-6.34 2.39 4.1 1.14-7.6 1.839 8.46-9.079 12.72-7.529 24.38-13.139-2.48-3.376-1.82-2.413-4.98-5.226-2-1.775-3.4-.013-4.51-5.515-1.62-8.013 5.07-1.037 5.43-12.617-6.91-1.157-28.63-4.527-35.38-3.886l-10.07 1.787c-8.34 1.994-6.28-2.182-7.38 5.019-9.7 0-8.42-.992-16.25-1.46l2.28 5.783c-10.96.236-16.73 3.944-25.22 5.046-9.06 1.176 2.84-.308-5.73.027-6.06.236-4.66.277-9.94 2.284.46-1.417 1.45-4.621 2.13-5.771 2.82-4.813 12-7.31 18.19-10.288-4.52-8.042 5.28 7.975-3.68-3.206l-1.31-4.66c-.23-9.642-.09-1.457-3.14-9.653-5.75.344-13.87 2.859-18.28 4.38 1.76-5.985-.91-4.194 2.03-8.759-6.9-.413-7.44-1.113-12.19-2.92-1.71 1.828-10.02 9.339-12.23 10.194-11.77 4.556-12.68-3.591-16.22 7.324h-4.06c-3.43-10.575 8.17-16.604 22.35-18.978-1.79-4.82-5.49-7.472-12.19-8.759-2.95 7.937-4.94 4.528-15.25 6.602-14.86 2.991-2.46 3.163-19.3 2.157-1.31-11.378-7.18-7.898-8.12-16.059-6.94 3.653-2.03 2.194-2.03 11.679-1.05.362-4.14 1.422-5.54 2.071-.3.136-.8.452-1.08.584l-3.18 1.42c-3.06.97-3.28.137-4.43 3.225-13.6 0-17.77-3.62-30.48-4.38-5.31 3.621-6.07 5.666-10.7 9.829-4.93 4.436-6.13 6.076-15.71 6.229-.6-5.162-3.73-7.902-8.13-10.219 2.52-6.782 3.2-1.291 4.07-8.759-8.11-.13-7.53-.674-12.2-2.92 0 7.618.34 9.195-3.53 14.977-1.56 2.322-.49.477-1.9 3.019l-1.57 3.25c-.15.293-.43.825-.56 1.061-.12.235-.28.734-.56 1.051 4.74 4.652 3.38 1.188 8.12 5.84-9.91 2.784-1.03-2.524-7.37.671-.22.11-.67.434-.9.568l-1.99 1.386c-5.03 3.163-8.94 4.926-16.15 6.134-1.56-4.203-3.34-3.808-7.71-6.136l-3.22-2.071c-4.9-4.588 1.81-6.18-11.419-6.391 6.779 7.271 2.967 8.757 3.929 16.38.5 3.918 2.5-2.493.14 5.517l-14.134-3.123-2.434 8.914c-10.076-.572-4.714-1.989-13.915 1.509v-5.84c-5.901 2.84-2.727 2.954-10.16 4.38 3.953-4.24 4.111-1.959 6.096-7.299-23.495 8.1-40.808 7.255-55.158 11.465-2.865.839-4.758 2.26-9.51 3.448-14.48 3.62-13.12.74-20.669-3.234-4.461 2.785-4.538 3.921-12.191 4.38 10.302-15.428 11.823-4.211 12.191-16.059-12.001 2.303-.904 4.744-14.223 7.299-12.966-2.487-2.871-4.757-14.222-10.219-4.24 6.349-.22 4.738 2.031 11.679-15.951-2.67-15.242.71-28.446 2.92 1.115-3.437 1.894-4.312 2.032-8.76-2.227 1.841-3.687 3.686-6.095 2.92 0-6.468-.031-10.76 2.681-15.591 2.626-4.677 7.089-5.855 11.541-9.227-1.079-3.328-1.575-3.357-2.032-7.299h-4.064c-.675 5.838-1.205 6.185-6.095 8.758 0-7.588-4.34-21.031 10.159-21.898v-7.299c-7.94-1.524-6.401-4.285-8.576-11.357-1.509-4.907-2.676-9.716-4.172-15.98-1.032-4.316-2.342-9.385-3.719-14.847-1.663-6.6-5.171-8.606-5.883-14.752h-4.064c0 17.092 8.128 20.084 8.128 43.796-10.622-1.778-3.467-.643-14.223 0 1.448-4.464 3.162-5.611 6.096-8.759-22.382 0-22.297 5.602-28.722 20.24-5.267 12.002-5.79 18.642-22.074 26.477-9.011-13.493-11.458-9.208-31.3-10.861-6.44-.536-7.645-1.84-9.337-5.198h-4.063c-2.521 6.782-3.199 1.291-4.064 8.759-31.47-10.849-28.432.586-46.068 10.697-12.441 7.133-31.314 19.671-39.928 17.674-.432-.1-.989-.315-1.397-.437l-4.041-1.656c-.22 7.125-.327 11.091-10.159 11.679 0-5.763-.639-5.924-2.031-10.219l-9.383 3.478c-.39.159-.904.372-1.28.54-7.37 3.306-16.058 9.286-24.836 11.354-8.641 2.036-7.391.6-15.298 3.607v-5.84c-7.385 1.417-3.572.831-8.727 3.949-5.618 3.397-3.202.569-7.528 4.81 2.739 1.106 2.246.799 6.096 1.46-4.656 4.633.123 1.657-12.191 1.46-.785 6.781 2.179 2.554-4.063 5.84 1.767-5.451 3.387-6.926 8.669-11.29l8.136-5.833c.331-.191.835-.436 1.163-.625 4.849-2.796-1.027 2.613 4.381-2.691-1.984-5.34-2.144-3.059-6.095-7.3 5.328-1.022 3.719-.298 7.959-5.959 4.615-6.164 8.092-7.954 8.295-14.479l-20.624 14.38c-2.629 1.424-1.306.746-3.758 1.679-1.422-4.268.262-2.103-4.064-4.38 13.464-18.282 17.464-18.008 30.956-24.475 4.777-2.289 2.013-2.495 11.713-6.182-1.393-4.296-2.032-4.456-2.032-10.22-14.889 7.164-18.171 17.094-44.701 17.519 6.285-6.743 14.872-6.338 20.319-11.679-10.677.639-9.878 3.683-18.64 4.371-13.248 1.041-10.322-3.438-13.869-8.75-11.84 5.696-1.675-1.671-20.319 7.299.468-4.035 13.472-22.283 18.287-24.818 7.839 5.343 1.466 3.286 6.096 10.219 7.961-.476 14.041-2.17 18.898-5.401 3.367-2.24 9.14-8.039 11.58-10.658-6.592 1.265-14.779 7.341-22.35 10.219-1.401-3.793.753-1.628-4.064-2.919 1.645-5.072 8.626-13.395 14.223-30.658-4.668-2.246-4.084-2.79-12.192-2.92 1.838-2.663 1.568-1.826 2.033-5.839-11.91 4.105-14.064-1.07-18.287 0-8.862 1.699-10.608 6.864-19.369 9.568-11.929 3.682-16.606-.984-23.3-2.269-9.024 9.682-12.464 5.232-24.283 8.831-4.93 1.501-1.255 1.511-8.227 2.849 4.095-35.359 42.855-26.435 48.764-42.337-9.777 1.636-15.179 5.133-22.763 8.579-8.778 3.988-4.957 1.239-10.982 2.639-4.297.999-7.492 3.26-10.441 5.202-12.396 8.159-34.273 17.797-39.119 22.997 15.724-2.632 21.601-12.116 34.541-14.599-10.653 14.465-8.348 12.493-22.668 17.398l-11.218 3.137c-.065-.004-.445-.15-.655-.097-4.86 2.712 1.02 5.407-25.018 17.063-6.52 2.918-4.856 3.551-11.556 4.835 8.976-12.187 13.228-7.913 16.255-16.058-6.498 3.126-1.423 2.397-10.159 2.919.464-4.003 2.349-8.886 3.86-11.882l2.235-10.016c.637-5.502 5.152-8.076 7.861-13.33 3.51-6.81 3.353-8.129 9.227-13.809 10.665-10.311 12.335-12.506 18.683-25.993 3.427-7.28 21.919-30.731 30.31-38.078 9.732-8.521 10.891-1.851 17.224-8.063-25.34 0-25.079 12.961-44.132 26.686-15.384 11.081-10.356 1.492-30.209 22.092l-18.652 17.255c-23.069 20.178-18.687 11.995-25.696 15.542-2.171 1.098-3.362 3.014-4.935 4.72-11.091 12.027-10.312 4.37-26.692 7.05-15.236 2.494-19.357 3.008-38.645 3.008-19.006 25.81-30.319 18.528-42.254 26.576-19.265 12.99-4.701 13.815-51.211 21.6 3.43-3.68 6.478-6.59 8.128-11.679h2.032l-1.693-1.703-.339 1.703c-5.272 2.775-3.585 3.293-8.593 6.965-3.733 2.739-7.607 4.193-11.726 6.174.718-6.191 4.205-10.226 6.097-16.059-6.946 3.342-7.073 11.28-14.223 13.139-7.013-10.5 22.643-38.007 26.414-49.636-12.631 2.423-22.224 16.716-26.637 24.659-2.856 5.142-2.542 6.895-11.969 7.459.816-7.044 4.521-9.704 8.128-14.6-8.889 2.312-9.338 9.981-14.06 14.717-3.407 3.417-5.204 2.976-8.733 5.404l-24.405 20.422c-5.675 6.574-3.747 11.458-15.79 13.474l-1.983-3.281c-.192-.336-.827-1.401-1.03-1.801-1.65-3.25-2.688-6.118-3.081-9.517-6.917 2.384-11.015 2.154-14.465-2.834-2.353-3.401-1.036-9.789.126-11.144 5.49-6.401 13.752-5.53 8.243-22.52h-4.064c-1.566 4.833-5.45 9.2-10.159 11.679-7.423-3.572-3.88-3.994-10.159-7.3 0 10.679 1.307 5.342-6.6 9.857-11.326 6.468-9.148 14.189-27.349 11.765-7.92-1.055-7.136-2.223-18.855-2.66-21.875-.818-18.554-3.805-35.683-6.551-20.034-3.213-18.12 4.762-36.205 2.883-13.216-1.373-24.73-1.239-37.862-3.61-68.412-12.354-38.016-3.649-79.075-7.43-17.108-1.576-18.448-12.975-18.448 10.345-7.89 2.72-16.495 2.92-28.445 2.92l10.2-2.891c7.641-1.654 6.032-.402 10.118-4.409-7.561 0-22.011.585-27.795 2.134-20.789 5.566 15.689 6.623-8.777 8.085l-4.064-7.299c-3.64 9.795-8.576 10.725-20.319 8.759-2.426-3.771-1.443-2.846 0-7.3-15.318.917-2.707 1.52-7.825 7.574-6.977 8.254-31.414-6.079-49.067-9.033v-4.38c8.005-1.34 12.023-1.689 16.255-5.84-13.135 0-14.387-2.836-20.905-1.844l-25.828 1.844c-1.13-9.762-11.368-5.578-20.936-4.733-10.877.96-14.588-2.387-25.796-2.566-.552 17.805-26.49 13.235-32.51 13.139-1.198-10.35-9.043-9.345-10.159-18.979-8.058 4.242 3.324 18.43 4.064 24.818-34.992 12.064-44.255-4.534-56.026-2.018-1.387.298-5.19 2.525-7.014 3.372-3.026 1.405-5.142 2.002-8.316 2.854-8.466 2.273-32.456 10.07-30.27-3.953 1.032-6.62 10.327-8.83 3.46-11.045-4.291-1.384-8.495 2.943-17.65 3.491v-7.3c-18.594 0-35.403 15.684-52.828 7.3-.838 7.23-4.987 10.919-12.56 12.97-6.08 1.646-6.059.629-8.865 1.632-.035.012-6.381 3.478-8.873 4.467-11.739 4.658-13.774 1.096-25.225 3.813-3.107.737-17.413 5.557-20.848 6.919l-29.546 10.889c-16.025 4.978-36.115 14.951-52.567 17.705 3.952-4.239 4.11-1.959 6.095-7.299-5.187-1.788-.555-.317-5.733-.999l-4.426-.461c2.342-6.303 11.311-7.834 16.255-13.14l-67.052 24.819c-1.494-4.609-2.569-9.991-4.063-14.599-8.424 4.371 11.314 13.088-19.583 23.888-12.206 4.267-22.024 5.863-34.799 2.05-5.607-1.674-4.793-1.469-6.573-6.96-9.552.599-4.992-2.171-4.064 5.84h-6.095c-3.086-6.687-2.169-.9-3.8 1.269-3.953 5.258 3.129 3.881-8.392 4.57-1.723-5.312-1.122-4.681-6.096-7.299-19.749 3.305-2.09 11.307-30.478 16.058-2.706-8.344 1.037-7.467 2.032-16.058-9.437-.565-3.554 1.565-8.128-2.92l-6.417 2.823c-3.979 1.967-3.481-1.133-5.774 5.936 4.632.776 4.673 1.132 10.159 1.46-.341 11.004-17.469 13.14-18.846 7.165-.921-3.997 2.232-.959 4.622-5.705-6.497-3.127-1.422-2.397-10.159-2.92 0-16.988 34.558-21.225 51.666-28.573 18.13-7.787 19.214-10.193 33.261-16.979 7.813-3.774 13.368-7.318 21.107-11.112l47.715-19.733c11.488-4.472 12.513-7.796 27.086-5.357v2.92c-6.199 1.038-6.636 1.119-11.599 3.345-5.959 2.672-4.765 2.612-12.783 3.954 5.919 5.805 20.093-2.457 25.824-6.263 6.989-4.64 2.068-4.218 12.069-7.386 5.81-1.841 11.039-2.317 16.64-4.103 10.981-3.5 13.977-8.222 30.162-10.446 22.839-3.139 22.993 5.233 22.993-15.598l50.796-10.219c-.112-3.602-1.223-5.707-1.119-7.623.284-5.222 4.095-5.821-.174-7.544-4.658-1.88-11.462-.892-16.994-.892-4.351 4.669-3.337 1.022-4.063 7.3-6.61-3.18-4.526-2.409-8.128-7.3 3.069-4.167 6.453-6.515 8.128-11.679-15.299 2.328 2.045-1.427-9.603-.484l-23.726 5.735c-6.503 1.614-7.248 2.373-12.822 3.927-9.909 2.762-17.625 2.072-26.847 5.572-5.137 1.95-3.678 3.642-11.829 2.572-8.528-1.119-4.296-2.287-10.671-5.643l-17.14 5.204c-8.213 2.399-13.25 2.235-15.369 7.936 12.013 0 17.484-3.753 24.382-1.46-7.943 8.523-48.188 22.178-63.013 27.719-5.232 1.955-7.301 3.25-12.84 5.373-8.654 3.317-21.034 7.116-25.739 12.165 15.153-.243 13.184-3.965 24.382-5.84-2.017 5.427-6.318 7.057-12.795 9.785-6.754 2.845-10.992 5.002-17.27 8.03-25.169 12.14-60.783 30.224-91.343 33.643-10.629 1.189-14.439.724-14.729 9.858-8.55-3.252-8.12-.987-8.12-10.22-10.59-.169-13.37-3.195-20.32-5.839 1.47-4.531 2.59-4.229 4.06-8.759-14.82 2.843-8.88 9.257-8.43 13.334.43 3.818-.14 4.155-3.33 5.864-4.83 2.587-.22.135-4.32 1.353-.48.14-1.05.236-1.52.373l-11.06 3.849c-12.26 3.967-8.75 1.658-5.88 7.344-18.15 3.037-18.31 18.467-70.68 6.985-4.46-.978-5.19-1.701-10.6-2.606-1.47 3.956.69 2.815-4.66 4.156-3.28.821-7.8-.435-9.56-1.236l-6.38 2.849c-.3.124-.88.313-1.19.446l-2.47 1.052c-6.76 3.321-10.52 8.14-16.12 12.081l-2.11 1.474c-10.43 6.035-6.44-.307-4.24-6.223l-8.23-1.387c-8.09-2.947 4.51-.261-5.99-2.993 3.04 4.127 4.81 4.438 2.03 8.76-1.77.45-2.16-2.375-7.93 2.838-5.9 5.328-2.1 4.462-14.42 4.462l-2.41-14.563c-30.31.379-31.63 14.599-50.38 24.812-9.12 4.968-15.56 7.075-23.62 13.701-8.93 7.336-16.14 2.838-27.22 8.167.38-12.192 3.99-9.542 11.36-15.201 9.7-7.456-.08-12.181 11.23-16.745l41.55-19.788c12.89-7.069 28.06-11.089 40.04-19.406 9.59-6.659 16.91-11.457 29.03-15.635 7.21-2.486 6.94-1.039 9.02-6.658h2.04l-1.7-1.703-.34 1.703-8.06 3c3.12-8.641 8.99-4.033 16.19-11.759-10.62-.835-2.41 1.188-7.54-3.337-3.67-3.236.05-2.184-6.68-5.422-2.66 8.187-11.84 21.084-26.41 16.059 2.89-7.793 9.29-5.347 12.19-13.14-7.35-7.201-6.77 1.832-10.16-7.299l-14.16 2.189c-6.02 2.742 5.81 1.439-6.16 2.19-2.33-6.273-13.12-6.704-22.31-5.921-10.19.869-2.29-.347-8.89 2.483-.52.225-1.93.934-2.46 1.153l-27.26 9.609c-6.39 1.349-9.44 1.266-14.63 4.09l-13.28 6.514c-.41.154-.97.315-1.36.485-.37.165-.89.389-1.23.572l-8.61 6.954c-4.07 3.039-7.14 5.431-11.72 7.638-8.88-1.703-7.09-4.865-16.19-7.461-8.53-2.429-24.4 4.173-20.58-5.954 1.01-2.677.9-1.819 2.59-3.675 5.97-6.561 20.8-12.076 21.99-22.327-6.93 2.634-4.91 1.678-10.71 5.449l-30.53 18.939c-32.27 17.943-24.22 13.906-54.26 12.109.61-5.25 2.67-9.475 6.58-12.793 4.65-3.958 7.43-3.293 11.71-9.105-6.51 1.249-21.52 6.642-32.51 7.3 6.65-6.524 8.84-1.686 22.92-14.185 3.98-3.533 3.87-2.637 5.52-7.713-2.38-2.553-2.59-3.249-7.03-5.171-15.59-6.74-22.79-1.974-31.57 2.251l-3.65-2.025c-2.97-2.126-3.27.09-1.85-3.874 1.02-2.819 5.8-1.337-.6-2.86 8.03-7.993-1.44 2.65 8.59-4.031 5.92-3.941 1.89-4.328 9.76-7.601 6.18-2.571 10.42-1.703 21.49-12.301 6.66-6.382 7.25-11.322 17.42-15.223 6.46-2.48 16.02-4.195 26.05-9.021l-17.15-12.497c-6.43-3.599-13.48-2.149-25.52-7.941-4.44 6.019-10.25 11.205-20.32 13.139-.9-7.789-4.74-10.091-14.22-11.679-8.49 9.102-7.73 10.196-17.95 13.388-9.04 2.826-15.2 6.643-24.67 10.007-7.83 2.782-20.25 4.269-25.95 7.631-28.08 16.535-62.93 27.275-92.21 43.242-10.42 5.682-8.42 2.68-15.25 5.105-5 1.779-2.52.894-6.84 6.76-11.09-.177-15.26-3.973-26.42-5.839-5.9 2.84-2.72 2.954-10.15 4.38 4.37 11.78 8.41 4.33-12.09 11.755-7.87 2.85-32.23 13.083-36.68 17.443 16.24 2.719 14.79-2.094 28.45-4.38-3.73 4-13.8 8.913-20.96 11.218-19.86 6.384-8.95.63-19.68 12.14-29.88 0-7.05-6.208-31.11 5.383-4.69 2.257-30.91 10.005-40.01 22.356-15.08 0-14.53.635-24.38 4.379-15.72-7.566-5.91-3.318-14.22-14.599-13.63 4.7-12.19-1.123-12.19 23.359-8.63.138-18.21 3.471-31.2 5.318-11.71 1.666-6.69-1.456-9.44 3.442-11.52-.185-4.61.609-10.73-2.507-3.55-1.803.54-.13-3.38-1.954l-4.01-1.501c-8.86-3.388-4-.078-8.14-5.83-2.13-2.962.05-.643-2.77-3.847-1.2-1.365-1.97-1.725-3.48-3.34 7.14-5.897 11.4-8.519 26.42-8.759l2.03 5.84c3-9.266 18.79-14.144 4.06-21.899 0 6.142.75 7.699-4.06 11.679 0-6.589 2.41-16.908-8.63-14.864l-3.96 1.241c-12.07 3.952-54.25 34.004-66.67 38.498-9.54 3.45-11.89-.491-18.27 1.403-3.04-3.141-.3-1.923-6.1-2.92 3.12 3.226.33 1.814 6.1 2.92-1.16.725 1.81 2.32-5.28 1.667l-4.88-1.667c-1.94 2.901-2.92 5.22-4.06 8.759-6.61-.395-3.35-.38-7.37-2.011-.38-.155-.84-.423-1.21-.585l-15.81-7.623c-4.91 7.352 1.05 4.475-8.28 10.21-8.93 5.494-3 3.591-14.07 2.928v-10.219l-8.05 1.639-.07-16.237c-3.53-1.339-5.34-1.648-8.56-2.61-17.81-5.307-2.11-9.48-16.92-17.043-11.19-5.713-8.95-1.859-14.49-8.57-7.81-9.466-12.84-13.726-35.28-11.316-6.16.662-17.7 1.335-22.91 2.589-5.17 1.243-12.92 5.489-18.52 5.716-8.14.33-1.79-4.998-3.34-13.856-2.74-15.689-27.4-15.987-43.42-25.807-8.48-5.199-3.59-8.661-8.86-14.074-6.63-6.807-32.23-4.036-47.16-4.091-28.51-.108-25.7 2.494-35.17 3.506-4.49.48-4.16-.459-11.55-.577-9.41 10.1-9.1 8.699-20.11 16.204l-10.36 8.614c-13.44-.803-4.27-8.386-20.32 7.302-2.57 2.51-5.42 5.802-9.12 8.048-1.8 1.094-3.73 1.829-5.87 3.077-2.35 1.367-1.85 1.639-5.33 3.472-10.96-.656-24.93-5.545-30.51-10.195-9.85-8.206-9.28-11.704-30.45-11.704-11.83 12.693-3.55 7.323-2.03 20.439-9.61-3.313-7.45.586-12.3-7.22-.2-.323-.35-.744-.55-1.066-.2-.317-.39-.723-.59-1.032-.21-.301-.46-.683-.68-.973-2.15-2.864.06.285-2.45-2.624-2.67-3.112-2.46-2.087-3.75-6.064-26.37 0-35.81-7.83-43.06-10.063-14.94-4.602 1.74 6.865-21.96-4.536-3.67 1.769-6.88 3.793-10.16 5.84-5.26-1.01-7.36-2.544-12.19-4.38-7.12 7.647-23.45 14.537-29.3 18.365l-5.24 4.993c-7.1-3.417-4.84-4.989-14.57-3.411-7.82 1.267-9.72 2.92-17.94 3.411-2.05-5.531-3.97-3.681-6.09-10.219-8.56 4.502-4.38 13.033 0 18.979-13.84-.848-7.71-1.686-9.15-5.536-.76-2.032-.2-5.498-11.17-7.603-7.43 3.572-3.88 3.994-10.16 7.299 0-8.048-1.86-4.393-3.36-12.849-.75-4.217 5.68.155-2.5-4.828-2.17-1.324-4.84-2.086-8.37-2.762-8.66 26.716-25.21 22.305-40.91 37.755-7.01 6.894-27.35 26.376-37.97 24.97l-12.55-1.409c-.94 2.903-1.59 9.196-2.03 17.611V819h4976V391.252l-10.62 6.968c-7.3-.258-1.22-.383-9.7-2.588-5.93 8.051-11.53 18.647-15.98 22.095-4.27 3.313-3.89-.547-6.37 7.102h-4.06c-1.47-4.531-2.6-4.228-4.07-8.759-9.89.591-18.09 7.23-25.24-.847-.99-1.129-2.97-6.806-3.1-8.084-.43-4.227 2.18-14.679 3.96-17.347-8.6 1.65-3.37 1.274-9.95 5.987-16 11.454-6.82 3.851-23.33 9.516-5.14 1.762-7.96 3.653-11.78 4.778-12.28 3.621-15.67-3.465-20.91 8.212-8.4 18.708-6.73 10.346-13.27 16.763.82.239 5.99-.927 2.83 7.554-1.46 3.939-2.44 5.028-5.55 8.01-4.87 4.663-11.27 7.628-21.66 7.795 3.22 9.95-1.08 16.611-16.26 17.518-9.78-4.704-3.73-8.01-16.25-8.759 2.51 3.415 3.49 3.8 4.06 8.759-25.17 4.213-12.1-4.981-30.02-12.008l-6.64-2.531c-4.88-1.941-8.08-3.426-14.14-4.44 3.24 8.71 2.73.105 11.15 8.054 3.58 3.385 4.95 7.119 5.11 12.385Zm-2011.53-83.214 3.962 1.679-3.962-1.679c-3.039-3.141-.297-1.922-6.096-2.919 3.12 3.226.333 1.814 6.096 2.919Zm290.555 17.519-2.337 2.846 2.337-2.846 2.336-2.847-2.336 2.847Zm1418.235 72.995 2.03-1.46h2.03l-1.69-1.703-.34 1.703-2.03 1.46h-2.04l1.7 1.703.34-1.703ZM484.852 411.69l2.032-1.46h2.032l-1.693-1.703-.339 1.703-2.032 1.46h-2.031l1.693 1.703.338-1.703Zm918.398 71.535h2.03l-1.69-1.703-.34 1.703c-4.98 2.618-4.37 1.987-6.1 7.299 5.28-2.537 5.42-1.485 6.1-7.299Zm209.28-167.888v-1.459l-2.37 1.216 2.37.243c.73 6.322 1.14 8.22 10.16 8.76-.68-5.872-3.18-7.421-10.16-8.76Zm-184.9 84.674h2.03l-1.69-1.703-.34 1.703c-4.96.946-2.75-.648-4.06 2.92l4.06-2.92Zm-902.141-17.519h2.032l-1.693-1.703-.339 1.703c-7.025 1.348-6.252.793-8.127 5.84 7.025-1.348 6.251-.792 8.127-5.84Zm959.031 35.038h-2.03l1.69 1.703.34-1.703 8.05-1.639c-1.72-.624 3.04-2.046-3.8-.949-3.58.575-2.21.591-4.25 2.588Zm-2970.56-46.717h-2.03l1.69 1.703.34-1.703c10.44-2.715-1.63.139 5.84-3.104 4.51-1.962 1.26-1.162 8.38-1.276-8.21-8.056-20.52-3.401-26.41 2.92.92 0 5.61-.119 6.18-.061l6.01 1.521Zm2818.17 160.588h-2.03l1.69 1.703.34-1.703c4.22-.81 7.24-2.137 10.62-4.047 4.6-2.599 5.05-2.571 5.64-7.632-9.86 4.742-10.42 3.746-16.26 11.679Zm-727.399-65.695h-2.032l1.693 1.703.339-1.703c5.798-.997 3.057.221 6.096-2.92-5.941 1.022-2.928-.188-6.096 2.92ZM-17.015 256.942c3.528-2.536-2.486-.937-.56.029.015.008.428.065.56-.029Zm560.791 207.304c0-3.627-3.249-.373-1.261 0 .025.005 1.261 4.142 1.261 0Zm804.614 51.096c.8-3.134-2.92-.987-2.74.295l.73.279c3.8-.171 1.23 2.443 2.01-.574Zm-1479.189-68.615c-.083-.482-2.241-.327-2.421-.278-.506.136-3.53-3.379-.882.392.058.083 3.789 2.7 3.303-.114Zm40.637 5.84c-.084-.483-2.241-.327-2.422-.279-.506.136-3.53-3.379-.882.393.058.082 3.79 2.7 3.303-.114Zm1796.152 59.856c1.05-4.06-4.84.7-2.01.573 3.8-.171 1.24 2.443 2.01-.573Zm-67.05-40.877c1.05-4.06-4.84.7-2.01.573 3.8-.171 1.23 2.443 2.01-.573Zm-178.8 35.037c1.04-4.059-4.85.701-2.01.573 3.8-.171 1.23 2.443 2.01-.573Zm121.91 2.919c0-1.716-4.37-3.289-3.15 0 1.23 3.299-5.17.04.94.433 2.56.165 2.21 2.534 2.21-.433ZM972.495 347.454c0-1.716-4.372-3.289-3.145 0 1.23 3.299-5.17.04.938.433 2.559.165 2.207 2.535 2.207-.433ZM1330.1 522.642c0-1.717-4.37-3.29-3.14 0 1.23 3.298-5.17.039.93.432 2.56.165 2.21 2.535 2.21-.432Zm-3702.03-223.364c0-1.716-4.37-3.29-3.14 0 1.23 3.299-5.17.04.93.433 2.56.164 2.21 2.535 2.21-.433ZM2153 387.022c-.55-.985-2.88.584-2.73 1.605 0 .007.14.235.15.238 1.87.354 2.45.738 2.58.836v-.037c-.07-.141-.21-.535 0-1.333v-1.309ZM429.992 400.011c.806-3.134-2.919-.988-2.735.295.001.007.14.235.159.238 4.076.775 2.004 1.687 2.576-.534v.001Zm674.578-55.477c-2.09-1.499-7.35 2.102-2.36.788.05-.013 5.77 1.663 2.36-.788Zm333.22 169.348-4.06 4.38c5.33-1.431 3.01.028 4.06-4.38Zm-837.123-5.84c.806-3.134-2.919-.987-2.735.295.045.31 1.775 3.435 2.735-.295Zm286.491 11.679c-.429-1.666-4.466-3.192-2.735-.295.732 1.223 3.71 4.086 2.735.295ZM-2325.2 1.46c-.14-.556-.68-1.094-1.28-1.46h-1.88c-.01.26.12.64.43 1.165.73 1.223 3.71 4.086 2.74.294h-.01Zm3492.75 331.395c-.42-1.666-4.46-3.192-2.73-.295.73 1.223 3.71 4.087 2.73.295Zm560.79 169.347c-.43-1.666-4.46-3.192-2.73-.295.73 1.223 3.71 4.086 2.73.295Zm-221.47-14.599c3.12 3.226.33 1.814 6.1 2.92-3.2-3.312-.38-1.706-6.1-2.92Zm180.84-39.417c3.12 3.226.33 1.814 6.09 2.92-3.2-3.312-.38-1.706-6.09-2.92Zm-952.94 17.519c1.422 4.268-.262 2.102 4.063 4.379-1.333-4.001.825-2.273-4.063-4.379Zm1054.53-64.236c1.42 4.268-.26 2.103 4.06 4.38-1.33-4.002.83-2.273-4.06-4.38Zm-353.54 91.974h-6.1v1.459h6.1v-1.459Zm-650.194-52.556h-2.031v4.379h2.031v-4.379Zm99.561-18.979h-2.031v4.38h2.031v-4.38Zm879.793-75.914h-6.1v1.459h6.1v-1.459Zm-725.37 72.994h-2.03v4.38h2.03v-4.38Zm-182.869 1.46h-2.031v4.38h2.031v-4.38Zm532.349-87.593h-6.1v1.46h6.1v-1.46Zm-229.6-1.46h-6.1v1.46h6.1v-1.46ZM832.3 427.748h-2.033v4.38h2.033v-4.38Zm696.92 5.84h-2.03v4.38h2.03v-4.38Zm361.67 1.46h-6.09v1.46h6.09v-1.46Zm-422.62-78.834h-6.1v1.46h6.1v-1.46Zm221.47 108.032h-2.03v4.38h2.03v-4.38Zm-2397.582 11.679c-5.94 1.022-2.927-.188-6.096 2.919 3.563-.612 5.444-.183 6.096-2.919ZM537.681 414.61c-5.94 1.021-2.926-.188-6.095 2.919 3.562-.612 5.444-.183 6.095-2.919Zm-1300.383 86.133c-5.941 1.022-2.927-.188-6.096 2.92 3.562-.613 5.444-.183 6.096-2.92Zm99.561-86.133c-4.491 2.241-2.525.239-4.064 4.379 3.362-1.678 3.907-.309 4.064-4.379Zm1509.664-2.92c-4.49 2.242-2.525.239-4.064 4.38 3.362-1.678 3.908-.31 4.064-4.38Zm548.597 80.294c-4.49 2.242-2.52.239-4.06 4.38 3.36-1.678 3.91-.31 4.06-4.38Zm-3342.39 8.759c-4.49 2.243-2.53.24-4.06 4.38 3.36-1.678 3.9-.309 4.06-4.38Zm-631.9-43.796c-4.5 2.242-2.53.239-4.07 4.38 3.36-1.678 3.91-.31 4.07-4.38Zm3917.4 62.775c-4.49 2.243-2.52.24-4.06 4.38 3.36-1.678 3.91-.309 4.06-4.38Zm-2771.44-112.411c-4.49 2.242-2.53.239-4.06 4.38 3.36-1.678 3.9-.31 4.06-4.38Zm1785.995-14.599c-4.491 2.242-2.526.239-4.064 4.38 3.361-1.678 3.908-.309 4.064-4.38Zm418.561 68.615c-6.311 3.274-6.311 1.105 0 4.38v-4.38Zm77.21-59.856c-6.31 3.275-6.31 1.105 0 4.38v-4.38Zm623.774 113.872c.93-.667 4.76.135.05-1.792-2.03-.83-5-.261-2.54 1.822 3.18 2.696 1.11.966 2.49-.03Zm-79.24-77.374c-6.12 1.174-4.46-.018-6.09 4.38 8.17-2.126.3 1.215 6.09-4.38Zm532.35-5.84v2.92h6.09c-3.2-3.312-.38-1.706-6.09-2.92ZM620.989 484.685h-6.096c3.121 3.226.334 1.814 6.096 2.92v-2.92Zm796.481-74.454c-5.94 1.022-2.92-.188-6.09 2.919h6.09v-2.919ZM-711.905 421.91c-5.939 1.021-2.926-.188-6.095 2.919h6.095v-2.919Zm-42.668 75.914c-5.94 1.022-2.927-.188-6.097 2.919h6.097v-2.919Zm2472.763-55.476h-4.07c1.43 4.268-.26 2.103 4.07 4.38v-4.38Zm-83.31 51.096c-.47.771-6.44.904 4.06 2.92-1.08-2.922 2.61-.59-1.63-2.995-3.52-2.002.3-.9-2.43.075Zm109.72-64.236h-6.09v2.92c3.56-.613 5.44-.183 6.09-2.92Zm-873.694 54.016h-4.064v4.38c3.362-1.678 3.907-.31 4.064-4.38Zm406.374-16.059h-4.07v4.381c3.36-1.679 3.91-.31 4.07-4.381Zm-774.139-67.154c-2.058.395-7.847.201-4.064 2.919 2.181 1.567 3.903 1.266 4.064-2.919Zm878.199 14.911-6.54-.312v4.379l6.54-4.066v-.001Zm221.03 49.324c-8.23 1.378-6.12.391-8.13 4.38 6.64-2.522 4.01-.12 8.13-4.38Zm-1899.777-17.519c-9.437.565-3.554-1.565-8.128 2.92 4.778-.286 7.396.155 8.128-2.92Zm353.541-13.139c-6.242 3.286-3.278-.941-4.063 5.84 5.198-2.737 4.063.505 4.063-5.84Zm1743.326-39.417c-6.24 3.286-3.28-.941-4.06 5.84 5.2-2.737 4.06.505 4.06-5.84ZM639.275 480.304l-8.049-1.639c1.789 2.184 6.953 7.329 8.049 1.639Zm-948.874-33.577c-6.122 1.174-4.461-.019-6.096 4.38 4.64-.891 5.94-.332 6.096-4.38Zm-656.287 20.438c-7.394 1.238-6.516.806-10.159 4.38 7.133-1.194 6.701-.804 10.159-4.38Zm1798.187-32.118h-4.064v4.38h4.064v-4.38Zm-713.179-2.919c-7.325 1.405-5.434.133-6.096 5.839 5.626-2.961 2.739-.975 6.096-5.839Zm-347.447 5.839c-1.309 1.083-1.522.336-2.736 2.414-1.989 3.403-.85.769-1.327 4.886 5.597-2.947 4.063.103 4.063-7.3Zm-556.726 24.819c4.573 4.485-1.309 2.355 8.128 2.919-3.861-4.143-2.849-4.487-8.128-2.919Zm1651.893 26.277v7.3c.164-.135 2.887-.798 3.389-3.446.707-3.734-.087-2.115-3.389-3.854Zm881.828-68.614v7.299c2.49-1.315 3.28-.475 3.48-2.935.31-3.674-3.46-4.343-3.48-4.364ZM440.154 392.711l-8.067 3c1.479 1.887 1.05 1.533 1.971 4.3l6.096-7.3ZM1645.04 496.363v2.92h8.13c-4.59-4.501 1.32-2.342-8.13-2.92Zm-782.26-68.615h-4.064c.785 6.78-2.179 2.553 4.064 5.84v-5.84Zm22.35-13.139h-4.064v5.84c5.199-2.737 4.064.505 4.064-5.84Zm65.019 75.914c-7.099 1.362-4.562.555-8.127 4.38 5.862-.35 7.957.033 8.127-4.38Zm394.181-97.812c-5.27 2.771-4.32 3.271-6.1 8.759 5.27-2.771 4.32-3.271 6.1-8.759Zm-672.544 71.534c-6.122 1.175-4.461-.018-6.096 4.38h6.096v-4.38Zm457.164-10.219c0-4.111-.88-2.703-4.06-4.38v7.3c1.81-.73 4.06-.95 4.06-2.92Zm-548.597 37.958h-8.128v4.38c6.632-2.522 4.007-.12 8.128-4.38Zm327.127-20.438h-2.031c0 7.757-6.214 4.418 2.031 8.758v-8.758Zm532.34-27.738-6.53 4.066c8.87 3.115 8.37 1.44 6.53-4.066ZM397.486 433.589c-5.179 2.491-6.344 2.501-8.128 7.299 6.765-2.572 6.105-1.061 8.128-7.299Zm806.644-116.792c3.58 3.513 4.06 3.894 12.19 4.38-3.58-3.513-4.06-3.894-12.19-4.38Zm526.25 11.679h-10.16v2.92c5.42-.086 9.35.471 10.16-2.92ZM-273.025 445.267h-10.159v2.92c5.417-.086 9.353.471 10.159-2.92Zm2194.395-7.299c-7.99 1.338-8.24 1.606-12.19 5.84 7.99-1.338 8.25-1.606 12.19-5.84ZM1387 502.203c-.25.409-4.63-.476.45 2.723 2.36 1.482 1.65 2.205 4.19.381 5.38-3.867-.47-3.009-.5-3.03-3.87-2.572-3.01-.458-4.14-.073v-.001Zm-814.775 4.38h-4.064v7.3h4.064v-7.3Zm1107.355-18.978c-9.6.153-7.98-1.486-10.16 4.38 7.35-.44 7.34-.631 10.16-4.38Zm-995.604-18.979c-7.187 1.379-6.265 1.557-8.127 7.3 9.465-1.816 3.951-1.046 8.127-7.3Zm-93.465 13.14c-8.483 4.081-4.012 2.596-8.127 8.759.018-.005 2.615.59 5.932-3.037 2.427-2.654 1.726-1.676 2.195-5.722Zm865.569 27.737c1.06 6.967-2.79 2.463 6.09 5.84 1.49-5.031 3.17-5.286-6.09-5.84ZM517.364 391.252c-6.574 1.261-10.896 3.731-14.223 7.3 8.461-1.417 10.029-2.799 14.223-7.3Zm73.146 86.134c-9.448.151-10.087.178-12.19 5.839 6.255-1.2 4.111-.797 11.097-5.166.219-.137.732-.447 1.093-.673Zm-130.037-91.974c-6.198 1.038-4.912 1.744-10.16 0-1.604 4.319-.826 2.367-4.064 5.84 6.813-1.14 10.675-2.359 14.224-5.84Zm737.557-64.235c-1.01-1.299-1.32-2.92-4.06-2.92-5.62 0-4.89 1.127-6.1 4.38 4.3-.068 8.04.259 10.16-1.459v-.001ZM-695.651 443.808c-5.393-1.859-2.173-1.332-10.159-1.46.731 2.19.446 4.38 4.064 4.38 3.673 0 5.574-.73 6.095-2.919v-.001Zm995.607-45.256c-4.588 3.792-5.898 5.328-6.096 11.679 6.733-5.566 6.096-4.609 6.096-11.679Zm357.606 49.636c3.582 3.513 4.064 3.894 12.191 4.38-4.265-4.576-5.133-6.726-12.191-4.38Zm414.498-24.818c-5.32 2.561-4.2.738-6.1 5.839.04.024 3.79 1.461 4.07 1.461 10.6 0 3.03-.737 2.03-7.3ZM70.358 435.049h-4.064l-4.348 10.152c6.592-2.968 8.185-2.844 8.412-10.152Zm1466.992 23.358c-.93.448-3.47 1.272-4.95 2.282-3.21 2.199-1.55.335-3.17 3.557 2.44 1.466 11.7 5.188 8.12-5.839ZM527.524 391.252c-8.461 1.416-10.029 2.799-14.223 7.3 5.848-.35 5.02-.154 9.171-2.17 5.567-2.704 3.588-1.192 5.052-5.13Zm656.286 32.118c-11.83-2.036-9.56-3.107-14.22 1.46 5.98 1.001 6.2 1.459 14.22 1.459v-2.919Zm377.92 62.775c-7.26 1.216-14.44 3.535-18.28 7.3 10.54-.63 13.69-2.375 18.28-7.3ZM578.32 423.37c-6.968 6.834-5.776-1.554-6.096 8.759.32-.154 6.12-2.702 6.274-2.791 5.994-3.49 3.122.627 3.885-5.968h-4.063l4.771-4.278c2.39-4.441-2.845-6.22-5.628-18.465-3.018-13.282-4.572-18.387-23.526-15.214v2.919c8.991.144 10.802 1.521 16.564 12.917 4.308 8.519 3.755 10.399 3.755 22.121h4.064Zm-542.505 8.759c-10.536 0-7.885-1.302-12.19 2.92 1.015 1.299 1.322 2.919 4.063 2.919 5.999 0 7.005-2.471 8.127-5.839Zm1464.965-84.674v-1.459c-12.65 0-19.75 3.207-22.35 10.219 6.03-2.905 13.07-8.76 22.35-8.76Zm-1194.729 10.22c-5.488 0-5.602.696-10.159 1.46 1.457.727.873.862 3.74 1.692 3.413.988 1.539.611 4.694 1.008 3.548.445 8.193.22 11.884.22-2.346-2.301-4.712-4.38-10.159-4.38Zm107.688 55.476c-7.251 3.488-7.91 6.201-10.159 13.139 5.852-1.123 5.075-1.005 7.638-4.731 2.127-3.093 2.387-4.103 2.521-8.408Zm465.294 96.353c-8.737-.522-3.662.206-10.16-2.92-.137 4.448-.917 5.323-2.031 8.76 9.186-.148 10.309-.193 12.191-5.84ZM1915.28 401.472c-1.9-5.101-.78-3.279-6.1-5.84-7.71 3.709-9.22 7.979-2.78 7.918.02 0 3.37-1.741 8.88-2.078ZM499.076 296.359c-10.216.164-9.938 1.65-10.159 8.76 8.689-1.455 9.924-1.178 10.159-8.76Zm1601.094 74.455c.56 4.823 2.65 8.759 4.07 13.139h4.06c0-7.939.8-11.427-8.13-13.139ZM1655.2 483.225c-4.53.869-6.1.341-6.1 4.38v7.3c12.77-.764 6.1-2.097 6.1-11.679v-.001Zm-2302.087-94.893c-3.874-7.69-5.48-2.346-20.318-1.459v2.919c1.56-.093 6.75-.8 6.76-.8 2.437-.102 10.626 1.911 13.558-.66Zm2409.777 49.637c-4.66-4.999-4.9-4.528-12.19-7.299v11.678c4.83-1.835 6.92-3.369 12.19-4.38v.001ZM553.937 537.242v4.379h-10.159l8.087-2.949c.299-.149.86-.546 1.091-.676.231-.128.651-.505.981-.754Zm696.923-48.177-16.25 7.3 27.29-5.207c8.72-2.267 2.22 1.383 7.25-3.553l-18.29 1.46Zm-335.254-2.92c-9.353 1.795-8.128 3.034-8.128 11.679 0 4.111.879 2.704 4.064 4.38 2.297-7.085 4.063-6.597 4.063-16.059h.001Zm997.634-37.957c7.67 2.546 3.87 2.722 8.13-1.46-6.38-3.827-14.19.948-18.28 2.92 2.71 4.059 2.03 2.827 2.03 8.759h4.06c.96-8.324 3.1-1.895 4.06-10.219Zm-2783.63-35.037c0-7.86-11.339-7.3-22.35-7.3l6.37 2.723c2.564.4 7.107.197 9.885.197 2.389 8.107-1.547 6.837-4.064 14.599 4.135-1.989 10.159-5.384 10.159-10.219Zm2373.2-49.637c-1.77-4.774-5.1-6.325-10.16-8.759-8.7 3.001-7.63-.962-10.16 5.84 9.35 1.565 13.24 4.747 20.32 2.919Zm-416.53 81.754c-2.59-3.875-1.85-1.562-2.03-7.299-3.06 1.475-5.85 2.964-9.4 4.922-5.09 2.799-5.33 3.51-6.85 8.217 11.19-.179 11.78-2.71 18.28-5.84Zm434.82-102.192-16.26 1.46c7.17 3.265 20.49 1.693 20.32 5.84-.17 4.206 16.74 4.884 8.41-2.955-3.1-2.916-5.66-4.345-12.47-4.345ZM631.147 489.065c-7.122 1.366-4.375.579-8.231 4.305-2.379 2.298-3.977 3.999-6.85 6.757-4.874 4.677-9.377 7.725-11.332 13.756 8.26-.494 4.841.901 8.933-3.801l11.952-13.311c3.851-3.669 3.789-2.342 5.528-7.707v.001Zm-1343.052-8.76c-13.713 2.296-20.421 5.841-31.375 11.035-6.079 2.883-5.337 1.388-7.23 6.484 7.842-1.312 32.87-11.365 38.605-17.519Zm2350.845-30.657c-4.68 0-10.81 2.019-15.48 3.471-6.68 2.073-7.44 3.006-10.93 6.748 4.41-.845 19.92-11.158 33.15-.372 7.69 6.264-5.44 3.94 7.49 4.751-1.12-9.63-14.04-14.599-14.23-14.599v.001Zm-2541.838-5.84c-14.855.888-41.579 13.448-46.733 18.979 9.145-1.531 42.194-14.11 46.733-18.979ZM1193.97 416.07c-5.27-5.169-9.43-2.783-12.19-10.219h-6.1l-2.03 11.679c12.51 4.756 7.98 3.231 20.32-1.46Zm-50.8 2.92c0 5.238 7.63 7.77 10.16 14.599 10.59-2.031 9.63-10.084 8.16-11.675-2.19-2.382-18.32-8.36-18.32-2.924Zm152.39-27.738c-3.56-3.823-5.06-6.052-8.13-10.219l-12.12 1.681c-.1 12.099 1 8.428-2.1 12.918 10.98 0 5.8-.047 14.77-2.529l7.58-1.851Zm-1440.579-4.38c-6.056.097-7.125-.283-14.621 4.094-4.127 2.409-6.979 4.601-9.761 7.585 20.917-3.501 15.297-1.761 34.541 1.46-2.734-7.357-7.136-3.816-10.159-13.139Zm1922.129 64.235h12.19c-3.54-3.471-4.25-4.379-22.35-4.379-12.01 0 7.27 3.037-10.26 1.384-.13-.012-5.99-2.96-5.99 4.456 0 5.089 9.5 1.459 14.22 1.459 7.65 0 3.84.96 12.19 1.46v-4.38Zm-1028.115-1.459c0-5.408-1.982-6.595-6.096-8.759-.456 3.941-.952 3.971-2.031 7.299-6.012-1.153-3.294-.594-8.128-2.92 0 16.596-6.096 2.205-10.159 13.14 1.791.709.355.552 2.49.707 19.044 1.386 16.943-1.347 20.74-5.911 2.745-3.299 3.184-1.029 3.184-3.556Zm-1436.517 10.219c-11.502.184-18.736 4.789-27.076 8.284-6.37 2.669-20.241 8.742-23.72 12.154 8.463-.506 33.278-9.378 41.091-12.812 5.762-2.533 7.821-2.557 9.705-7.626Zm71.114-13.139c-7.038-2.427-15.205.811-22.634 2.715-18.134 4.648-18.062 3.656-20.034 8.964 8.817-.141 18.038-2.978 26.414-4.38-2.333 7-1.384 2.269 0 4.38 18.573-3.539-.915.891 11.881-7.428l4.374-4.251h-.001Zm1985.118-78.834c-21.38-3.255-6.9 9.394-26.41 13.139 2.71 4.059 2.03 2.827 2.03 8.759 10.92-.652 10.72-2.339 14.94-8.241 3.8-5.31 8.74-7.587 9.44-13.657Zm22.35 110.951c7.75 0 1.54 2.123 14.22 0-2.77-8.552-2.43-3.177-8.12-8.759-16.24 6.171-25.74 2.969-36.58 14.599 15.31-.245 24.22-5.84 30.48-5.84Zm-136.13-78.834c9.52-3.282 8.43 1.294 14.22-4.379-7.93 0-16.17-.389-23.92.415-12.89 1.339-9.82-.415-22.81-.415 0 17.21 11.61 7.299 16.25 7.299 14.13 0 9.17-.487 16.26 2.92v-5.84Zm162.54-46.716c-6.9-.413-7.43-1.113-12.19-2.92-1.35 8.861 1.67 1.232-9.89 7.495-4.98 2.699-6.24 7.11-5.54 11.18.97 5.579 1.47 5.025 7.31 6.143 3.19-9.857 17.18-13.474 20.31-21.898ZM862.779 489.064l-6.823.938c-.368.128-.929.425-1.251.563l-6.211-32.114c-.025-6.633-1.487-29.854-4.003-33.621-4.869 1.412-1.942-.593-4.47 2.737-3.249 4.277 3.788 26.793 4.499 38.119 1.011 16.101 1.656 31.672 6.067 45.277 8.327-4.321-1.741-1.441 2.987-10.881 1.652-3.299 7.039-5.192 9.204-11.018h.001Z" fill="#F2F2F2"/><path fill-rule="evenodd" clip-rule="evenodd" d="m93.295 741.861 2.315-2.251c1.008-1.199.692-1.246 2.164-2.402 3.898-3.057 1.937 1.144 6.497-2.577-1.27-2.716-.215-.191-1.107-.785-1.472-.98.143 1.676-1.245-.883 10.456-3.56 15.187-1.911 15.025-4.823-.158-2.833-1.419 1.328-.129-.739 2.132-2.615 4.372-.375 6.842-3.489.404-.509 3.363-7.172 11.19-7.634-.641-.808-.381-.589-.784-1.669l3.113-1.142.023 3.367c-2.075-.39-.645.045-2.352-.556-.747 1.312-.06.235-1.817 1.492-3.127 2.236-7.864 6.389-7.624 9.583.416 5.553 5.151 5.864 5.737 9.231.363 2.09-1.558 2.574 1.297 3.709 3.322 1.322 5.955-.792 7.043-1.199l1.696-.44c2.707-.965 1.153-1.809 4.643-3.467 0 2.95.036 3.284.784 5.562 4.41-1.501 2.055.615 3.293-2.114.494-1.089.627-2.885.627-4.56 2.611 1.357 1.568.572 1.568 7.23 5.688 2.135 4.091 3.882 5.18 7.055.224.652 3.733 5.937 7.592 6.687l9.964 1.274c.362-2.35-.773-1.669 3.92-1.669 0-3.429 1.261-2.239 2.352-5.561l1.667 2.155c1.063 1.134.323.178 1.036.94l2.785 5.247 2.266-2.285c.876-1.349.833-2.063 1.654-3.276 3.429 1.782.655.99 3.92 4.449 3.356 0 4.331-.638 7.51-.359 2.654.233 4.955.666 7.453.875 11.221.942 6.291-.682 9.772-.645 1.382.014 1.707.391 3.489.685.62-.885.803 1.023 0-1.669 3.749 1.949-.499 1.669 7.056 1.669-.833-1.117-.672-1.001-1.82-2.046-1.598-1.457-1.316-.32-2.1-2.403 3.346 1.256 3.372 2.067 5.927 3.067 4.017 1.572-.208.148 2.879.05 2.755-.087.481.159 3.738.776v-2.781c4.823.914.343 2.431 6.271 2.781-1.524-1.615-1.586-.747-2.352-2.781l3.137-.556c-4.699-.89-7.529-3.848 0-6.674 1.051 1.806.037 3.06-.785 5.562 5.479.425.279.38 2.851 1.111 1.905.542 3.046-.341 5.302-2 2.961-2.178 1.545.758 2.04-2.448h9.407c2.216 1.813 4.185 3.943 0 6.117-.738-1.111 1.111-.781-2.352-4.449-5.037 0-8.388 1.739-9.408 4.449 3.525.274 1.967-.832 2.353 1.669 6.981-.412-.61-1.751 5.487-2.225 1.434 2.199-2.202 4.133 2.283 4.491l.669-.002c.069.01.276.047.35.063 2.562.576-.342.768 3.754 1.01l.603-1.83c.583-.771 1.817-1.479 2.533-2.063l1.636 2.732c.077.118.171.263.246.382l1.181 1.942c.51.654.953.889 1.641 1.617h5.488c.677-2.062 1.442-1.732-.229-3.683-1.265-1.476.051 1.402-1.339-1.322 3.604.595 3.387.113 5.645 2.669l1.942 2.515c.056.08.147.26.253.378.55-1.472-.063-.458.783-1.669-.795-.746-.783 1.17-.783-1.668h.783v1.668h1.568c-.284-2.426-.136-1.193-2.001-3.029-.341-.335-1.091-1.141-1.242-1.344-4.269-5.727-2.496-1.615-8.517-3.969.409-3.485 1.953-1.305 3.136-4.449h1.568c1.517 4.618 4.725 1.961 6.272 1.669-.704 1.08-.799 2.119.862 3.808 1.87 1.902-.02.222 2.199 1.25 1.561.723-.184-.362 1.408.67l1.019.945 1.411-1.223c3.26 1.585 3.279 2.777 4.861 5.116l7.056-2.78v2.78h3.92c-.709 1.015-.605.696-.784 2.225 4.158-1.415 6.135 1.376 13.362 4.426.201.085.742.357.953.435 2.446.911-1.58.434 2.933.701-3.265-3.459-4.909-2.869-9.408-5.006.959-1.286.704-.919 1.924-1.991.768-.676 1.309-.004 1.738-2.101.626-3.052-1.956-.395-2.094-4.806 2.666-.441 11.045-1.724 13.652-1.48l3.885.68c3.218.76 2.424-.831 2.847 1.912 3.744 0 3.25-.377 6.272-.556l-.88 2.203c4.226.09 6.455 1.503 9.731 1.922 3.495.448-1.097-.117 2.211.011 2.337.09 1.797.105 3.834.87-.178-.54-.561-1.761-.821-2.199-1.091-1.833-4.632-2.784-7.02-3.919 1.744-3.063-2.036 3.038 1.421-1.221l.505-1.776c.088-3.672.035-.555 1.21-3.677 2.221.131 5.354 1.089 7.056 1.669-.68-2.28.35-1.598-.784-3.337 2.663-.157 2.87-.424 4.704-1.112.658.696 3.866 3.557 4.718 3.883 4.543 1.736 4.893-1.368 6.258 2.79h1.568c1.323-4.028-3.152-6.325-8.624-7.23.691-1.836 2.116-2.846 4.704-3.336 1.138 3.023 1.906 1.725 5.884 2.515 5.734 1.139.949 1.205 7.444.821.509-4.334 2.772-3.008 3.136-6.117 2.677 1.391.784.835.784 4.449.405.138 1.597.542 2.137.789.113.052.31.172.416.222l1.228.541c1.179.37 1.265.053 1.707 1.229 5.248 0 6.856-1.379 11.76-1.669 2.051 1.38 2.345 2.159 4.13 3.745 1.902 1.69 2.364 2.314 6.062 2.373.231-1.967 1.438-3.011 3.136-3.893-.972-2.584-1.234-.492-1.567-3.337 3.128-.05 2.902-.257 4.704-1.112 0 2.902-.131 3.502 1.365 5.705.6.885.187.182.73 1.15l.607 1.238c.057.112.168.314.214.404.047.09.112.28.22.401-1.831 1.772-1.306.452-3.136 2.224 3.824 1.061.398-.961 2.843.256.085.042.261.165.349.217l.769.528c1.942 1.204 3.447 1.876 6.23 2.336.603-1.601 1.288-1.451 2.977-2.337l1.24-.789c1.892-1.748-.697-2.354 4.407-2.435-2.615 2.77-1.145 3.336-1.516 6.24-.191 1.493-.963-.949-.052 2.102l5.452-1.19.939 3.396c3.888-.218 1.819-.758 5.369.575v-2.225c2.277 1.082 1.052 1.126 3.92 1.669-1.525-1.615-1.586-.747-2.352-2.781 9.066 3.086 15.746 2.764 21.283 4.368 1.105.32 1.836.861 3.669 1.313 5.588 1.379 5.063.282 7.976-1.232 1.721 1.061 1.75 1.494 4.703 1.669-3.975-5.878-4.562-1.604-4.703-6.118 4.63.877.348 1.807 5.487 2.781 5.003-.948 1.108-1.813 5.488-3.893 1.636 2.418.085 1.805-.784 4.449 6.155-1.017 5.881.27 10.976 1.112-.43-1.309-.731-1.642-.784-3.337.86.702 1.423 1.404 2.352 1.113 0-2.464.012-4.099-1.035-5.94-1.013-1.781-2.735-2.23-4.453-3.515.417-1.268.608-1.279.784-2.781h1.568c.261 2.225.466 2.357 2.352 3.337 0-2.891 1.675-8.012-3.92-8.342v-2.781c3.064-.58 2.47-1.632 3.309-4.326.583-1.87 1.033-3.702 1.61-6.088.398-1.644.904-3.575 1.435-5.656.642-2.514 1.996-3.278 2.27-5.62h1.568c0 6.511-3.136 7.651-3.136 16.685 4.099-.678 1.338-.245 5.488 0-.559-1.701-1.22-2.138-2.352-3.337 8.636 0 8.603 2.134 11.082 7.71 2.033 4.572 2.235 7.102 8.518 10.087 3.477-5.141 4.421-3.508 12.077-4.138 2.485-.204 2.95-.701 3.602-1.98h1.568c.973 2.584 1.234.492 1.568 3.337 12.143-4.133 10.971.223 17.776 4.075 4.8 2.717 12.082 7.493 15.406 6.733.167-.038.382-.12.539-.167l1.559-.631c.085 2.715.127 4.226 3.92 4.45 0-2.196.247-2.257.784-3.893l3.62 1.325c.151.06.349.141.494.205 2.844 1.26 6.196 3.538 9.583 4.325 3.334.776 2.852.229 5.903 1.375v-2.225c2.849.54 1.378.316 3.368 1.504 2.167 1.294 1.235.217 2.904 1.833-1.057.421-.867.304-2.352.556 1.796 1.765-.048.631 4.704.556.303 2.583-.841.973 1.568 2.225-.682-2.077-1.307-2.639-3.345-4.301l-3.14-2.222c-.127-.073-.322-.166-.448-.238-1.871-1.066.396.995-1.691-1.025.766-2.035.827-1.166 2.352-2.781-2.056-.39-1.435-.114-3.071-2.271-1.781-2.348-3.123-3.029-3.201-5.515l7.958 5.478c1.014.542.504.284 1.45.639.549-1.626-.101-.801 1.568-1.668-5.195-6.965-6.738-6.861-11.944-9.324-1.844-.872-.777-.95-4.52-2.355.538-1.636.784-1.698.784-3.893 5.745 2.729 7.012 6.512 17.248 6.673-2.425-2.568-5.738-2.414-7.84-4.449 4.12.244 3.812 1.403 7.193 1.666 5.111.396 3.982-1.31 5.351-3.334 4.568 2.17.646-.636 7.84 2.781-.181-1.538-5.198-8.489-7.056-9.455-3.025 2.036-.566 1.252-2.352 3.893-3.072-.181-5.418-.826-7.292-2.057-1.299-.854-3.527-3.063-4.468-4.06 2.543.481 5.702 2.796 8.624 3.893.54-1.446-.291-.621 1.568-1.113-.635-1.932-3.329-5.103-5.488-11.679 1.801-.855 1.575-1.063 4.704-1.112-.709-1.014-.605-.696-.784-2.225 4.595 1.564 5.426-.407 7.056 0 3.419.648 4.093 2.615 7.473 3.645 4.603 1.403 6.408-.375 8.991-.864 3.481 3.688 4.809 1.993 9.369 3.364 1.903.572.484.576 3.175 1.085-1.58-13.47-16.536-10.07-18.816-16.128 3.772.624 5.857 1.956 8.783 3.268 3.387 1.52 1.913.472 4.237 1.006 1.658.38 2.891 1.242 4.029 1.981 4.783 3.109 13.225 6.78 15.094 8.761-6.067-1.003-8.334-4.615-13.327-5.561 4.11 5.51 3.221 4.759 8.746 6.628l4.329 1.194c.025-.001.171-.057.252-.036 1.875 1.032-.393 2.059 9.653 6.5 2.516 1.111 1.874 1.352 4.459 1.842-3.463-4.643-5.104-3.015-6.271-6.118 2.507 1.191.549.913 3.919 1.112-.179-1.525-.906-3.385-1.489-4.526l-.862-3.816c-.246-2.096-1.989-3.077-3.034-5.078-1.354-2.594-1.293-3.097-3.56-5.26-4.115-3.928-4.759-4.765-7.209-9.903-1.322-2.773-8.457-11.707-11.695-14.506-3.755-3.246-4.202-.705-6.646-3.071 9.778 0 9.677 4.938 17.029 10.166 5.935 4.221 3.996.569 11.656 8.416l7.197 6.573c8.901 7.687 7.21 4.57 9.915 5.921.837.418 1.297 1.148 1.904 1.798 4.279 4.582 3.979 1.665 10.299 2.686 5.879.95 7.469 1.146 14.911 1.146 7.334 9.832 11.699 7.058 16.304 10.124 7.433 4.949 1.814 5.263 19.76 8.229-1.324-1.402-2.5-2.511-3.136-4.449h-.784l.653-.649.131.649c2.034 1.057 1.383 1.254 3.315 2.653 1.441 1.043 2.935 1.597 4.525 2.352-.277-2.359-1.623-3.896-2.353-6.118 2.68 1.273 2.729 4.297 5.488 5.006 2.706-4.001-8.737-14.48-10.192-18.91 4.874.924 8.576 6.368 10.278 9.394 1.102 1.959.981 2.627 4.618 2.842-.314-2.684-1.744-3.697-3.136-5.562 3.43.881 3.603 3.802 5.425 5.606 1.315 1.302 2.008 1.134 3.37 2.059l9.417 7.78c2.189 2.504 1.445 4.365 6.092 5.133l.766-1.25c.073-.128.319-.534.397-.686.637-1.238 1.037-2.331 1.189-3.626 2.669.909 4.25.821 5.581-1.079.908-1.296.4-3.729-.049-4.246-2.118-2.438-5.306-2.106-3.18-8.579h1.568c.604 1.841 2.103 3.505 3.92 4.45 2.864-1.361 1.497-1.522 3.92-2.781 0 4.068-.505 2.035 2.546 3.755 4.37 2.463 3.53 5.405 10.553 4.482 3.056-.402 2.753-.847 7.275-1.014 8.441-.312 7.159-1.449 13.769-2.496 7.73-1.223 6.991 1.814 13.969 1.099 5.1-.523 9.543-.472 14.609-1.376 26.398-4.706 14.669-1.389 30.512-2.83 6.601-.6 7.118-4.943 7.118 3.941 3.044 1.036 6.365 1.112 10.975 1.112l-3.935-1.101c-2.948-.63-2.328-.153-3.904-1.679 2.917 0 8.493.222 10.725.813 8.021 2.12-6.054 2.522 3.386 3.08l1.568-2.781c1.405 3.731 3.309 4.086 7.84 3.337.937-1.437.557-1.085 0-2.781 5.911.349 1.045.579 3.02 2.885 2.692 3.144 12.121-2.316 18.932-3.441v-1.669c-3.088-.51-4.639-.643-6.272-2.225 5.068 0 5.551-1.08 8.066-.702l9.966.702c.436-3.718 4.387-2.124 8.078-1.803 4.197.366 5.629-.909 9.954-.977.213 6.783 10.221 5.042 12.543 5.005.46-3.943 3.49-3.56 3.92-7.23 3.11 1.616-1.28 7.021-1.57 9.455 13.5 4.595 17.08-1.728 21.62-.769.54.113 2 .962 2.71 1.284 1.16.536 1.98.763 3.21 1.088 3.26.866 12.52 3.836 11.68-1.506-.4-2.522-3.99-3.364-1.34-4.208 1.66-.527 3.28 1.121 6.81 1.33v-2.781c7.18 0 13.66 5.975 20.38 2.781.33 2.755 1.93 4.16 4.85 4.941 2.35.627 2.34.24 3.42.622.01.004 2.46 1.325 3.42 1.702 4.53 1.774 5.32.417 9.74 1.452 1.2.281 6.72 2.117 8.04 2.636l11.4 4.148c6.19 1.897 13.94 5.696 20.29 6.745-1.53-1.615-1.59-.746-2.36-2.781 2.01-.681.22-.12 2.22-.38l1.7-.176c-.9-2.401-4.36-2.984-6.27-5.006l25.87 9.455c.58-1.756 1-3.806 1.57-5.561 3.25 1.665-4.36 4.985 7.56 9.1 4.71 1.625 8.5 2.234 13.43.781 2.16-.638 1.84-.56 2.53-2.651 3.69.228 1.93-.828 1.57 2.224h2.35c1.19-2.547.84-.343 1.47.484 1.52 2.002-1.21 1.478 3.24 1.74.66-2.023.43-1.783 2.35-2.78 7.62 1.259.8 4.307 11.76 6.117 1.04-3.178-.4-2.844-.79-6.117 3.64-.215 1.37.596 3.14-1.112l2.48 1.075c1.53.749 1.34-.432 2.22 2.261-1.78.296-1.8.432-3.92.556.14 4.193 6.74 5.006 7.28 2.73.35-1.523-.87-.365-1.79-2.173 2.51-1.191.55-.914 3.92-1.113 0-6.471-13.33-8.085-19.93-10.885-7-2.966-7.42-3.883-12.84-6.468-3.01-1.438-5.16-2.788-8.14-4.233l-18.41-7.517c-4.43-1.704-4.83-2.97-10.45-2.041v1.112c2.39.396 2.56.427 4.47 1.275 2.3 1.018 1.84.995 4.93 1.506-2.28 2.211-7.75-.936-9.96-2.386-2.7-1.768-.8-1.607-4.66-2.814-2.24-.701-4.26-.882-6.42-1.563-4.23-1.333-5.39-3.132-11.64-3.979-8.81-1.196-8.87 1.993-8.87-5.942l-19.6-3.893c.05-1.373.47-2.174.43-2.904-.1-1.99-1.58-2.218.07-2.874 1.8-.716 4.42-.34 6.56-.34 1.68 1.779 1.29.39 1.57 2.781 2.55-1.212 1.74-.918 3.13-2.781-1.18-1.588-2.49-2.482-3.13-4.449 5.9.887-.79-.544 3.7-.185l9.16 2.185c2.51.615 2.79.904 4.94 1.496 3.83 1.053 6.8.789 10.36 2.123 1.99.743 1.42 1.387 4.57.98 3.29-.427 1.66-.872 4.11-2.15l6.62 1.982c3.17.914 5.11.852 5.93 3.024-4.64 0-6.75-1.43-9.41-.556 3.07 3.246 18.59 8.448 24.31 10.559 2.02.745 2.82 1.238 4.96 2.047 3.34 1.264 8.11 2.711 9.93 4.634-5.85-.092-5.09-1.51-9.41-2.224.78 2.067 2.44 2.688 4.94 3.727 2.61 1.084 4.24 1.906 6.66 3.059 9.71 4.625 23.46 11.514 35.25 12.816 4.1.453 5.57.276 5.68 3.756 3.3-1.239 3.14-.376 3.14-3.893 4.08-.065 5.15-1.217 7.84-2.225-.57-1.726-1.01-1.611-1.57-3.337 5.72 1.084 3.43 3.527 3.25 5.08-.16 1.455.06 1.583 1.29 2.234 1.86.986.08.052 1.66.515.19.054.41.09.59.143l4.27 1.466c4.73 1.511 3.37.631 2.27 2.798 7 1.157 7.06 7.035 27.27 2.661 1.72-.373 2-.648 4.09-.993.56 1.507-.27 1.072 1.8 1.583 1.26.313 3.01-.166 3.68-.471l2.47 1.086c.11.047.33.119.46.169l.95.401c2.61 1.265 4.06 3.101 6.22 4.602l.81.562c4.03 2.299 2.49-.117 1.64-2.371l3.17-.528c3.13-1.123-1.74-.1 2.32-1.14-1.18 1.572-1.86 1.691-.79 3.337.69.171.84-.905 3.06 1.081 2.28 2.03.81 1.7 5.57 1.7l.92-5.548c11.7.144 12.21 5.562 19.44 9.452 3.52 1.893 6.01 2.695 9.12 5.22 3.44 2.794 6.23 1.081 10.5 3.111-.15-4.645-1.54-3.635-4.38-5.791-3.75-2.84.03-4.64-4.34-6.379l-16.03-7.538c-4.97-2.693-10.82-4.225-15.45-7.393-3.7-2.537-6.52-4.365-11.2-5.956-2.78-.947-2.67-.396-3.48-2.537h-.78l.65-.648.13.648 3.11 1.143c-1.2-3.292-3.47-1.536-6.25-4.479 4.1-.319.94.452 2.92-1.272 1.41-1.232-.02-.832 2.57-2.065 1.03 3.119 4.57 8.032 10.19 6.117-1.11-2.968-3.58-2.036-4.7-5.005 2.83-2.744 2.61.698 3.92-2.781l5.46.834c2.33 1.045-2.24.548 2.38.835.9-2.39 5.06-2.554 8.61-2.256 3.93.331.88-.132 3.43.946.2.086.74.356.95.439l10.52 3.661c2.46.513 3.64.482 5.64 1.558l5.13 2.481c.15.059.37.12.52.185.14.063.34.148.48.218l3.32 2.649c1.57 1.158 2.75 2.069 4.52 2.91 3.43-.649 2.73-1.854 6.25-2.843 3.28-.925 9.41 1.59 7.94-2.268-.39-1.02-.35-.693-1-1.4-2.31-2.499-8.03-4.6-8.49-8.505 2.68 1.003 1.9.639 4.13 2.076l11.78 7.214c12.46 6.836 9.35 5.298 20.94 4.613-.23-2-1.03-3.609-2.54-4.873-1.79-1.508-2.86-1.255-4.51-3.469 2.51.476 8.3 2.531 12.54 2.781-2.57-2.485-3.41-.642-8.85-5.404-1.53-1.346-1.49-1.004-2.13-2.938.92-.972 1-1.238 2.72-1.97 6.01-2.568 8.79-.752 12.18.858l1.41-.772c1.14-.81 1.26.034.71-1.475-.39-1.074-2.24-.51.23-1.09-3.1-3.045.56 1.01-3.31-1.536-2.29-1.501-.73-1.648-3.77-2.895-2.38-.98-4.02-.649-8.29-4.686-2.57-2.432-2.8-4.314-6.72-5.8-2.49-.944-6.18-1.598-10.05-3.436l6.61-4.761c2.49-1.371 5.21-.819 9.85-3.025 1.71 2.293 3.95 4.269 7.84 5.005.35-2.967 1.83-3.844 5.49-4.449 3.27 3.467 2.98 3.884 6.92 5.1 3.49 1.077 5.87 2.531 9.52 3.813 3.03 1.059 7.81 1.626 10.02 2.907 10.83 6.299 24.28 10.39 35.57 16.473 4.02 2.164 3.25 1.021 5.89 1.944 1.93.678.97.341 2.64 2.576 4.28-.068 5.89-1.514 10.19-2.225 2.28 1.082 1.05 1.125 3.92 1.669-1.69 4.487-3.25 1.649 4.66 4.478 3.04 1.086 12.44 4.984 14.16 6.645-6.27 1.036-5.71-.798-10.98-1.669 1.44 1.524 5.32 3.396 8.09 4.274 7.66 2.432 3.45.24 7.59 4.625 11.53 0 2.72-2.365 12.01 2.05 1.8.86 11.92 3.812 15.43 8.517 5.82 0 5.61.242 9.41 1.668 6.07-2.882 2.28-1.264 5.49-5.561 5.26 1.79 4.7-.428 4.7 8.898 3.33.053 7.03 1.322 12.04 2.026 4.52.635 2.58-.555 3.64 1.311 4.45-.07 1.78.232 4.14-.955 1.37-.687-.21-.049 1.3-.744l1.55-.572c3.42-1.29 1.55-.03 3.14-2.221.82-1.128-.02-.245 1.07-1.465.47-.52.76-.657 1.34-1.273-2.75-2.246-4.4-3.245-10.19-3.337l-.78 2.225c-1.16-3.53-7.25-5.388-1.57-8.342 0 2.339-.29 2.933 1.57 4.449 0-2.51-.93-6.441 3.33-5.663l1.53.473c4.65 1.506 20.93 12.954 25.72 14.666 3.68 1.314 4.59-.187 7.05.535 1.17-1.197.12-.733 2.35-1.113-1.2 1.229-.13.691-2.35 1.113.45.276-.7.884 2.04.635l1.88-.635c.75 1.105 1.13 1.988 1.57 3.336 2.55-.15 1.29-.144 2.84-.766.15-.059.32-.161.47-.223l6.1-2.904c1.89 2.801-.41 1.705 3.19 3.89 3.45 2.093 1.16 1.368 5.43 1.116v-3.893l3.11.624.03-6.186c1.35-.51 2.05-.628 3.3-.994 6.87-2.022.81-3.611 6.53-6.493 4.31-2.176 3.45-.708 5.59-3.264 3.01-3.606 4.95-5.229 13.61-4.311 2.37.252 6.83.508 8.84.986 1.99.474 4.98 2.091 7.14 2.177 3.15.126.7-1.903 1.29-5.278 1.06-5.977 10.58-6.09 16.76-9.831 3.27-1.981 1.38-3.3 3.42-5.361 2.55-2.594 12.43-1.538 18.19-1.559 11.01-.041 9.92.95 13.57 1.336 1.74.182 1.61-.175 4.46-.22 3.63 3.847 3.51 3.314 7.76 6.172l4 3.282c5.18-.306 1.65-3.194 7.84 2.782.99.956 2.09 2.21 3.52 3.066.69.417 1.43.697 2.26 1.172.91.521.72.624 2.06 1.323 4.23-.25 9.62-2.113 11.77-3.884 3.8-3.126 3.58-4.459 11.75-4.459 4.56 4.836 1.37 2.79.78 7.786 3.71-1.262 2.88.224 4.75-2.75.08-.123.13-.283.21-.406.08-.121.15-.276.23-.393.08-.115.18-.26.26-.371.83-1.091-.02.108.95-1 1.03-1.185.94-.795 1.44-2.31 10.18 0 13.82-2.982 16.62-3.833 5.76-1.753-.67 2.615 8.47-1.728 1.42.674 2.66 1.445 3.92 2.225 2.03-.385 2.84-.97 4.7-1.669 2.75 2.913 9.05 5.538 11.31 6.996l2.02 1.902c2.74-1.301 1.87-1.9 5.63-1.299 3.01.483 3.75 1.112 6.92 1.299.79-2.107 1.53-1.402 2.35-3.893 3.3 1.715 1.69 4.965 0 7.23 5.34-.322 2.97-.642 3.53-2.109.29-.774.07-2.094 4.31-2.896 2.86 1.361 1.5 1.521 3.92 2.781 0-3.066.72-1.674 1.29-4.895.29-1.607-2.19.059.97-1.839.84-.505 1.87-.795 3.23-1.052 3.34 10.177 9.73 8.497 15.79 14.382 2.7 2.627 10.55 10.048 14.64 9.513l4.85-.537c.36 1.106.61 3.503.78 6.709V872H0V709.048l4.098 2.655c2.817-.098.47-.146 3.742-.986 2.288 3.067 4.45 7.104 6.166 8.417 1.649 1.262 1.501-.208 2.458 2.706h1.568c.567-1.726 1.001-1.611 1.568-3.337 3.816.225 6.982 2.754 9.739-.323.385-.43 1.148-2.593 1.198-3.08.164-1.61-.841-5.592-1.53-6.608 3.32.629 1.302.485 3.842 2.281 6.17 4.363 2.631 1.467 9.002 3.625 1.981.671 3.07 1.392 4.543 1.82 4.737 1.38 6.047-1.32 8.07 3.129 3.24 7.126 2.595 3.941 5.12 6.386-.319.091-2.31-.353-1.094 2.877.565 1.501.944 1.916 2.144 3.052 1.876 1.776 4.346 2.906 8.358 2.969-1.245 3.791.416 6.328 6.272 6.674 3.772-1.792 1.438-3.052 6.271-3.337-.97 1.301-1.346 1.448-1.567 3.337 9.71 1.605 4.667-1.898 11.583-4.575l2.56-.964c1.883-.739 3.118-1.305 5.456-1.691-1.248 3.318-1.051.04-4.299 3.068-1.383 1.289-1.91 2.712-1.973 4.718Zm776.153-31.701-1.529.64 1.529-.64c1.173-1.196.115-.732 2.352-1.112-1.204 1.229-.128.691-2.352 1.112Zm-112.111 6.674.902 1.085-.902-1.085-.901-1.084.901 1.084ZM210.11 744.642l-.784-.556h-.784l.653-.649.131.649.784.556h.784l-.654.649-.13-.649Zm433.548-27.808-.784-.556h-.784l.654-.649.13.649.784.556h.784l-.653.649-.131-.649Zm-354.365 27.252h-.784l.654-.649.13.649c1.919.997 1.688.757 2.352 2.78-2.035-.966-2.092-.565-2.352-2.78Zm-80.751-63.957v-.557l.915.464-.915.093c-.283 2.408-.44 3.131-3.92 3.336.262-2.236 1.227-2.826 3.92-3.336Zm71.343 32.256h-.784l.654-.649.13.649c1.916.361 1.06-.247 1.568 1.112l-1.568-1.112Zm348.094-6.674h-.784l.653-.648.131.648c2.71.514 2.412.302 3.135 2.225-2.71-.513-2.412-.302-3.135-2.225Zm-370.045 13.348h.784l-.653.649-.131-.649-3.106-.624c.664-.238-1.171-.78 1.466-.362 1.381.219.854.225 1.64.986Zm1146.196-17.797h.79l-.66.649-.13-.649c-4.03-1.034.63.053-2.25-1.182-1.74-.748-.49-.443-3.24-.487 3.17-3.069 7.92-1.295 10.2 1.113-.36 0-2.17-.045-2.39-.023l-2.32.579ZM316.733 762.438h.784l-.653.649-.131-.649c-1.628-.308-2.793-.813-4.098-1.541-1.775-.99-1.947-.98-2.174-2.908 3.803 1.807 4.018 1.427 6.272 4.449Zm280.67-25.026h.784l-.653.649-.131-.649c-2.237-.38-1.18.084-2.352-1.113 2.292.39 1.129-.071 2.352 1.113Zm239.902-79.53c-1.362-.965.959-.356.216.012-.006.003-.165.025-.216-.012Zm-216.382 78.973c0-1.381 1.253-.142.486 0-.01.002-.486 1.578-.486 0Zm-310.462 19.466c-.311-1.194 1.127-.376 1.056.112l-.28.106c-1.466-.065-.476.931-.776-.218Zm570.747-26.139c.033-.184.866-.125.935-.106.195.052 1.362-1.288.34.149-.022.032-1.462 1.029-1.274-.043h-.001Zm-15.679 2.225c.032-.184.865-.125.934-.107.196.052 1.362-1.287.341.15-.023.031-1.463 1.028-1.275-.043Zm-693.05 22.802c-.403-1.547 1.87.267.776.218-1.467-.065-.477.931-.776-.218Zm25.872-15.573c-.403-1.546 1.869.267.776.219-1.467-.065-.477.931-.776-.219Zm68.991 13.348c-.403-1.546 1.87.267.776.218-1.467-.065-.476.931-.776-.218Zm-47.04 1.112c0-.654 1.688-1.253 1.214 0-.475 1.257 1.995.015-.362.165-.987.063-.852.965-.852-.165ZM455.5 692.364c0-.654 1.687-1.253 1.214 0-.475 1.256 1.995.015-.362.164-.988.063-.852.966-.852-.164Zm-137.983 66.738c0-.654 1.687-1.254 1.214 0-.475 1.256 1.994.015-.362.164-.987.063-.852.966-.852-.164Zm1428.433-85.091c0-.654 1.69-1.254 1.22 0-.48 1.256 1.99.015-.37.165-.98.062-.85.965-.85-.165ZM0 707.437c.212-.375 1.112.222 1.055.611 0 .003-.054.09-.061.091-.72.135-.942.281-.994.319v-.015c.027-.053.08-.203 0-.507v-.499Zm664.826 4.948c-.311-1.194 1.127-.376 1.056.112a.665.665 0 0 1-.062.091c-1.573.295-.773.643-.994-.203Zm-260.285-21.134c.805-.571 2.835.801.909.3-.019-.005-2.225.634-.909-.3Zm-128.575 64.513 1.567 1.669c-2.059-.545-1.163.011-1.567-1.669Zm323.005-2.224c-.311-1.194 1.126-.376 1.055.112-.017.118-.685 1.309-1.055-.112Zm-110.543 4.449c.165-.635 1.723-1.216 1.055-.113-.282.466-1.431 1.557-1.055.113ZM1727.92 560.556c.06-.211.27-.417.5-.556h.72c.01.099-.04.244-.16.444-.29.466-1.44 1.556-1.06.112ZM380.237 686.802c.165-.635 1.723-1.216 1.055-.112-.282.465-1.431 1.556-1.055.112Zm-216.383 64.513c.166-.634 1.724-1.216 1.056-.112-.283.466-1.432 1.556-1.056.112Zm85.456-5.561c-1.204 1.229-.129.691-2.352 1.112 1.235-1.262.147-.65 2.352-1.112Zm-69.776-15.017c-1.204 1.23-.128.692-2.352 1.113 1.236-1.262.148-.65 2.352-1.113Zm367.693 6.674c-.549 1.626.101.801-1.568 1.669.515-1.525-.318-.866 1.568-1.669Zm-406.893-24.47c-.548 1.626.101.801-1.567 1.668.514-1.524-.319-.866 1.567-1.668Zm136.415 35.037h2.352v.556h-2.352v-.556Zm250.878-20.021h.784v1.668h-.784v-1.668Zm-38.416-7.23h.784v1.668h-.784v-1.668Zm-339.469-28.92h2.352v.556h-2.352v-.556Zm279.886 27.808h.784v1.668h-.784v-1.668Zm70.559.556h.784v1.668h-.784v-1.668Zm-205.406-33.369h2.352v.556h-2.352v-.556Zm88.591-.556h2.352v.556h-2.352v-.556Zm126.223 36.706h.784v1.668h-.784v-1.668Zm-268.91 2.224h.784v1.669h-.784v-1.669Zm-139.551.556h2.353v.557h-2.353v-.557Zm163.071-30.031h2.352v.556h-2.352v-.556Zm-85.455 41.154h.784v1.669h-.784v-1.669Zm925.11 4.45c2.29.389 1.13-.072 2.35 1.112-1.37-.234-2.1-.07-2.35-1.112Zm-480.586-23.358c2.292.389 1.129-.072 2.352 1.112-1.375-.234-2.101-.07-2.352-1.112Zm501.756 32.812c2.29.39 1.13-.071 2.35 1.112-1.37-.233-2.1-.069-2.35-1.112Zm-38.42-32.812c1.74.854.98.091 1.57 1.668-1.3-.639-1.51-.118-1.57-1.668Zm-582.503-1.113c1.732.854.974.091 1.568 1.669-1.297-.639-1.508-.118-1.568-1.669Zm-211.678 30.588c1.732.855.974.092 1.568 1.669-1.297-.639-1.508-.118-1.568-1.669Zm1289.671 3.337c1.73.855.97.092 1.57 1.669-1.3-.639-1.51-.118-1.57-1.669Zm243.82-16.684c1.73.854.97.091 1.57 1.668-1.3-.639-1.51-.117-1.57-1.668ZM314.38 757.989c1.733.855.975.092 1.568 1.669-1.297-.639-1.507-.118-1.568-1.669Zm1069.37-42.823c1.73.854.97.091 1.57 1.669-1.3-.64-1.51-.118-1.57-1.669Zm-689.133-5.561c1.733.854.974.091 1.568 1.668-1.297-.639-1.508-.118-1.568-1.668Zm-161.503 26.138c2.435 1.248 2.435.421 0 1.669v-1.669Zm-29.792-22.802c2.435 1.248 2.435.421 0 1.669v-1.669Zm-240.686 43.38c-.358-.254-1.836.052-.016-.683.784-.316 1.927-.099.979.695-1.227 1.027-.428.367-.963-.012Zm30.576-29.476c2.362.448 1.721-.007 2.352 1.669-3.153-.81-.116.463-2.352-1.669Zm-205.406-2.224v1.112h-2.352c1.235-1.262.148-.65 2.352-1.112Zm503.324 20.021h2.352c-1.204 1.229-.129.691-2.352 1.112v-1.112Zm-307.326-28.364c2.292.39 1.13-.071 2.352 1.113h-2.352v-1.113Zm821.626 4.449c2.29.39 1.13-.071 2.35 1.113h-2.35v-1.113Zm16.46 28.92c2.3.389 1.13-.071 2.36 1.112h-2.36v-1.112Zm-954.117-21.134h1.568c-.548 1.626.101.802-1.568 1.669v-1.669Zm32.144 19.466c.183.293 2.487.344-1.568 1.112.419-1.113-1.004-.225.63-1.141 1.359-.762-.115-.343.938.029Zm-42.335-24.471h2.352v1.112c-1.375-.233-2.101-.07-2.352-1.112Zm337.117 20.577h1.568v1.669c-1.297-.639-1.508-.118-1.568-1.669ZM337.9 737.968h1.568v1.668c-1.297-.639-1.508-.118-1.568-1.668Zm298.702-25.583c.794.15 3.027.077 1.568 1.112-.842.597-1.507.482-1.568-1.112Zm-338.854 5.681 2.521-.119v1.668l-2.521-1.549Zm-85.287 18.789c3.177.526 2.361.149 3.136 1.669-2.559-.961-1.546-.045-3.136-1.669Zm733.034-6.673c3.641.215 1.371-.597 3.136 1.112-1.844-.109-2.854.059-3.136-1.112Zm-136.415-5.006c2.409 1.252 1.265-.358 1.568 2.225-2.006-1.042-1.568.192-1.568-2.225ZM136.414 710.16c2.408 1.252 1.265-.358 1.568 2.225-2.006-1.042-1.568.192-1.568-2.225Zm447.66 32.813 3.106-.624c-.691.832-2.683 2.792-3.106.624Zm366.125-12.791c2.362.447 1.721-.007 2.352 1.668-1.79-.339-2.292-.126-2.352-1.668Zm253.231 7.786c2.85.471 2.51.307 3.92 1.668-2.75-.455-2.59-.306-3.92-1.668Zm-693.835-12.236h1.567v1.669h-1.567v-1.669Zm275.181-1.112c2.826.535 2.097.051 2.352 2.225-2.171-1.129-1.057-.372-2.352-2.225Zm134.063 2.225c.505.412.587.127 1.056.919.768 1.297.328.293.512 1.861-2.16-1.122-1.568.04-1.568-2.78Zm214.811 9.454c-1.76 1.709.51.898-3.13 1.113 1.49-1.579 1.1-1.71 3.13-1.113ZM496.267 746.31v2.781c-.063-.052-1.114-.304-1.308-1.313-.273-1.423.034-.806 1.308-1.468Zm-340.254-26.139v2.781c-.964-.501-1.266-.181-1.346-1.118-.119-1.4 1.337-1.655 1.346-1.663Zm504.892-10.567 3.113 1.143c-.571.719-.405.584-.761 1.638l-2.352-2.781Zm-464.908 39.487v1.112h-3.136c1.771-1.715-.509-.892 3.136-1.112Zm301.837-26.139h1.568c-.303 2.583.841.972-1.568 2.224v-2.224Zm-8.624-5.006h1.568v2.225c-2.006-1.042-1.568.192-1.568-2.225Zm-25.088 28.92c2.74.519 1.761.212 3.137 1.669-2.263-.134-3.071.012-3.137-1.669Zm-152.094-37.262c2.031 1.056 1.665 1.246 2.352 3.337-2.031-1.056-1.665-1.246-2.352-3.337Zm259.502 27.251c2.362.448 1.721-.007 2.352 1.669h-2.352v-1.669Zm-176.399-3.893c0-1.566.339-1.029 1.568-1.668v2.781c-.698-.278-1.568-.362-1.568-1.113Zm211.678 14.46h3.136v1.669c-2.559-.961-1.546-.046-3.136-1.669Zm-126.223-7.786h.784c0 2.956 2.398 1.684-.784 3.337v-3.337ZM275.18 729.07l2.52 1.549c-3.421 1.186-3.228.548-2.52-1.549Zm402.189-3.893c1.998.949 2.448.952 3.136 2.78-2.61-.979-2.356-.404-3.136-2.78Zm-311.245-44.492c-1.383 1.338-1.569 1.483-4.704 1.668 1.382-1.338 1.568-1.483 4.704-1.668Zm-203.055 4.449h3.92v1.112c-2.09-.033-3.609.18-3.92-1.112Zm773.018 44.492h3.92v1.112c-2.09-.033-3.609.179-3.92-1.112Zm-846.713-2.781c3.082.51 3.181.612 4.704 2.225-3.083-.51-3.182-.612-4.704-2.225Zm206.19 24.47c.097.156 1.786-.181-.176 1.038-.908.564-.635.84-1.615.145-2.077-1.473.18-1.146.193-1.154 1.493-.98 1.159-.175 1.598-.028v-.001Zm314.381 1.669h1.568v2.781h-1.568v-2.781Zm-427.276-7.23c3.707.059 3.079-.566 3.92 1.669-2.833-.168-2.83-.241-3.92-1.669Zm384.157-7.23c2.773.525 2.417.593 3.136 2.781-3.652-.692-1.525-.398-3.136-2.781Zm36.064 5.006c3.273 1.555 1.548.989 3.135 3.337-.006-.002-1.008.225-2.288-1.157-.937-1.011-.666-.639-.847-2.18Zm-333.982 10.567c-.409 2.653 1.076.938-2.352 2.224-.572-1.916-1.22-2.014 2.352-2.224Zm362.205-45.049c2.537.481 4.205 1.422 5.488 2.781-3.264-.539-3.869-1.066-5.488-2.781Zm-28.223 32.813c3.646.058 3.892.068 4.704 2.225-2.414-.457-1.587-.304-4.282-1.968-.085-.052-.283-.171-.422-.257Zm50.175-35.037c2.392.395 1.895.664 3.92 0 .619 1.645.319.901 1.568 2.224-2.628-.434-4.118-.898-5.488-2.224Zm-284.589-24.471c.392-.495.51-1.112 1.568-1.112 2.169 0 1.885.429 2.352 1.668-1.657-.025-3.101.099-3.92-.556Zm730.684 46.717c2.08-.709.84-.508 3.92-.556-.28.834-.17 1.668-1.57 1.668-1.42 0-2.15-.278-2.35-1.112Zm-384.159-17.241c1.77 1.445 2.276 2.03 2.352 4.449-2.598-2.12-2.352-1.755-2.352-4.449Zm-137.983 18.909c-1.382 1.338-1.568 1.484-4.704 1.669 1.646-1.744 1.981-2.562 4.704-1.669Zm-159.935-9.454c2.054.975 1.621.281 2.352 2.224-.015.009-1.462.557-1.567.557-4.09 0-1.17-.281-.785-2.781Zm386.509 4.449h1.568l1.678 3.867c-2.544-1.13-3.159-1.083-3.246-3.867Zm-566.043 8.898c.358.171 1.341.485 1.91.87 1.238.837.599.127 1.225 1.355-.941.558-4.515 1.976-3.136-2.225h.001Zm389.644-25.583c3.265.54 3.87 1.067 5.488 2.781-2.256-.133-1.937-.058-3.538-.826-2.148-1.03-1.385-.454-1.95-1.955Zm-253.229 12.236c4.566-.776 3.691-1.184 5.488.556-2.307.381-2.393.556-5.488.556v-1.112Zm-145.823 23.914c2.803.463 5.574 1.347 7.056 2.781-4.067-.24-5.285-.905-7.056-2.781Zm379.453-23.914c2.688 2.603 2.228-.592 2.352 3.337-.124-.059-2.362-1.03-2.421-1.064-2.313-1.329-1.205.239-1.499-2.273h1.568l-1.841-1.63c-.922-1.692 1.098-2.369 2.171-7.034 1.165-5.06 1.764-7.005 9.078-5.796v1.112c-3.469.055-4.168.58-6.392 4.921-1.662 3.245-1.448 3.961-1.448 8.427h-1.568Zm209.326 3.337c4.066 0 3.043-.497 4.704 1.112-.392.495-.51 1.112-1.568 1.112-2.314 0-2.703-.941-3.136-2.225v.001Zm-565.259-32.257v-.556c4.881 0 7.618 1.222 8.624 3.893-2.329-1.107-5.043-3.337-8.624-3.337Zm460.988 3.893c2.118 0 2.162.265 3.92.556-.562.277-.337.329-1.443.645-1.317.376-.594.233-1.811.384-1.369.17-3.161.084-4.586.084.905-.877 1.818-1.669 3.92-1.669Zm-41.552 21.134c2.798 1.329 3.053 2.362 3.92 5.005-2.258-.427-1.958-.383-2.947-1.802-.821-1.178-.921-1.563-.973-3.203Zm-179.534 36.706c3.371-.199 1.413.078 3.92-1.113.053 1.695.354 2.028.784 3.337-3.545-.056-3.978-.073-4.704-2.224ZM91.726 712.942c.732-1.944.299-1.249 2.352-2.225 2.975 1.413 3.558 3.039 1.074 3.016-.01 0-1.3-.663-3.426-.791Zm546.444-40.043c3.942.062 3.835.628 3.92 3.337-3.353-.554-3.829-.449-3.92-3.337ZM20.383 701.263c-.216 1.837-1.02 3.336-1.568 5.005h-1.568c0-3.025-.308-4.353 3.136-5.005Zm171.694 42.823c1.748.331 2.353.13 2.353 1.668v2.781c-4.927-.291-2.353-.799-2.353-4.449Zm888.263-36.15c1.5-2.93 2.12-.894 7.84-.556v1.112c-.6-.035-2.6-.304-2.61-.305-.94-.038-4.1.728-5.23-.251Zm-929.814 18.909c1.797-1.904 1.891-1.724 4.704-2.78v4.449c-1.864-.7-2.673-1.284-4.704-1.669Zm466.476 37.819v1.668h3.92l-3.121-1.123c-.115-.057-.331-.209-.421-.258-.089-.049-.251-.192-.378-.287Zm-268.91-18.354 6.272 2.781-10.532-1.983c-3.364-.864-.854.526-2.796-1.354l7.056.556Zm129.359-1.112c3.609.684 3.136 1.156 3.136 4.449 0 1.566-.339 1.03-1.568 1.669-.886-2.699-1.568-2.513-1.568-6.118Zm-384.94-14.46c-2.957.97-1.491 1.037-3.137-.556 2.46-1.458 5.475.361 7.056 1.112-1.046 1.547-.784 1.077-.784 3.337h-1.568c-.371-3.171-1.196-.722-1.568-3.893Zm1074.069-13.347c0-2.994 4.38-2.781 8.63-2.781l-2.46 1.037c-.99.153-2.74.075-3.82.075-.92 3.089.6 2.605 1.57 5.562-1.59-.758-3.92-2.051-3.92-3.893Zm-915.703-18.909c.685-1.819 1.968-2.41 3.92-3.337 3.358 1.143 2.945-.367 3.92 2.224-3.608.597-5.11 1.809-7.84 1.113Zm160.719 31.144c.998-1.476.715-.595.783-2.781 1.183.562 2.258 1.129 3.629 1.875 1.962 1.067 2.055 1.337 2.643 3.131-4.317-.069-4.546-1.033-7.056-2.225h.001Zm-167.775-38.93 6.272.556c-2.764 1.244-7.904.645-7.84 2.224.065 1.603-6.459 1.861-3.243-1.125 1.196-1.111 2.183-1.655 4.811-1.655ZM587.21 746.31c2.748.521 1.688.221 3.176 1.641.918.875 1.535 1.523 2.643 2.573 1.881 1.782 3.618 2.943 4.373 5.241-3.188-.188-1.868.343-3.447-1.448l-4.612-5.071c-1.486-1.398-1.462-.892-2.133-2.936Zm518.22-3.336c5.29.874 7.88 2.225 12.11 4.203 2.34 1.099 2.05.529 2.79 2.47-3.03-.5-12.69-4.329-14.9-6.673Zm-907.081-11.68c1.808 0 4.175.77 5.976 1.323 2.575.789 2.87 1.145 4.216 2.57-1.7-.322-7.686-4.25-12.791-.141-2.965 2.386 2.101 1.501-2.889 1.81.431-3.669 5.415-5.562 5.488-5.562Zm980.771-2.224c5.74.338 16.05 5.123 18.04 7.23-3.53-.584-16.28-5.375-18.04-7.23Zm-809.076-10.567c2.034-1.969 3.637-1.06 4.704-3.893h2.352l.784 4.449c-4.827 1.812-3.079 1.231-7.84-.556Zm19.6 1.112c0 1.996-2.941 2.96-3.921 5.562-4.085-.774-3.713-3.842-3.148-4.448.847-.907 7.069-3.184 7.069-1.114Zm-58.8-10.567c1.375-1.456 1.952-2.305 3.136-3.893l4.678.641c.037 4.609-.385 3.21.81 4.921-4.235 0-2.237-.018-5.698-.963l-2.926-.706Zm555.851-1.668c2.337.037 2.749-.108 5.642 1.559 1.593.918 2.693 1.753 3.766 2.89-8.071-1.334-5.902-.671-13.328.556 1.055-2.802 2.754-1.454 3.92-5.005Zm-741.657 24.47h-4.704c1.365-1.322 1.64-1.668 8.624-1.668 4.635 0-2.804 1.157 3.96.527.051-.004 2.311-1.127 2.311 1.698 0 1.938-3.667.556-5.487.556-2.953 0-1.483.366-4.704.556v-1.669Zm396.7-.556c0-2.06.765-2.512 2.352-3.336.177 1.501.368 1.512.784 2.78 2.32-.439 1.271-.226 3.136-1.112 0 6.322 2.353.84 3.92 5.006-.691.27-.137.21-.96.269-7.349.528-6.538-.513-8.003-2.252-1.059-1.256-1.229-.392-1.229-1.354v-.001Zm554.282 3.893c4.44.071 7.23 1.825 10.45 3.156 2.46 1.017 7.81 3.331 9.15 4.631-3.26-.193-12.84-3.573-15.85-4.882-2.23-.964-3.02-.974-3.75-2.905Zm-27.44-5.005c2.72-.924 5.87.309 8.74 1.035 6.99 1.77 6.96 1.392 7.73 3.414-3.41-.054-6.96-1.134-10.2-1.668.9 2.667.54.864 0 1.668-7.16-1.348.36.34-4.58-2.829l-1.69-1.62ZM302.62 700.15c8.251-1.24 2.661 3.579 10.192 5.005-1.046 1.547-.784 1.077-.784 3.337-4.213-.248-4.136-.891-5.766-3.139-1.466-2.023-3.371-2.89-3.642-5.203Zm-8.624 42.267c-2.991 0-.596.809-5.488 0 1.07-3.258.94-1.21 3.136-3.337 6.263 2.351 9.93 1.131 14.112 5.562-5.907-.093-9.344-2.225-11.76-2.225Zm52.528-30.032c-3.674-1.25-3.256.493-5.488-1.668 3.057 0 6.239-.148 9.228.158 4.975.51 3.789-.158 8.804-.158 0 6.556-4.482 2.781-6.272 2.781-5.453 0-3.54-.186-6.272 1.112v-2.225Zm-62.72-17.797c2.663-.157 2.87-.423 4.704-1.112.521 3.376-.642.47 3.817 2.856 1.922 1.028 2.409 2.708 2.138 4.258-.373 2.126-.569 1.915-2.819 2.341-1.233-3.756-6.632-5.133-7.84-8.343Zm214.031 51.722 2.632.357c.142.049.359.162.483.215l2.396-12.234c.01-2.527.574-11.373 1.545-12.808 1.879.538.749-.226 1.725 1.043 1.253 1.629-1.462 10.206-1.736 14.521-.39 6.134-.639 12.066-2.341 17.249-3.213-1.647.672-.549-1.153-4.146-.637-1.256-2.716-1.977-3.551-4.197Zm-404.54 275.83 2.315 2.25c1.008 1.2.692 1.25 2.164 2.4 3.898 3.06 1.937-1.14 6.497 2.58-1.27 2.71-.215.19-1.107.78-1.472.98.143-1.67-1.245.89 10.456 3.56 15.187 1.91 15.025 4.82-.158 2.83-1.419-1.33-.129.74 2.132 2.61 4.372.37 6.842 3.49.404.51 3.363 7.17 11.19 7.63-.641.81-.381.59-.784 1.67l3.113 1.14.023-3.36c-2.075.39-.645-.05-2.352.55-.747-1.31-.06-.23-1.817-1.49-3.127-2.24-7.864-6.39-7.624-9.58.416-5.56 5.151-5.87 5.737-9.23.363-2.09-1.558-2.58 1.297-3.71 3.322-1.32 5.955.79 7.043 1.2l1.696.44c2.707.96 1.153 1.8 4.643 3.46 0-2.95.036-3.28.784-5.56 4.41 1.5 2.055-.61 3.293 2.11.494 1.09.627 2.89.627 4.57 2.611-1.36 1.568-.58 1.568-7.23 5.688-2.14 4.091-3.89 5.18-7.06.224-.65 3.733-5.94 7.592-6.69l9.964-1.27c.362 2.35-.773 1.67 3.92 1.67 0 3.43 1.261 2.24 2.352 5.56l1.667-2.16c1.063-1.13.323-.17 1.036-.94l2.785-5.24 2.266 2.28c.876 1.35.833 2.07 1.654 3.28 3.429-1.78.655-.99 3.92-4.45 3.356 0 4.331.64 7.51.36 2.654-.24 4.955-.67 7.453-.88 11.221-.94 6.291.68 9.772.65 1.382-.02 1.707-.39 3.489-.69.62.89.803-1.02 0 1.67 3.749-1.95-.499-1.67 7.056-1.67-.833 1.12-.672 1-1.82 2.05-1.598 1.46-1.316.32-2.1 2.4 3.346-1.25 3.372-2.06 5.927-3.06 4.017-1.58-.208-.15 2.879-.06 2.755.09.481-.15 3.738-.77v2.78c4.823-.91.343-2.43 6.271-2.78-1.524 1.61-1.586.75-2.352 2.78l3.137.56c-4.699.89-7.529 3.84 0 6.67 1.051-1.81.037-3.06-.785-5.56 5.479-.43.279-.38 2.851-1.11 1.905-.54 3.046.34 5.302 2 2.961 2.17 1.545-.76 2.04 2.45h9.407c2.216-1.82 4.185-3.95 0-6.12-.738 1.11 1.111.78-2.352 4.45-5.037 0-8.388-1.74-9.408-4.45 3.525-.28 1.967.83 2.353-1.67 6.981.41-.61 1.75 5.487 2.22 1.434-2.2-2.202-4.13 2.283-4.49l.669.01c.069-.02.276-.05.35-.07 2.562-.57-.342-.77 3.754-1.01l.603 1.83c.583.77 1.817 1.48 2.533 2.07l1.636-2.74c.077-.12.171-.26.246-.38l1.181-1.94c.51-.66.953-.89 1.641-1.62h5.488c.677 2.06 1.442 1.73-.229 3.68-1.265 1.48.051-1.4-1.339 1.33 3.604-.6 3.387-.12 5.645-2.67l1.942-2.52c.056-.08.147-.26.253-.37.55 1.47-.063.45.783 1.66-.795.75-.783-1.17-.783 1.67h.783v-1.67h1.568c-.284 2.43-.136 1.2-2.002 3.03-.34.34-1.09 1.14-1.241 1.35-4.269 5.72-2.496 1.61-8.517 3.97.409 3.48 1.953 1.3 3.136 4.45h1.568c1.517-4.62 4.725-1.97 6.272-1.67-.704-1.08-.799-2.12.862-3.81 1.87-1.9-.02-.22 2.199-1.25 1.561-.73-.184.36 1.408-.67l1.019-.95 1.411 1.23c3.26-1.59 3.279-2.78 4.861-5.12l7.056 2.78v-2.78h3.92c-.709-1.01-.605-.7-.784-2.23 4.158 1.42 6.135-1.371 13.362-4.421.201-.085.742-.357.953-.435 2.446-.911-1.58-.434 2.933-.701-3.265 3.459-4.909 2.869-9.408 5.007.959 1.28.704.92 1.924 1.99.768.68 1.309 0 1.738 2.1.626 3.05-1.956.4-2.094 4.81 2.666.44 11.045 1.72 13.652 1.48l3.885-.68c3.218-.76 2.424.83 2.847-1.92 3.744 0 3.25.38 6.272.56l-.88-2.2c4.226-.09 6.455-1.5 9.731-1.92 3.495-.45-1.097.11 2.211-.01 2.337-.09 1.797-.11 3.834-.87-.178.53-.561 1.76-.821 2.19-1.091 1.84-4.632 2.79-7.02 3.92 1.744 3.07-2.036-3.04 1.421 1.22l.505 1.78c.088 3.67.035.55 1.21 3.68 2.221-.13 5.354-1.09 7.056-1.67-.68 2.28.35 1.6-.784 3.34 2.663.15 2.87.42 4.704 1.11.658-.7 3.866-3.56 4.718-3.89 4.543-1.73 4.893 1.37 6.258-2.79h1.568c1.323 4.03-3.152 6.33-8.624 7.23.691 1.84 2.116 2.85 4.704 3.34 1.138-3.02 1.906-1.72 5.884-2.51 5.734-1.14.949-1.21 7.444-.83.509 4.34 2.772 3.01 3.136 6.12 2.677-1.39.784-.83.784-4.45.405-.14 1.597-.54 2.137-.79.113-.05.31-.17.416-.22l1.228-.54c1.179-.37 1.265-.05 1.707-1.23 5.248 0 6.856 1.38 11.76 1.67 2.051-1.38 2.345-2.16 4.13-3.74 1.902-1.69 2.364-2.32 6.062-2.38.231 1.97 1.438 3.01 3.136 3.9-.972 2.58-1.234.49-1.567 3.33 3.128.05 2.902.26 4.704 1.11 0-2.9-.131-3.5 1.365-5.7.6-.89.187-.18.73-1.15l.607-1.24c.057-.11.168-.31.214-.4.047-.09.112-.28.22-.4-1.831-1.78-1.306-.46-3.136-2.23 3.824-1.06.398.96 2.843-.25.085-.05.261-.17.349-.22l.769-.53c1.942-1.2 3.447-1.88 6.23-2.34.603 1.61 1.288 1.46 2.977 2.34l1.24.79c1.892 1.75-.697 2.36 4.407 2.44-2.615-2.77-1.145-3.34-1.516-6.24-.191-1.5-.963.95-.052-2.11l5.452 1.19.939-3.39c3.888.22 1.819.76 5.369-.58v2.23c2.277-1.08 1.052-1.13 3.92-1.67-1.525 1.61-1.586.75-2.352 2.78 9.066-3.09 15.746-2.76 21.283-4.37 1.105-.32 1.836-.86 3.669-1.31 5.588-1.38 5.063-.28 7.976 1.23 1.721-1.06 1.75-1.49 4.704-1.668-3.976 5.878-4.563 1.608-4.704 6.118 4.63-.88.348-1.81 5.487-2.78 5.003.95 1.108 1.81 5.488 3.89 1.636-2.42.085-1.8-.784-4.45 6.155 1.02 5.881-.27 10.976-1.11-.43 1.31-.731 1.64-.784 3.34.86-.7 1.423-1.41 2.352-1.11 0 2.46.012 4.09-1.035 5.94-1.013 1.78-2.735 2.23-4.453 3.51.417 1.27.608 1.28.784 2.78h1.568c.261-2.22.466-2.36 2.352-3.34 0 2.89 1.675 8.02-3.92 8.35v2.78c3.064.58 2.47 1.63 3.309 4.32.583 1.87 1.033 3.7 1.61 6.09.398 1.64.904 3.58 1.435 5.66.642 2.51 1.996 3.28 2.27 5.62h1.568c0-6.51-3.136-7.65-3.136-16.69 4.099.68 1.338.25 5.488 0-.559 1.7-1.22 2.14-2.352 3.34 8.636 0 8.603-2.13 11.082-7.71 2.033-4.57 2.235-7.1 8.518-10.09 3.477 5.14 4.421 3.51 12.077 4.14 2.485.2 2.95.7 3.602 1.98h1.568c.973-2.58 1.234-.49 1.568-3.34 12.143 4.14 10.971-.22 17.776-4.07 4.8-2.72 12.082-7.5 15.406-6.73.167.03.382.12.539.16l1.559.63c.085-2.71.127-4.22 3.92-4.45 0 2.2.247 2.26.784 3.9l3.62-1.33c.151-.06.349-.14.494-.2 2.844-1.26 6.196-3.54 9.583-4.33 3.334-.775 2.852-.23 5.903-1.374v2.224c2.849-.54 1.378-.32 3.368-1.5 2.167-1.297 1.235-.22 2.904-1.836-1.057-.421-.867-.304-2.352-.556 1.796-1.765-.048-.631 4.704-.556.303-2.583-.841-.973 1.568-2.225-.682 2.077-1.307 2.639-3.345 4.301l-3.14 2.222c-.127.07-.322.17-.448.24-1.871 1.06.396-1-1.691 1.02.766 2.04.827 1.17 2.352 2.78-2.056.39-1.435.12-3.071 2.27-1.781 2.35-3.123 3.03-3.201 5.52l7.958-5.48c1.014-.54.504-.28 1.45-.64.549 1.63-.101.8 1.568 1.67-5.195 6.97-6.738 6.86-11.944 9.32-1.844.88-.777.96-4.52 2.36.538 1.64.784 1.7.784 3.89 5.745-2.73 7.012-6.51 17.248-6.67-2.425 2.57-5.738 2.41-7.84 4.45 4.12-.24 3.812-1.4 7.193-1.67 5.111-.39 3.982 1.31 5.351 3.34 4.568-2.17.646.63 7.84-2.78-.181 1.53-5.198 8.49-7.056 9.45-3.025-2.03-.566-1.25-2.352-3.89-3.072.18-5.418.82-7.292 2.06-1.299.85-3.527 3.06-4.468 4.06 2.543-.49 5.702-2.8 8.624-3.9.54 1.45-.291.62 1.568 1.11-.635 1.94-3.329 5.11-5.488 11.68 1.801.86 1.575 1.07 4.704 1.12-.709 1.01-.605.69-.784 2.22 4.595-1.56 5.426.41 7.056 0 3.419-.65 4.093-2.61 7.473-3.64 4.603-1.41 6.408.37 8.991.86 3.481-3.69 4.809-1.99 9.369-3.36 1.903-.58.484-.58 3.175-1.09-1.58 13.47-16.536 10.07-18.816 16.13 3.773-.62 5.857-1.96 8.783-3.27 3.387-1.52 1.913-.47 4.237-1 1.658-.39 2.891-1.25 4.029-1.99 4.783-3.1 13.225-6.78 15.094-8.76-6.067 1.01-8.334 4.62-13.327 5.56 4.11-5.51 3.221-4.76 8.746-6.62l4.329-1.2c.025 0 .171.06.252.04 1.875-1.03-.393-2.06 9.653-6.5 2.516-1.11 1.874-1.35 4.459-1.84-3.463 4.64-5.104 3.01-6.271 6.11 2.507-1.19.549-.91 3.919-1.11-.179 1.53-.906 3.39-1.489 4.53l-.862 3.81c-.246 2.1-1.988 3.08-3.034 5.08-1.354 2.6-1.293 3.1-3.56 5.26-4.115 3.93-4.759 4.77-7.209 9.9-1.322 2.78-8.457 11.71-11.695 14.51-3.755 3.25-4.202.71-6.646 3.07 9.778 0 9.677-4.94 17.029-10.16 5.935-4.23 3.996-.57 11.656-8.42l7.197-6.57c8.901-7.69 7.21-4.57 9.915-5.92.837-.42 1.297-1.15 1.904-1.8 4.279-4.58 3.979-1.67 10.299-2.69 5.879-.95 7.469-1.14 14.911-1.14 7.334-9.84 11.699-7.06 16.304-10.13 7.433-4.95 1.814-5.26 19.76-8.23-1.324 1.41-2.5 2.51-3.136 4.45h-.784l.653.65.131-.65c2.034-1.05 1.383-1.25 3.315-2.65 1.441-1.04 2.935-1.6 4.525-2.35-.277 2.36-1.623 3.89-2.353 6.11 2.68-1.27 2.73-4.29 5.488-5 2.706 4-8.737 14.48-10.192 18.91 4.874-.92 8.576-6.37 10.278-9.4 1.102-1.95.981-2.62 4.618-2.84-.314 2.69-1.744 3.7-3.136 5.56 3.43-.88 3.603-3.8 5.425-5.6 1.315-1.3 2.009-1.14 3.37-2.06l9.417-7.78c2.189-2.5 1.445-4.36 6.092-5.13l.766 1.25c.073.12.319.53.397.68.637 1.24 1.037 2.33 1.189 3.63 2.669-.91 4.25-.82 5.581 1.08.908 1.29.4 3.73-.049 4.24-2.118 2.44-5.306 2.11-3.18 8.58h1.568c.604-1.84 2.103-3.5 3.92-4.45 2.864 1.36 1.497 1.53 3.92 2.78 0-4.06-.504-2.03 2.546-3.75 4.37-2.46 3.53-5.41 10.553-4.48 3.056.4 2.753.84 7.275 1.01 8.441.31 7.159 1.45 13.768 2.5 7.731 1.22 6.992-1.82 13.97-1.1 5.1.52 9.543.47 14.609 1.37 26.398 4.71 14.669 1.39 30.512 2.83 6.601.6 7.118 4.95 7.118-3.94 3.044-1.03 6.365-1.11 10.975-1.11l-3.935 1.1c-2.948.63-2.328.15-3.904 1.68 2.917 0 8.493-.22 10.725-.81 8.021-2.12-6.054-2.52 3.386-3.08l1.568 2.78c1.405-3.73 3.309-4.09 7.84-3.34.937 1.44.557 1.09 0 2.78 5.911-.35 1.045-.58 3.02-2.88 2.692-3.15 12.121 2.31 18.932 3.44v1.67c-3.088.51-4.639.64-6.272 2.22 5.068 0 5.551 1.08 8.066.7l9.966-.7c.436 3.72 4.387 2.13 8.078 1.81 4.197-.37 5.629.9 9.954.97.213-6.78 10.221-5.04 12.543-5 .46 3.94 3.49 3.56 3.92 7.23 3.11-1.62-1.28-7.02-1.57-9.46 13.5-4.59 17.08 1.73 21.62.77.54-.11 2-.96 2.71-1.28 1.16-.54 1.98-.77 3.21-1.09 3.26-.87 12.52-3.84 11.68 1.51-.4 2.52-3.99 3.36-1.34 4.2 1.66.53 3.28-1.12 6.81-1.33v2.78c7.18 0 13.66-5.97 20.38-2.78.33-2.75 1.93-4.16 4.85-4.94 2.35-.62 2.34-.24 3.42-.62.01 0 2.46-1.32 3.42-1.7 4.53-1.78 5.32-.42 9.74-1.45 1.2-.28 6.72-2.12 8.04-2.64l11.4-4.15c6.19-1.89 13.94-5.69 20.29-6.74-1.53 1.61-1.59.74-2.36 2.78 2.01.68.22.12 2.22.38l1.7.18c-.9 2.4-4.36 2.98-6.27 5l25.87-9.45c.58 1.75 1 3.8 1.57 5.56 3.25-1.67-4.36-4.99 7.56-9.1 4.71-1.63 8.5-2.24 13.43-.78 2.16.63 1.84.56 2.53 2.65 3.69-.23 1.93.82 1.57-2.23h2.35c1.19 2.55.84.35 1.47-.48 1.52-2-1.21-1.48 3.24-1.74.66 2.02.43 1.78 2.35 2.78 7.62-1.26.8-4.31 11.76-6.118 1.04 3.178-.4 2.848-.79 6.118 3.64.21 1.37-.6 3.14 1.11l2.48-1.07c1.53-.75 1.34.43 2.22-2.27-1.78-.29-1.8-.43-3.92-.55.14-4.194 6.74-5.007 7.28-2.731.35 1.521-.87.365-1.79 2.171 2.51 1.19.55.92 3.92 1.11 0 6.48-13.33 8.09-19.93 10.89-7 2.97-7.42 3.88-12.84 6.47-3.01 1.44-5.16 2.79-8.14 4.23l-18.41 7.52c-4.43 1.7-4.83 2.97-10.45 2.04v-1.11c2.39-.4 2.56-.43 4.47-1.28 2.3-1.02 1.84-.99 4.93-1.5-2.28-2.22-7.75.93-9.96 2.38-2.7 1.77-.8 1.61-4.66 2.82-2.24.7-4.26.88-6.42 1.56-4.23 1.33-5.39 3.13-11.64 3.98-8.81 1.19-8.87-2-8.87 5.94l-19.6 3.89c.05 1.38.47 2.18.43 2.91-.1 1.99-1.58 2.21.07 2.87 1.8.72 4.42.34 6.56.34 1.68-1.78 1.29-.39 1.57-2.78 2.55 1.21 1.74.92 3.13 2.78-1.18 1.59-2.49 2.48-3.13 4.45 5.9-.89-.79.54 3.7.18l9.16-2.18c2.51-.61 2.79-.9 4.94-1.5 3.83-1.05 6.81-.79 10.36-2.12 1.99-.74 1.42-1.39 4.57-.98 3.29.43 1.66.87 4.11 2.15l6.62-1.98c3.17-.92 5.11-.85 5.93-3.02-4.64 0-6.75 1.42-9.41.55 3.07-3.25 18.59-8.45 24.31-10.56 2.02-.74 2.82-1.24 4.96-2.05 3.34-1.26 8.11-2.71 9.93-4.63-5.85.09-5.09 1.51-9.41 2.23.78-2.07 2.44-2.69 4.94-3.73 2.61-1.09 4.24-1.91 6.66-3.06 9.71-4.63 23.46-11.52 35.25-12.82 4.1-.45 5.57-.27 5.68-3.75 3.3 1.24 3.14.37 3.14 3.89 4.08.06 5.15 1.22 7.84 2.22-.57 1.73-1.01 1.62-1.57 3.34 5.72-1.08 3.43-3.53 3.25-5.08-.16-1.45.06-1.58 1.29-2.23 1.86-.99.08-.05 1.66-.52.19-.05.41-.09.59-.14l4.27-1.47c4.73-1.51 3.37-.63 2.27-2.79 7-1.16 7.06-7.04 27.27-2.66 1.72.37 2 .64 4.09.99.56-1.51-.27-1.07 1.8-1.59 1.26-.31 3.01.17 3.68.48l2.47-1.09c.11-.05.33-.12.46-.17l.95-.4c2.61-1.27 4.06-3.1 6.22-4.6l.81-.56c4.03-2.303 2.49.11 1.64 2.37l3.17.53c3.13 1.12-1.74.09 2.32 1.14-1.18-1.58-1.86-1.7-.79-3.34.69-.17.84.9 3.06-1.08 2.28-2.033.81-1.703 5.57-1.703l.92 5.543c11.7-.14 12.21-5.557 19.44-9.447 3.52-1.893 6.01-2.695 9.12-5.22 3.44-2.794 6.23-1.081 10.5-3.111-.15 4.645-1.54 3.635-4.38 5.791-3.75 2.84.03 4.64-4.34 6.379l-16.03 7.538c-4.97 2.69-10.82 4.22-15.45 7.39-3.7 2.54-6.52 4.37-11.2 5.96-2.78.95-2.67.4-3.48 2.54h-.78l.65.64.13-.64 3.11-1.15c-1.2 3.29-3.47 1.54-6.25 4.48 4.1.32.94-.45 2.92 1.27 1.41 1.24-.02.84 2.57 2.07 1.03-3.12 4.57-8.03 10.19-6.12-1.11 2.97-3.58 2.04-4.7 5.01 2.83 2.74 2.61-.7 3.92 2.78l5.46-.84c2.33-1.04-2.24-.54 2.38-.83.9 2.39 5.06 2.55 8.61 2.25 3.93-.33.88.14 3.43-.94.2-.09.74-.36.95-.44l10.52-3.66c2.46-.51 3.64-.48 5.64-1.56l5.13-2.48c.15-.06.37-.12.52-.18.14-.07.34-.15.48-.22l3.32-2.65c1.57-1.16 2.75-2.07 4.52-2.91 3.43.65 2.73 1.85 6.25 2.84 3.28.93 9.41-1.59 7.94 2.27-.39 1.02-.35.69-1 1.4-2.31 2.5-8.03 4.6-8.49 8.5 2.68-1 1.9-.63 4.13-2.07l11.78-7.22c12.46-6.83 9.35-5.29 20.94-4.61-.23 2-1.03 3.61-2.54 4.87-1.79 1.51-2.86 1.26-4.51 3.47 2.51-.47 8.3-2.53 12.54-2.78-2.57 2.49-3.41.64-8.85 5.41-1.53 1.34-1.49 1-2.13 2.93.92.98 1 1.24 2.72 1.97 6.01 2.57 8.79.76 12.18-.85l1.41.77c1.14.81 1.26-.04.71 1.47-.39 1.08-2.24.51.23 1.09-3.1 3.05.56-1.01-3.31 1.54-2.29 1.5-.73 1.65-3.77 2.89-2.38.98-4.02.65-8.29 4.69-2.57 2.43-2.8 4.31-6.72 5.8-2.49.94-6.18 1.6-10.05 3.44l6.61 4.76c2.49 1.37 5.21.82 9.85 3.02 1.71-2.29 3.95-4.27 7.84-5 .35 2.96 1.83 3.84 5.49 4.45 3.27-3.47 2.98-3.89 6.92-5.1 3.49-1.08 5.87-2.53 9.52-3.82 3.03-1.06 7.81-1.62 10.02-2.9 10.83-6.3 24.28-10.39 35.57-16.48 4.02-2.16 3.25-1.02 5.89-1.94 1.93-.68.97-.34 2.64-2.58 4.28.07 5.89 1.52 10.19 2.23 2.28-1.08 1.05-1.13 3.92-1.67-1.69-4.49-3.25-1.65 4.66-4.48 3.04-1.08 12.44-4.98 14.16-6.64-6.27-1.04-5.71.79-10.98 1.66 1.44-1.52 5.32-3.39 8.09-4.27 7.66-2.43 3.45-.24 7.59-4.62 11.53 0 2.72 2.36 12.01-2.05 1.8-.86 11.92-3.82 15.43-8.52 5.82 0 5.61-.24 9.41-1.669 6.07 2.879 2.28 1.259 5.49 5.559 5.26-1.79 4.7.43 4.7-8.896 3.33-.053 7.03-1.322 12.04-2.026 4.52-.635 2.58.555 3.64-1.311 4.45.07 1.78-.232 4.14.955 1.37.687-.21.049 1.3.744l1.55.572c3.42 1.29 1.55.03 3.14 2.221.82 1.128-.02.245 1.07 1.465.47.52.76.657 1.34 1.273-2.75 2.243-4.4 3.243-10.19 3.333l-.78-2.22c-1.16 3.53-7.25 5.39-1.57 8.34 0-2.34-.29-2.93 1.57-4.45 0 2.51-.93 6.44 3.33 5.66l1.53-.47c4.65-1.5 20.93-12.952 25.72-14.664 3.68-1.314 4.59.187 7.05-.535 1.17 1.197.12.733 2.35 1.113-1.2-1.229-.13-.691-2.35-1.113.45-.276-.7-.884 2.04-.635l1.88.635c.75-1.105 1.13-1.988 1.57-3.336 2.55.15 1.29.144 2.84.766.15.059.32.161.47.223l6.1 2.904c1.89-2.801-.41-1.705 3.19-3.89 3.45-2.093 1.16-1.368 5.43-1.116v3.893l3.11-.624.03 6.186c1.35.51 2.05.628 3.3.993 6.87 2.02.81 3.61 6.53 6.49 4.31 2.18 3.45.71 5.59 3.27 3.01 3.6 4.95 5.23 13.61 4.31 2.37-.25 6.83-.51 8.84-.99 1.99-.47 4.98-2.09 7.14-2.17 3.15-.13.7 1.9 1.29 5.27 1.06 5.98 10.58 6.09 16.76 9.84 3.27 1.98 1.38 3.29 3.42 5.36 2.55 2.59 12.43 1.53 18.19 1.56 11.01.04 9.92-.96 13.57-1.34 1.74-.18 1.61.17 4.46.22 3.63-3.85 3.51-3.31 7.76-6.17l4-3.29c5.18.31 1.65 3.2 7.84-2.78.99-.95 2.09-2.21 3.52-3.06.69-.42 1.43-.7 2.26-1.18.91-.52.72-.62 2.06-1.32 4.23.25 9.62 2.11 11.77 3.89 3.8 3.12 3.58 4.45 11.75 4.45 4.56-4.83 1.37-2.78.78-7.78 3.71 1.26 2.88-.22 4.75 2.75.08.12.13.28.21.41.08.12.15.27.23.39.08.11.18.26.26.37.83 1.09-.02-.11.95 1 1.03 1.18.94.79 1.44 2.31 10.18 0 13.82 2.98 16.62 3.83 5.76 1.76-.67-2.61 8.47 1.73 1.42-.67 2.66-1.44 3.92-2.22 2.03.38 2.84.96 4.7 1.66 2.75-2.91 9.05-5.53 11.31-6.99l2.02-1.9c2.74 1.3 1.87 1.9 5.63 1.3 3.01-.49 3.75-1.12 6.92-1.3.79 2.1 1.53 1.4 2.35 3.89 3.3-1.72 1.69-4.97 0-7.23 5.34.32 2.97.64 3.53 2.11.29.77.07 2.09 4.31 2.89 2.86-1.36 1.5-1.52 3.92-2.78 0 3.07.72 1.68 1.29 4.9.29 1.6-2.19-.06.97 1.84.84.5 1.87.79 3.23 1.05 3.34-10.18 9.73-8.5 15.79-14.38 2.7-2.63 10.55-10.05 14.64-9.52l4.85.54c.36-1.1.61-3.502.78-6.708V892H0v162.95l4.098-2.65c2.817.1.47.14 3.742.98 2.288-3.06 4.45-7.1 6.166-8.41 1.649-1.27 1.501.2 2.458-2.71h1.568c.567 1.73 1.001 1.61 1.568 3.34 3.816-.23 6.982-2.76 9.739.32.385.43 1.148 2.59 1.198 3.08.164 1.61-.841 5.59-1.53 6.61 3.32-.63 1.302-.49 3.842-2.28 6.17-4.37 2.631-1.47 9.002-3.63 1.981-.67 3.07-1.39 4.543-1.82 4.737-1.38 6.047 1.32 8.07-3.13 3.24-7.12 2.595-3.94 5.12-6.38-.319-.09-2.31.35-1.094-2.88.565-1.5.944-1.92 2.144-3.05 1.876-1.78 4.346-2.91 8.358-2.97-1.245-3.79.416-6.33 6.272-6.67 3.772 1.79 1.438 3.05 6.271 3.33-.97-1.3-1.346-1.45-1.567-3.33 9.71-1.61 4.667 1.89 11.583 4.57l2.56.96c1.883.74 3.118 1.31 5.456 1.7-1.248-3.32-1.051-.04-4.299-3.07-1.383-1.29-1.91-2.71-1.973-4.72Zm776.153 31.7c1.173 1.2.115.73 2.352 1.11-1.204-1.23-.128-.69-2.352-1.11Zm-659.338-34.48-.784.55h-.784l.653.65.131-.65.784-.55h.784l-.654-.65-.13.65Zm433.548 27.81-.784.55h-.784l.654.65.13-.65.784-.55h.784l-.653-.65-.131.65Zm-354.365-27.26h-.784l.654.65.13-.65c1.919-.99 1.688-.75 2.352-2.78-2.035.97-2.092.57-2.352 2.78Zm-80.751 63.96v.56l.915-.47-.915-.09c-.283-2.41-.44-3.13-3.92-3.34.262 2.24 1.227 2.83 3.92 3.34Zm71.343-32.26h-.784l.654.65.13-.65c1.916-.36 1.06.25 1.568-1.11l-1.568 1.11Zm348.094 6.68h-.784l.653.65.131-.65c2.71-.51 2.412-.3 3.135-2.23-2.71.52-2.412.31-3.135 2.23Zm-370.045-13.35h.784l-.653-.65-.131.65-3.106.63c.665.23-1.171.77 1.466.36 1.381-.22.854-.23 1.64-.99Zm1146.196 17.8h.79l-.66-.65-.13.65c-4.03 1.03.63-.06-2.25 1.18-1.74.75-.49.44-3.24.49 3.17 3.07 7.92 1.29 10.2-1.12-.36 0-2.17.05-2.39.03l-2.32-.58Zm-1087.397-61.18h.784l-.653-.65-.131.65c-1.628.31-2.793.82-4.098 1.54-1.775.99-1.947.98-2.174 2.91 3.803-1.81 4.018-1.43 6.272-4.45Zm280.67 25.03h.784l-.653-.65-.131.65c-2.237.38-1.18-.09-2.352 1.11 2.292-.39 1.129.07 2.352-1.11Zm239.902 79.53c-1.362.96.959.35.216-.01-.006-.01-.165-.03-.216.01Zm-216.382-78.98c0 1.39 1.253.15.486 0-.01 0-.486-1.57-.486 0Zm-310.462-19.46c-.311 1.19 1.127.38 1.056-.11l-.28-.11c-1.466.07-.476-.93-.776.22Zm570.747 26.14c.033.18.865.12.935.1.195-.05 1.362 1.29.34-.15-.022-.03-1.462-1.02-1.275.05Zm-15.679-2.23c.032.19.865.13.934.11.196-.05 1.362 1.29.341-.15-.023-.03-1.463-1.03-1.275.04Zm-693.05-22.8c-.403 1.55 1.87-.27.776-.22-1.467.07-.477-.93-.776.22Zm25.872 15.57c-.403 1.55 1.869-.26.776-.21-1.467.06-.477-.94-.776.21Zm68.991-13.34c-.403 1.54 1.87-.27.776-.22-1.467.06-.476-.93-.776.22Zm-47.04-1.12c0 .66 1.688 1.26 1.214 0-.475-1.25 1.995-.01-.362-.16-.987-.06-.852-.97-.852.16Zm235.198 61.74c0 .65 1.687 1.25 1.214 0-.475-1.26 1.995-.02-.362-.17-.988-.06-.852-.96-.852.17Zm-137.983-66.74c0 .65 1.687 1.25 1.214 0-.475-1.26 1.994-.02-.362-.17-.987-.06-.852-.96-.852.17ZM0 1056.56c.212.38 1.112-.22 1.055-.61 0 0-.054-.09-.061-.09-.72-.13-.942-.28-.994-.32v.02c.027.05.08.2 0 .5v.5Zm664.826-4.94c-.311 1.19 1.127.37 1.056-.12-.001 0-.055-.09-.062-.09-1.573-.29-.773-.64-.994.21Zm-260.285 21.13c.805.57 2.835-.8.909-.3-.019 0-2.225-.63-.909.3Zm-128.575-64.51 1.567-1.67c-2.059.54-1.163-.01-1.567 1.67Zm323.005 2.22c-.311 1.19 1.126.38 1.055-.11-.017-.12-.685-1.31-1.055.11Zm-110.543-4.45c.165.64 1.723 1.22 1.055.11-.282-.46-1.431-1.55-1.055-.11Zm-108.191 71.19c.165.63 1.723 1.21 1.055.11-.282-.47-1.431-1.56-1.055-.11Zm-216.383-64.52c.166.64 1.724 1.22 1.056.12-.283-.47-1.432-1.56-1.056-.12Zm85.456 5.57c-1.204-1.23-.129-.69-2.352-1.12 1.235 1.27.147.65 2.352 1.12Zm-69.776 15.01c-1.204-1.23-.128-.69-2.352-1.11 1.236 1.26.148.65 2.352 1.11Zm367.693-6.67c-.549-1.63.101-.8-1.568-1.67.515 1.52-.318.87 1.568 1.67Zm-406.893 24.47c-.548-1.63.101-.8-1.567-1.67.514 1.53-.319.87 1.567 1.67Zm136.415-35.04h2.352v-.55h-2.352v.55Zm250.878 20.02h.784v-1.67h-.784v1.67Zm-38.416 7.23h.784v-1.67h-.784v1.67Zm-339.469 28.92h2.352v-.55h-2.352v.55Zm279.886-27.8h.784v-1.67h-.784v1.67Zm70.559-.56h.784v-1.67h-.784v1.67Zm-205.406 33.37h2.352v-.56h-2.352v.56Zm88.591.55h2.352v-.55h-2.352v.55Zm126.223-36.7h.784v-1.67h-.784v1.67Zm-268.91-2.23h.784v-1.66h-.784v1.66Zm-139.551-.55h2.353v-.56h-2.353v.56Zm163.071 30.03h2.352v-.56h-2.352v.56Zm-85.455-41.16h.784v-1.66h-.784v1.66Zm925.11-4.44c2.29-.39 1.13.07 2.35-1.12-1.37.24-2.1.07-2.35 1.12Zm-480.586 23.35c2.292-.39 1.129.08 2.352-1.11-1.375.23-2.101.07-2.352 1.11Zm501.756-32.81c2.29-.39 1.13.07 2.35-1.11-1.37.23-2.1.07-2.35 1.11Zm-38.42 32.81c1.74-.85.98-.09 1.57-1.67-1.3.64-1.51.12-1.57 1.67Zm-582.503 1.12c1.732-.86.974-.1 1.568-1.67-1.297.64-1.508.12-1.568 1.67Zm-211.678-30.59c1.732-.86.974-.09 1.568-1.67-1.297.64-1.508.12-1.568 1.67Zm1289.671-3.34c1.73-.85.97-.09 1.57-1.67-1.3.64-1.51.12-1.57 1.67Zm243.82 16.69c1.73-.86.97-.1 1.57-1.67-1.3.64-1.51.11-1.57 1.67Zm-1511.54-23.92c1.733-.85.975-.09 1.568-1.67-1.297.64-1.507.12-1.568 1.67Zm1069.37 42.82c1.73-.85.97-.09 1.57-1.66-1.3.63-1.51.11-1.57 1.66Zm-689.133 5.57c1.733-.86.974-.1 1.568-1.67-1.297.64-1.508.11-1.568 1.67Zm-161.503-26.14c2.435-1.25 2.435-.42 0-1.67v1.67Zm-29.792 22.8c2.435-1.25 2.435-.42 0-1.67v1.67Zm-240.686-43.38c-.358.25-1.836-.05-.016.68.784.32 1.927.1.979-.69-1.227-1.03-.428-.37-.963.01Zm30.576 29.47c2.362-.44 1.721.01 2.352-1.66-3.153.81-.116-.47-2.352 1.66Zm-205.406 2.23v-1.11h-2.352c1.235 1.26.148.65 2.352 1.11Zm503.324-20.02h2.352c-1.204-1.23-.129-.69-2.352-1.11v1.11Zm-307.326 28.36c2.292-.39 1.13.07 2.352-1.11h-2.352v1.11Zm821.626-4.45c2.29-.39 1.13.07 2.35-1.11h-2.35v1.11Zm16.46-28.92c2.3-.39 1.13.07 2.36-1.11h-2.36v1.11Zm-954.117 21.14h1.568c-.548-1.63.101-.8-1.568-1.67v1.67Zm32.144-19.47c.183-.29 2.487-.34-1.568-1.11.419 1.11-1.004.22.63 1.14 1.359.76-.115.34.938-.03Zm-42.335 24.47h2.352v-1.11c-1.375.23-2.101.07-2.352 1.11Zm337.117-20.58h1.568v-1.66c-1.297.64-1.508.11-1.568 1.66Zm-156.799 6.12h1.568v-1.67c-1.297.64-1.508.12-1.568 1.67Zm298.702 25.59c.794-.16 3.027-.08 1.568-1.12-.842-.59-1.506-.48-1.568 1.12Zm-338.854-5.69 2.521.12v-1.67l-2.521 1.55Zm-85.287-18.79c3.177-.52 2.361-.14 3.136-1.66-2.559.96-1.546.04-3.136 1.66Zm733.034 6.68c3.641-.22 1.371.59 3.136-1.11-1.844.1-2.854-.06-3.136 1.11Zm-136.415 5c2.409-1.25 1.265.36 1.568-2.22-2.006 1.04-1.568-.19-1.568 2.22Zm-672.666 15.02c2.408-1.25 1.264.36 1.568-2.22-2.006 1.04-1.568-.2-1.568 2.22Zm447.66-32.81 3.106.62c-.691-.83-2.683-2.79-3.106-.62Zm366.125 12.79c2.362-.45 1.721.01 2.352-1.67-1.79.34-2.292.13-2.352 1.67Zm253.231-7.79c2.85-.47 2.51-.3 3.92-1.67-2.75.46-2.59.31-3.92 1.67Zm-693.835 12.24h1.567v-1.67h-1.567v1.67Zm275.181 1.11c2.826-.54 2.097-.05 2.352-2.22-2.171 1.12-1.057.37-2.352 2.22Zm134.063-2.22c.505-.42.587-.13 1.056-.92.768-1.3.328-.3.512-1.87-2.16 1.13-1.568-.03-1.568 2.79Zm214.811-9.46c-1.76-1.71.51-.9-3.13-1.11 1.49 1.58 1.1 1.71 3.13 1.11Zm-637.383-10.01v-2.78c-.063.05-1.114.3-1.308 1.31-.273 1.42.034.81 1.308 1.47Zm-340.254 26.14v-2.78c-.964.5-1.266.18-1.346 1.12-.119 1.4 1.337 1.65 1.346 1.66Zm504.892 10.57 3.113-1.15c-.571-.72-.405-.58-.761-1.63l-2.352 2.78Zm-464.908-39.49v-1.11h-3.136c1.771 1.71-.509.89 3.136 1.11Zm301.837 26.14h1.568c-.303-2.58.841-.97-1.568-2.23v2.23Zm-8.624 5h1.568v-2.22c-2.006 1.04-1.568-.19-1.568 2.22Zm-25.088-28.92c2.74-.51 1.761-.21 3.137-1.66-2.263.13-3.071-.02-3.137 1.66Zm-152.094 37.27c2.031-1.06 1.665-1.25 2.352-3.34-2.031 1.05-1.665 1.25-2.352 3.34Zm259.502-27.26c2.362-.44 1.721.01 2.352-1.66h-2.352v1.66Zm-176.399 3.9c0 1.56.339 1.03 1.568 1.67v-2.78c-.698.27-1.568.36-1.568 1.11Zm211.678-14.46h3.136v-1.67c-2.559.96-1.546.04-3.136 1.67Zm-126.223 7.78h.784c0-2.95 2.398-1.68-.784-3.33v3.33Zm-205.406 10.57 2.52-1.55c-3.421-1.19-3.228-.55-2.52 1.55Zm402.189 3.89c1.998-.95 2.448-.95 3.136-2.78-2.61.98-2.356.41-3.136 2.78Zm-311.245 44.5c-1.383-1.34-1.569-1.49-4.704-1.67 1.382 1.34 1.568 1.48 4.704 1.67Zm-203.055-4.45h3.92v-1.12c-2.09.04-3.609-.18-3.92 1.12Zm773.018-44.5h3.92v-1.11c-2.09.03-3.609-.18-3.92 1.11Zm-846.713 2.79c3.082-.51 3.181-.62 4.704-2.23-3.083.51-3.182.61-4.704 2.23Zm206.19-24.48c.097-.15 1.786.19-.176-1.03-.908-.57-.635-.84-1.615-.15-2.077 1.48.18 1.15.193 1.16 1.493.98 1.159.17 1.598.02Zm314.381-1.66h1.568v-2.78h-1.568v2.78Zm-427.276 7.23c3.707-.06 3.079.56 3.92-1.67-2.833.16-2.83.24-3.92 1.67Zm384.157 7.23c2.773-.53 2.417-.6 3.136-2.79-3.652.7-1.525.4-3.136 2.79Zm36.064-5.01c3.273-1.55 1.548-.99 3.135-3.34-.006.01-1.008-.22-2.288 1.16-.937 1.01-.667.64-.847 2.18Zm-333.982-10.57c-.409-2.65 1.076-.93-2.352-2.22-.572 1.92-1.22 2.01 2.352 2.22Zm362.205 45.05c2.537-.48 4.205-1.42 5.489-2.78-3.265.54-3.87 1.07-5.489 2.78Zm-28.223-32.81c3.646-.06 3.892-.07 4.704-2.23-2.414.46-1.587.31-4.282 1.97-.085.05-.283.17-.422.26Zm50.175 35.04c2.392-.4 1.895-.67 3.92 0 .619-1.65.319-.91 1.568-2.23-2.628.44-4.118.9-5.488 2.23Zm-284.589 24.47c.392.49.51 1.11 1.568 1.11 2.168 0 1.885-.43 2.352-1.67-1.657.03-3.101-.1-3.92.56Zm730.684-46.72c2.08.71.84.51 3.92.56-.28-.84-.17-1.67-1.57-1.67-1.42 0-2.15.28-2.35 1.11Zm-384.159 17.24c1.77-1.44 2.276-2.03 2.352-4.45-2.598 2.12-2.352 1.76-2.352 4.45Zm-137.983-18.91c-1.382-1.34-1.568-1.48-4.704-1.67 1.646 1.75 1.981 2.57 4.704 1.67Zm-159.935 9.46c2.054-.98 1.621-.29 2.352-2.23-.015-.01-1.462-.55-1.567-.55-4.09 0-1.17.28-.785 2.78Zm386.509-4.45h1.568l1.678-3.87c-2.544 1.13-3.159 1.08-3.246 3.87Zm-566.043-8.9c.358-.17 1.341-.49 1.91-.87 1.238-.84.599-.13 1.225-1.36-.941-.55-4.515-1.97-3.135 2.23Zm389.644 25.58c3.265-.54 3.87-1.06 5.488-2.78-2.256.13-1.937.06-3.538.83-2.148 1.03-1.385.45-1.95 1.95Zm-253.229-12.23c4.566.77 3.691 1.18 5.488-.56-2.307-.38-2.393-.56-5.488-.56v1.12Zm-145.823-23.92c2.803-.46 5.574-1.34 7.056-2.78-4.067.24-5.285.91-7.056 2.78Zm379.453 23.92c2.688-2.61 2.228.59 2.352-3.34-.124.06-2.362 1.03-2.421 1.06-2.313 1.33-1.205-.24-1.499 2.28h1.568l-1.841 1.63c-.922 1.69 1.098 2.37 2.171 7.03 1.165 5.06 1.764 7 9.078 5.8v-1.12c-3.469-.05-4.168-.58-6.392-4.92-1.662-3.24-1.448-3.96-1.448-8.42h-1.568Zm209.326-3.34c4.066 0 3.043.5 4.704-1.11-.392-.5-.51-1.12-1.568-1.12-2.314 0-2.703.95-3.136 2.23Zm-565.259 32.26v.55c4.881 0 7.618-1.22 8.624-3.89-2.329 1.11-5.043 3.34-8.624 3.34Zm460.988-3.9c2.118 0 2.162-.26 3.92-.55-.562-.28-.337-.33-1.443-.65-1.317-.37-.594-.23-1.811-.38-1.369-.17-3.161-.09-4.586-.09.905.88 1.818 1.67 3.92 1.67Zm-41.552-21.13c2.798-1.33 3.053-2.36 3.92-5.01-2.258.43-1.958.39-2.947 1.81-.821 1.17-.921 1.56-.973 3.2Zm-179.534-36.71c3.371.2 1.413-.08 3.92 1.12.053-1.7.354-2.03.784-3.34-3.545.05-3.978.07-4.704 2.22Zm-399.837 41.16c.732 1.94.299 1.25 2.352 2.22 2.975-1.41 3.558-3.04 1.074-3.01-.01 0-1.3.66-3.426.79Zm546.444 40.04c3.942-.06 3.835-.63 3.92-3.34-3.353.56-3.829.45-3.92 3.34Zm-617.787-28.36c-.216-1.84-1.02-3.34-1.568-5.01h-1.568c0 3.03-.308 4.36 3.136 5.01Zm171.694-42.83c1.748-.33 2.353-.13 2.353-1.66v-2.79c-4.927.3-2.353.8-2.353 4.45Zm888.263 36.15c1.5 2.93 2.12.9 7.84.56v-1.11c-.6.03-2.6.3-2.61.3-.94.04-4.1-.73-5.23.25Zm-929.814-18.91c1.797 1.91 1.891 1.73 4.704 2.79v-4.45c-1.864.7-2.673 1.28-4.704 1.66Zm466.475-37.814.001-1.668h3.92l-3.121 1.123c-.115.057-.331.209-.421.258-.089.049-.252.192-.379.287Zm-268.909 18.354 6.272-2.78-10.532 1.98c-3.364.87-.854-.52-2.796 1.36l7.056-.56Zm129.359 1.11c3.609-.68 3.136-1.15 3.136-4.45 0-1.56-.339-1.03-1.568-1.67-.886 2.7-1.568 2.52-1.568 6.12Zm-384.94 14.46c-2.957-.97-1.491-1.04-3.137.56 2.46 1.46 5.475-.36 7.056-1.11-1.046-1.55-.784-1.08-.784-3.34h-1.568c-.371 3.17-1.196.72-1.568 3.89Zm1074.069 13.35c0 2.99 4.38 2.78 8.63 2.78l-2.46-1.04c-.99-.15-2.74-.07-3.82-.07-.92-3.09.6-2.61 1.57-5.56-1.59.75-3.92 2.05-3.92 3.89Zm-915.703 18.91c.685 1.82 1.968 2.41 3.92 3.34 3.358-1.15 2.945.36 3.92-2.23-3.608-.6-5.11-1.81-7.84-1.11Zm160.719-31.15c.998 1.48.715.6.783 2.78a66.98 66.98 0 0 0 3.629-1.87c1.962-1.07 2.055-1.34 2.643-3.13-4.318.07-4.546 1.03-7.055 2.22Zm-167.775 38.93 6.272-.55c-2.764-1.25-7.904-.65-7.84-2.23.065-1.6-6.459-1.86-3.243 1.13 1.196 1.11 2.183 1.65 4.811 1.65Zm343.389-55.61c2.748-.52 1.688-.22 3.176-1.64.918-.88 1.535-1.52 2.643-2.57 1.881-1.79 3.618-2.95 4.373-5.24-3.188.18-1.868-.35-3.447 1.44l-4.612 5.07c-1.486 1.4-1.462.9-2.133 2.94Zm518.22 3.34c5.29-.88 7.88-2.23 12.11-4.21 2.34-1.1 2.05-.53 2.79-2.47-3.03.5-12.69 4.33-14.9 6.68Zm-907.081 11.68c1.808 0 4.175-.77 5.976-1.33 2.575-.79 2.87-1.14 4.216-2.57-1.7.32-7.686 4.25-12.791.14-2.965-2.38 2.101-1.5-2.889-1.81.431 3.67 5.415 5.57 5.488 5.57Zm980.771 2.22c5.74-.34 16.05-5.12 18.04-7.23-3.53.58-16.28 5.38-18.04 7.23Zm-809.076 10.57c2.034 1.97 3.637 1.06 4.704 3.89h2.352l.784-4.45c-4.827-1.81-3.079-1.23-7.84.56Zm19.6-1.12c0-1.99-2.941-2.96-3.921-5.56-4.085.78-3.713 3.84-3.148 4.45.847.91 7.069 3.19 7.069 1.11Zm-58.8 10.57c1.375 1.46 1.952 2.31 3.136 3.89l4.678-.64c.037-4.6-.385-3.21.81-4.92-4.235 0-2.237.02-5.698.97l-2.926.7Zm555.851 1.67c2.337-.04 2.749.11 5.642-1.56 1.593-.92 2.693-1.75 3.766-2.89-8.071 1.33-5.902.67-13.328-.56 1.055 2.81 2.754 1.46 3.92 5.01Zm-741.657-24.47h-4.704c1.365 1.32 1.64 1.67 8.624 1.67 4.635 0-2.804-1.16 3.96-.53.051.01 2.311 1.13 2.311-1.7 0-1.94-3.667-.55-5.487-.55-2.953 0-1.483-.37-4.704-.56v1.67Zm396.7.56c0 2.06.765 2.51 2.352 3.33.177-1.5.368-1.51.784-2.78 2.32.44 1.271.23 3.136 1.11 0-6.32 2.353-.84 3.92-5-.691-.27-.137-.21-.96-.27-7.349-.53-6.538.51-8.003 2.25-1.059 1.26-1.229.39-1.229 1.36Zm554.282-3.9c4.44-.07 7.23-1.82 10.45-3.15 2.46-1.02 7.81-3.33 9.15-4.63-3.26.19-12.84 3.57-15.85 4.88-2.23.96-3.02.97-3.75 2.9Zm-27.44 5.01c2.72.92 5.87-.31 8.74-1.04 6.99-1.77 6.96-1.39 7.73-3.41-3.41.05-6.96 1.13-10.2 1.67.9-2.67.54-.87 0-1.67-7.16 1.35.36-.34-4.58 2.83l-1.69 1.62Zm-765.96 30.03c8.251 1.24 2.661-3.58 10.192-5.01-1.046-1.54-.784-1.07-.784-3.33-4.213.25-4.136.89-5.766 3.14-1.466 2.02-3.371 2.89-3.642 5.2Zm-8.624-42.27c-2.991 0-.596-.81-5.488 0 1.07 3.26.94 1.21 3.136 3.34 6.263-2.35 9.93-1.13 14.112-5.56-5.907.09-9.344 2.22-11.76 2.22Zm52.528 30.03c-3.674 1.26-3.256-.49-5.488 1.67 3.057 0 6.239.15 9.228-.16 4.975-.5 3.789.16 8.804.16 0-6.55-4.482-2.78-6.272-2.78-5.453 0-3.54.19-6.272-1.11v2.22Zm-62.72 17.8c2.663.16 2.87.43 4.704 1.11.521-3.37-.642-.47 3.817-2.85 1.922-1.03 2.409-2.71 2.138-4.26-.373-2.13-.569-1.91-2.819-2.34-1.233 3.75-6.632 5.13-7.84 8.34Zm214.031-51.72 2.632-.36c.142-.05.359-.16.483-.21l2.396 12.23c.01 2.53.574 11.37 1.545 12.81 1.879-.54.749.23 1.725-1.04 1.253-1.63-1.462-10.21-1.736-14.52-.39-6.14-.639-12.07-2.341-17.25-3.213 1.64.672.55-1.153 4.14-.637 1.26-2.716 1.98-3.551 4.2Z" fill="#FAFAFA"/><path fill="#FAFAFA" d="M0 870h1920v115H0z"/></svg>