<svg width="1920" height="312" fill="none" xmlns="http://www.w3.org/2000/svg"><path fill-rule="evenodd" clip-rule="evenodd" d="m93.295 181.861 2.315-2.251c1.008-1.199.692-1.246 2.164-2.402 3.898-3.057 1.937 1.144 6.497-2.577-1.27-2.716-.215-.191-1.107-.785-1.472-.98.143 1.676-1.245-.883 10.456-3.56 15.187-1.911 15.025-4.823-.158-2.833-1.419 1.328-.129-.739 2.132-2.615 4.372-.375 6.842-3.489.404-.509 3.363-7.172 11.19-7.634-.641-.808-.381-.589-.784-1.669l3.113-1.142.023 3.367c-2.075-.39-.645.045-2.352-.556-.747 1.312-.06.235-1.817 1.492-3.127 2.236-7.864 6.389-7.624 9.583.416 5.553 5.151 5.864 5.737 9.231.363 2.09-1.558 2.574 1.297 3.709 3.322 1.322 5.955-.792 7.043-1.199l1.696-.44c2.707-.965 1.153-1.809 4.643-3.467 0 2.95.036 3.284.784 5.562 4.41-1.501 2.055.615 3.293-2.114.494-1.089.627-2.885.627-4.56 2.611 1.357 1.568.572 1.568 7.23 5.688 2.135 4.091 3.882 5.18 7.055.224.652 3.733 5.937 7.592 6.687l9.964 1.274c.362-2.35-.773-1.669 3.92-1.669 0-3.429 1.261-2.239 2.352-5.561l1.667 2.155c1.063 1.134.323.178 1.036.94l2.785 5.247 2.266-2.285c.876-1.349.833-2.063 1.654-3.276 3.429 1.782.655.99 3.92 4.449 3.356 0 4.331-.638 7.51-.359 2.654.233 4.955.666 7.453.875 11.221.942 6.291-.682 9.772-.645 1.382.014 1.707.391 3.489.685.62-.885.803 1.023 0-1.669 3.749 1.949-.499 1.669 7.056 1.669-.833-1.117-.672-1.001-1.82-2.046-1.598-1.457-1.316-.32-2.1-2.403 3.346 1.256 3.372 2.067 5.927 3.067 4.017 1.572-.208.148 2.879.05 2.755-.087.481.159 3.738.776v-2.781c4.823.914.343 2.431 6.271 2.781-1.524-1.615-1.586-.747-2.352-2.781l3.137-.556c-4.699-.89-7.529-3.848 0-6.674 1.051 1.806.037 3.06-.785 5.562 5.479.425.279.38 2.851 1.111 1.905.542 3.046-.341 5.302-2 2.961-2.178 1.545.758 2.04-2.448h9.407c2.216 1.813 4.185 3.943 0 6.117-.738-1.111 1.111-.781-2.352-4.449-5.037 0-8.388 1.739-9.408 4.449 3.525.274 1.967-.832 2.353 1.669 6.981-.412-.61-1.751 5.487-2.225 1.434 2.199-2.202 4.133 2.283 4.491l.669-.002c.069.01.276.047.35.063 2.562.576-.342.768 3.754 1.01l.603-1.83c.583-.771 1.817-1.479 2.533-2.063l1.636 2.732c.077.118.171.263.246.382l1.181 1.942c.51.654.953.889 1.641 1.617h5.488c.677-2.062 1.442-1.732-.229-3.683-1.265-1.476.051 1.402-1.339-1.322 3.604.595 3.387.113 5.645 2.669l1.942 2.515c.056.08.147.26.253.378.55-1.472-.063-.458.783-1.669-.795-.746-.783 1.17-.783-1.668h.783v1.668h1.568c-.284-2.426-.136-1.193-2.002-3.029-.34-.335-1.09-1.141-1.241-1.344-4.269-5.727-2.496-1.615-8.517-3.969.409-3.485 1.953-1.305 3.136-4.449h1.568c1.517 4.618 4.725 1.961 6.272 1.669-.704 1.08-.799 2.119.862 3.808 1.87 1.902-.02.222 2.199 1.25 1.561.723-.184-.362 1.408.67l1.019.945 1.411-1.223c3.26 1.585 3.279 2.777 4.861 5.116l7.056-2.78v2.78h3.92c-.709 1.015-.605.696-.784 2.225 4.158-1.415 6.135 1.376 13.362 4.426.201.085.742.357.953.435 2.446.911-1.58.434 2.933.701-3.265-3.459-4.909-2.869-9.408-5.006.959-1.286.704-.919 1.924-1.991.768-.676 1.309-.004 1.738-2.101.626-3.052-1.956-.395-2.094-4.806 2.666-.441 11.045-1.724 13.652-1.48l3.885.68c3.218.76 2.424-.831 2.847 1.912 3.744 0 3.25-.377 6.272-.556l-.88 2.203c4.226.09 6.455 1.503 9.731 1.922 3.495.448-1.097-.117 2.211.011 2.337.09 1.797.105 3.834.87-.178-.54-.561-1.761-.821-2.199-1.091-1.833-4.632-2.784-7.02-3.919 1.744-3.063-2.036 3.038 1.421-1.221l.505-1.776c.088-3.672.035-.555 1.21-3.677 2.221.131 5.354 1.089 7.056 1.669-.68-2.28.35-1.598-.784-3.337 2.663-.157 2.87-.424 4.704-1.112.658.696 3.866 3.557 4.718 3.883 4.543 1.736 4.893-1.368 6.258 2.79h1.568c1.323-4.028-3.152-6.325-8.624-7.23.691-1.836 2.116-2.846 4.704-3.336 1.138 3.023 1.906 1.725 5.884 2.515 5.734 1.139.949 1.205 7.444.821.509-4.334 2.772-3.008 3.136-6.117 2.677 1.391.784.835.784 4.449.405.138 1.597.542 2.137.789.113.052.31.172.416.222l1.228.541c1.179.37 1.265.053 1.707 1.229 5.248 0 6.856-1.379 11.76-1.669 2.051 1.38 2.345 2.159 4.13 3.745 1.902 1.69 2.364 2.314 6.062 2.373.231-1.967 1.438-3.011 3.136-3.893-.972-2.584-1.234-.492-1.567-3.337 3.128-.05 2.902-.257 4.704-1.112 0 2.902-.131 3.502 1.365 5.705.6.885.187.182.73 1.15l.607 1.238c.057.112.168.314.214.404.047.09.112.28.22.401-1.831 1.772-1.306.452-3.136 2.224 3.824 1.061.398-.961 2.843.256.085.042.261.165.349.217l.769.528c1.942 1.204 3.447 1.876 6.23 2.336.603-1.601 1.288-1.451 2.977-2.337l1.24-.789c1.892-1.748-.697-2.354 4.407-2.435-2.615 2.77-1.145 3.336-1.516 6.24-.191 1.493-.963-.949-.052 2.102l5.452-1.19.939 3.396c3.888-.218 1.819-.758 5.369.575v-2.225c2.277 1.082 1.052 1.126 3.92 1.669-1.525-1.615-1.586-.747-2.352-2.781 9.066 3.086 15.746 2.764 21.283 4.368 1.105.319 1.836.861 3.669 1.313 5.588 1.379 5.063.282 7.976-1.232 1.721 1.061 1.75 1.494 4.704 1.669-3.976-5.878-4.563-1.604-4.704-6.118 4.63.877.348 1.807 5.487 2.781 5.003-.948 1.108-1.813 5.488-3.893 1.636 2.418.085 1.805-.784 4.449 6.155-1.017 5.881.27 10.976 1.112-.43-1.309-.731-1.642-.784-3.337.86.702 1.423 1.404 2.352 1.113 0-2.464.012-4.099-1.035-5.94-1.013-1.781-2.735-2.23-4.453-3.515.417-1.268.608-1.279.784-2.781h1.568c.261 2.225.466 2.357 2.352 3.337 0-2.891 1.675-8.012-3.92-8.342v-2.781c3.064-.58 2.47-1.632 3.309-4.326.583-1.87 1.033-3.702 1.61-6.088.398-1.644.904-3.575 1.435-5.656.642-2.514 1.996-3.278 2.27-5.62h1.568c0 6.511-3.136 7.651-3.136 16.685 4.099-.678 1.338-.245 5.488 0-.559-1.701-1.22-2.138-2.352-3.337 8.636 0 8.603 2.134 11.082 7.71 2.033 4.572 2.235 7.102 8.518 10.087 3.477-5.141 4.421-3.508 12.077-4.138 2.485-.204 2.95-.701 3.602-1.98h1.568c.973 2.584 1.234.492 1.568 3.337 12.143-4.133 10.971.223 17.776 4.075 4.8 2.717 12.082 7.493 15.406 6.733.167-.038.382-.12.539-.167l1.559-.631c.085 2.715.127 4.226 3.92 4.45 0-2.196.247-2.257.784-3.893l3.62 1.325c.151.06.349.141.494.205 2.844 1.26 6.196 3.538 9.583 4.325 3.334.776 2.852.229 5.903 1.375v-2.225c2.849.54 1.378.316 3.368 1.504 2.167 1.294 1.235.217 2.904 1.833-1.057.421-.867.304-2.352.556 1.796 1.765-.048.631 4.704.556.303 2.583-.841.973 1.568 2.225-.682-2.077-1.307-2.639-3.345-4.301l-3.14-2.222c-.127-.073-.322-.166-.448-.238-1.871-1.066.396.995-1.691-1.025.766-2.035.827-1.166 2.352-2.781-2.056-.39-1.435-.114-3.071-2.271-1.781-2.348-3.123-3.029-3.201-5.515l7.958 5.478c1.014.542.504.284 1.45.639.549-1.626-.101-.801 1.568-1.668-5.195-6.965-6.738-6.861-11.944-9.324-1.844-.872-.777-.95-4.52-2.355.538-1.636.784-1.698.784-3.893 5.745 2.729 7.012 6.512 17.248 6.673-2.425-2.568-5.738-2.414-7.84-4.449 4.12.244 3.812 1.403 7.193 1.666 5.111.396 3.982-1.31 5.351-3.334 4.568 2.17.646-.636 7.84 2.781-.181-1.538-5.198-8.489-7.056-9.455-3.025 2.036-.566 1.252-2.352 3.893-3.072-.181-5.418-.826-7.292-2.057-1.299-.854-3.527-3.063-4.468-4.06 2.543.481 5.702 2.796 8.624 3.893.54-1.446-.291-.621 1.568-1.113-.635-1.932-3.329-5.103-5.488-11.679 1.801-.855 1.575-1.063 4.704-1.112-.709-1.014-.605-.696-.784-2.225 4.595 1.564 5.426-.407 7.056 0 3.419.648 4.093 2.615 7.473 3.645 4.603 1.403 6.408-.375 8.991-.864 3.481 3.688 4.809 1.993 9.369 3.364 1.903.572.484.576 3.175 1.085-1.58-13.47-16.536-10.07-18.816-16.128 3.773.624 5.857 1.956 8.783 3.268 3.387 1.52 1.913.472 4.237 1.006 1.658.38 2.891 1.242 4.029 1.981 4.783 3.109 13.225 6.78 15.094 8.761-6.067-1.003-8.334-4.615-13.327-5.561 4.11 5.51 3.221 4.759 8.746 6.628l4.329 1.194c.025-.001.171-.057.252-.036 1.875 1.032-.393 2.059 9.653 6.5 2.516 1.111 1.874 1.352 4.459 1.842-3.463-4.643-5.104-3.015-6.271-6.118 2.507 1.191.549.913 3.919 1.112-.179-1.525-.906-3.385-1.489-4.526l-.862-3.816c-.246-2.096-1.988-3.077-3.034-5.078-1.354-2.594-1.293-3.097-3.56-5.26-4.115-3.928-4.759-4.765-7.209-9.903-1.322-2.773-8.457-11.707-11.695-14.506-3.755-3.246-4.202-.705-6.646-3.071 9.778 0 9.677 4.938 17.029 10.166 5.935 4.221 3.996.568 11.656 8.416l7.197 6.573c8.901 7.687 7.21 4.57 9.915 5.921.837.418 1.297 1.148 1.904 1.798 4.279 4.582 3.979 1.665 10.299 2.686 5.879.95 7.469 1.146 14.911 1.146 7.334 9.832 11.699 7.058 16.304 10.124 7.433 4.949 1.814 5.263 19.76 8.229-1.324-1.402-2.5-2.511-3.136-4.449h-.784l.653-.649.131.649c2.034 1.057 1.383 1.254 3.315 2.653 1.441 1.043 2.935 1.597 4.525 2.352-.277-2.359-1.623-3.896-2.353-6.118 2.68 1.273 2.729 4.297 5.488 5.006 2.706-4.001-8.737-14.48-10.192-18.91 4.874.924 8.576 6.368 10.278 9.394 1.102 1.959.981 2.627 4.618 2.842-.314-2.684-1.744-3.697-3.136-5.562 3.43.881 3.603 3.802 5.425 5.606 1.315 1.302 2.008 1.134 3.37 2.059l9.417 7.78c2.189 2.504 1.445 4.365 6.092 5.133l.766-1.25c.073-.128.319-.534.397-.686.637-1.238 1.037-2.331 1.189-3.626 2.669.909 4.25.821 5.581-1.079.908-1.296.4-3.729-.049-4.246-2.118-2.438-5.306-2.106-3.18-8.579h1.568c.604 1.841 2.103 3.505 3.92 4.45 2.864-1.361 1.497-1.522 3.92-2.781 0 4.068-.504 2.035 2.546 3.755 4.37 2.463 3.53 5.405 10.553 4.482 3.056-.402 2.753-.847 7.275-1.014 8.441-.312 7.159-1.449 13.768-2.496 7.731-1.223 6.992 1.814 13.97 1.099 5.1-.523 9.543-.472 14.609-1.376 26.398-4.706 14.669-1.389 30.512-2.83 6.601-.6 7.118-4.943 7.118 3.941 3.044 1.036 6.365 1.112 10.975 1.112l-3.935-1.101c-2.948-.63-2.328-.153-3.904-1.679 2.917 0 8.493.222 10.725.813 8.021 2.12-6.054 2.522 3.386 3.08l1.568-2.781c1.405 3.731 3.309 4.086 7.84 3.337.937-1.437.557-1.085 0-2.781 5.911.349 1.045.579 3.02 2.885 2.692 3.144 12.121-2.316 18.932-3.441v-1.669c-3.088-.51-4.639-.643-6.272-2.225 5.068 0 5.551-1.08 8.066-.702l9.966.702c.436-3.718 4.387-2.124 8.078-1.803 4.197.366 5.629-.909 9.954-.977.213 6.783 10.221 5.042 12.543 5.005.46-3.943 3.49-3.56 3.92-7.23 3.11 1.616-1.28 7.021-1.57 9.455 13.5 4.595 17.08-1.728 21.62-.769.54.113 2 .962 2.71 1.284 1.16.536 1.98.763 3.21 1.088 3.26.866 12.52 3.836 11.68-1.506-.4-2.522-3.99-3.364-1.34-4.208 1.66-.527 3.28 1.121 6.81 1.33v-2.781c7.18 0 13.66 5.975 20.38 2.781.33 2.755 1.93 4.16 4.85 4.941 2.35.627 2.34.24 3.42.622.01.004 2.46 1.325 3.42 1.702 4.53 1.774 5.32.417 9.74 1.452 1.2.281 6.72 2.117 8.04 2.636l11.4 4.148c6.19 1.897 13.94 5.696 20.29 6.745-1.53-1.615-1.59-.746-2.36-2.781 2.01-.681.22-.12 2.22-.38l1.7-.176c-.9-2.401-4.36-2.984-6.27-5.006l25.87 9.455c.58-1.756 1-3.806 1.57-5.561 3.25 1.665-4.36 4.985 7.56 9.1 4.71 1.625 8.5 2.234 13.43.781 2.16-.638 1.84-.56 2.53-2.651 3.69.228 1.93-.828 1.57 2.224h2.35c1.19-2.547.84-.343 1.47.484 1.52 2.002-1.21 1.478 3.24 1.741.66-2.024.43-1.784 2.35-2.781 7.62 1.259.8 4.307 11.76 6.117 1.04-3.178-.4-2.844-.79-6.117 3.64-.215 1.37.596 3.14-1.112l2.48 1.075c1.53.749 1.34-.432 2.22 2.261-1.78.296-1.8.432-3.92.557.14 4.192 6.74 5.005 7.28 2.729.35-1.523-.87-.365-1.79-2.173 2.51-1.191.55-.914 3.92-1.113 0-6.471-13.33-8.085-19.93-10.885-7-2.966-7.42-3.883-12.84-6.468-3.01-1.438-5.16-2.788-8.14-4.233l-18.41-7.517c-4.43-1.704-4.83-2.97-10.45-2.041v1.112c2.39.396 2.56.427 4.47 1.275 2.3 1.018 1.84.995 4.93 1.506-2.28 2.211-7.75-.936-9.96-2.386-2.7-1.768-.8-1.607-4.66-2.814-2.24-.701-4.26-.882-6.42-1.563-4.23-1.333-5.39-3.132-11.64-3.979-8.81-1.196-8.87 1.993-8.87-5.942l-19.6-3.893c.05-1.373.47-2.174.43-2.904-.1-1.99-1.58-2.218.07-2.874 1.8-.716 4.42-.34 6.56-.34 1.68 1.779 1.29.39 1.57 2.781 2.55-1.212 1.74-.918 3.13-2.781-1.18-1.588-2.49-2.482-3.13-4.449 5.9.887-.79-.544 3.7-.185l9.16 2.185c2.51.615 2.79.904 4.94 1.496 3.83 1.053 6.81.789 10.36 2.123 1.99.743 1.42 1.387 4.57.98 3.29-.427 1.66-.872 4.11-2.15l6.62 1.982c3.17.914 5.11.852 5.93 3.024-4.64 0-6.75-1.43-9.41-.556 3.07 3.246 18.59 8.448 24.31 10.559 2.02.745 2.82 1.238 4.96 2.047 3.34 1.264 8.11 2.711 9.93 4.634-5.85-.092-5.09-1.51-9.41-2.224.78 2.067 2.44 2.688 4.94 3.727 2.61 1.084 4.24 1.906 6.66 3.059 9.71 4.625 23.46 11.514 35.25 12.816 4.1.453 5.57.276 5.68 3.756 3.3-1.239 3.14-.376 3.14-3.893 4.08-.065 5.15-1.217 7.84-2.225-.57-1.726-1.01-1.611-1.57-3.337 5.72 1.084 3.43 3.527 3.25 5.08-.16 1.455.06 1.583 1.29 2.234 1.86.986.08.052 1.66.515.19.054.41.09.59.143l4.27 1.466c4.73 1.511 3.37.631 2.27 2.798 7 1.157 7.06 7.035 27.27 2.661 1.72-.373 2-.648 4.09-.993.56 1.507-.27 1.072 1.8 1.583 1.26.313 3.01-.166 3.68-.471l2.47 1.086c.11.047.33.119.46.169l.95.401c2.61 1.265 4.06 3.101 6.22 4.602l.81.562c4.03 2.299 2.49-.117 1.64-2.371l3.17-.528c3.13-1.123-1.74-.1 2.32-1.14-1.18 1.572-1.86 1.691-.79 3.337.69.171.84-.905 3.06 1.081 2.28 2.03.81 1.7 5.57 1.7l.92-5.548c11.7.144 12.21 5.562 19.44 9.452 3.52 1.893 6.01 2.695 9.12 5.22 3.44 2.794 6.23 1.081 10.5 3.111-.15-4.645-1.54-3.635-4.38-5.791-3.75-2.84.03-4.64-4.34-6.379l-16.03-7.538c-4.97-2.693-10.82-4.225-15.45-7.393-3.7-2.537-6.52-4.365-11.2-5.956-2.78-.947-2.67-.396-3.48-2.537h-.78l.65-.648.13.648 3.11 1.143c-1.2-3.292-3.47-1.536-6.25-4.479 4.1-.319.94.452 2.92-1.272 1.41-1.232-.02-.832 2.57-2.065 1.03 3.119 4.57 8.032 10.19 6.117-1.11-2.968-3.58-2.036-4.7-5.005 2.83-2.744 2.61.698 3.92-2.781l5.46.834c2.33 1.045-2.24.548 2.38.835.9-2.39 5.06-2.554 8.61-2.256 3.93.331.88-.132 3.43.946.2.086.74.356.95.439l10.52 3.661c2.46.513 3.64.482 5.64 1.558l5.13 2.481c.15.059.37.12.52.185.14.063.34.148.48.218l3.32 2.649c1.57 1.158 2.75 2.069 4.52 2.91 3.43-.649 2.73-1.854 6.25-2.843 3.28-.925 9.41 1.59 7.94-2.268-.39-1.02-.35-.693-1-1.4-2.31-2.499-8.03-4.6-8.49-8.505 2.68 1.003 1.9.639 4.13 2.076l11.78 7.214c12.46 6.836 9.35 5.298 20.94 4.613-.23-2-1.03-3.609-2.54-4.873-1.79-1.508-2.86-1.255-4.51-3.469 2.51.476 8.3 2.531 12.54 2.781-2.57-2.485-3.41-.642-8.85-5.404-1.53-1.346-1.49-1.004-2.13-2.938.92-.972 1-1.238 2.72-1.97 6.01-2.568 8.79-.752 12.18.858l1.41-.772c1.14-.81 1.26.034.71-1.475-.39-1.074-2.24-.51.23-1.09-3.1-3.045.56 1.01-3.31-1.536-2.29-1.501-.73-1.648-3.77-2.895-2.38-.98-4.02-.649-8.29-4.686-2.57-2.432-2.8-4.314-6.72-5.8-2.49-.944-6.18-1.598-10.05-3.436l6.61-4.761c2.49-1.371 5.21-.819 9.85-3.025 1.71 2.293 3.95 4.269 7.84 5.005.35-2.967 1.83-3.844 5.49-4.449 3.27 3.467 2.98 3.884 6.92 5.1 3.49 1.077 5.87 2.531 9.52 3.813 3.03 1.059 7.81 1.626 10.02 2.907 10.83 6.299 24.28 10.39 35.57 16.473 4.02 2.164 3.25 1.021 5.89 1.944 1.93.678.97.341 2.64 2.576 4.28-.068 5.89-1.514 10.19-2.225 2.28 1.082 1.05 1.125 3.92 1.669-1.69 4.487-3.25 1.649 4.66 4.478 3.04 1.086 12.44 4.984 14.16 6.645-6.27 1.036-5.71-.798-10.98-1.669 1.44 1.524 5.32 3.396 8.09 4.274 7.66 2.432 3.45.24 7.59 4.625 11.53 0 2.72-2.365 12.01 2.05 1.8.86 11.92 3.812 15.43 8.517 5.82 0 5.61.242 9.41 1.668 6.07-2.882 2.28-1.264 5.49-5.561 5.26 1.79 4.7-.428 4.7 8.898 3.33.053 7.03 1.322 12.04 2.026 4.52.635 2.58-.555 3.64 1.311 4.45-.07 1.78.232 4.14-.955 1.37-.687-.21-.049 1.3-.744l1.55-.572c3.42-1.29 1.55-.03 3.14-2.221.82-1.128-.02-.245 1.07-1.465.47-.52.76-.657 1.34-1.273-2.75-2.246-4.4-3.245-10.19-3.337l-.78 2.225c-1.16-3.53-7.25-5.388-1.57-8.342 0 2.339-.29 2.933 1.57 4.449 0-2.51-.93-6.441 3.33-5.663l1.53.473c4.65 1.506 20.93 12.954 25.72 14.666 3.68 1.314 4.59-.187 7.05.535 1.17-1.197.12-.733 2.35-1.113-1.2 1.229-.13.691-2.35 1.113.45.276-.7.884 2.04.635l1.88-.635c.75 1.105 1.13 1.988 1.57 3.336 2.55-.15 1.29-.144 2.84-.766.15-.059.32-.161.47-.223l6.1-2.904c1.89 2.801-.41 1.705 3.19 3.89 3.45 2.093 1.16 1.368 5.43 1.116v-3.893l3.11.624.03-6.186c1.35-.51 2.05-.628 3.3-.994 6.87-2.022.81-3.611 6.53-6.493 4.31-2.176 3.45-.708 5.59-3.264 3.01-3.606 4.95-5.229 13.61-4.311 2.38.252 6.83.508 8.84.986 1.99.474 4.98 2.091 7.14 2.177 3.15.126.7-1.903 1.29-5.278 1.06-5.977 10.58-6.09 16.76-9.831 3.27-1.981 1.38-3.3 3.42-5.361 2.55-2.594 12.43-1.538 18.19-1.559 11.01-.041 9.92.95 13.57 1.336 1.74.182 1.61-.175 4.46-.22 3.63 3.847 3.51 3.314 7.76 6.172l4 3.282c5.18-.306 1.65-3.194 7.84 2.782.99.956 2.09 2.21 3.52 3.066.69.417 1.43.697 2.26 1.172.91.521.72.624 2.06 1.323 4.23-.25 9.62-2.113 11.77-3.884 3.8-3.126 3.58-4.459 11.75-4.459 4.56 4.836 1.37 2.79.78 7.786 3.71-1.262 2.88.224 4.75-2.75.08-.123.13-.283.21-.406.08-.121.15-.276.23-.393.08-.115.18-.26.26-.371.83-1.091-.02.108.95-1 1.03-1.185.94-.795 1.44-2.31 10.18 0 13.82-2.982 16.62-3.833 5.76-1.753-.67 2.615 8.47-1.728 1.42.674 2.66 1.445 3.92 2.225 2.03-.385 2.84-.97 4.7-1.669 2.75 2.913 9.05 5.538 11.31 6.996l2.02 1.902c2.74-1.301 1.87-1.9 5.63-1.299 3.01.483 3.75 1.112 6.92 1.299.79-2.107 1.53-1.402 2.35-3.893 3.3 1.715 1.69 4.965 0 7.23 5.34-.322 2.97-.642 3.53-2.109.29-.774.07-2.094 4.31-2.896 2.86 1.361 1.5 1.521 3.92 2.781 0-3.066.72-1.674 1.29-4.895.29-1.607-2.19.059.97-1.839.84-.505 1.87-.795 3.23-1.052 3.34 10.177 9.73 8.497 15.79 14.382 2.7 2.627 10.55 10.048 14.64 9.513l4.85-.537c.36 1.106.61 3.503.78 6.709V312H0V149.048l4.098 2.655c2.817-.098.47-.146 3.742-.986 2.288 3.067 4.45 7.104 6.166 8.417 1.649 1.262 1.501-.208 2.458 2.706h1.568c.567-1.726 1.001-1.611 1.568-3.337 3.816.225 6.982 2.754 9.739-.323.385-.43 1.148-2.593 1.198-3.08.164-1.61-.842-5.592-1.53-6.608 3.32.629 1.302.485 3.842 2.281 6.17 4.363 2.631 1.467 9.002 3.625 1.981.671 3.07 1.392 4.543 1.82 4.737 1.38 6.047-1.32 8.07 3.129 3.24 7.126 2.595 3.941 5.12 6.386-.319.091-2.31-.353-1.094 2.877.565 1.501.944 1.916 2.144 3.052 1.876 1.776 4.346 2.906 8.358 2.969-1.245 3.791.416 6.328 6.272 6.674 3.772-1.792 1.438-3.052 6.271-3.337-.97 1.301-1.346 1.448-1.567 3.337 9.71 1.605 4.667-1.898 11.583-4.575l2.56-.964c1.883-.739 3.118-1.305 5.456-1.691-1.248 3.318-1.051.04-4.299 3.068-1.383 1.289-1.91 2.712-1.973 4.718Zm776.153-31.701-1.529.64 1.529-.64c1.173-1.196.115-.732 2.352-1.112-1.204 1.229-.128.691-2.352 1.112Zm-112.111 6.674.902 1.085-.902-1.085-.901-1.084.901 1.084ZM210.11 184.642l-.784-.556h-.784l.653-.649.131.649.784.556h.784l-.654.649-.13-.649Zm433.548-27.808-.784-.556h-.784l.654-.649.13.649.784.556h.784l-.653.649-.131-.649Zm-354.365 27.252h-.784l.654-.649.13.649c1.919.997 1.688.757 2.352 2.78-2.035-.966-2.092-.565-2.352-2.78Zm-80.751-63.957v-.557l.915.464-.915.093c-.283 2.408-.44 3.131-3.92 3.336.262-2.236 1.227-2.826 3.92-3.336Zm71.343 32.256h-.784l.654-.649.13.649c1.916.361 1.06-.247 1.568 1.112l-1.568-1.112Zm348.094-6.674h-.784l.653-.648.131.648c2.71.514 2.412.302 3.135 2.225-2.71-.513-2.412-.302-3.135-2.225Zm-370.045 13.348h.784l-.653.649-.131-.649-3.106-.624c.664-.238-1.171-.78 1.466-.362 1.381.219.854.225 1.64.986Zm1146.196-17.797h.79l-.66.649-.13-.649c-4.03-1.034.63.053-2.25-1.182-1.74-.748-.49-.443-3.24-.487 3.17-3.069 7.92-1.295 10.2 1.113-.36 0-2.17-.045-2.39-.023l-2.32.579ZM316.733 202.438h.784l-.653.649-.131-.649c-1.628-.308-2.793-.813-4.098-1.541-1.775-.99-1.947-.98-2.174-2.908 3.803 1.807 4.018 1.427 6.272 4.449Zm280.67-25.026h.784l-.653.649-.131-.649c-2.237-.38-1.18.084-2.352-1.113 2.292.39 1.129-.071 2.352 1.113Zm239.902-79.53c-1.362-.965.959-.356.216.012-.006.003-.165.025-.216-.012Zm-216.382 78.973c0-1.381 1.253-.142.486 0-.01.002-.486 1.578-.486 0Zm-310.462 19.466c-.311-1.194 1.126-.376 1.056.112l-.28.106c-1.466-.065-.476.931-.776-.218Zm570.747-26.139c.033-.184.865-.125.935-.106.195.052 1.362-1.288.34.149-.022.032-1.462 1.029-1.274-.043h-.001Zm-15.679 2.225c.032-.184.865-.125.934-.107.196.052 1.362-1.287.341.15-.023.031-1.463 1.028-1.275-.043Zm-693.05 22.802c-.403-1.547 1.87.267.776.218-1.467-.065-.477.931-.776-.218Zm25.872-15.573c-.403-1.546 1.869.267.776.219-1.467-.065-.477.931-.776-.219Zm68.991 13.348c-.403-1.546 1.87.267.776.218-1.467-.065-.476.931-.776-.218Zm-47.04 1.112c0-.654 1.688-1.253 1.214 0-.475 1.257 1.995.015-.362.165-.987.063-.852.965-.852-.165ZM455.5 132.364c0-.654 1.687-1.253 1.214 0-.475 1.256 1.995.015-.362.164-.988.063-.852.966-.852-.164Zm-137.983 66.738c0-.654 1.687-1.254 1.214 0-.475 1.256 1.994.015-.362.164-.987.063-.852.966-.852-.164Zm1428.433-85.091c0-.654 1.69-1.254 1.22 0-.48 1.256 1.99.015-.37.165-.98.062-.85.965-.85-.165ZM0 147.437c.212-.375 1.112.222 1.055.611 0 .003-.054.09-.061.091-.72.135-.942.281-.994.319v-.015c.027-.053.08-.203 0-.507v-.499Zm664.826 4.948c-.311-1.194 1.127-.376 1.056.112a.665.665 0 0 1-.062.091c-1.573.295-.773.643-.994-.203Zm-260.285-21.134c.805-.571 2.835.801.909.3-.019-.005-2.225.634-.909-.3Zm-128.575 64.513 1.567 1.669c-2.059-.545-1.163.011-1.567-1.669Zm323.005-2.224c-.311-1.194 1.126-.376 1.055.112-.017.118-.685 1.309-1.055-.112Zm-110.543 4.449c.165-.635 1.723-1.216 1.055-.113-.282.466-1.431 1.557-1.055.113ZM1727.92.556c.06-.211.27-.417.5-.556h.72c.01.099-.04.243-.16.444-.29.466-1.44 1.556-1.06.112ZM380.237 126.802c.165-.635 1.723-1.216 1.055-.112-.282.465-1.431 1.556-1.055.112Zm-216.383 64.513c.166-.634 1.724-1.216 1.056-.112-.283.466-1.432 1.556-1.056.112Zm85.456-5.561c-1.204 1.229-.129.691-2.352 1.112 1.235-1.262.147-.65 2.352-1.112Zm-69.776-15.017c-1.204 1.23-.128.692-2.352 1.113 1.236-1.262.148-.65 2.352-1.113Zm367.693 6.674c-.549 1.626.101.801-1.568 1.669.515-1.525-.318-.866 1.568-1.669Zm-406.893-24.47c-.548 1.626.101.801-1.567 1.668.514-1.524-.319-.866 1.567-1.668Zm136.415 35.037h2.352v.556h-2.352v-.556Zm250.878-20.021h.784v1.668h-.784v-1.668Zm-38.416-7.23h.784v1.668h-.784v-1.668Zm-339.469-28.92h2.352v.556h-2.352v-.556Zm279.886 27.808h.784v1.668h-.784v-1.668Zm70.559.556h.784v1.668h-.784v-1.668Zm-205.406-33.369h2.352v.556h-2.352v-.556Zm88.591-.556h2.352v.556h-2.352v-.556Zm126.223 36.706h.784v1.668h-.784v-1.668Zm-268.91 2.224h.784v1.669h-.784v-1.669Zm-139.551.556h2.353v.557h-2.353v-.557Zm163.071-30.031h2.352v.556h-2.352v-.556Zm-85.455 41.154h.784v1.669h-.784v-1.669Zm925.11 4.45c2.29.389 1.13-.072 2.35 1.112-1.37-.234-2.1-.07-2.35-1.112Zm-480.586-23.358c2.292.389 1.129-.072 2.352 1.112-1.375-.234-2.101-.07-2.352-1.112Zm501.756 32.812c2.29.39 1.13-.071 2.35 1.112-1.37-.233-2.1-.069-2.35-1.112Zm-38.42-32.812c1.74.854.98.091 1.57 1.668-1.29-.639-1.51-.118-1.57-1.668Zm-582.503-1.113c1.732.854.974.091 1.568 1.669-1.297-.639-1.508-.118-1.568-1.669Zm-211.678 30.588c1.732.855.974.092 1.568 1.669-1.297-.639-1.508-.118-1.568-1.669Zm1289.671 3.337c1.73.855.97.092 1.57 1.669-1.3-.639-1.51-.118-1.57-1.669Zm243.82-16.684c1.73.854.97.091 1.57 1.668-1.3-.639-1.51-.117-1.57-1.668ZM314.38 197.989c1.733.855.975.092 1.568 1.669-1.297-.639-1.508-.118-1.568-1.669Zm1069.37-42.823c1.73.854.97.091 1.57 1.669-1.3-.64-1.51-.118-1.57-1.669Zm-689.133-5.561c1.733.854.974.091 1.568 1.668-1.297-.639-1.508-.118-1.568-1.668Zm-161.503 26.138c2.435 1.248 2.435.421 0 1.669v-1.669Zm-29.792-22.802c2.435 1.248 2.435.421 0 1.669v-1.669Zm-240.686 43.38c-.358-.254-1.836.052-.016-.683.784-.316 1.927-.099.979.695-1.227 1.027-.428.367-.963-.012Zm30.576-29.476c2.362.448 1.721-.007 2.352 1.669-3.153-.81-.116.463-2.352-1.669Zm-205.406-2.224v1.112h-2.352c1.235-1.262.148-.65 2.352-1.112Zm503.324 20.021h2.352c-1.204 1.229-.129.691-2.352 1.112v-1.112Zm-307.326-28.364c2.292.39 1.13-.071 2.352 1.113h-2.352v-1.113Zm821.626 4.449c2.29.39 1.13-.071 2.35 1.113h-2.35v-1.113Zm16.46 28.92c2.3.389 1.13-.071 2.36 1.112h-2.36v-1.112Zm-954.117-21.134h1.568c-.548 1.626.101.802-1.568 1.669v-1.669Zm32.144 19.466c.183.293 2.487.344-1.568 1.112.419-1.113-1.004-.225.63-1.141 1.359-.762-.115-.343.938.029Zm-42.335-24.471h2.352v1.112c-1.375-.233-2.101-.07-2.352-1.112Zm337.117 20.577h1.568v1.669c-1.297-.639-1.508-.118-1.568-1.669ZM337.9 177.968h1.568v1.668c-1.297-.639-1.508-.118-1.568-1.668Zm298.702-25.583c.794.15 3.027.077 1.568 1.112-.842.597-1.506.482-1.568-1.112Zm-338.854 5.681 2.521-.119v1.668l-2.521-1.549Zm-85.287 18.789c3.177.526 2.361.149 3.136 1.669-2.559-.961-1.546-.045-3.136-1.669Zm733.034-6.673c3.641.215 1.371-.597 3.136 1.112-1.844-.109-2.854.059-3.136-1.112Zm-136.415-5.006c2.409 1.252 1.265-.358 1.568 2.225-2.006-1.042-1.568.192-1.568-2.225ZM136.414 150.16c2.408 1.252 1.264-.358 1.568 2.225-2.006-1.042-1.568.192-1.568-2.225Zm447.66 32.813 3.106-.624c-.691.832-2.683 2.792-3.106.624Zm366.125-12.791c2.362.447 1.721-.007 2.352 1.668-1.79-.339-2.292-.126-2.352-1.668Zm253.231 7.786c2.85.471 2.51.307 3.92 1.668-2.75-.455-2.59-.306-3.92-1.668Zm-693.835-12.236h1.567v1.669h-1.567v-1.669Zm275.181-1.112c2.826.535 2.097.051 2.352 2.225-2.171-1.129-1.057-.372-2.352-2.225Zm134.063 2.225c.505.412.587.127 1.056.919.768 1.297.328.293.512 1.861-2.16-1.122-1.568.04-1.568-2.78Zm214.811 9.454c-1.76 1.709.51.898-3.13 1.113 1.49-1.579 1.1-1.71 3.13-1.113ZM496.267 186.31v2.781c-.064-.052-1.114-.304-1.308-1.313-.273-1.423.034-.806 1.308-1.468Zm-340.254-26.139v2.781c-.964-.501-1.266-.181-1.346-1.118-.119-1.4 1.337-1.655 1.346-1.663Zm504.892-10.567 3.113 1.143c-.571.719-.405.584-.761 1.638l-2.352-2.781Zm-464.908 39.487v1.112h-3.136c1.771-1.715-.509-.892 3.136-1.112Zm301.837-26.139h1.568c-.303 2.583.841.972-1.568 2.224v-2.224Zm-8.624-5.006h1.568v2.225c-2.006-1.042-1.568.192-1.568-2.225Zm-25.088 28.92c2.74.519 1.761.212 3.137 1.669-2.263-.134-3.071.012-3.137-1.669Zm-152.094-37.262c2.031 1.056 1.665 1.246 2.352 3.337-2.031-1.056-1.665-1.246-2.352-3.337Zm259.502 27.251c2.362.448 1.721-.007 2.352 1.669h-2.352v-1.669Zm-176.399-3.893c0-1.566.339-1.029 1.568-1.668v2.781c-.698-.278-1.568-.362-1.568-1.113Zm211.678 14.46h3.136v1.669c-2.559-.961-1.546-.046-3.136-1.669Zm-126.223-7.786h.784c0 2.956 2.398 1.684-.784 3.337v-3.337ZM275.18 169.07l2.52 1.549c-3.421 1.186-3.228.548-2.52-1.549Zm402.189-3.893c1.998.949 2.448.952 3.136 2.78-2.61-.979-2.356-.404-3.136-2.78Zm-311.245-44.492c-1.383 1.338-1.569 1.483-4.704 1.668 1.382-1.338 1.568-1.483 4.704-1.668Zm-203.055 4.449h3.92v1.112c-2.09-.033-3.609.18-3.92-1.112Zm773.018 44.492h3.92v1.112c-2.09-.033-3.609.179-3.92-1.112Zm-846.713-2.781c3.082.51 3.181.612 4.704 2.225-3.083-.51-3.182-.612-4.704-2.225Zm206.19 24.47c.097.156 1.786-.181-.176 1.038-.908.564-.635.84-1.615.145-2.077-1.473.18-1.146.193-1.154 1.493-.98 1.159-.175 1.598-.028v-.001Zm314.381 1.669h1.568v2.781h-1.568v-2.781Zm-427.276-7.23c3.707.059 3.079-.566 3.92 1.669-2.833-.168-2.83-.241-3.92-1.669Zm384.157-7.23c2.773.525 2.417.593 3.136 2.781-3.652-.692-1.525-.398-3.136-2.781Zm36.064 5.006c3.273 1.555 1.548.989 3.135 3.337-.006-.002-1.008.225-2.288-1.157-.937-1.011-.667-.639-.847-2.18Zm-333.982 10.567c-.409 2.653 1.076.938-2.352 2.224-.572-1.916-1.22-2.014 2.352-2.224Zm362.205-45.049c2.537.481 4.205 1.422 5.489 2.781-3.265-.539-3.87-1.066-5.489-2.781Zm-28.223 32.813c3.646.058 3.892.068 4.704 2.225-2.414-.457-1.587-.304-4.282-1.968-.085-.052-.283-.171-.422-.257Zm50.175-35.037c2.392.395 1.895.664 3.92 0 .619 1.645.319.901 1.568 2.224-2.628-.434-4.118-.898-5.488-2.224Zm-284.589-24.471c.392-.495.51-1.112 1.568-1.112 2.168 0 1.885.429 2.352 1.668-1.657-.026-3.101.099-3.92-.556Zm730.684 46.717c2.08-.709.84-.508 3.92-.556-.28.834-.17 1.668-1.57 1.668-1.42 0-2.15-.278-2.35-1.112Zm-384.159-17.241c1.77 1.445 2.276 2.03 2.352 4.449-2.598-2.12-2.352-1.755-2.352-4.449Zm-137.983 18.909c-1.382 1.338-1.568 1.484-4.704 1.669 1.646-1.744 1.98-2.562 4.704-1.669Zm-159.935-9.454c2.054.975 1.621.281 2.352 2.224-.015.01-1.462.557-1.567.557-4.09 0-1.17-.281-.785-2.781Zm386.509 4.449h1.568l1.678 3.867c-2.544-1.13-3.159-1.083-3.246-3.867Zm-566.043 8.898c.358.171 1.341.485 1.91.87 1.238.837.599.127 1.225 1.355-.941.558-4.515 1.976-3.136-2.225h.001Zm389.644-25.583c3.265.54 3.87 1.067 5.488 2.781-2.256-.133-1.937-.058-3.538-.826-2.148-1.03-1.385-.454-1.95-1.955Zm-253.229 12.236c4.566-.776 3.691-1.184 5.488.556-2.307.381-2.393.556-5.488.556v-1.112Zm-145.823 23.914c2.803.463 5.574 1.347 7.056 2.781-4.067-.24-5.285-.905-7.056-2.781Zm379.453-23.914c2.688 2.603 2.228-.592 2.352 3.337-.124-.059-2.362-1.03-2.421-1.064-2.313-1.329-1.205.239-1.499-2.273h1.568l-1.841-1.63c-.922-1.692 1.098-2.369 2.171-7.034 1.165-5.06 1.764-7.005 9.078-5.796v1.112c-3.469.055-4.168.58-6.392 4.921-1.662 3.245-1.448 3.961-1.448 8.427h-1.568Zm209.326 3.337c4.066 0 3.043-.497 4.704 1.112-.392.495-.51 1.112-1.568 1.112-2.314 0-2.703-.941-3.136-2.225v.001Zm-565.259-32.257v-.556c4.881 0 7.618 1.222 8.624 3.893-2.329-1.107-5.043-3.337-8.624-3.337Zm460.988 3.893c2.118 0 2.162.265 3.92.556-.562.277-.337.329-1.443.645-1.317.376-.594.233-1.811.384-1.369.17-3.161.084-4.586.084.905-.877 1.818-1.669 3.92-1.669Zm-41.552 21.134c2.798 1.329 3.053 2.362 3.92 5.005-2.258-.427-1.958-.383-2.947-1.802-.821-1.178-.921-1.563-.973-3.203Zm-179.534 36.706c3.371-.199 1.413.078 3.92-1.113.053 1.695.354 2.028.784 3.337-3.545-.056-3.978-.073-4.704-2.224ZM91.726 152.942c.732-1.944.299-1.249 2.352-2.225 2.975 1.413 3.558 3.039 1.074 3.016-.01 0-1.3-.663-3.426-.791Zm546.444-40.043c3.942.062 3.835.628 3.92 3.337-3.353-.554-3.829-.449-3.92-3.337ZM20.383 141.263c-.216 1.837-1.02 3.336-1.568 5.005h-1.568c0-3.025-.308-4.353 3.136-5.005Zm171.694 42.823c1.748.331 2.353.13 2.353 1.668v2.781c-4.927-.291-2.353-.799-2.353-4.449Zm888.263-36.15c1.5-2.93 2.12-.894 7.84-.556v1.112c-.6-.035-2.6-.304-2.61-.305-.94-.038-4.1.728-5.23-.251Zm-929.814 18.909c1.797-1.904 1.891-1.724 4.704-2.78v4.449c-1.864-.7-2.673-1.284-4.704-1.669Zm466.476 37.819v1.668h3.92l-3.121-1.123c-.115-.057-.331-.209-.421-.258-.089-.049-.251-.192-.378-.287Zm-268.91-18.354 6.272 2.781-10.532-1.983c-3.364-.864-.854.526-2.796-1.354l7.056.556Zm129.359-1.112c3.609.684 3.136 1.156 3.136 4.449 0 1.566-.339 1.03-1.568 1.669-.886-2.699-1.568-2.513-1.568-6.118Zm-384.94-14.46c-2.957.97-1.491 1.037-3.137-.556 2.46-1.458 5.475.361 7.056 1.112-1.046 1.547-.784 1.077-.784 3.337h-1.568c-.371-3.171-1.196-.722-1.568-3.893Zm1074.069-13.347c0-2.994 4.38-2.781 8.63-2.781l-2.46 1.037c-.99.153-2.74.075-3.82.075-.92 3.089.6 2.605 1.57 5.562-1.59-.758-3.92-2.051-3.92-3.893Zm-915.703-18.909c.685-1.819 1.968-2.41 3.92-3.337 3.358 1.143 2.945-.367 3.92 2.224-3.608.597-5.11 1.809-7.84 1.113Zm160.719 31.144c.998-1.476.715-.595.783-2.781 1.183.562 2.258 1.13 3.629 1.875 1.962 1.067 2.055 1.337 2.643 3.131-4.318-.069-4.546-1.033-7.056-2.225h.001Zm-167.775-38.93 6.272.556c-2.764 1.244-7.904.645-7.84 2.224.065 1.603-6.459 1.861-3.243-1.125 1.196-1.111 2.183-1.655 4.811-1.655ZM587.21 186.31c2.748.521 1.688.221 3.176 1.641.918.875 1.535 1.523 2.643 2.573 1.881 1.782 3.618 2.943 4.373 5.241-3.188-.188-1.868.343-3.447-1.448l-4.612-5.071c-1.486-1.398-1.462-.892-2.133-2.936Zm518.22-3.337c5.29.875 7.88 2.226 12.11 4.204 2.34 1.099 2.05.529 2.79 2.47-3.03-.5-12.69-4.329-14.9-6.674Zm-907.081-11.679c1.808 0 4.175.77 5.976 1.323 2.575.789 2.87 1.145 4.216 2.57-1.7-.322-7.686-4.25-12.791-.141-2.965 2.386 2.101 1.501-2.889 1.81.431-3.669 5.415-5.562 5.488-5.562Zm980.771-2.224c5.74.338 16.05 5.123 18.04 7.23-3.53-.584-16.28-5.375-18.04-7.23Zm-809.076-10.567c2.034-1.969 3.637-1.06 4.704-3.893h2.352l.784 4.449c-4.827 1.812-3.079 1.231-7.84-.556Zm19.6 1.112c0 1.996-2.941 2.96-3.921 5.562-4.085-.774-3.713-3.842-3.148-4.448.847-.907 7.069-3.184 7.069-1.114Zm-58.8-10.567c1.375-1.456 1.952-2.305 3.136-3.893l4.678.641c.037 4.609-.385 3.21.81 4.921-4.235 0-2.237-.018-5.698-.963l-2.926-.706Zm555.851-1.668c2.337.037 2.749-.108 5.642 1.559 1.593.918 2.693 1.753 3.766 2.89-8.071-1.334-5.902-.671-13.328.556 1.056-2.802 2.754-1.454 3.92-5.005Zm-741.657 24.47h-4.704c1.365-1.322 1.64-1.668 8.624-1.668 4.635 0-2.804 1.157 3.96.527.051-.004 2.311-1.127 2.311 1.698 0 1.938-3.667.556-5.487.556-2.953 0-1.483.366-4.704.556v-1.669Zm396.7-.556c0-2.06.765-2.512 2.352-3.336.177 1.501.368 1.512.784 2.78 2.32-.439 1.271-.226 3.136-1.112 0 6.322 2.353.84 3.92 5.006-.691.27-.137.21-.96.269-7.349.528-6.538-.513-8.003-2.252-1.059-1.256-1.229-.392-1.229-1.354v-.001Zm554.282 3.893c4.44.071 7.23 1.825 10.45 3.156 2.46 1.017 7.81 3.331 9.15 4.63-3.26-.192-12.84-3.572-15.85-4.881-2.23-.964-3.02-.974-3.75-2.905Zm-27.44-5.005c2.72-.924 5.87.309 8.74 1.035 6.99 1.77 6.96 1.392 7.73 3.414-3.41-.054-6.96-1.134-10.2-1.668.9 2.667.54.864 0 1.668-7.16-1.348.36.34-4.58-2.829l-1.69-1.62ZM302.62 140.15c8.251-1.24 2.661 3.579 10.192 5.005-1.046 1.547-.784 1.077-.784 3.337-4.213-.248-4.136-.891-5.766-3.139-1.466-2.023-3.371-2.89-3.642-5.203Zm-8.624 42.267c-2.991 0-.596.809-5.488 0 1.07-3.258.94-1.21 3.136-3.337 6.263 2.351 9.93 1.131 14.112 5.562-5.907-.093-9.344-2.225-11.76-2.225Zm52.528-30.032c-3.674-1.25-3.256.493-5.488-1.668 3.057 0 6.239-.148 9.228.158 4.975.51 3.789-.158 8.804-.158 0 6.556-4.482 2.781-6.272 2.781-5.453 0-3.54-.186-6.272 1.112v-2.225Zm-62.72-17.797c2.663-.157 2.87-.423 4.704-1.112.521 3.376-.642.47 3.817 2.856 1.922 1.028 2.409 2.708 2.138 4.258-.373 2.126-.569 1.915-2.819 2.341-1.233-3.756-6.632-5.133-7.84-8.343Zm214.031 51.722 2.632.357c.142.049.359.162.483.215l2.396-12.234c.01-2.527.574-11.373 1.545-12.808 1.879.538.749-.226 1.725 1.043 1.253 1.629-1.462 10.206-1.736 14.521-.39 6.134-.639 12.066-2.341 17.249-3.213-1.647.672-.549-1.153-4.146-.637-1.256-2.716-1.977-3.551-4.197Z" fill="#FAFAFA"/></svg>