<svg width="21" height="21" viewBox="0 0 21 21" fill="none" xmlns="http://www.w3.org/2000/svg">
<path d="M3.768 9.26174C4.06726 9.05885 4.47589 9.13231 4.68065 9.43053C6.95133 12.7267 11.0989 16.4374 13.738 17.5341C14.8055 18.03 15.6001 18.0606 16.1916 17.6365C16.6527 17.3575 17.9626 16.0561 17.939 15.3792C17.9311 15.2996 17.8401 15.1501 17.6852 14.9918C17.1812 14.4758 15.4898 13.1964 15.1363 13.0634C14.8572 13.004 14.5667 13.1736 14.1239 13.4526L13.8999 13.5917C13.5893 13.7779 13.1859 13.6791 12.9986 13.3678C12.8122 13.0582 12.912 12.655 13.2226 12.4679L13.4247 12.3428C13.9148 12.0341 14.5912 11.6125 15.4417 11.7892C16.1119 11.9283 18.2199 13.6616 18.6233 14.0735C19.003 14.4618 19.213 14.8755 19.2489 15.3014C19.3058 16.9132 17.1471 18.5976 16.8995 18.7393C16.4287 19.0786 15.8766 19.25 15.2553 19.25C14.6375 19.25 13.9515 19.0803 13.2086 18.734C10.3517 17.5481 6.03081 13.7027 3.6 10.1739C3.39437 9.87568 3.46962 9.46726 3.768 9.26174ZM5.51484 1.75086L5.66951 1.75328C6.12102 1.79089 6.53403 2.00078 6.92167 2.37859C7.33468 2.78175 9.06897 4.89117 9.2081 5.55846C9.35773 6.27646 9.03485 6.83705 8.79947 7.24634C8.56759 7.64951 8.48708 7.8218 8.56671 8.03956C9.1521 9.4712 10.0569 10.6414 11.2478 11.4914C11.5427 11.7031 11.61 12.1123 11.3992 12.4071C11.2714 12.5855 11.0702 12.6817 10.8654 12.6817C10.7324 12.6817 10.5994 12.6414 10.4839 12.5592C9.0891 11.5614 8.03207 10.1997 7.34168 8.51094C7.03805 7.67575 7.39856 7.04957 7.66194 6.59218C7.85969 6.24935 7.96907 6.04471 7.92269 5.82607C7.80019 5.51036 6.52091 3.8216 6.00465 3.31873C5.84539 3.16218 5.69576 3.07036 5.58464 3.06161C4.95812 3.04674 3.67709 4.28511 3.38658 4.76699C2.93594 5.38617 2.96744 6.17939 3.45133 7.24197C3.60096 7.57167 3.45571 7.95997 3.12582 8.1104C2.79506 8.25995 2.40743 8.11564 2.25693 7.78506C1.56828 6.27471 1.58141 5.01361 2.29543 4.04023C2.56143 3.59509 4.2336 1.6597 5.66951 1.75328L5.51484 1.75086Z" fill="white"/>
</svg>
