<svg width="108" height="108" viewBox="0 0 108 108" fill="none" xmlns="http://www.w3.org/2000/svg">
<path d="M1.0825 43.1778L1.10108 43.1592L29.2618 14.954L43.0907 1.10334C41.9186 1.3439 40.7618 1.62548 39.619 1.94117L1.93725 39.6821L1.93691 39.6831L1.90112 39.7189C1.59246 40.8576 1.31752 42.0105 1.0825 43.1778ZM100.901 80.8694L88.7436 93.0461H88.7443L81.0897 100.713C84.7864 98.5615 88.2047 95.9832 91.2776 93.0461H91.3787L93.6281 90.7932C96.4099 87.782 98.8551 84.4551 100.901 80.8691L100.901 80.8694ZM106.917 64.8223L106.898 64.8409L78.7377 93.0461L64.9089 106.897C66.0809 106.656 67.2378 106.374 68.3806 106.059L106.062 68.3181L106.063 68.317L106.098 68.2812C106.407 67.1425 106.682 65.9896 106.917 64.8223ZM107.98 53.7361V53.7354L68.7315 93.0461L53.804 107.998C53.8721 107.998 53.9396 108 54.0077 108C54.8418 108 55.6707 107.978 56.4959 107.941L107.941 56.415C107.978 55.5885 108 54.7579 108 53.9225C108 53.8546 107.998 53.7871 107.998 53.7188L107.98 53.7361H107.98ZM107.148 44.5471L58.725 93.0461H58.7254L44.6113 107.182C45.3679 107.315 46.1294 107.432 46.8964 107.533L61.3605 93.0461L70.2432 84.1494L107.533 46.8004C107.432 46.0322 107.316 45.2695 107.183 44.5116L107.148 44.5471V44.5467V44.5471ZM105.094 36.5816L48.7192 93.0461H48.7195L36.6428 105.142C37.3042 105.367 37.9728 105.576 38.6452 105.775L105.779 38.5361C105.579 37.862 105.37 37.1927 105.146 36.5299L105.094 36.582V36.5816ZM102.118 29.5408L38.7126 93.0461H38.7133L29.6025 102.171C30.1882 102.469 30.7807 102.755 31.3784 103.032L103.039 31.2579C102.763 30.6592 102.477 30.0657 102.18 29.4791L102.118 29.5412V29.5408H102.118ZM98.3695 23.2731L28.7064 93.0461H28.7075L23.3346 98.4274C23.8553 98.7879 24.38 99.1426 24.9137 99.4852L99.4985 24.7823C99.1565 24.2477 98.8024 23.7222 98.4425 23.2007L98.3699 23.2734V23.2731H98.3695ZM93.9351 17.6922L18.7006 93.0461H18.7009L17.7536 93.9953C18.2147 94.414 18.6851 94.8224 19.1603 95.2253L95.2451 19.0201C94.8431 18.5442 94.435 18.0727 94.0166 17.6109L93.9347 17.6926V17.6922H93.9351ZM88.8389 12.7745L12.7541 88.9796C13.1561 89.4556 13.5642 89.9271 13.9826 90.3889L14.0645 90.3069V90.3072L89.299 14.9533H89.2986L90.2459 14.0045C89.7848 13.5854 89.3144 13.1773 88.8392 12.7741L88.8389 12.7745ZM83.0858 8.51462L8.50103 83.2178C8.84307 83.752 9.19715 84.278 9.55708 84.7994L9.62969 84.7267V84.727L79.2928 14.954H79.2917L84.6646 9.57269C84.1439 9.21218 83.6192 8.85754 83.0855 8.51496L83.0858 8.51462ZM76.6205 4.9682L4.95986 76.7423C5.23617 77.3413 5.52178 77.9347 5.81874 78.5213L5.88102 78.4589V78.4593L69.2866 14.9537H69.2859L78.3967 5.82844C77.8111 5.53101 77.2185 5.24496 76.6208 4.9682H76.6205ZM69.354 2.22447L2.22045 69.4637C2.42003 70.1378 2.6289 70.8071 2.85325 71.4699L2.90487 71.4178V71.4182L59.28 14.9537H59.2797L71.3564 2.85793C70.695 2.63288 70.0264 2.42368 69.354 2.22413V2.22447ZM61.1024 0.467118L46.6384 14.9537L37.7557 23.8504L0.465864 61.1994C0.566686 61.9676 0.682993 62.7303 0.815473 63.4882L0.850915 63.4527V63.453L49.2739 14.9537H49.2735L63.3876 0.817279C62.6309 0.68459 61.8694 0.5681 61.1024 0.466774V0.467118ZM53.9919 0.00012207C53.1578 0.00012207 52.3288 0.0218348 51.5037 0.0594013L0.0587891 51.5855C0.0216259 52.4119 -0.000396729 53.2422 -0.000396729 54.0776C-0.000396729 54.1458 0.002012 54.2131 0.002012 54.2813L0.0192172 54.2641V54.2647L39.2677 14.954L54.1952 0.00287924C54.1271 0.0025346 54.0597 0.000466717 53.9915 0.000466717L53.9919 0.00012207ZM7.09812 27.1307L19.2556 14.954H19.255L26.9095 7.28733C23.2128 9.43862 19.7945 12.0166 16.7217 14.954H16.6205L14.3711 17.207C11.5894 20.2185 9.14416 23.545 7.09777 27.1311L7.09812 27.1307Z" fill="#E4E4E4"/>
</svg>
