<svg width="21" height="21" viewBox="0 0 21 21" fill="none" xmlns="http://www.w3.org/2000/svg">
<path d="M10.5291 1.75C14.6297 1.76611 17.9535 5.11172 17.9374 9.20703V9.28837C17.8821 12.215 16.1226 14.6436 14.6566 16.1653C14.2394 16.6004 13.7953 17.0178 13.3374 17.4076C13.0631 17.6417 12.6513 17.6094 12.4169 17.3355C12.1826 17.0608 12.2156 16.6495 12.4899 16.4154C12.914 16.054 13.3266 15.6657 13.7146 15.2614C15.0193 13.9078 16.5836 11.7676 16.6312 9.26458C16.6443 5.82612 13.9052 3.06753 10.5238 3.05371H10.4999C7.13004 3.05371 4.38172 5.78545 4.36866 9.15332C4.42629 10.8169 4.98871 12.3984 5.99599 13.7251C7.17153 15.2905 8.95483 16.948 10.6498 18.0514C10.9525 18.2479 11.0378 18.6515 10.8403 18.9538C10.7158 19.1456 10.5061 19.25 10.2925 19.25C10.1703 19.25 10.0474 19.2162 9.93676 19.1441C8.12196 17.9632 6.21189 16.1875 4.95259 14.5109C3.78396 12.9708 3.13011 11.1331 3.0625 9.19859C3.07863 5.06262 6.41242 1.75 10.4999 1.75H10.5291ZM10.4976 6.46048C12.0581 6.46048 13.3282 7.72813 13.3282 9.28737C13.3282 10.8458 12.0581 12.1135 10.4976 12.1135C8.93716 12.1135 7.66711 10.8458 7.66711 9.28737C7.66711 8.92672 7.95984 8.63513 8.32019 8.63513C8.68053 8.63513 8.97327 8.92672 8.97327 9.28737C8.97327 10.1261 9.65708 10.8098 10.4976 10.8098C11.3382 10.8098 12.022 10.1261 12.022 9.28737C12.022 8.4479 11.3382 7.7642 10.4976 7.7642C10.1373 7.7642 9.84456 7.47261 9.84456 7.11272C9.84456 6.75207 10.1373 6.46048 10.4976 6.46048Z" fill="white"/>
</svg>
