<svg width="73" height="71" viewBox="0 0 73 71" fill="none" xmlns="http://www.w3.org/2000/svg">
<path d="M44.738 65.4676H44.7495H44.738ZM8.13052 25.0971C7.7047 25.0971 7.30363 25.2869 6.87286 25.6632C6.80354 25.7276 6.00801 26.4818 5.58549 26.8845L5.31811 27.1371C3.09823 29.2067 2.09474 32.9385 2.75823 36.6454C2.97445 37.8519 3.32104 39.1013 3.79143 40.359C6.16646 46.7282 10.6821 52.2721 14.0524 55.8008C17.4062 59.3526 22.7108 64.1505 28.9562 66.8606C30.1891 67.3954 31.4203 67.808 32.6169 68.0869C36.2892 68.9468 40.0754 68.148 42.2623 66.0502L42.5561 65.7713C42.9753 65.3752 43.7229 64.6704 43.8335 64.5632C45.1143 63.2444 44.4326 62.1089 41.744 59.379L41.0475 58.6644C39.3063 56.8621 36.3948 53.8318 33.9736 54.1305C33.3382 54.2064 32.645 54.6884 31.9122 55.1984C31.1926 55.7018 30.3756 56.2712 29.4249 56.5716C26.8865 57.3704 24.3101 56.8455 22.1744 55.0894C20.92 54.0563 19.6426 52.8481 18.4806 51.5954C17.3104 50.3922 16.17 49.0553 15.2044 47.7498C13.5606 45.525 13.1711 42.9288 14.1102 40.4415C14.4617 39.5106 15.0741 38.7267 15.6154 38.0351C16.165 37.332 16.6833 36.6685 16.7938 36.0397C17.2081 33.6416 14.3462 30.575 12.6347 28.743L11.9596 28.0135C10.1656 26.0543 9.08614 25.0971 8.13052 25.0971ZM35.5861 70.9818C34.3252 70.9818 33.1121 70.83 32.031 70.5775C30.6875 70.2622 29.3077 69.8001 27.9345 69.2043C21.2914 66.3226 15.7078 61.282 12.194 57.5602C8.66362 53.8631 3.91851 48.0271 1.39164 41.2519C0.870094 39.849 0.480582 38.451 0.237963 37.0944C-0.409022 33.4831 0.12573 28.4805 3.56696 25.2737L3.82114 25.0311C4.27997 24.597 5.15472 23.7668 5.18938 23.7371C8.69663 20.6623 11.7979 24.0474 13.8511 26.2887L14.5096 27.0001C16.543 29.1803 19.9495 32.8262 19.3174 36.4754C19.0979 37.738 18.3189 38.7316 17.6339 39.6097C17.1635 40.2104 16.7196 40.7766 16.5067 41.3443C15.8745 43.0146 16.1386 44.7063 17.2642 46.2297C18.1637 47.4461 19.2266 48.6939 20.3391 49.8376C21.4449 51.0293 22.6365 52.1549 23.8034 53.1155C25.269 54.3203 26.9475 54.6719 28.6525 54.1338C29.2302 53.9506 29.821 53.5397 30.4465 53.1023C31.3626 52.4652 32.3974 51.7439 33.6716 51.5921C37.3571 51.158 40.8198 54.7461 42.8911 56.8901L43.5711 57.5866C45.7019 59.752 48.9236 63.0216 45.654 66.3605C45.6523 66.3622 45.6523 66.3638 45.6507 66.3655C45.621 66.3952 44.7776 67.194 44.3155 67.6281L44.0332 67.8955C41.6665 70.1665 38.4992 70.9818 35.5861 70.9818Z" fill="#012E89"/>
<path d="M37.5072 8.5742C36.8008 8.5742 36.2281 8.00149 36.2281 7.29508V1.27747C36.2281 0.572714 36.8008 0 37.5072 0C38.2153 0 38.788 0.572714 38.788 1.27747V7.29508C38.788 8.00149 38.2153 8.5742 37.5072 8.5742Z" fill="#012E89"/>
<path d="M32.1778 9.5942C31.5853 9.5942 31.0539 9.18323 30.9268 8.58246L29.6724 2.69688C29.5255 2.00698 29.9662 1.32699 30.6578 1.18175C31.3493 1.03155 32.031 1.47553 32.1778 2.16543L33.4322 8.05101C33.5791 8.74091 33.1368 9.4209 32.4452 9.56614C32.3561 9.58595 32.2653 9.5942 32.1778 9.5942Z" fill="#012E89"/>
<path d="M27.1803 11.7002C26.6901 11.7002 26.2213 11.4163 26.0101 10.941L23.5558 5.44492C23.2703 4.79959 23.5591 4.04367 24.2061 3.75814C24.8548 3.47096 25.609 3.76144 25.8962 4.40513L28.3488 9.9012C28.6376 10.5465 28.3455 11.3024 27.6985 11.5896C27.5302 11.6639 27.3536 11.7002 27.1803 11.7002Z" fill="#012E89"/>
<path d="M22.7289 14.7965C22.3312 14.7965 21.9417 14.6133 21.6908 14.27L18.1472 9.40111C17.7313 8.83004 17.8584 8.03122 18.4311 7.6153C19.0038 7.20103 19.8027 7.32811 20.2186 7.89753L23.7621 12.7664C24.1781 13.3375 24.0526 14.138 23.4799 14.5522C23.2521 14.7173 22.9881 14.7965 22.7289 14.7965Z" fill="#012E89"/>
<path d="M19.017 18.7494C18.7117 18.7494 18.4047 18.6404 18.1604 18.4209L13.6794 14.3938C13.1545 13.9217 13.1133 13.1147 13.5853 12.5898C14.059 12.065 14.8677 12.0237 15.3942 12.4941L19.8736 16.5212C20.4001 16.9933 20.4414 17.8003 19.9693 18.3252C19.7152 18.6058 19.3669 18.7494 19.017 18.7494Z" fill="#012E89"/>
<path d="M54.6953 62.576C54.2051 62.576 53.738 62.2938 53.5251 61.8168L51.0725 56.3191C50.7853 55.6754 51.0758 54.9195 51.7211 54.6323C52.3698 54.3468 53.124 54.6356 53.4112 55.2809L55.8638 60.777C56.151 61.4223 55.8605 62.1782 55.2152 62.4654C55.0452 62.5397 54.8686 62.576 54.6953 62.576Z" fill="#012E89"/>
<path d="M60.2392 58.8509C59.843 58.8509 59.4519 58.6677 59.201 58.3227L55.6574 53.4555C55.2415 52.8844 55.3703 52.084 55.9413 51.6697C56.5157 51.2538 57.3145 51.3825 57.7304 51.9519L61.274 56.8208C61.6899 57.3919 61.5612 58.1907 60.9901 58.605C60.7624 58.7717 60.4983 58.8509 60.2392 58.8509Z" fill="#012E89"/>
<path d="M64.8836 54.0546C64.5782 54.0546 64.2712 53.9474 64.027 53.7262L59.5476 49.7007C59.0227 49.2287 58.9782 48.4199 59.4535 47.8951C59.9256 47.3735 60.7359 47.329 61.2608 47.801L65.7402 51.8282C66.2667 52.3002 66.3079 53.1089 65.8359 53.6321C65.5834 53.9127 65.2335 54.0546 64.8836 54.0546Z" fill="#012E89"/>
<path d="M68.4288 48.4017C68.2109 48.4017 67.9931 48.3472 67.7901 48.2301L62.568 45.2213C61.9573 44.8681 61.7477 44.0874 62.1009 43.4751C62.4541 42.8627 63.2348 42.6548 63.8504 43.008L69.0692 46.0151C69.6832 46.3683 69.8928 47.1507 69.5379 47.763C69.3019 48.1723 68.8711 48.4017 68.4288 48.4017Z" fill="#012E89"/>
<path d="M70.7213 42.1349C70.5909 42.1349 70.4573 42.1151 70.3252 42.0722L64.5931 40.2121C63.9197 39.9943 63.5517 39.273 63.7695 38.6029C63.9874 37.9328 64.712 37.5648 65.3837 37.781L71.1174 39.6411C71.7908 39.8589 72.1572 40.5802 71.9394 41.2519C71.7644 41.7916 71.261 42.1349 70.7213 42.1349Z" fill="#012E89"/>
<path d="M71.6588 35.5297C71.6143 35.5297 71.5681 35.5264 71.5235 35.5215L65.5273 34.8943C64.8242 34.82 64.3142 34.1912 64.3885 33.4881C64.4611 32.7866 65.0916 32.2832 65.7947 32.3526L71.7909 32.9814C72.494 33.054 73.004 33.6828 72.9313 34.386C72.862 35.0428 72.3058 35.5297 71.6588 35.5297Z" fill="#012E89"/>
<path d="M65.2005 29.5038C64.5536 29.5038 63.9973 29.017 63.928 28.3601C63.8538 27.657 64.3637 27.0281 65.0685 26.9555L71.063 26.325C71.7711 26.2557 72.3966 26.7624 72.4709 27.4622C72.5435 28.1653 72.0335 28.7941 71.3304 28.8684L65.3359 29.4972C65.2897 29.5005 65.2451 29.5038 65.2005 29.5038Z" fill="#012E89"/>
<path d="M63.6277 24.3214C63.0863 24.3214 62.5862 23.9781 62.4096 23.4384C62.1901 22.7666 62.5582 22.0454 63.2315 21.8275L68.9636 19.9674C69.6387 19.7512 70.3583 20.1176 70.5778 20.7877C70.7957 21.4595 70.4276 22.1807 69.7559 22.3986L64.0221 24.2587C63.8917 24.3016 63.7564 24.3214 63.6277 24.3214Z" fill="#012E89"/>
<path d="M61.0083 19.5762C60.5643 19.5762 60.1352 19.3485 59.8975 18.9375C59.5443 18.3252 59.7539 17.5462 60.3663 17.1913L65.5867 14.1842C66.199 13.8293 66.983 14.0406 67.3362 14.6512C67.6894 15.2636 67.4798 16.0442 66.8675 16.3974L61.647 19.4062C61.4457 19.5218 61.2245 19.5762 61.0083 19.5762Z" fill="#012E89"/>
<path d="M57.4565 15.4814C57.1066 15.4814 56.7567 15.3395 56.5058 15.0589C56.0322 14.5341 56.0751 13.727 56.5999 13.2533L61.0793 9.22779C61.6058 8.7541 62.4145 8.79536 62.8882 9.32186C63.3602 9.84506 63.319 10.6538 62.7925 11.1258L58.3131 15.153C58.0672 15.3725 57.7618 15.4814 57.4565 15.4814Z" fill="#012E89"/>
<path d="M53.129 12.2102C52.8682 12.2102 52.6058 12.131 52.378 11.9676C51.8053 11.5517 51.6782 10.7528 52.0941 10.1818L55.6377 5.31453C56.0536 4.74512 56.8524 4.61638 57.4252 5.0323C57.9979 5.44657 58.125 6.2454 57.7107 6.81646L54.1655 11.6854C53.9146 12.0287 53.5251 12.2102 53.129 12.2102Z" fill="#012E89"/>
<path d="M48.2172 9.91109C48.0422 9.91109 47.8656 9.87643 47.6973 9.80051C47.0519 9.51333 46.7598 8.75741 47.0486 8.11373L49.4996 2.61601C49.7884 1.97068 50.5443 1.68184 51.1913 1.96902C51.8367 2.25621 52.1271 3.01212 51.8383 3.65581L49.3874 9.15188C49.1745 9.62886 48.7074 9.91109 48.2172 9.91109Z" fill="#012E89"/>
<path d="M42.934 8.68148C42.8465 8.68148 42.7574 8.67158 42.6666 8.65177C41.9751 8.50488 41.5344 7.82819 41.6813 7.13664L42.934 1.25106C43.0809 0.559509 43.7609 0.117183 44.4525 0.265725C45.144 0.414268 45.5847 1.09261 45.4378 1.78251L44.1851 7.66809C44.058 8.26886 43.5249 8.68148 42.934 8.68148Z" fill="#012E89"/>
<path d="M24.216 39.5354C24.211 39.1641 24.2044 38.8505 24.1995 38.5963C24.1929 38.3421 24.1896 38.0698 24.1896 37.7843C24.1896 37.4954 24.1929 37.1125 24.1995 36.6339C24.2292 35.6436 24.4702 34.8085 24.9191 34.1268C25.3697 33.4435 26.0331 32.8659 26.9079 32.3922L28.1061 31.7452C28.5254 31.5174 28.7944 31.2434 28.9116 30.9233C29.0288 30.6014 29.0948 30.301 29.1146 30.0204C29.1377 29.697 29.1509 29.3454 29.1542 28.9674C29.1575 28.5911 29.1509 28.2379 29.1311 27.9078C29.0898 27.2609 28.6541 26.9374 27.8272 26.9374C27.408 26.9374 27.1027 27.0215 26.9178 27.1899C26.7313 27.3582 26.6339 27.5761 26.6207 27.8468C26.6092 28.3122 26.5993 28.7479 26.5943 29.1473C26.5877 29.5501 26.5993 29.9874 26.629 30.4595H24.2341C24.216 30.0584 24.2028 29.6804 24.1945 29.3239C24.1846 28.9674 24.1879 28.6341 24.1995 28.3221C24.2473 27.1288 24.5543 26.2755 25.1221 25.7606C25.6882 25.2456 26.591 24.9882 27.8272 24.9882C29.136 24.9882 30.0702 25.2456 30.6314 25.7606C31.1925 26.2755 31.4962 27.1288 31.5441 28.3221C31.5672 28.9196 31.5672 29.4857 31.5441 30.0204C31.5094 30.9777 31.2618 31.7501 30.808 32.3328C30.3491 32.9187 29.7566 33.4105 29.0238 33.8116L27.6638 34.5477C27.2809 34.759 27.0152 35.0709 26.8683 35.4868C26.7197 35.9044 26.6471 36.2856 26.6471 36.6339V37.4426H31.3741V39.5354H24.216Z" fill="#012E89"/>
<path d="M34.543 33.6762H36.5764L36.8916 30.2449L37.1706 27.2526H36.6672L35.7313 30.2449L34.543 33.6762ZM36.5764 39.5354V35.7525H32.2208V33.7852L35.6224 25.1581H38.8458V33.6762H40.4302V35.7525H38.8458V39.5354H36.5764Z" fill="#012E89"/>
<path d="M49.927 39.5354L54.0581 27.2526H48.9103V25.1581H56.4711V27.3054L52.439 39.5354H49.927Z" fill="#012E89"/>
<path d="M43.6387 41.1479L47.9993 24.0919H45.6589L41.2967 41.1479H43.6387Z" fill="#012E89"/>
</svg>
