<svg width="71" height="71" viewBox="0 0 71 71" fill="none" xmlns="http://www.w3.org/2000/svg">
<path d="M52.1318 39.8143L53.9358 38.0104V37.54C53.9358 26.2491 44.7509 17.0642 33.46 17.0642H32.9896L31.1857 18.8682L29.38 17.0642L36.8732 9.57108L40.6181 13.3177L42.2273 11.7084L38.4807 7.96353L40.2847 6.15956L44.0313 9.90448L45.6405 8.29692L41.8939 4.55035L43.6979 2.74638L68.2536 27.3021L66.4496 29.1061L62.7031 25.3595L61.0939 26.9687L64.8404 30.7136L63.0365 32.5176L59.2899 28.7727L57.6823 30.3802L61.4273 34.1268L53.9358 41.6183L52.1318 39.8143ZM34.1714 47.7333C32.8823 42.3346 28.6654 38.1176 23.2667 36.8286L39.6493 20.4411C44.7063 22.2797 48.7186 26.2887 50.5589 31.3458L34.1714 47.7333ZM30.6163 60.3891L27.8038 57.5718C29.2034 55.8206 30.0468 53.6024 30.0468 51.191C30.0468 45.5431 25.4569 40.9515 19.809 40.9515C17.396 40.9515 15.1794 41.7965 13.4233 43.1961L10.6109 40.3837L16.3974 34.5972L20.4989 38.6953L20.9065 38.73C26.9638 39.2598 31.7402 44.0362 32.2651 50.0935L32.3047 50.5011L36.4012 54.6026L30.6163 60.3891ZM19.809 59.1529C15.4187 59.1529 11.8471 55.5813 11.8471 51.191C11.8471 46.8008 15.4187 43.2275 19.809 43.2275C24.1992 43.2275 27.7725 46.8008 27.7725 51.191C27.7725 55.5813 24.1992 59.1529 19.809 59.1529ZM19.1207 63.6818L18.7114 63.6455C12.6591 63.1173 7.8777 58.3392 7.34955 52.2886L7.31324 51.8743L3.21677 47.7779L9.00332 41.9913L11.819 44.8054C10.4161 46.5598 9.57108 48.778 9.57108 51.191C9.57108 56.834 14.166 61.4289 19.809 61.4289C22.222 61.4289 24.4402 60.5839 26.1946 59.1793L29.007 61.9967L23.2221 67.7832L19.1207 63.6818ZM68.5556 24.3824L46.6126 2.44435C58.09 3.78123 67.2171 12.9083 68.5556 24.3824ZM43.6979 0H43.2275L26.1633 17.0642L31.1857 22.085L33.9271 19.3435C35.028 19.3699 36.1041 19.5119 37.1488 19.7248L20.9461 35.9308L16.3974 31.3804L0 47.7779L5.12802 52.9059C5.91364 59.7223 11.2777 65.0847 18.0941 65.872L23.2221 71L39.6196 54.6026L35.0692 50.0522L51.2736 33.8462C51.4881 34.8959 51.6301 35.9704 51.6565 37.0729L48.915 39.8143L53.9358 44.8367L71 27.7725V27.3021C71 12.2465 58.7535 0 43.6979 0Z" fill="#012E89"/>
<path d="M19.809 54.6025C17.9291 54.6025 16.3975 53.0692 16.3975 51.191C16.3975 49.3062 17.9291 47.7778 19.809 47.7778C21.6938 47.7778 23.2222 49.3062 23.2222 51.191C23.2222 53.0692 21.6938 54.6025 19.809 54.6025ZM19.809 45.5018C16.6714 45.5018 14.1215 48.0535 14.1215 51.191C14.1215 54.3269 16.6714 56.8785 19.809 56.8785C22.9465 56.8785 25.4965 54.3269 25.4965 51.191C25.4965 48.0535 22.9465 45.5018 19.809 45.5018Z" fill="#012E89"/>
<path d="M51.6614 20.4757C51.0342 20.4757 50.5226 19.9657 50.5226 19.3386C50.5226 18.7114 51.0342 18.2014 51.6614 18.2014C52.2869 18.2014 52.7986 18.7114 52.7986 19.3386C52.7986 19.9657 52.2869 20.4757 51.6614 20.4757ZM51.6614 15.9254C49.7815 15.9254 48.2482 17.4554 48.2482 19.3386C48.2482 21.2184 49.7815 22.7517 51.6614 22.7517C53.5446 22.7517 55.0729 21.2184 55.0729 19.3386C55.0729 17.4554 53.5446 15.9254 51.6614 15.9254Z" fill="#012E89"/>
<path d="M42.5607 31.3804L39.6195 28.4393L41.4235 26.6353L44.3646 29.5765L42.5607 31.3804ZM32.7932 35.264L34.5972 33.46L37.5399 36.4028L35.7343 38.2068L32.7932 35.264ZM38.0103 30.0485L40.9515 32.9896L39.1475 34.7936L36.2064 31.8525L38.0103 30.0485ZM29.5764 35.264L35.7343 41.4235L47.5814 29.5765L41.4235 23.4185L29.5764 35.264Z" fill="#012E89"/>
</svg>
