<svg width="71" height="71" viewBox="0 0 71 71" fill="none" xmlns="http://www.w3.org/2000/svg">
<path d="M67.024 39.0156C66.6824 38.6707 66.3176 38.3505 65.933 38.0551C65.5468 37.7596 65.1425 37.4923 64.7183 37.2513C64.2958 37.012 63.8584 36.8024 63.4078 36.6225C62.9556 36.4426 62.4935 36.294 62.0214 36.1785C61.551 36.0613 61.0724 35.9771 60.5888 35.9276C60.1052 35.8764 59.6216 35.8583 59.1348 35.8748C58.6495 35.8913 58.1676 35.9392 57.6873 36.0217C57.2087 36.1042 56.7383 36.2181 56.2745 36.365L55.4096 35.5117L55.8421 35.0793C56.0005 34.9208 56.1408 34.7492 56.2662 34.5627C56.39 34.3762 56.4956 34.1798 56.5815 33.9735C56.6656 33.7671 56.7317 33.5526 56.7746 33.3331C56.8175 33.1136 56.8406 32.8924 56.8406 32.6679C56.8406 32.4451 56.8175 32.2223 56.7746 32.0028C56.7317 31.7833 56.6656 31.5704 56.5815 31.3641C56.4956 31.1561 56.39 30.9597 56.2662 30.7732C56.1408 30.5867 56.0005 30.415 55.8421 30.2566L53.3284 27.7429C53.3878 27.4921 53.4175 27.2379 53.4192 26.9804C53.4192 26.5282 53.3317 26.0925 53.1584 25.6749C52.9851 25.2573 52.7375 24.8893 52.4173 24.5691L49.9037 22.0554C49.9631 21.8045 49.9928 21.5504 49.9944 21.2929C49.9944 20.8407 49.907 20.4049 49.7337 19.9874C49.5604 19.5698 49.3144 19.2001 48.9943 18.8815L47.6623 17.5496C47.4577 17.345 47.2299 17.17 46.9807 17.0231C46.7315 16.8762 46.4674 16.7623 46.1885 16.6831C45.9095 16.6039 45.6256 16.5593 45.3352 16.5527C45.0463 16.5461 44.7608 16.5742 44.4786 16.6402L41.9517 14.1381C41.7932 13.978 41.6216 13.836 41.4351 13.7106C41.2486 13.5868 41.0505 13.4812 40.8442 13.3954C40.6363 13.3079 40.4234 13.2435 40.2022 13.199C39.9827 13.1561 39.7599 13.1346 39.5354 13.1346C39.3109 13.1346 39.0881 13.1561 38.8686 13.199C38.6474 13.2435 38.4345 13.3079 38.2266 13.3954C38.0186 13.4812 37.8222 13.5868 37.6357 13.7106C37.4492 13.836 37.2759 13.978 37.1175 14.1381L35.5479 15.6961L33.6944 13.8526C33.8396 13.3739 33.9502 12.8887 34.0278 12.3935C34.1037 11.9 34.1466 11.4033 34.1549 10.9032C34.1615 10.4031 34.1351 9.90463 34.0723 9.40783C34.0113 8.91104 33.9139 8.4225 33.7835 7.93891C33.6531 7.45698 33.4914 6.98494 33.295 6.52446C33.0986 6.06563 32.8708 5.62165 32.6133 5.19253C32.3542 4.76506 32.067 4.35574 31.7518 3.96788C31.4365 3.58002 31.0965 3.21526 30.7301 2.87527C30.3637 2.53362 29.9759 2.22003 29.5649 1.9345C29.1556 1.64732 28.7281 1.39149 28.2808 1.16538C27.8352 0.937613 27.3764 0.744509 26.9027 0.581112C26.4307 0.419365 25.9487 0.290629 25.4569 0.194901C24.9667 0.100825 24.4715 0.0397572 23.9715 0.015C23.4714 -0.0114075 22.9729 -0.00315527 22.4745 0.0414076C21.976 0.0859704 21.4842 0.163542 20.9973 0.275775C20.5088 0.389657 20.0318 0.534899 19.5647 0.7148C19.3864 0.78577 19.2362 0.894701 19.1141 1.04159C18.9903 1.18849 18.9095 1.35683 18.8715 1.54499C18.8335 1.73314 18.8434 1.91964 18.8996 2.10285C18.9557 2.28605 19.053 2.44614 19.19 2.57983L24.559 7.92571C24.7901 8.15678 24.9683 8.42415 25.0954 8.72454C25.2209 9.02658 25.2852 9.34016 25.2869 9.66696C25.2968 9.95744 25.2506 10.238 25.1466 10.5103C25.0443 10.7827 24.8941 11.0253 24.696 11.2366C24.5821 11.3488 24.4583 11.4478 24.3247 11.5353C24.191 11.6228 24.0507 11.6954 23.9021 11.7532C23.7536 11.8126 23.6017 11.8555 23.445 11.8835C23.2882 11.9116 23.1297 11.9232 22.9696 11.9182C22.8112 11.9149 22.6527 11.8934 22.4976 11.8588C22.3424 11.8225 22.1922 11.7713 22.047 11.7036C21.9034 11.6376 21.7664 11.5584 21.6377 11.4643C21.5089 11.3702 21.3901 11.263 21.2828 11.1458L15.9485 5.78835C15.8808 5.72233 15.8082 5.66456 15.7273 5.6167C15.6481 5.56884 15.5623 5.53253 15.4732 5.50447C15.3824 5.47806 15.2916 5.46321 15.1975 5.45826C15.1051 5.45495 15.0127 5.46156 14.9203 5.47971C14.8295 5.49787 14.7404 5.52758 14.6562 5.56884C14.572 5.60845 14.4944 5.65796 14.4218 5.71738C14.3492 5.77845 14.2848 5.84447 14.2304 5.92039C14.1743 5.99631 14.1297 6.07718 14.0934 6.16301C13.8838 6.69941 13.7187 7.24902 13.5982 7.81183C13.4778 8.37464 13.4018 8.9424 13.3738 9.51842C13.3457 10.0928 13.3639 10.6655 13.4282 11.2382C13.491 11.8093 13.6015 12.3737 13.7567 12.9266C13.9118 13.4812 14.1115 14.0193 14.3542 14.5408C14.5968 15.0623 14.8807 15.5624 15.2041 16.0378C15.5276 16.5148 15.8874 16.9604 16.2819 17.3796C16.678 17.7972 17.1055 18.1801 17.5627 18.5283C18.2394 19.0581 18.9705 19.4988 19.7545 19.8504C20.5368 20.2019 21.3522 20.4544 22.1972 20.6079C23.0422 20.7614 23.8939 20.8126 24.7505 20.7581C25.6087 20.7053 26.4472 20.5502 27.2658 20.291L27.4028 20.428L22.7848 24.9899C22.5636 25.2127 22.453 25.4834 22.4547 25.797V35.5926L19.5647 38.6855L18.6784 37.7877C18.5711 37.6804 18.4473 37.5962 18.3087 37.5385C18.1684 37.4807 18.0215 37.451 17.8697 37.451C17.7195 37.451 17.5726 37.4807 17.4323 37.5385C17.2936 37.5962 17.1699 37.6804 17.0626 37.7877L11.3751 43.4752C11.2678 43.5825 11.1836 43.7046 11.1258 43.8449C11.0681 43.9852 11.0384 44.1305 11.0384 44.2823C11.0384 44.4341 11.0681 44.581 11.1258 44.7197C11.1836 44.86 11.2678 44.9837 11.3751 45.091L11.7167 45.4211L0 57.1708L1.61416 58.7866L13.321 47.0699L24.2289 57.9796L13.6494 68.5475L15.2652 70.1617L25.8332 59.5822L26.1633 59.9238C26.2706 60.0311 26.3927 60.1153 26.533 60.173C26.6733 60.2308 26.8185 60.2605 26.9704 60.2605C27.1222 60.2605 27.2691 60.2308 27.4077 60.173C27.548 60.1153 27.6718 60.0311 27.7791 59.9238L33.4666 54.2363C33.5739 54.129 33.6564 54.0069 33.7158 53.8666C33.7736 53.7263 33.8033 53.5811 33.8033 53.4292C33.8033 53.2774 33.7736 53.1305 33.7158 52.9918C33.6564 52.8515 33.5739 52.7278 33.4666 52.6205L32.8411 52.0065L35.4917 49.1627H41.27C41.5853 49.1644 41.8543 49.0555 42.0771 48.8326L48.9827 41.9386L49.8244 42.7705C49.5653 43.5874 49.4085 44.4259 49.3541 45.2825C49.2996 46.1391 49.3491 46.9907 49.5026 47.8341C49.6561 48.6792 49.9103 49.4928 50.2618 50.2752C50.615 51.0591 51.0573 51.787 51.5871 52.462C52.0955 53.1107 52.6682 53.6966 53.3086 54.2148C53.949 54.7347 54.6372 55.1771 55.3783 55.5402C56.1177 55.9033 56.8885 56.1806 57.6906 56.3687C58.4927 56.5585 59.3064 56.6542 60.13 56.6592C61.4619 56.6641 62.7443 56.4133 63.9756 55.9082C64.1538 55.8373 64.304 55.7283 64.4278 55.5814C64.5499 55.4345 64.6308 55.2662 64.6688 55.078C64.7051 54.8915 64.6952 54.7083 64.6391 54.5268C64.5813 54.3452 64.4856 54.1884 64.3502 54.0547L58.9813 48.6973C58.7502 48.4662 58.5703 48.2005 58.4449 47.8985C58.3194 47.5964 58.255 47.2829 58.2534 46.9561C58.2567 46.347 58.468 45.8238 58.8905 45.3865C59.0027 45.2792 59.1248 45.1835 59.2569 45.1009C59.3873 45.0168 59.5259 44.9474 59.6695 44.8913C59.8147 44.8352 59.9633 44.7939 60.1168 44.7675C60.2703 44.7411 60.4238 44.7296 60.5789 44.7329C60.7341 44.7378 60.8876 44.756 61.0394 44.7906C61.1912 44.8237 61.3381 44.8715 61.4801 44.9359C61.622 44.9986 61.7574 45.0745 61.8844 45.1636C62.0115 45.2528 62.1271 45.3535 62.2343 45.4657L67.6165 50.8231C67.7502 50.9568 67.9087 51.0509 68.0886 51.1053C68.2701 51.1598 68.4533 51.1681 68.6398 51.1301C68.8263 51.0938 68.993 51.0146 69.1399 50.8941C69.2868 50.7736 69.3974 50.6251 69.47 50.4485C69.6598 49.9682 69.815 49.4747 69.9321 48.9713C70.051 48.4679 70.1302 47.9579 70.1731 47.443C70.216 46.928 70.221 46.4114 70.188 45.8948C70.155 45.3782 70.084 44.8682 69.9767 44.3615C69.8678 43.8565 69.7242 43.3613 69.5426 42.8761C69.3611 42.3925 69.1465 41.9238 68.8956 41.4699C68.6464 41.0177 68.3642 40.5852 68.0506 40.1743C67.737 39.7633 67.3954 39.3771 67.024 39.0156ZM54.591 32.6679C54.5927 32.9832 54.4821 33.2522 54.2609 33.4767L49.5967 38.1178L49.4943 38.2201C49.3871 38.3274 49.2649 38.4099 49.1246 38.4693C48.9843 38.5271 48.8391 38.5568 48.6873 38.5568C48.5354 38.5568 48.3885 38.5271 48.2499 38.4693C48.1096 38.4099 47.9858 38.3274 47.8785 38.2201L46.5367 36.8882C46.4294 36.7826 46.3469 36.6588 46.2875 36.5185C46.2297 36.3782 46.2 36.2329 46.2 36.0811C46.2 35.9293 46.2297 35.784 46.2875 35.6437C46.3469 35.5034 46.4294 35.3797 46.5367 35.274L47.2084 34.6138L52.1103 29.7218L54.2725 31.8146C54.5019 32.054 54.6092 32.3378 54.591 32.6679ZM51.1778 26.9804C51.1795 27.2956 51.0705 27.5647 50.8477 27.7875L45.6042 32.9535L44.9324 33.6236C44.8268 33.7308 44.703 33.815 44.5627 33.8728C44.4224 33.9305 44.2772 33.9602 44.1254 33.9602C43.9735 33.9602 43.8283 33.9305 43.688 33.8728C43.5477 33.815 43.4239 33.7308 43.3183 33.6236L43.2259 33.5328C43.7854 33.2671 44.2855 32.9188 44.7278 32.4864L46.0696 31.1561C46.1785 31.0488 46.2611 30.925 46.3188 30.7847C46.3783 30.6445 46.4063 30.4992 46.4063 30.3474C46.4063 30.1955 46.3783 30.0503 46.3188 29.91C46.2611 29.7697 46.1785 29.6476 46.0696 29.5403L44.5908 28.073L48.6873 23.9881L50.8593 26.1271C51.0854 26.3681 51.1877 26.652 51.1663 26.9804H51.1778ZM46.0812 19.1539L47.4461 20.4396C47.555 20.5469 47.6376 20.669 47.6953 20.8093C47.7547 20.9496 47.7828 21.0948 47.7828 21.2467C47.7828 21.3985 47.7547 21.5454 47.6953 21.684C47.6376 21.8243 47.555 21.9481 47.4461 22.0554L43.0212 26.4688L40.0636 23.5227L44.4885 19.1093C44.5974 19.0086 44.7212 18.9344 44.8598 18.8815C44.9985 18.8304 45.1421 18.8073 45.2889 18.8122C45.4358 18.8155 45.5778 18.8469 45.7131 18.9063C45.8485 18.9657 45.9673 19.0482 46.0696 19.1539H46.0812ZM38.7564 15.7407C38.8637 15.6318 38.9874 15.5476 39.1277 15.4882C39.2697 15.4288 39.4166 15.399 39.5701 15.399C39.7219 15.399 39.8688 15.4288 40.0107 15.4882C40.151 15.5476 40.2748 15.6318 40.3821 15.7407L42.5211 17.8797L38.4263 21.9646L35.8664 19.4163C35.7294 19.2793 35.571 19.177 35.4224 19.0515L38.7564 15.7407ZM27.1536 17.9144C26.4802 18.185 25.7853 18.3633 25.0657 18.4524C24.3478 18.5399 23.6298 18.5333 22.9118 18.4343C22.1939 18.3336 21.5023 18.1438 20.8339 17.8632C20.1671 17.5826 19.5465 17.2195 18.9738 16.7772C18.3731 16.3184 17.8432 15.7869 17.3861 15.1878C16.9272 14.587 16.5542 13.9367 16.2704 13.2369C15.9848 12.5355 15.7967 11.8109 15.7059 11.0616C15.6135 10.3106 15.6234 9.56133 15.7323 8.81366L19.7248 12.8062C19.9377 13.0224 20.1688 13.2155 20.4196 13.3871C20.6705 13.5588 20.9346 13.7024 21.2135 13.8228C21.4924 13.9417 21.7796 14.0325 22.0767 14.0952C22.3738 14.1579 22.6725 14.1909 22.9762 14.1959C23.2799 14.1992 23.5803 14.1744 23.879 14.1199C24.1761 14.0655 24.4666 13.9829 24.7488 13.8707C25.0311 13.7601 25.3001 13.6231 25.5543 13.4581C25.8101 13.2947 26.0477 13.1082 26.2656 12.8969C26.6865 12.4744 27.0116 11.9875 27.2377 11.4363C27.4638 10.8834 27.5761 10.309 27.5744 9.71317C27.5744 9.08434 27.4523 8.48027 27.2097 7.8993C26.9671 7.31999 26.6221 6.80999 26.1748 6.36767L22.1708 2.32896C22.8277 2.23158 23.4862 2.21013 24.1497 2.26789C24.8115 2.32566 25.4569 2.4577 26.0874 2.66731C26.7178 2.87692 27.3153 3.1575 27.8798 3.5074C28.4442 3.8573 28.9608 4.26992 29.4279 4.74195C29.7184 5.02418 29.9874 5.32787 30.235 5.64971C30.4809 5.9732 30.7021 6.31155 30.8985 6.66805C31.0965 7.0229 31.2649 7.39096 31.4068 7.77222C31.5504 8.15183 31.6643 8.54134 31.7485 8.93745C31.8343 9.33521 31.8888 9.73628 31.9152 10.1423C31.9416 10.5467 31.9366 10.9527 31.9036 11.357C31.8706 11.7614 31.8062 12.1608 31.7138 12.5569C31.6214 12.953 31.5009 13.3393 31.3507 13.7172C31.2649 13.9285 31.2451 14.1447 31.2913 14.3692C31.3359 14.592 31.4398 14.7834 31.5999 14.9452L33.9552 17.3119L33.262 18.0051C32.5341 17.8417 31.8046 17.8368 31.0734 17.9903C30.3423 18.1421 29.6771 18.4392 29.0747 18.8815L28.37 18.1652C28.2082 18.0035 28.0168 17.8995 27.7939 17.8549C27.5695 17.8087 27.3533 17.8285 27.142 17.9144H27.1536ZM26.9704 57.5125L13.7864 44.3285L17.8697 40.2452L31.0553 53.4292L26.9704 57.5125ZM40.803 46.8884H34.99C34.6616 46.8884 34.3843 47.0105 34.1598 47.2515L31.2368 50.4022L21.1805 40.336L24.422 36.8552C24.6267 36.6373 24.729 36.3798 24.7307 36.0811V26.3202L30.0303 21.0305C30.1723 20.8968 30.3258 20.7763 30.4892 20.6723C30.6542 20.5667 30.8259 20.4775 31.0074 20.4049C31.189 20.3323 31.3755 20.2778 31.5669 20.2415C31.7584 20.2052 31.9515 20.1854 32.1462 20.1854C32.3426 20.1854 32.5357 20.2052 32.7272 20.2415C32.9187 20.2778 33.1052 20.3323 33.2867 20.4049C33.4666 20.4775 33.6399 20.5667 33.8033 20.6723C33.9684 20.7763 34.1219 20.8968 34.2621 21.0305L43.6467 30.3936L43.1235 30.9168C42.9651 31.0769 42.7934 31.2188 42.6053 31.3443C42.4188 31.4713 42.2207 31.577 42.0144 31.6628C41.8064 31.7503 41.5919 31.8163 41.3707 31.8592C41.1496 31.9038 40.9267 31.9252 40.7006 31.9252C40.4762 31.9252 40.2534 31.9038 40.0322 31.8592C39.811 31.8163 39.5965 31.7503 39.3885 31.6628C39.1805 31.577 38.9841 31.4713 38.796 31.3443C38.6095 31.2188 38.4362 31.0769 38.2777 30.9168L33.5227 26.1271C33.4155 26.0198 33.2933 25.9373 33.153 25.8795C33.0127 25.8218 32.8675 25.7937 32.7157 25.7937C32.5638 25.7937 32.4186 25.8218 32.2783 25.8812C32.1396 25.939 32.0159 26.0215 31.9086 26.1288C31.8013 26.2344 31.7188 26.3582 31.661 26.4985C31.6032 26.6388 31.5735 26.784 31.5735 26.9358C31.5735 27.086 31.6032 27.2329 31.661 27.3716C31.7188 27.5119 31.8013 27.6356 31.9086 27.7429C32.105 27.9393 32.2931 28.1456 32.4714 28.3602C32.648 28.5764 32.8147 28.7992 32.9698 29.0303C33.125 29.263 33.2702 29.5007 33.4006 29.7466C33.5326 29.9925 33.6531 30.2434 33.7604 30.5025C33.8677 30.76 33.9618 31.0208 34.0426 31.2881C34.1235 31.5555 34.1912 31.8262 34.2456 32.0985C34.3001 32.3725 34.3414 32.6481 34.3694 32.9254C34.3975 33.2027 34.4107 33.4816 34.4107 33.7605C34.4107 34.0395 34.3975 34.3184 34.3694 34.5957C34.3414 34.873 34.3001 35.1486 34.2456 35.4226C34.1912 35.6949 34.1235 35.9656 34.0426 36.2329C33.9618 36.4987 33.8677 36.7611 33.7604 37.0186C33.6531 37.276 33.5326 37.5286 33.4006 37.7745C33.2702 38.0204 33.125 38.2581 32.9698 38.4908C32.8147 38.7219 32.648 38.9447 32.4714 39.1609C32.2931 39.3754 32.105 39.5818 31.9086 39.7782L33.5227 41.394C34.0261 40.8939 34.4751 40.3492 34.8695 39.76C35.264 39.1708 35.5957 38.5486 35.8681 37.8933C36.1387 37.2381 36.3434 36.563 36.482 35.8665C36.619 35.1717 36.6867 34.4702 36.685 33.7605C36.6883 33.3116 36.6619 32.8643 36.6058 32.4187L36.6735 32.4864C37.1967 33.0162 37.7991 33.4271 38.4824 33.7209C39.164 34.0147 39.8787 34.1682 40.6214 34.1814L41.7586 35.3186C42.0623 35.6206 42.4105 35.8566 42.8033 36.0283C43.1961 36.1983 43.6071 36.2924 44.0346 36.3089C44.0511 36.7363 44.1435 37.1473 44.3152 37.5385C44.4852 37.9313 44.7228 38.2795 45.0232 38.5832L46.3089 39.7782C46.5829 40.0571 46.8982 40.2766 47.253 40.4383L40.803 46.8884ZM67.8311 47.8655L63.827 43.873C63.6158 43.6568 63.3847 43.462 63.1338 43.2904C62.883 43.1187 62.6189 42.9735 62.34 42.8546C62.061 42.7342 61.7739 42.6434 61.4768 42.5807C61.1797 42.5179 60.8793 42.4833 60.5756 42.48C60.2719 42.475 59.9715 42.4998 59.6728 42.5559C59.3741 42.6104 59.0852 42.6929 58.803 42.8051C58.5208 42.9174 58.2517 43.0543 57.9959 43.2194C57.7418 43.3844 57.5057 43.5709 57.2862 43.7822C56.8637 44.2014 56.5386 44.6867 56.3108 45.2363C56.0847 45.7875 55.9741 46.3602 55.979 46.9561C55.9774 47.5865 56.0979 48.1923 56.3405 48.7749C56.5831 49.3575 56.9281 49.8691 57.377 50.3115L61.3711 54.2941C60.6235 54.398 59.8742 54.403 59.1248 54.3106C58.3755 54.2165 57.6526 54.0283 56.9528 53.7445C56.253 53.4589 55.6027 53.0876 55.002 52.632C54.4012 52.1749 53.8697 51.6484 53.4076 51.0509C52.9636 50.4815 52.6022 49.8642 52.3216 49.2007C52.0394 48.5356 51.8496 47.8457 51.7489 47.131C51.6499 46.4164 51.6433 45.7001 51.7324 44.9837C51.8199 44.2674 51.9998 43.5759 52.2704 42.9058C52.353 42.6929 52.3678 42.475 52.3183 42.2506C52.2688 42.0278 52.1615 41.8363 51.9965 41.6779L50.6546 40.336L51.1547 39.8343L53.8846 37.1275L55.2281 38.4693C55.3898 38.6327 55.5846 38.7384 55.8091 38.7829C56.0352 38.8291 56.2547 38.8077 56.4676 38.7202C56.6392 38.6575 56.8109 38.5997 56.9858 38.5469C57.1608 38.4941 57.3374 38.4479 57.5156 38.4066C57.6922 38.3654 57.8721 38.3307 58.052 38.301C58.2319 38.2713 58.4118 38.2482 58.5934 38.23C58.7749 38.2135 58.9565 38.2003 59.1397 38.1954C59.3213 38.1888 59.5045 38.1888 59.686 38.1937C59.8676 38.2003 60.0508 38.2119 60.2323 38.2284C60.4139 38.2465 60.5938 38.2696 60.7737 38.2993C60.9536 38.3274 61.1335 38.3621 61.3117 38.4033C61.4883 38.4429 61.6649 38.4891 61.8399 38.542C62.0148 38.5931 62.1881 38.6509 62.3581 38.7136C62.5298 38.7763 62.6981 38.8456 62.8648 38.9199C63.0315 38.9925 63.1966 39.0718 63.3583 39.1576C63.5201 39.2418 63.6785 39.3309 63.8336 39.425C63.9904 39.5207 64.1423 39.6197 64.2925 39.7253C64.441 39.8293 64.5879 39.9383 64.7298 40.0521C64.8718 40.166 65.0104 40.2849 65.1458 40.407C65.2811 40.5308 65.4115 40.6579 65.5386 40.7882C65.664 40.9203 65.7862 41.0556 65.905 41.1943C66.0222 41.3329 66.1361 41.4765 66.245 41.6217C66.3539 41.7686 66.4562 41.9188 66.5553 42.0723C66.6543 42.2242 66.7484 42.381 66.8375 42.5411C66.9266 42.6995 67.0108 42.8612 67.09 43.0263C67.1676 43.1897 67.2419 43.358 67.3095 43.5264C67.3772 43.6964 67.4399 43.8664 67.496 44.0397C67.5538 44.213 67.605 44.3879 67.6495 44.5645C67.6957 44.7411 67.7354 44.9194 67.77 45.0993C67.803 45.2775 67.8311 45.4574 67.8542 45.639C67.8773 45.8205 67.8938 46.0021 67.9037 46.1836C67.9153 46.3652 67.9202 46.5484 67.9186 46.7299C67.9186 46.9131 67.912 47.0947 67.8988 47.2763C67.8856 47.4578 67.8674 47.6394 67.8426 47.8209L67.8311 47.8655Z" fill="#012E89"/>
</svg>
