<svg width="24" height="24" viewBox="0 0 24 24" fill="none" xmlns="http://www.w3.org/2000/svg">
<g clip-path="url(#clip0_7_26)">
<path d="M12 24C18.6274 24 24 18.6274 24 12C24 5.37258 18.6274 0 12 0C5.37258 0 0 5.37258 0 12C0 18.6274 5.37258 24 12 24Z" fill="#40B3E0"/>
<path d="M17.9868 6.25874C18.4652 6.07209 18.9597 6.49068 18.8547 6.99328L16.7092 17.2486C16.609 17.7294 16.0442 17.946 15.6482 17.6551L12.4094 15.2777L10.7585 16.9634C10.4684 17.2592 9.96823 17.1388 9.84377 16.7444L8.65268 12.9634L5.45993 12.0203C5.04054 11.8967 5.01631 11.3133 5.42276 11.1541L17.9868 6.25874ZM16.4119 8.53429C16.5516 8.41063 16.3892 8.19248 16.2308 8.29106L9.33949 12.565C9.21827 12.6401 9.16254 12.788 9.20534 12.9246L10.1451 17.0514C10.1637 17.1145 10.2542 17.1056 10.2623 17.0401L10.4724 13.8951C10.4805 13.8175 10.5176 13.7464 10.5759 13.6947L16.4119 8.53429Z" fill="white"/>
<path d="M16.2308 8.29106C16.3892 8.19248 16.5516 8.41064 16.4118 8.5343L10.5759 13.6947C10.5177 13.7464 10.4805 13.8175 10.4724 13.8951L10.2623 17.0401C10.2543 17.1056 10.1638 17.1145 10.1452 17.0514L9.20536 12.9246C9.16252 12.788 9.2183 12.6401 9.33952 12.565L16.2308 8.29106Z" fill="#9EC2E5"/>
<path d="M10.1791 17.0943C10.0272 17.0401 9.89871 16.9189 9.84377 16.7444L8.65268 12.9633L5.45993 12.0203C5.04054 11.8966 5.01631 11.3132 5.42276 11.1541L17.9868 6.25876C18.2954 6.13834 18.6114 6.27005 18.7674 6.51413C18.7383 6.4697 18.7035 6.42849 18.6648 6.39212L10.1411 13.3505V13.6551L10.0942 13.6212L10.1411 15.5396V17.0782C10.1532 17.0838 10.1661 17.0887 10.1791 17.0927V17.0943H10.1791Z" fill="white"/>
<path d="M18.8684 6.82115C18.8708 6.87609 18.8668 6.93426 18.8547 6.99328L16.7092 17.2486C16.609 17.7294 16.0441 17.946 15.6482 17.6551L12.4094 15.2777L10.1411 13.6551V13.3505L18.6648 6.39206C18.7035 6.42843 18.7383 6.46964 18.7674 6.51407C18.773 6.52378 18.7787 6.53264 18.7843 6.54154C18.7892 6.55125 18.7948 6.56095 18.7997 6.56981C18.8045 6.57951 18.8094 6.58922 18.8135 6.59892C18.8183 6.60942 18.8224 6.61912 18.8264 6.62962C18.8296 6.63853 18.8337 6.64818 18.8369 6.65873C18.8474 6.69023 18.8555 6.72258 18.8611 6.75651C18.8644 6.77751 18.8668 6.79856 18.8684 6.82115Z" fill="#D1D1D1"/>
<path d="M12.4093 15.2777L10.7585 16.9634C10.7447 16.9771 10.7302 16.9909 10.7156 17.003C10.7011 17.0151 10.6865 17.0256 10.6712 17.0361C10.6704 17.0369 10.6704 17.0369 10.6704 17.0369C10.6397 17.0571 10.6082 17.0741 10.575 17.0879C10.5581 17.0943 10.5419 17.1008 10.5249 17.1048C10.4546 17.1258 10.3827 17.1315 10.3116 17.1242C10.293 17.1226 10.2744 17.1194 10.2567 17.1162C10.2542 17.1162 10.2518 17.1154 10.2494 17.1146C10.2316 17.1097 10.2138 17.1049 10.1961 17.0992C10.1904 17.0976 10.1848 17.096 10.1791 17.0927L10.1411 15.5396V13.6552L12.4093 15.2777Z" fill="#D1D1D1"/>
<path d="M10.7157 17.003C10.7012 17.0151 10.6866 17.0264 10.6713 17.0369V17.0361C10.6866 17.0256 10.7012 17.0151 10.7157 17.003Z" fill="#DADDE0"/>
<path d="M10.672 17.0361V17.0377C10.672 17.0377 10.672 17.0361 10.6704 17.0377C10.6704 17.0377 10.6704 17.0377 10.672 17.0361Z" fill="#DADDE0"/>
<path d="M10.5751 17.0879C10.6082 17.0741 10.6397 17.0572 10.6704 17.037C10.6397 17.0571 10.6074 17.0741 10.5751 17.0879Z" fill="#DADDE0"/>
<path d="M10.3116 17.1242C10.3828 17.1315 10.4547 17.1258 10.525 17.1048C10.4741 17.121 10.4215 17.1282 10.369 17.1282C10.3528 17.1282 10.3367 17.1274 10.3213 17.1258C10.3181 17.1258 10.3149 17.1258 10.3116 17.1242Z" fill="#DADDE0"/>
<path d="M10.369 17.1282C10.3528 17.1282 10.3366 17.1274 10.3213 17.1258C10.3366 17.1274 10.3528 17.1282 10.369 17.1282Z" fill="white"/>
<path d="M10.3116 17.1242C10.3148 17.1258 10.3181 17.1258 10.3213 17.1258C10.3043 17.125 10.289 17.1225 10.2728 17.1193C10.2857 17.1218 10.2987 17.1234 10.3116 17.1242Z" fill="white"/>
<path d="M10.3117 17.1242C10.2987 17.1234 10.2858 17.1218 10.2729 17.1194C10.2672 17.1186 10.2616 17.1178 10.2567 17.1161C10.2745 17.1194 10.293 17.1226 10.3117 17.1242Z" fill="#DADDE0"/>
<path d="M10.196 17.0992C10.2138 17.1048 10.2316 17.1097 10.2494 17.1145C10.2421 17.1129 10.2349 17.1113 10.2276 17.1097C10.2244 17.1089 10.2211 17.1081 10.2187 17.1065C10.2114 17.1048 10.2033 17.1024 10.196 17.0992Z" fill="#DADDE0"/>
<path d="M10.2277 17.1097C10.2349 17.1113 10.2422 17.1129 10.2495 17.1145C10.2422 17.1137 10.2349 17.1121 10.2277 17.1097Z" fill="white"/>
<path d="M10.1961 17.0992C10.2034 17.1024 10.2115 17.1048 10.2187 17.1064C10.2066 17.104 10.1945 17.1 10.1824 17.0951C10.1872 17.0967 10.1912 17.0984 10.1961 17.0992Z" fill="white"/>
<path d="M10.196 17.0991C10.1912 17.0984 10.1871 17.0967 10.1823 17.0951C10.1815 17.0959 10.1799 17.0951 10.1791 17.0943V17.0927C10.1847 17.0959 10.1904 17.0975 10.196 17.0991Z" fill="#DADDE0"/>
<path d="M10.1411 15.5396L10.1791 17.0927C10.1661 17.0887 10.1532 17.0838 10.1411 17.0782V15.5396Z" fill="#D1D1D1"/>
<path d="M10.1411 13.6551V15.5396L10.0942 13.6212L10.1411 13.6551Z" fill="#DADDE0"/>
<path d="M16.4118 8.5343L10.5759 13.6947C10.5177 13.7464 10.4805 13.8175 10.4724 13.8951L10.2627 17.0404C10.2547 17.1059 10.1641 17.1148 10.1447 17.0517L9.20536 12.9246C9.16252 12.7881 9.2183 12.6402 9.33952 12.565L16.2308 8.29111C16.3892 8.19249 16.5517 8.41069 16.4118 8.5343Z" fill="#ADBCC9"/>
</g>
<defs>
<clipPath id="clip0_7_26">
<rect width="24" height="24" fill="white"/>
</clipPath>
</defs>
</svg>
