<svg width="23" height="24" viewBox="0 0 23 24" fill="none" xmlns="http://www.w3.org/2000/svg">
<g clip-path="url(#clip0_7_18)">
<path d="M11.5 24C17.8513 24 23 18.6274 23 12C23 5.37258 17.8513 0 11.5 0C5.14873 0 0 5.37258 0 12C0 18.6274 5.14873 24 11.5 24Z" fill="#75B73B"/>
<path d="M11.1782 5.08345C7.67302 5.25745 4.90695 8.30358 4.91751 11.9652C4.92074 13.0805 5.17878 14.1331 5.63401 15.0634L4.93516 18.6031C4.89739 18.7947 5.06288 18.9623 5.24517 18.9172L8.56916 18.0955C9.42317 18.5395 10.3824 18.7958 11.3975 18.812C14.9802 18.8691 17.9674 15.9008 18.0792 12.1637C18.1988 8.15789 15.0305 4.89197 11.1782 5.08345ZM15.1445 15.747C14.1711 16.7627 12.8767 17.3222 11.5 17.3222C10.6939 17.3222 9.92208 17.1334 9.20602 16.7613L8.74324 16.5206L6.70513 17.0244L7.13409 14.8515L6.90611 14.3854C6.53434 13.6257 6.34585 12.8044 6.34585 11.9439C6.34585 10.5073 6.88199 9.1568 7.8554 8.14097C8.82014 7.13419 10.1356 6.56578 11.5001 6.56578C12.8767 6.56578 14.1711 7.12523 15.1445 8.14097C16.1179 9.1567 16.654 10.5074 16.654 11.9438C16.6541 13.3677 16.1093 14.7403 15.1445 15.747Z" fill="white"/>
<path d="M14.6945 13.4335L13.4195 13.0515C13.252 13.0014 13.0714 13.0511 12.9492 13.1809L12.6374 13.5123C12.506 13.6522 12.3065 13.6971 12.1325 13.6236C11.5293 13.3689 10.2605 12.1917 9.93665 11.603C9.84303 11.4331 9.85853 11.2209 9.97335 11.0657L10.2455 10.6983C10.3521 10.5544 10.3746 10.3609 10.3041 10.1945L9.7677 8.92852C9.63922 8.62533 9.2679 8.53702 9.02527 8.75114C8.66945 9.06525 8.24723 9.54239 8.19597 10.0711C8.10545 11.0033 8.48864 12.1784 9.93723 13.5893C11.6109 15.2196 12.9512 15.4348 13.824 15.2142C14.319 15.0892 14.7146 14.5877 14.9641 14.1771C15.1344 13.8969 14.9998 13.5251 14.6945 13.4335Z" fill="white"/>
<path d="M15.9923 6.9238L14.994 7.99152C15.0448 8.0405 15.0954 8.08977 15.1446 8.14109C16.118 9.15683 16.6541 10.5075 16.6541 11.9439C16.6541 13.3678 16.1093 14.7403 15.1446 15.7471C14.1712 16.7628 12.8768 17.3223 11.5001 17.3223C10.694 17.3223 9.92217 17.1335 9.20607 16.7614L8.74329 16.5207L6.70518 17.0245L6.74732 16.811L4.94263 18.741C4.98243 18.8658 5.10906 18.9508 5.24513 18.9171L8.56912 18.0954C9.42313 18.5394 10.3824 18.7957 11.3975 18.8119C14.9801 18.869 17.9675 15.9007 18.0792 12.1636C18.1409 10.0948 17.3257 8.2235 15.9923 6.9238Z" fill="#D1D1D1"/>
<path d="M14.6946 13.4335L13.4195 13.0515C13.252 13.0014 13.0714 13.0511 12.9493 13.1809L12.6374 13.5123C12.506 13.6522 12.3065 13.6971 12.1325 13.6236C11.7841 13.4765 11.2138 13.0215 10.7316 12.55L9.84521 13.498C9.87563 13.5284 9.90595 13.5587 9.9373 13.5893C11.611 15.2196 12.9513 15.4348 13.8241 15.2142C14.3191 15.0892 14.7147 14.5877 14.9642 14.1771C15.1344 13.8969 14.9998 13.5251 14.6946 13.4335Z" fill="#D1D1D1"/>
</g>
<defs>
<clipPath id="clip0_7_18">
<rect width="23" height="24" fill="white"/>
</clipPath>
</defs>
</svg>
