<svg width="85" height="62" viewBox="0 0 85 62" fill="none" xmlns="http://www.w3.org/2000/svg">
<path d="M12.5121 22.6969V22.4969H12.3121H1.40477C0.739622 22.4969 0.2 21.9573 0.2 21.2922C0.2 20.627 0.739622 20.0874 1.40477 20.0874H12.3121H12.5121V19.8874V17.7902C12.5121 15.7379 14.1768 14.0687 16.2245 14.0687H49.8921H50.1511L50.0855 13.8181C49.8542 12.9338 49.7178 12.0144 49.7178 11.0628C49.7178 5.07327 54.5911 0.2 60.5806 0.2C66.5702 0.2 71.4435 5.07327 71.4435 11.0628C71.4435 16.6259 67.238 21.219 61.8411 21.8474L61.6643 21.868V22.0461V25.2425V25.4425H61.8643H69.8283C69.9783 25.4425 70.1292 25.4495 70.2854 25.4568L70.3011 25.4575L70.3168 25.4558C70.3427 25.4529 70.3615 25.4503 70.3769 25.4482C70.4026 25.4447 70.4186 25.4425 70.4412 25.4425C70.5447 25.4425 70.646 25.4602 70.754 25.4884L70.7703 25.4927L70.7871 25.4942C78.3753 26.1581 84.0575 32.2042 84.0575 39.6717V51.3926C84.0575 53.4409 82.3897 55.1087 80.3415 55.1087H79.4194H79.2523L79.2226 55.2731C78.5741 58.8646 75.4316 61.5992 71.6579 61.5992C67.8842 61.5992 64.7417 58.8646 64.0932 55.2731L64.0635 55.1087H63.8964H59.2583V55.105H59.0583H36.1878H36.0206L35.991 55.2696C35.3442 58.8611 32.2 61.5992 28.4245 61.5992C24.649 61.5992 21.5066 58.8629 20.8598 55.2696L20.8302 55.105H20.663H16.2245C14.1764 55.105 12.5121 53.4392 12.5121 51.3908V35.9944V35.7944H12.3121H8.21892C7.55377 35.7944 7.01415 35.2548 7.01415 34.5896C7.01415 33.9248 7.55343 33.3866 8.21892 33.3866H12.3121H12.5121V33.1866V29.3448V29.1448H12.3121H5.13637C4.47089 29.1448 3.9316 28.6066 3.9316 27.9418C3.9316 27.2766 4.47122 26.737 5.13637 26.737H12.3121H12.5121V26.537V22.6969ZM35.9892 52.5311L36.019 52.6955H36.186H59.0547H59.2547V52.4955V44.6816V44.4816H59.0547H15.1198H14.9198V44.6816V51.3908C14.9198 52.1106 15.5048 52.6955 16.2245 52.6955H20.663H20.83L20.8598 52.5311C21.5101 48.9414 24.6525 46.2104 28.4245 46.2104C32.1965 46.2104 35.339 48.9414 35.9892 52.5311ZM81.4479 42.0738H81.6479V41.8738V39.6717C81.6479 33.8998 77.54 29.1583 71.8835 28.0762L71.6459 28.0308V28.2726V41.8738V42.0738H71.8459H81.4479ZM61.8661 27.8503H61.6661V28.0503V52.4991V52.6991H61.8661H63.8964H64.0635L64.0932 52.5347C64.7417 48.945 67.8842 46.2104 71.6579 46.2104C75.4316 46.2104 78.5741 48.945 79.2226 52.5347L79.2523 52.6991H79.4194H80.3415C81.061 52.6991 81.6479 52.1144 81.6479 51.3926V44.6816V44.4816H81.4479H70.4412C69.7757 44.4816 69.2364 43.9434 69.2364 43.2786V28.0503V27.8503H69.0364H61.8661ZM51.2375 16.5746L51.1794 16.4765H51.0654H16.2245C15.5141 16.4765 14.9198 17.0773 14.9198 17.7902V19.8874V20.0874H15.1198H16.7777C17.4429 20.0874 17.9825 20.627 17.9825 21.2922C17.9825 21.9573 17.4429 22.4969 16.7777 22.4969H15.1198H14.9198V22.6969V26.537V26.737H15.1198H24.2012C24.8661 26.737 25.4041 27.2747 25.4041 27.9418C25.4041 28.6069 24.8663 29.1448 24.2012 29.1448H15.1198H14.9198V29.3448V33.1848V33.3848H15.1198H31.0153C31.6801 33.3848 32.2183 33.9241 32.2183 34.5896C32.2183 35.2551 31.6801 35.7944 31.0153 35.7944H15.1198H14.9198V35.9944V41.8738V42.0738H15.1198H59.0547H59.2547V41.8738V22.0081V21.8339L59.0822 21.81C55.7419 21.3468 52.8889 19.3624 51.2375 16.5746ZM23.1388 53.9039C23.1388 56.8185 25.5099 59.1896 28.4245 59.1896C31.3391 59.1896 33.7103 56.8185 33.7103 53.9039C33.7103 50.9893 31.3391 48.6181 28.4245 48.6181C25.5099 48.6181 23.1388 50.9893 23.1388 53.9039ZM66.3722 53.9039C66.3722 56.8185 68.7433 59.1896 71.6579 59.1896C74.5725 59.1896 76.9437 56.8185 76.9437 53.9039C76.9437 50.9893 74.5725 48.6181 71.6579 48.6181C68.7433 48.6181 66.3722 50.9893 66.3722 53.9039ZM69.0357 11.0628C69.0357 6.40179 65.2435 2.60774 60.5806 2.60774C55.9195 2.60774 52.1274 6.40182 52.1274 11.0628C52.1274 15.7256 55.9195 19.5179 60.5806 19.5179C65.2435 19.5179 69.0357 15.7257 69.0357 11.0628Z" fill="#012E89" stroke="white" stroke-width="0.4"/>
<path d="M61.7853 9.65802V9.85802H61.9853H64.5381C65.2033 9.85802 65.7429 10.3976 65.7429 11.0628C65.7429 11.7279 65.2033 12.2676 64.5381 12.2676H60.5806C59.9154 12.2676 59.3758 11.7279 59.3758 11.0628V5.05138C59.3758 4.38623 59.9154 3.84661 60.5806 3.84661C61.2457 3.84661 61.7853 4.38623 61.7853 5.05138V9.65802Z" fill="#012E89" stroke="white" stroke-width="0.4"/>
</svg>
