<svg width="55" height="62" viewBox="0 0 55 62" fill="none" xmlns="http://www.w3.org/2000/svg">
<path d="M12.9051 20.2418C13.2974 20.625 13.3065 21.2524 12.9232 21.6447L9.68516 24.9894C9.30369 25.3817 8.67452 25.3926 8.2822 25.0093L7.32941 24.0836C6.93709 23.704 6.92624 23.0766 7.30591 22.6825C7.68557 22.2902 8.31293 22.2793 8.70706 22.659L8.94933 22.894L11.4985 20.258C11.8818 19.8675 12.511 19.8585 12.9051 20.2418ZM4.54517 27.1969V18.0523C4.54517 17.5027 4.99174 17.0562 5.54135 17.0562H14.6877C15.2374 17.0562 15.6839 17.5027 15.6839 18.0523V27.1987C15.6839 27.7483 15.2374 28.1949 14.6877 28.1949H5.54135C4.99174 28.1931 4.54517 27.7483 4.54517 27.1969ZM6.53753 26.2007H13.6916V19.0485H6.53753V26.2007ZM18.8135 19.0485H40.7131C41.2627 19.0485 41.7093 18.6019 41.7093 18.0523C41.7093 17.5027 41.2627 17.0562 40.7131 17.0562H18.8135C18.2639 17.0562 17.8173 17.5027 17.8173 18.0523C17.8173 18.6019 18.2639 19.0485 18.8135 19.0485ZM18.8135 23.6226H35.857C36.4066 23.6226 36.8532 23.176 36.8532 22.6264C36.8532 22.0768 36.4066 21.6303 35.857 21.6303H18.8135C18.2639 21.6303 17.8173 22.0768 17.8173 22.6264C17.8173 23.176 18.2639 23.6226 18.8135 23.6226ZM30.6103 42.1215V45.2619C30.6103 45.779 30.209 46.2147 29.6883 46.2545L26.6654 46.4841C26.5768 46.7752 26.4755 47.0554 26.3616 47.3266C26.2477 47.6032 26.1194 47.8744 25.9766 48.142L27.9074 50.3874C28.2925 50.7779 28.2925 51.4053 27.9038 51.794L25.6819 54.0142C25.3185 54.3758 24.7291 54.4029 24.3331 54.0648L22.0316 52.0887C21.7677 52.2279 21.4965 52.3563 21.2162 52.472H21.2126C20.9378 52.5841 20.6594 52.6853 20.3719 52.7721L20.1459 55.748C20.1333 56.2868 19.6921 56.7189 19.1498 56.7189H16.0075C15.4923 56.7189 15.0548 56.3193 15.0168 55.7968L14.7872 52.7721C14.4961 52.6853 14.2141 52.5823 13.9429 52.4702C13.6626 52.3527 13.3896 52.2243 13.1293 52.0851L10.8838 54.0142C10.4933 54.4011 9.86596 54.4011 9.47725 54.0106L7.25528 51.7904C6.89369 51.4252 6.86477 50.8376 7.20466 50.4399L9.18075 48.1383C9.03792 47.8726 8.90955 47.6014 8.79565 47.3248C8.68356 47.0518 8.58232 46.7697 8.49373 46.4805L5.51785 46.2563C4.97908 46.2418 4.54698 45.8007 4.54698 45.2601V42.1179C4.54698 41.6026 4.94654 41.1651 5.46903 41.1271L8.49373 40.8975C8.57689 40.6281 8.6691 40.3642 8.77396 40.1075L8.79565 40.0532C8.91136 39.7766 9.03792 39.5072 9.18075 39.2396L7.25167 36.9924C6.86477 36.6037 6.86477 35.9745 7.25528 35.5876L9.47544 33.3674C9.84064 33.0058 10.4282 32.9769 10.826 33.315L13.1293 35.2929C13.3752 35.1627 13.6283 35.0416 13.8923 34.9313L13.9447 34.9078C14.2159 34.7957 14.4997 34.6927 14.7872 34.6059L15.0132 31.63C15.0276 31.0912 15.467 30.6591 16.0094 30.6591H19.1516C19.6668 30.6591 20.1043 31.0587 20.1423 31.5812L20.3737 34.6059C20.663 34.6927 20.945 34.7957 21.2162 34.9078C21.4929 35.0235 21.7659 35.1519 22.0298 35.2929L24.2771 33.362C24.6658 32.9751 25.295 32.9751 25.6819 33.3656L27.9038 35.5858C28.2654 35.951 28.2925 36.5386 27.9544 36.9363L25.9766 39.2378C26.1067 39.4873 26.2297 39.7404 26.3363 39.999L26.3598 40.0514C26.4737 40.3244 26.575 40.6064 26.6636 40.8957L29.6376 41.1199C30.1782 41.1398 30.6103 41.5791 30.6103 42.1215ZM28.618 43.0436L25.812 42.8302C25.3402 42.7941 24.9695 42.4343 24.9026 41.9859C24.8104 41.59 24.6821 41.1995 24.5248 40.818L24.5067 40.7692C24.344 40.3805 24.1487 40.0116 23.9282 39.6627C23.6877 39.2866 23.7347 38.8075 24.0113 38.4839L25.8464 36.3451L24.9261 35.4249L22.7873 37.2617C22.4348 37.5637 21.9286 37.5745 21.5652 37.316C21.2162 37.0954 20.8456 36.9038 20.4569 36.7447L20.4533 36.7429C20.0501 36.5765 19.6379 36.4464 19.2203 36.3524C18.7809 36.2547 18.4754 35.8823 18.4447 35.4556L18.2277 32.6497H16.9296L16.7181 35.4556C16.6819 35.9293 16.3221 36.2999 15.872 36.365C15.476 36.459 15.0855 36.5856 14.7058 36.7429L14.657 36.7609C14.2792 36.92 13.9103 37.1153 13.5505 37.3449C13.1528 37.5962 12.643 37.5311 12.3193 37.2147L10.233 35.4231L9.31273 36.3433L11.1496 38.4821C11.4515 38.8347 11.4624 39.3409 11.202 39.7025C10.9869 40.0478 10.7952 40.4202 10.6307 40.8144L10.6108 40.8614C10.4553 41.2447 10.3306 41.6424 10.2402 42.0492C10.1426 42.4867 9.77013 42.7923 9.34527 42.8248L6.53934 43.0399V44.338L9.34527 44.5514C9.81714 44.5857 10.1878 44.9455 10.2547 45.3957C10.3469 45.7898 10.4734 46.1821 10.6307 46.5618C10.8025 46.9722 11.0032 47.3591 11.231 47.7171C11.4714 48.0931 11.4244 48.5723 11.1478 48.8941L9.31273 51.0329L10.233 51.9549L12.37 50.118C12.7099 49.827 13.189 49.8053 13.5487 50.0349C13.923 50.2699 14.3099 50.4724 14.7022 50.6351L14.704 50.6369C15.1072 50.8014 15.5194 50.9334 15.9388 51.0274C16.3782 51.1251 16.6837 51.4975 16.7145 51.9224L16.9296 54.7283H18.2277L18.441 51.9224C18.4772 51.4505 18.837 51.0799 19.2854 51.013C19.6867 50.9208 20.0772 50.7942 20.4533 50.6387C20.8528 50.4706 21.2379 50.2699 21.6068 50.0349C22.0063 49.7836 22.5161 49.8469 22.838 50.1651L24.9261 51.9549L25.8464 51.0347L24.0095 48.8977C23.7076 48.5433 23.6967 48.0389 23.9553 47.6755C24.1722 47.332 24.3639 46.9596 24.5266 46.5636C24.6929 46.1623 24.8249 45.7482 24.9189 45.3306C25.0165 44.8913 25.389 44.5857 25.8156 44.555L28.6198 44.3399V43.0436H28.618ZM21.4838 39.7856C22.4836 40.7854 23.1019 42.1667 23.1019 43.6926C23.1019 45.2113 22.4854 46.5889 21.4856 47.5905L21.4802 47.596C20.4804 48.5958 19.0991 49.2141 17.5786 49.2141C16.0546 49.2141 14.6733 48.5976 13.6735 47.596C12.6737 46.5962 12.0536 45.2167 12.0536 43.6908C12.0536 42.1685 12.6737 40.789 13.6735 39.7893L13.6771 39.7856C14.6769 38.7858 16.0582 38.1657 17.5786 38.1657C19.1046 38.1693 20.484 38.7877 21.4838 39.7856ZM21.1078 43.6926C21.1078 42.7181 20.7136 41.834 20.0736 41.194C19.4354 40.5576 18.5531 40.1599 17.5768 40.1599C16.5987 40.1599 15.7147 40.5558 15.0765 41.1922C14.4401 41.8304 14.0441 42.7145 14.0441 43.6908C14.0441 44.6653 14.4401 45.5476 15.0801 46.1876C15.7201 46.8276 16.6006 47.2217 17.5768 47.2217C18.5549 47.2217 19.439 46.8276 20.0754 46.193L20.079 46.1876C20.7154 45.553 21.1078 44.6689 21.1078 43.6926ZM48.8868 44.423L40.7276 52.8553L38.8238 51.0148C38.4315 50.6351 37.8023 50.646 37.4227 51.0383C37.043 51.4306 37.0538 52.0598 37.4462 52.4394L40.0604 54.9688C40.4528 55.3484 41.0819 55.3376 41.4616 54.9453L50.3115 45.8007C50.6912 45.4083 50.6803 44.7792 50.288 44.3995C49.8939 44.0198 49.2665 44.0307 48.8868 44.423ZM54.4553 41.3766V51.9802H54.4535V52.0037C54.2637 59.0348 49.6281 60.2606 45.1245 61.4521L44.3634 61.6564C44.3254 61.6672 44.291 61.6762 44.2513 61.6853L44.0669 61.7341C43.8969 61.7829 43.7125 61.7865 43.5299 61.7359L43.4124 61.7034H0.996178C0.446562 61.7034 0 61.2568 0 60.7072L0.00361589 60.6168L0.0759337 7.93507C0.0759337 7.38726 0.522496 6.94251 1.0685 6.94251V6.93889H10.1408V5.26654C10.1408 4.71693 10.5873 4.27037 11.1369 4.27037H17.2062C17.6799 3.12232 18.4555 2.12795 19.4318 1.3885C20.5853 0.517072 22.0153 0 23.5593 0C25.1051 0 26.537 0.517072 27.6887 1.3885C28.6668 2.12614 29.4424 3.12051 29.9143 4.26856H35.9853C36.535 4.26856 36.9815 4.71512 36.9815 5.26474V6.93709H46.0538C46.6034 6.93709 47.05 7.38365 47.05 7.93326V38.3537C47.379 38.5165 47.7225 38.6738 48.0787 38.8274C49.9463 39.6247 52.0399 40.2141 53.4989 40.3805C54.0304 40.4021 54.4553 40.8415 54.4553 41.3766ZM19.439 4.27037H27.6833C27.3651 3.77137 26.9619 3.33023 26.49 2.97588C25.6746 2.35937 24.6586 1.99236 23.5611 1.99236C22.4637 1.99236 21.4477 2.35937 20.6305 2.97588C20.1604 3.33023 19.7554 3.76957 19.439 4.27037ZM12.1331 6.26272V9.60742H34.9892V7.93507C34.9892 7.93326 34.9892 7.93326 34.9892 7.93146V6.26272H12.1331ZM1.98874 59.7128H37.4353C35.0561 58.4473 33.2825 56.341 33.1414 52.1032L33.1342 51.9784V41.3748C33.136 40.874 33.5139 40.4419 34.0255 40.3877C35.4882 40.2304 37.6161 39.6356 39.509 38.8274C41.0548 38.1675 42.4035 37.3901 43.011 36.638L43.0707 36.5675L43.1141 36.5241C43.1936 36.4482 43.2858 36.3885 43.3816 36.3451L43.4088 36.3325C43.5335 36.28 43.6637 36.2565 43.7939 36.2565C43.9222 36.2565 44.0524 36.28 44.1771 36.3325L44.2079 36.3451C44.3037 36.3903 44.3941 36.4482 44.4736 36.5241C44.5134 36.5603 44.5423 36.5964 44.5785 36.638C44.7069 36.7953 44.8678 36.9562 45.0558 37.1153V8.93125H36.9815V10.6036C36.9815 11.1532 36.535 11.5998 35.9853 11.5998H11.1369C10.9652 11.5998 10.8025 11.5564 10.6615 11.4786C10.3523 11.3105 10.1408 10.9815 10.1408 10.6036V8.93125H2.05925L1.98874 59.7128ZM52.4666 51.9802L52.463 42.2354C50.9244 41.9624 49.0134 41.3875 47.3031 40.6571C46.7372 40.4166 46.1912 40.1545 45.6795 39.8797C45.6072 39.8489 45.5421 39.8146 45.4807 39.7712C44.8443 39.415 44.2675 39.0372 43.7939 38.6448C42.9025 39.3861 41.646 40.0785 40.2864 40.6571C38.5761 41.3875 36.6651 41.9624 35.1266 42.2354L35.1248 52.029C35.3056 57.5035 39.1944 58.5304 42.9694 59.5302L43.6528 59.7128H43.9349L44.6183 59.5302C48.4077 58.5286 52.3075 57.4963 52.4666 51.9802Z" fill="#012E89"/>
</svg>
