<svg width="62" height="62" viewBox="0 0 62 62" fill="none" xmlns="http://www.w3.org/2000/svg">
<path d="M17.8681 59.8358H5.0317V55.0085H17.9676V59.8358H17.8681ZM2.52589 44.3941C1.75209 43.237 1.75209 41.7888 2.61809 40.5378L11.0178 25.3817C11.3071 24.899 12.0755 24.7056 12.6576 24.899C13.238 25.1883 13.5236 25.7705 13.332 26.2532L8.79584 36.1933C8.50476 36.676 8.41075 37.0593 8.41075 37.6414V45.2655C8.41075 45.8423 8.79584 46.2255 9.37619 46.2255C9.95293 46.2255 10.3416 45.8423 10.3416 45.2655V37.6414C10.3416 37.0593 10.8244 36.676 11.5005 36.676C12.2725 36.676 12.9487 37.2509 12.9487 37.9325V45.2655C12.9487 45.5512 13.0409 45.8423 13.332 46.0339C14.9718 47.2904 15.845 49.2213 15.845 51.1522V53.0831H7.15604L2.52589 44.3941ZM18.8336 53.0831H17.6765V51.1522C17.6765 48.7386 16.6116 46.4226 14.7801 44.7828V37.9271C14.7801 36.1933 13.332 34.8427 11.5927 34.7451L15.0712 27.0216C15.6461 25.5788 14.8796 23.8396 13.4314 23.1652C11.9833 22.4908 10.244 23.0658 9.37619 24.4163L0.886083 39.5723C-0.278233 41.4038 -0.278234 43.6203 0.786646 45.4572L4.84006 53.0831H4.06626C3.49133 53.0831 3.10082 53.4664 3.10082 54.0485V60.8012C3.10082 61.3815 3.49133 61.7666 4.06626 61.7666H18.9276C19.5079 61.7666 19.893 61.3815 19.893 60.8012V54.0485C19.799 53.5658 19.4157 53.0831 18.8336 53.0831Z" fill="#012E89"/>
<path d="M59.2665 44.4917L54.7303 53.0776H46.0468V51.1522C46.0468 49.2213 47.0122 47.2904 48.5598 46.0339C48.7514 45.8422 48.9431 45.5511 48.9431 45.2601V37.927C48.9431 37.2509 49.6175 36.6759 50.3913 36.6759C50.968 36.6759 51.5483 37.1587 51.5483 37.6414V45.2601C51.5483 45.8422 51.9334 46.2255 52.5138 46.2255C53.0905 46.2255 53.4792 45.8422 53.4792 45.2601V37.6414C53.4792 37.1587 53.2876 36.6759 53.0905 36.1932L48.652 26.3472C48.4604 25.8644 48.7514 25.1883 49.3282 24.9966C49.9085 24.7055 50.6823 24.899 50.968 25.3817L59.4653 40.6299C60.0403 41.7888 60.0403 43.237 59.2665 44.4917ZM56.7606 59.8357H43.9242V55.0085H56.8528V59.8357H56.7606ZM60.9081 39.5723L52.4162 24.3223C51.5483 23.0657 49.8109 22.4854 48.3627 23.1652C46.8206 23.8395 46.1408 25.4793 46.7211 27.0215L50.1942 34.7451C48.3627 34.8373 47.0122 36.1932 47.0122 37.927V44.7828C45.1753 46.4226 44.1159 48.7386 44.1159 51.1522V53.083H42.9588C42.3766 53.083 41.9933 53.4663 41.9933 54.0431V60.8012C41.9933 61.3761 42.3766 61.7666 42.9588 61.7666H57.8183C58.4004 61.7666 58.7837 61.3761 58.7837 60.8012V54.0431C58.7837 53.4663 58.4004 53.083 57.8183 53.083H56.9523L61.0057 45.4571C62.0706 43.6203 62.0706 41.3061 60.9081 39.5723Z" fill="#012E89"/>
<path d="M30.8962 20.7516C28.9654 20.7516 27.5172 19.2094 27.5172 17.2786C27.5172 15.3477 29.0648 13.8995 30.8962 13.8995C32.8271 13.8995 34.3693 15.4417 34.3693 17.2786C34.2753 19.204 32.7277 20.7516 30.8962 20.7516ZM30.8962 11.9686C27.9005 11.9686 25.5863 14.3822 25.5863 17.2786C25.5863 20.2689 27.9999 22.6825 30.8962 22.6825C33.892 22.6825 36.3002 20.2689 36.3002 17.2786C36.2062 14.3822 33.892 11.9686 30.8962 11.9686Z" fill="#012E89"/>
<path d="M40.6445 29.4352L36.9744 27.6019C36.6833 27.5043 36.3977 27.5043 36.1066 27.6019C35.5263 27.893 34.9495 28.0846 34.4668 28.2781C34.1757 28.3757 33.9841 28.5673 33.8864 28.8584L32.6299 32.7148H29.3485L28.0992 28.8584C27.9998 28.5673 27.8081 28.3757 27.5171 28.2781C26.9403 28.0846 26.36 27.893 25.8772 27.6019C25.5862 27.5043 25.3005 27.5043 25.0094 27.6019L21.3411 29.4352L19.0251 27.1192L20.8584 23.4509C20.956 23.1652 20.956 22.8741 20.8584 22.583C20.5727 22.0081 20.3757 21.426 20.1822 20.9432C20.09 20.6522 19.893 20.4605 19.6073 20.3611L15.7455 19.1118V15.8304L19.6073 14.5757C19.893 14.4762 20.09 14.2846 20.1822 13.9935C20.3757 13.4168 20.5727 12.8364 20.8584 12.3537C20.956 12.0626 20.956 11.777 20.8584 11.4859L19.0251 7.81755L21.3411 5.50158L25.0094 7.33483C25.3005 7.43246 25.5862 7.43246 25.8772 7.33483C26.4576 7.04918 27.0343 6.85211 27.5171 6.65866C27.6165 6.36939 27.9058 6.08373 27.9998 5.79266L29.2563 1.93089H32.5359L33.7924 5.79266C33.8864 6.08373 34.0835 6.27538 34.3692 6.36939C34.9495 6.56646 35.5263 6.7581 36.0144 7.04918C36.3001 7.14138 36.5893 7.14138 36.8804 7.04918L40.5451 5.2105L42.8647 7.5319L41.0278 11.1966C40.9338 11.4859 40.9338 11.777 41.0278 12.0626C41.3189 12.6448 41.5106 13.2251 41.7022 13.7078C41.8016 13.9935 41.9933 14.1851 42.2844 14.2846L46.1407 15.5411V18.8207L42.476 20.2689C42.1849 20.3611 41.9933 20.5599 41.8993 20.8438C41.7076 21.426 41.5106 22.0081 41.2195 22.4908C41.1273 22.7747 41.1273 23.0658 41.2195 23.3568L43.0582 27.0215L40.6445 29.4352ZM44.9836 26.8299L43.0527 22.9681C43.2498 22.583 43.342 22.292 43.5409 21.9087L47.5943 20.5599C47.9776 20.4605 48.2632 20.0772 48.2632 19.5945V14.9589C48.2632 14.5757 47.9776 14.1906 47.5943 13.9935L43.5409 12.6448C43.4414 12.2597 43.2498 11.9686 43.0527 11.5853L44.9836 7.72354C45.1753 7.34026 45.0812 6.85754 44.7956 6.56646L41.5106 3.37905C41.2195 3.08797 40.7422 2.99576 40.3535 3.18741L36.4917 5.11829C36.1066 4.92665 35.8173 4.82721 35.4322 4.72778L34.0835 0.679787C33.9841 0.291079 33.693 0 33.2103 0H28.5819C28.1914 0 27.8081 0.291079 27.7087 0.674363L26.36 4.72778C25.9749 4.82721 25.6856 5.01886 25.3005 5.11829L21.4387 3.18741C21.05 2.99576 20.5727 3.08797 20.2817 3.37905L16.9966 6.7581C16.711 7.04918 16.6115 7.5319 16.8032 7.91518L18.7341 11.777C18.5424 12.162 18.4448 12.4513 18.2513 12.8364L14.1979 14.1851C13.8146 14.2846 13.5236 14.6679 13.5236 15.0584V19.6867C13.5236 20.0772 13.8146 20.4605 14.1979 20.5599L18.2513 21.9087C18.3508 22.292 18.5424 22.583 18.7341 22.9681L16.8032 26.8299C16.6115 27.2132 16.711 27.6959 16.9966 27.987L20.2817 31.2666C20.5727 31.5577 21.05 31.6571 21.4387 31.4637L25.3005 29.5328C25.6856 29.7262 25.9749 29.8184 26.36 30.0155L27.7087 34.0707C27.8081 34.454 28.1914 34.7451 28.5819 34.7451H33.2103C33.5954 34.7451 33.9841 34.454 34.0835 34.0707L35.4322 30.0155C35.8173 29.9179 36.1066 29.7262 36.4917 29.6268L40.3535 31.5577C40.7368 31.7493 41.2195 31.6571 41.5106 31.366L44.7902 28.0846C45.0812 27.6959 45.1753 27.2186 44.9836 26.8299Z" fill="#012E89"/>
<path d="M28.1915 41.3062C27.6166 41.3062 27.2261 41.6949 27.2261 42.2716V56.6538C27.2261 57.2305 27.6166 57.6192 28.1915 57.6192C28.7737 57.6192 29.157 57.2305 29.157 56.6538V42.2716C29.157 41.7889 28.6742 41.3062 28.1915 41.3062Z" fill="#012E89"/>
<path d="M33.5954 41.3062C33.0187 41.3062 32.6299 41.6949 32.6299 42.2716V56.6538C32.6299 57.2305 33.0187 57.6192 33.5954 57.6192C34.1757 57.6192 34.5608 57.2305 34.5608 56.6538V42.2716C34.5608 41.7889 34.1757 41.3062 33.5954 41.3062Z" fill="#012E89"/>
<path d="M22.6953 35.1283C22.1131 35.1283 21.7299 35.5188 21.7299 36.0937V50.4778C21.7299 51.0527 22.1131 51.4432 22.6953 51.4432C23.272 51.4432 23.6553 51.0527 23.6553 50.4778V36.0937C23.6553 35.611 23.272 35.1283 22.6953 35.1283Z" fill="#012E89"/>
<path d="M39.1025 35.1283C38.5203 35.1283 38.137 35.5188 38.137 36.0937V50.4778C38.137 51.0527 38.5203 51.4432 39.1025 51.4432C39.6792 51.4432 40.0625 51.0527 40.0625 50.4778V36.0937C40.0625 35.611 39.5798 35.1283 39.1025 35.1283Z" fill="#012E89"/>
</svg>
