<svg width="62" height="62" viewBox="0 0 62 62" fill="none" xmlns="http://www.w3.org/2000/svg">
<path d="M59.0784 57.144L59.0783 57.1444C58.9872 57.3618 58.8775 57.5663 58.7474 57.7615C58.6174 57.9565 58.4704 58.137 58.3028 58.3029C58.1374 58.4683 57.957 58.617 57.7636 58.7472L57.7633 58.7474C57.5679 58.8776 57.3615 58.9874 57.1458 59.0766L57.1455 59.0767C56.9286 59.1657 56.7054 59.2346 56.4762 59.2794C56.2454 59.3259 56.0147 59.3482 55.7787 59.3482H6.00961C5.77549 59.3482 5.5448 59.3259 5.31406 59.2794C5.08296 59.2346 4.8597 59.1657 4.64434 59.0766C4.42868 58.9874 4.22221 58.8776 4.02687 58.7474L4.0265 58.7472C3.83316 58.617 3.65288 58.4684 3.48752 58.303M59.0784 57.144L2.60706 56.4549L2.50903 56.4747C2.50904 56.4747 2.50905 56.4748 2.50906 56.4748C2.55547 56.705 2.62238 56.9281 2.71172 57.144L2.71189 57.1444C2.80293 57.3618 2.91263 57.5663 3.04273 57.7615C3.17277 57.9565 3.3198 58.1371 3.48752 58.303M59.0784 57.144C59.1678 56.9281 59.2347 56.705 59.2811 56.4748L59.0784 57.144ZM3.48752 58.303C3.48759 58.3031 3.48766 58.3032 3.48772 58.3032L3.55804 58.2321L3.48733 58.3028C3.48739 58.3029 3.48746 58.303 3.48752 58.303ZM2.71172 4.64434L2.71188 4.64395C2.80293 4.42654 2.91263 4.22203 3.04273 4.02687C3.17277 3.83182 3.31979 3.65122 3.48751 3.48534M2.71172 4.64434L5.33344 2.60706L5.31444 2.50888C5.31431 2.5089 5.31418 2.50893 5.31405 2.50895C5.08296 2.55371 4.8597 2.62261 4.64434 2.71172C4.42868 2.80096 4.22221 2.9107 4.02687 3.04092L4.0265 3.04117C3.83316 3.17131 3.65287 3.32 3.48751 3.48534M2.71172 4.64434C2.62237 4.86028 2.55546 5.08342 2.50905 5.3136L2.71172 4.64434ZM3.48751 3.48534C3.48758 3.48527 3.48765 3.4852 3.48772 3.48512L3.55804 3.55623L3.48733 3.48552C3.48739 3.48546 3.48745 3.4854 3.48751 3.48534ZM59.0783 4.64395L59.0784 4.64434C59.1678 4.86026 59.2347 5.08337 59.2811 5.31352L59.0783 4.64395ZM59.0783 4.64395C58.9872 4.42655 58.8775 4.22203 58.7474 4.02687C58.6174 3.83181 58.4703 3.65121 58.3026 3.48532L59.0783 4.64395ZM3.74972 0.551714L3.74972 0.551716L3.75027 0.551485C4.10733 0.402266 4.47698 0.290276 4.85754 0.213793C5.23833 0.139073 5.62232 0.1 6.00961 0.1H55.7787C56.1678 0.1 56.5518 0.139071 56.9325 0.213781C57.3131 0.290265 57.6828 0.402259 58.0399 0.551487L58.0404 0.551714C58.3991 0.699087 58.7386 0.882091 59.0624 1.09739C59.3842 1.3125 59.6829 1.55784 59.9567 1.83165C60.2323 2.10724 60.4758 2.40413 60.6928 2.72782C60.9078 3.04937 61.0891 3.39065 61.2386 3.74825C61.3862 4.10772 61.4999 4.47739 61.5745 4.85732L61.5746 4.85776C61.651 5.23803 61.6883 5.62195 61.6883 6.00961V55.7787C61.6883 56.1664 61.651 56.5503 61.5746 56.9306L61.5745 56.931C61.4999 57.311 61.3862 57.6806 61.2386 58.0401C61.0891 58.3977 60.9078 58.739 60.6928 59.0605C60.4758 59.3842 60.2323 59.6811 59.9567 59.9567C59.6829 60.2305 59.3842 60.4758 59.0624 60.6909C58.7386 60.9062 58.3991 61.0892 58.0404 61.2366L58.0399 61.2369C57.6828 61.3861 57.3131 61.4981 56.9326 61.5746C56.5518 61.6493 56.1678 61.6883 55.7787 61.6883H6.00961C5.62231 61.6883 5.23831 61.6493 4.85751 61.5745C4.47696 61.4981 4.10732 61.3861 3.75027 61.2369L3.74972 61.2366C3.391 61.0892 3.05149 60.9062 2.72757 60.6908C2.40585 60.4758 2.10723 60.2305 1.83346 59.9567C1.55789 59.6811 1.31436 59.3843 1.09739 59.0606C0.882431 58.7391 0.701073 58.3978 0.551606 58.0402C0.40391 57.6807 0.290215 57.311 0.215645 56.931L0.215557 56.9306C0.139162 56.5504 0.101793 56.1664 0.1 55.7785V6.00984C0.101793 5.62195 0.139162 5.23796 0.215558 4.85776L0.215644 4.85732C0.290214 4.47737 0.403909 4.10768 0.551603 3.74818C0.701055 3.39061 0.882391 3.04935 1.09732 2.72782C1.31431 2.40413 1.55787 2.10724 1.83346 1.83165C2.10724 1.55787 2.40587 1.31256 2.7276 1.09747C3.05151 0.882134 3.39101 0.699105 3.74972 0.551714ZM56.4761 2.50895C56.476 2.50894 56.4759 2.50892 56.4759 2.50891L56.4568 2.60676L56.4765 2.50903C56.4763 2.509 56.4762 2.50898 56.4761 2.50895Z" fill="transparent" stroke="#012E89" stroke-width="2"/>
<path d="M29.5778 26.8828L29.578 26.8831C29.6638 27.088 29.727 27.3003 29.771 27.5203C29.8149 27.7397 29.836 27.9609 29.836 28.1841C29.836 28.4074 29.8149 28.6286 29.771 28.846L29.771 28.8461C29.727 29.0661 29.6638 29.2785 29.578 29.4834L29.5778 29.4837C29.4917 29.6912 29.3881 29.886 29.2635 30.072C29.1387 30.2584 28.9982 30.4304 28.8403 30.5883C28.6816 30.7452 28.5114 30.8873 28.326 31.0097L28.3255 31.01C28.1391 31.1349 27.9444 31.2401 27.7378 31.3241L27.7378 31.3241L27.7368 31.3245C27.5315 31.4105 27.3193 31.4754 27.1003 31.5174L27.0996 31.5176C26.8797 31.5615 26.6603 31.5843 26.4358 31.5843C26.213 31.5843 25.9918 31.5615 25.774 31.5176L25.773 31.5174C25.5541 31.4754 25.3419 31.4105 25.1365 31.3245L25.1356 31.3241C24.929 31.2401 24.7343 31.1349 24.5479 31.01L24.5473 31.0097C24.3616 30.887 24.1896 30.7449 24.0332 30.5885C23.875 30.4302 23.7329 30.2583 23.6102 30.0726L23.6099 30.072C23.4853 29.886 23.3817 29.6912 23.2955 29.4837L23.2954 29.4834C23.2096 29.2785 23.1464 29.0661 23.1024 28.8461L23.1023 28.846C23.0585 28.6286 23.0374 28.4074 23.0374 28.1841C23.0374 27.9609 23.0585 27.7397 23.1024 27.5204C23.1464 27.3003 23.2096 27.088 23.2954 26.8831L23.2955 26.8828C23.3817 26.6753 23.4853 26.4805 23.6099 26.2944L23.6099 26.2944L23.6102 26.2939C23.7327 26.1085 23.8747 25.9383 24.0332 25.7798L24.0336 25.7794C24.1895 25.6217 24.3615 25.4813 24.5479 25.3564C24.7338 25.2319 24.9286 25.1283 25.1361 25.0422C25.3418 24.9578 25.5543 24.8928 25.7738 24.8489L25.774 24.8489C25.9913 24.8051 26.2125 24.784 26.4358 24.784C26.6608 24.784 26.8802 24.805 27.0996 24.8489C27.319 24.8928 27.5316 24.9578 27.7373 25.0422C27.9447 25.1283 28.1395 25.2319 28.3255 25.3564C28.5116 25.4811 28.682 25.6216 28.8401 25.7798C28.9983 25.938 29.1388 26.1083 29.2635 26.2944C29.3881 26.4805 29.4917 26.6753 29.5778 26.8828ZM26.8399 29.1629L26.8399 29.1629L26.8412 29.1624C26.9708 29.1085 27.0867 29.0306 27.1845 28.9328C27.2842 28.8331 27.3602 28.7191 27.414 28.5895C27.4677 28.4603 27.4958 28.3243 27.4958 28.1841C27.4958 28.0421 27.4677 27.9079 27.414 27.7788C27.3606 27.6501 27.2848 27.534 27.1845 27.4354C27.0859 27.3351 26.9698 27.2593 26.8412 27.2059C26.712 27.1523 26.5779 27.1241 26.4358 27.1241C26.2959 27.1241 26.1599 27.1521 26.0322 27.2059C25.9036 27.2593 25.7875 27.3351 25.6889 27.4354C25.5893 27.5333 25.5112 27.6493 25.4591 27.7794C25.4056 27.9083 25.3776 28.0423 25.3776 28.1841C25.3776 28.324 25.4056 28.46 25.4593 28.5877C25.5129 28.7165 25.5887 28.8328 25.6893 28.9314C25.7889 29.0309 25.9028 29.1068 26.0322 29.1606L26.0648 29.0821L26.0322 29.1606C26.1613 29.2142 26.2954 29.2424 26.4358 29.2424C26.5778 29.2424 26.7115 29.2142 26.8399 29.1629Z" fill="#012E89" stroke="white" stroke-width="0.2"/>
<path d="M32.2105 33.5703L32.2103 33.5706C32.1245 33.7755 32.0613 33.9878 32.0173 34.2078C31.9734 34.4271 31.9523 34.6466 31.9505 34.872C31.9506 35.0947 31.9734 35.3157 32.0173 35.5335L32.0174 35.5344L32.0174 35.5344C32.0595 35.7533 32.1243 35.9656 32.2105 36.173L32.2106 36.1734C32.2948 36.3786 32.4 36.575 32.5246 36.7592L32.5252 36.7601L32.5252 36.7601C32.648 36.9461 32.7884 37.118 32.9463 37.276C33.1043 37.4339 33.2764 37.5745 33.4628 37.6993C33.6471 37.8222 33.8437 37.9275 34.0492 38.0136C34.2568 38.0981 34.4694 38.163 34.6887 38.2069L34.6889 38.2069C34.9062 38.2507 35.1274 38.2718 35.3507 38.2718C35.574 38.2718 35.7952 38.2507 36.0145 38.2069C36.2345 38.1629 36.4469 38.0996 36.6518 38.0138L36.652 38.0137C36.8595 37.9275 37.0544 37.8239 37.2404 37.6993C37.4265 37.5747 37.5969 37.4342 37.7551 37.276C37.9133 37.1178 38.0537 36.9475 38.1784 36.7613C38.303 36.5754 38.4065 36.3806 38.4927 36.1732C38.5771 35.9675 38.642 35.7549 38.6859 35.5354C38.7298 35.3161 38.7509 35.0949 38.7509 34.8716C38.7509 34.6483 38.7298 34.4272 38.686 34.2098L38.6859 34.2097C38.6419 33.9896 38.5787 33.7773 38.4929 33.5724L38.4928 33.5721C38.4066 33.3646 38.303 33.1698 38.1784 32.9838L38.1783 32.9836C38.0556 32.7995 37.9134 32.6273 37.7567 32.4689C37.5988 32.311 37.4268 32.1706 37.2405 32.0458C37.0561 31.9228 36.8592 31.8174 36.6536 31.7313M32.2105 33.5703L36.6536 31.7313M32.2105 33.5703C32.2964 33.3633 32.4018 33.1683 32.525 32.9817C32.6496 32.7956 32.79 32.6254 32.9481 32.4673C33.1061 32.3094 33.2781 32.1689 33.4645 32.044C33.6489 31.9211 33.8456 31.8157 34.0528 31.7297C34.2584 31.6453 34.4709 31.5804 34.6902 31.5365M32.2105 33.5703L34.6902 31.5365M36.6536 31.7313C36.4487 31.6455 36.2363 31.5822 36.0163 31.5382C35.7971 31.4944 35.5775 31.4732 35.3539 31.4715C35.1296 31.4715 34.9084 31.4943 34.6902 31.5365M36.6536 31.7313L34.6902 31.5365M35.3543 35.9317L35.3558 35.9317C35.4942 35.9297 35.6279 35.9039 35.7579 35.8499C35.8874 35.7961 36.0015 35.72 36.1012 35.6203C36.2009 35.5206 36.2769 35.4066 36.3308 35.277C36.3844 35.1479 36.4125 35.0137 36.4125 34.8716C36.4125 34.7324 36.3866 34.5964 36.3326 34.4663C36.2787 34.3365 36.2009 34.221 36.1037 34.1219L36.1037 34.1219L36.103 34.1211C36.0029 34.021 35.8872 33.9455 35.7591 33.8903L35.7591 33.8903L35.7579 33.8898C35.6278 33.8357 35.4917 33.8098 35.3525 33.8098C35.2116 33.8098 35.0756 33.8357 34.9453 33.8898C34.8157 33.9436 34.6998 34.0215 34.602 34.1193C34.5025 34.2189 34.4246 34.3347 34.3707 34.4645C34.3166 34.5947 34.2907 34.7307 34.2907 34.8716C34.2907 35.0118 34.3188 35.1478 34.3725 35.277C34.426 35.4058 34.5018 35.522 34.6023 35.6207C34.7016 35.7198 34.8174 35.7979 34.9478 35.8501C35.0769 35.9037 35.2127 35.9317 35.3543 35.9317Z" fill="#012E89" stroke="white" stroke-width="0.2"/>
<path d="M26.0832 38.3265L26.1112 38.2305C25.9628 38.1872 25.8279 38.1173 25.706 38.0204L25.6612 38.0768L25.706 38.0204C25.5846 37.924 25.4867 37.8078 25.4117 37.6713C25.338 37.5338 25.2916 37.389 25.275 37.2364L25.176 37.2471L25.275 37.2365C25.2582 37.0805 25.2701 36.9292 25.3132 36.7817L25.3132 36.7814C25.3566 36.6313 25.4263 36.4969 25.5245 36.3753L25.5249 36.375L34.4398 25.2308L34.44 25.2305C34.5366 25.109 34.6529 25.0109 34.788 24.9358C34.925 24.8607 35.0695 24.8143 35.224 24.7977L35.2241 24.7977C35.3772 24.781 35.5288 24.7942 35.6796 24.836C35.8289 24.8792 35.9634 24.9506 36.0835 25.0473L36.084 25.0477C36.2055 25.1443 36.3035 25.2606 36.3785 25.3972L36.3788 25.3977C36.4532 25.5317 36.4984 25.678 36.5169 25.8322C36.5335 25.9873 36.5201 26.1385 36.4769 26.2865L36.4768 26.2868C36.4335 26.4368 36.3637 26.5713 36.2655 26.6928L36.2652 26.6932L27.3502 37.8374L27.35 37.8377C27.2534 37.9592 27.1371 38.0573 27.0021 38.1323C26.8658 38.2071 26.7212 38.2521 26.5655 38.2706C26.4124 38.2871 26.2611 38.2739 26.1109 38.2305L26.0832 38.3265ZM26.0832 38.3265C26.2459 38.3735 26.4104 38.388 26.5767 38.3699L25.2172 36.7536C25.1702 36.9145 25.1575 37.0791 25.1756 37.2472C25.1937 37.4135 25.2443 37.5708 25.3238 37.7191C25.4052 37.8673 25.5119 37.9939 25.6438 38.0987C25.7758 38.2036 25.9223 38.2795 26.0832 38.3265ZM35.7069 24.7398C35.5441 24.6946 35.3796 24.6802 35.2133 24.6982C35.0452 24.7163 34.8879 24.7669 34.7396 24.8483L35.7069 24.7398Z" fill="#012E89" stroke="white" stroke-width="0.2"/>
<path d="M43.4063 29.1192V29.0192V13.9663C43.4063 13.8116 43.3765 13.6618 43.3181 13.5182C43.2581 13.3749 43.1732 13.2485 43.0632 13.1385L43.0626 13.1379C42.9551 13.0287 42.829 12.9455 42.6849 12.8852C42.5417 12.8252 42.3921 12.7953 42.2371 12.7953H19.5529C19.3979 12.7953 19.2484 12.8252 19.1051 12.8852C18.961 12.9455 18.8349 13.0287 18.7274 13.1379L18.7268 13.1385C18.6168 13.2485 18.532 13.3748 18.4719 13.5181C18.4136 13.6617 18.3837 13.8115 18.3837 13.9663V29.0192V29.1192H18.2837H12.9701C12.7437 29.1192 12.5361 29.1805 12.3438 29.3008C12.1535 29.4228 12.0092 29.5856 11.9125 29.7905L11.9124 29.7908C11.8159 29.9937 11.7826 30.2076 11.811 30.4332L11.8111 30.4339C11.8377 30.6567 11.9239 30.8559 12.0676 31.0314L29.9931 52.797C30.0486 52.8642 30.1083 52.9239 30.1758 52.9766C30.2446 53.0285 30.318 53.0735 30.3959 53.1099L30.3975 53.1107C30.4742 53.1483 30.5534 53.1749 30.6394 53.1951C30.7252 53.2136 30.81 53.2235 30.8941 53.2235C30.98 53.2235 31.0649 53.2136 31.1506 53.1951C31.2366 53.1749 31.3158 53.1483 31.3925 53.1107L31.3941 53.1099C31.4721 53.0735 31.5454 53.0285 31.6142 52.9766C31.6816 52.9239 31.7414 52.8642 31.7968 52.797L43.4063 29.1192ZM43.4063 29.1192H43.5063M43.4063 29.1192H43.5063M43.5063 29.1192H48.7199V29.1301H48.8199C49.0469 29.1301 49.2543 29.1899 49.4461 29.3116C49.6365 29.4336 49.7808 29.5964 49.8755 29.7992L49.8757 29.7995C49.9725 30.005 50.0073 30.2191 49.979 30.4441L49.9789 30.4447M43.5063 29.1192L49.9789 30.4447M49.9789 30.4447C49.9523 30.6675 49.8662 30.8666 49.7226 31.042L49.9789 30.4447ZM49.7224 31.0423L31.7969 52.797L49.7224 31.0423ZM30.8169 50.1201L30.8941 50.2138L30.9713 50.1201L46.2068 31.6212L46.3416 31.4576H46.1297H42.2371C42.0815 31.4576 41.932 31.4292 41.7894 31.3695C41.6454 31.3092 41.519 31.226 41.4093 31.1163C41.2996 31.0066 41.2163 30.8802 41.156 30.7362C41.0964 30.5936 41.068 30.4441 41.068 30.2884V15.2355V15.1355H40.968H20.822H20.722V15.2355V30.2884C20.722 30.4432 20.6922 30.593 20.6338 30.7366C20.5738 30.8798 20.4889 31.0063 20.3804 31.1166C20.2708 31.2261 20.1445 31.3093 20.0006 31.3695C19.858 31.4292 19.7085 31.4576 19.5529 31.4576H15.6604H15.4485L15.5832 31.6212L30.8169 50.1201Z" fill="#012E89" stroke="white" stroke-width="0.2"/>
</svg>
