<svg width="25" height="25" viewBox="0 0 25 25" fill="none" xmlns="http://www.w3.org/2000/svg">
<path d="M12.975 24.05C19.6162 24.05 25 18.6662 25 12.025C25 5.38378 19.6162 0 12.975 0C6.33373 0 0.949951 5.38378 0.949951 12.025C0.949951 18.6662 6.33373 24.05 12.975 24.05Z" fill="#EA2029"/>
<path d="M20.0755 8.64161C19.9984 8.35548 19.8477 8.09453 19.6384 7.88475C19.429 7.67496 19.1684 7.52365 18.8825 7.44588C17.8222 7.15474 13.5802 7.15 13.5802 7.15C13.5802 7.15 9.33899 7.14526 8.278 7.42354C7.99222 7.50489 7.73215 7.65834 7.52276 7.86915C7.31337 8.07997 7.16168 8.34107 7.08227 8.6274C6.80264 9.68771 6.79993 11.8869 6.79993 11.8869C6.79993 11.8869 6.79722 14.0969 7.07482 15.1464C7.23055 15.7266 7.68758 16.185 8.26852 16.3414C9.33967 16.6326 13.5701 16.6373 13.5701 16.6373C13.5701 16.6373 17.812 16.642 18.8723 16.3644C19.1584 16.2868 19.4192 16.1358 19.6291 15.9265C19.8389 15.7171 19.9904 15.4566 20.0687 15.1707C20.349 14.1111 20.3511 11.9126 20.3511 11.9126C20.3511 11.9126 20.3646 9.70193 20.0755 8.64161ZM12.2234 13.9242L12.2268 9.86172L15.7523 11.8964L12.2234 13.9242Z" fill="white"/>
</svg>
