<svg width="1920" height="819" viewBox="0 0 1920 819" fill="none" xmlns="http://www.w3.org/2000/svg">
<path fill-rule="evenodd" clip-rule="evenodd" d="M1911.21 477.385L1905.21 471.477C1902.6 468.329 1903.42 468.205 1899.6 465.172C1889.5 457.146 1894.58 468.175 1882.77 458.407C1886.06 451.277 1883.32 457.906 1885.63 456.347C1889.45 453.774 1885.26 460.746 1888.86 454.027C1861.76 444.684 1849.5 449.011 1849.92 441.366C1850.33 433.931 1853.6 444.855 1850.26 439.428C1844.73 432.563 1838.92 438.442 1832.52 430.27C1831.48 428.934 1823.81 411.442 1803.52 410.23C1805.18 408.108 1804.51 408.684 1805.55 405.85L1797.49 402.85L1797.43 411.69C1802.8 410.665 1799.1 411.806 1803.52 410.23C1805.46 413.673 1803.68 410.846 1808.23 414.146C1816.34 420.015 1828.61 430.916 1827.99 439.302C1826.91 453.879 1814.64 454.695 1813.12 463.533C1812.18 469.019 1817.16 470.29 1809.76 473.27C1801.15 476.739 1794.33 471.19 1791.51 470.123L1787.11 468.966C1780.09 466.433 1784.12 464.218 1775.08 459.866C1775.08 467.611 1774.98 468.487 1773.05 474.466C1761.62 470.525 1767.72 476.081 1764.51 468.917C1763.23 466.058 1762.89 461.344 1762.89 456.947C1756.12 460.508 1758.82 458.448 1758.82 475.925C1744.08 481.529 1748.22 486.116 1745.4 494.444C1744.82 496.156 1735.72 510.03 1725.72 511.999L1699.9 515.343C1698.96 509.174 1701.9 510.962 1689.74 510.962C1689.74 501.96 1686.47 505.085 1683.64 496.364L1679.32 502.02C1676.57 504.998 1678.49 502.489 1676.64 504.489L1669.42 518.262L1663.55 512.263C1661.28 508.723 1661.39 506.848 1659.26 503.663C1650.37 508.342 1657.56 506.263 1649.1 515.342C1640.4 515.342 1637.88 513.667 1629.64 514.4C1622.76 515.012 1616.8 516.147 1610.32 516.697C1581.24 519.17 1594.02 514.908 1585 515.003C1581.42 515.041 1580.57 516.029 1575.96 516.802C1574.35 514.478 1573.87 519.487 1575.96 512.422C1566.24 517.537 1577.25 516.802 1557.67 516.802C1559.83 513.87 1559.41 514.174 1562.38 511.43C1566.53 507.607 1565.8 510.591 1567.83 505.123C1559.16 508.419 1559.09 510.548 1552.47 513.173C1542.06 517.301 1553.01 513.562 1545 513.306C1537.86 513.078 1543.76 513.724 1535.32 515.342V508.042C1522.82 510.441 1534.43 514.423 1519.06 515.342C1523.02 511.102 1523.17 513.383 1525.16 508.042L1517.03 506.583C1529.21 504.247 1536.54 496.482 1517.03 489.064C1514.31 493.805 1516.93 497.095 1519.06 503.663C1504.87 504.779 1518.34 504.662 1511.68 506.581C1506.74 508.002 1503.78 505.686 1497.94 501.33C1490.26 495.613 1493.93 503.319 1492.65 494.904H1468.27C1462.53 499.664 1457.42 505.254 1468.27 510.962C1470.18 508.046 1465.39 508.913 1474.36 499.284C1487.42 499.284 1496.1 503.849 1498.75 510.962C1489.61 511.68 1493.65 508.778 1492.65 515.343C1474.56 514.26 1494.23 510.745 1478.43 509.503C1474.71 515.276 1484.13 520.352 1472.51 521.291L1470.78 521.285C1470.6 521.312 1470.06 521.41 1469.87 521.452C1463.23 522.963 1470.76 523.466 1460.14 524.101L1458.58 519.299C1457.07 517.274 1453.87 515.417 1452.01 513.882L1447.77 521.055C1447.57 521.365 1447.33 521.744 1447.14 522.058L1444.07 527.156C1442.75 528.873 1441.61 529.488 1439.82 531.401H1425.6C1423.85 525.987 1421.86 526.853 1426.19 521.732C1429.47 517.858 1426.06 525.411 1429.66 518.262C1420.32 519.825 1420.89 518.559 1415.03 525.267L1410 531.871C1409.86 532.08 1409.62 532.553 1409.35 532.861C1407.92 528.997 1409.51 531.66 1407.31 528.481C1409.37 526.523 1409.35 531.552 1409.35 524.101H1407.31V528.481H1403.25C1403.99 522.113 1403.6 525.35 1408.44 520.53C1409.32 519.651 1411.26 517.533 1411.66 517.001C1422.72 501.968 1418.13 512.761 1433.73 506.583C1432.67 497.435 1428.67 503.156 1425.6 494.904H1421.54C1417.61 507.026 1409.29 500.053 1405.28 499.284C1407.11 502.119 1407.35 504.848 1403.05 509.282C1398.2 514.274 1403.1 509.864 1397.35 512.562C1393.3 514.461 1397.83 511.612 1393.7 514.322L1391.06 516.803L1387.4 513.591C1378.95 517.753 1378.91 520.881 1374.81 527.022L1356.52 519.723V527.022H1346.36C1348.2 529.685 1347.93 528.848 1348.39 532.862C1337.62 529.147 1332.49 536.474 1313.76 544.479C1313.24 544.703 1311.84 545.416 1311.29 545.622C1304.95 548.012 1315.39 546.762 1303.69 547.461C1312.15 538.382 1316.41 539.932 1328.07 534.322C1325.59 530.946 1326.25 531.909 1323.09 529.096C1321.09 527.321 1319.69 529.083 1318.58 523.581C1316.96 515.568 1323.65 522.544 1324.01 510.964C1317.1 509.807 1295.38 506.437 1288.63 507.078L1278.56 508.865C1270.22 510.859 1272.28 506.683 1271.18 513.884C1261.48 513.884 1262.76 512.892 1254.93 512.424L1257.21 518.207C1246.25 518.443 1240.48 522.151 1231.99 523.253C1222.93 524.429 1234.83 522.945 1226.26 523.28C1220.2 523.516 1221.6 523.557 1216.32 525.564C1216.78 524.147 1217.77 520.943 1218.45 519.793C1221.27 514.98 1230.45 512.483 1236.64 509.505C1232.12 501.463 1241.92 517.48 1232.96 506.299L1231.65 501.639C1231.42 491.997 1231.56 500.182 1228.51 491.986C1222.76 492.33 1214.64 494.845 1210.23 496.366C1211.99 490.381 1209.32 492.172 1212.26 487.607C1205.36 487.194 1204.82 486.494 1200.07 484.687C1198.36 486.515 1190.05 494.026 1187.84 494.881C1176.07 499.437 1175.16 491.29 1171.62 502.205H1167.56C1164.13 491.63 1175.73 485.601 1189.91 483.227C1188.12 478.407 1184.42 475.755 1177.72 474.468C1174.77 482.405 1172.78 478.996 1162.47 481.07C1147.61 484.061 1160.01 484.233 1143.17 483.227C1141.86 471.849 1135.99 475.329 1135.05 467.168C1128.11 470.821 1133.02 469.362 1133.02 478.847C1131.97 479.209 1128.88 480.269 1127.48 480.918C1127.18 481.054 1126.68 481.37 1126.4 481.502L1123.22 482.922C1120.16 483.892 1119.94 483.059 1118.79 486.147C1105.19 486.147 1101.02 482.527 1088.31 481.767C1083 485.388 1082.24 487.433 1077.61 491.596C1072.68 496.032 1071.48 497.672 1061.9 497.825C1061.3 492.663 1058.17 489.923 1053.77 487.606C1056.29 480.824 1056.97 486.315 1057.84 478.847C1049.73 478.717 1050.31 478.173 1045.64 475.927C1045.64 483.545 1045.98 485.122 1042.11 490.904C1040.55 493.226 1041.62 491.381 1040.21 493.923L1038.64 497.173C1038.49 497.466 1038.21 497.998 1038.08 498.234C1037.96 498.469 1037.8 498.968 1037.52 499.285C1042.26 503.937 1040.9 500.473 1045.64 505.125C1035.73 507.909 1044.61 502.601 1038.27 505.796C1038.05 505.906 1037.6 506.23 1037.37 506.364L1035.38 507.75C1030.35 510.913 1026.44 512.676 1019.23 513.884C1017.67 509.681 1015.89 510.076 1011.52 507.748L1008.3 505.677C1003.4 501.089 1010.11 499.497 996.881 499.286C1003.66 506.557 999.848 508.043 1000.81 515.666C1001.31 519.584 1003.31 513.173 1000.95 521.183L986.816 518.06L984.382 526.974C974.306 526.402 979.668 524.985 970.467 528.483V522.643C964.566 525.483 967.74 525.597 960.307 527.023C964.26 522.783 964.418 525.064 966.403 519.724C942.908 527.824 925.595 526.979 911.245 531.189C908.38 532.028 906.487 533.449 901.735 534.637C887.255 538.257 888.615 535.377 881.066 531.403C876.605 534.188 876.528 535.324 868.875 535.783C879.177 520.355 880.698 531.572 881.066 519.724C869.065 522.027 880.162 524.468 866.843 527.023C853.877 524.536 863.972 522.266 852.62 516.804C848.381 523.153 852.401 521.542 854.652 528.483C838.701 525.813 839.41 529.193 826.206 531.403C827.321 527.966 828.1 527.091 828.238 522.643C826.01 524.484 824.551 526.329 822.142 525.563C822.142 519.095 822.112 514.803 824.824 509.972C827.45 505.295 831.913 504.117 836.365 500.745C835.286 497.417 834.79 497.388 834.333 493.446H830.269C829.594 499.284 829.064 499.631 824.174 502.204C824.174 494.616 819.834 481.173 834.333 480.306V473.007C826.393 471.483 827.932 468.722 825.757 461.65C824.248 456.743 823.081 451.934 821.585 445.67C820.553 441.354 819.243 436.285 817.866 430.823C816.203 424.223 812.695 422.217 811.983 416.071H807.919C807.919 433.163 816.047 436.155 816.047 459.867C805.425 458.089 812.58 459.224 801.824 459.867C803.272 455.403 804.986 454.256 807.92 451.108C785.538 451.108 785.623 456.71 779.198 471.348C773.931 483.35 773.408 489.99 757.124 497.825C748.113 484.332 745.666 488.617 725.824 486.964C719.384 486.428 718.179 485.124 716.487 481.766H712.424C709.903 488.548 709.225 483.057 708.36 490.525C676.89 479.676 679.928 491.111 662.292 501.222C649.851 508.355 630.978 520.893 622.364 518.896C621.932 518.796 621.375 518.581 620.967 518.459L616.926 516.803C616.706 523.928 616.599 527.894 606.767 528.482C606.767 522.719 606.128 522.558 604.736 518.263L595.353 521.741C594.964 521.9 594.449 522.113 594.073 522.281C586.703 525.587 578.015 531.567 569.237 533.635C560.596 535.671 561.846 534.235 553.939 537.242V531.402C546.554 532.819 550.367 532.233 545.212 535.351C539.594 538.748 542.01 535.92 537.684 540.161C540.423 541.267 539.93 540.96 543.78 541.621C539.124 546.254 543.903 543.278 531.589 543.081C530.804 549.862 533.768 545.635 527.526 548.921C529.293 543.47 530.913 541.995 536.195 537.631L544.332 531.798C544.662 531.607 545.166 531.362 545.494 531.173C550.343 528.377 544.467 533.786 549.875 528.482C547.891 523.142 547.731 525.423 543.78 521.182C549.108 520.16 547.499 520.884 551.739 515.223C556.354 509.059 559.831 507.269 560.034 500.744L539.41 515.124C536.781 516.548 538.104 515.87 535.652 516.803C534.23 512.535 535.914 514.699 531.589 512.423C545.052 494.141 549.052 494.415 562.544 487.948C567.321 485.659 564.557 485.453 574.257 481.766C572.864 477.47 572.225 477.31 572.225 471.546C557.336 478.71 554.054 488.64 527.524 489.065C533.809 482.322 542.396 482.727 547.843 477.386C537.166 478.025 537.965 481.069 529.203 481.757C515.955 482.798 518.881 478.319 515.334 473.007C503.494 478.703 513.659 471.336 495.015 480.306C495.483 476.271 508.487 458.023 513.302 455.488C521.141 460.831 514.768 458.774 519.398 465.707C527.359 465.231 533.439 463.537 538.296 460.306C541.663 458.066 547.436 452.267 549.876 449.648C543.284 450.913 535.097 456.989 527.526 459.867C526.125 456.074 528.279 458.239 523.462 456.948C525.107 451.876 532.088 443.553 537.685 426.29C533.017 424.044 533.601 423.5 525.494 423.37C527.331 420.707 527.061 421.544 527.526 417.531C515.616 421.636 513.462 416.461 509.239 417.531C500.377 419.23 498.631 424.395 489.87 427.099C477.941 430.781 473.264 426.115 466.57 424.83C457.546 434.512 454.106 430.062 442.287 433.661C437.357 435.162 441.032 435.172 434.06 436.51C438.155 401.151 476.915 410.075 482.824 394.173C473.047 395.809 467.645 399.306 460.061 402.752C451.283 406.74 455.104 403.991 449.079 405.391C444.782 406.39 441.587 408.651 438.638 410.593C426.242 418.752 404.365 428.39 399.519 433.59C415.243 430.958 421.12 421.474 434.06 418.991C423.407 433.456 425.712 431.484 411.392 436.389L400.174 439.526C400.109 439.522 399.729 439.376 399.519 439.429C394.659 442.141 400.539 444.836 374.501 456.492C367.981 459.41 369.645 460.043 362.945 461.327C371.921 449.14 376.173 453.414 379.2 445.269C372.702 448.395 377.777 447.666 369.041 448.188C369.505 444.185 371.39 439.302 372.901 436.306L375.136 426.29C375.772 420.788 380.288 418.214 382.997 412.96C386.507 406.15 386.35 404.831 392.224 399.151C402.889 388.84 404.559 386.645 410.907 373.158C414.334 365.878 432.826 342.427 441.217 335.08C450.948 326.559 452.108 333.229 458.441 327.017C433.101 327.017 433.362 339.978 414.309 353.703C398.925 364.784 403.953 355.195 384.1 375.795L365.448 393.05C342.379 413.228 346.761 405.045 339.752 408.592C337.581 409.69 336.39 411.606 334.817 413.312C323.726 425.339 324.505 417.682 308.125 420.362C292.889 422.856 288.768 423.37 269.48 423.37C250.474 449.18 239.161 441.898 227.226 449.946C207.961 462.936 222.525 463.761 176.015 471.546C179.445 467.866 182.493 464.956 184.143 459.867H186.175L184.482 458.164L184.143 459.867C178.871 462.642 180.558 463.16 175.55 466.832C171.817 469.571 167.943 471.025 163.824 473.006C164.542 466.815 168.029 462.78 169.921 456.947C162.975 460.289 162.848 468.227 155.698 470.086C148.685 459.586 178.341 432.079 182.112 420.45C169.481 422.873 159.888 437.166 155.475 445.109C152.619 450.251 152.933 452.004 143.506 452.568C144.322 445.524 148.027 442.864 151.634 437.968C142.745 440.28 142.296 447.949 137.574 452.685C134.167 456.102 132.37 455.661 128.841 458.089L104.436 478.511C98.7612 485.085 100.689 489.969 88.6465 491.984L86.6628 488.704C86.4712 488.368 85.8357 487.303 85.6326 486.903C83.9827 483.653 82.9453 480.785 82.5515 477.386C75.635 479.77 71.5376 479.54 68.0872 474.552C65.7334 471.151 67.051 464.763 68.2131 463.408C73.7039 457.007 81.9651 457.878 76.4561 440.888H72.3923C70.8262 445.721 66.9419 450.088 62.2332 452.567C54.8098 448.995 58.353 448.573 52.0742 445.267C52.0742 455.946 53.3806 450.609 45.4744 455.124C34.1484 461.592 36.3257 469.313 18.1255 466.889C10.2056 465.834 10.9895 464.666 -0.729736 464.229C-22.6045 463.411 -19.2842 460.424 -36.4128 457.678C-56.447 454.465 -54.532 462.44 -72.6179 460.561C-85.8345 459.188 -97.3484 459.322 -110.48 456.951C-178.892 444.597 -148.496 453.302 -189.555 449.521C-206.663 447.945 -208.003 436.546 -208.003 459.866C-215.893 462.586 -224.498 462.786 -236.448 462.786L-226.248 459.895C-218.607 458.241 -220.216 459.493 -216.13 455.486C-223.691 455.486 -238.141 456.071 -243.925 457.62C-264.714 463.186 -228.236 464.243 -252.702 465.705L-256.766 458.406C-260.406 468.201 -265.342 469.131 -277.085 467.165C-279.511 463.394 -278.529 464.319 -277.085 459.865C-292.403 460.782 -279.792 461.385 -284.91 467.439C-291.887 475.693 -316.324 461.36 -333.977 458.406V454.026C-325.972 452.686 -321.954 452.337 -317.722 448.186C-330.856 448.186 -332.109 445.35 -338.627 446.342L-364.455 448.186C-365.585 438.424 -375.823 442.608 -385.391 443.453C-396.268 444.413 -399.979 441.066 -411.187 440.887C-411.739 458.692 -437.677 454.122 -443.697 454.026C-444.895 443.676 -452.74 444.681 -453.856 435.047C-461.914 439.289 -450.532 453.477 -449.792 459.865C-484.784 471.929 -494.047 455.331 -505.818 457.847C-507.205 458.145 -511.008 460.372 -512.833 461.219C-515.858 462.624 -517.974 463.221 -521.148 464.073C-529.615 466.346 -553.604 474.143 -551.418 460.12C-550.386 453.5 -541.092 451.29 -547.958 449.075C-552.249 447.691 -556.453 452.018 -565.608 452.566V445.266C-584.202 445.266 -601.011 460.95 -618.436 452.566C-619.274 459.796 -623.423 463.485 -630.996 465.536C-637.076 467.182 -637.055 466.165 -639.861 467.168C-639.896 467.18 -646.242 470.646 -648.734 471.635C-660.473 476.293 -662.508 472.73 -673.959 475.448C-677.065 476.185 -691.372 481.005 -694.806 482.367L-724.353 493.256C-740.378 498.234 -760.468 508.207 -776.92 510.961C-772.969 506.722 -772.81 509.002 -770.824 503.662C-776.012 501.874 -771.38 503.345 -776.558 502.663L-780.984 502.202C-778.642 495.899 -769.673 494.368 -764.729 489.062L-831.781 513.881C-833.275 509.272 -834.35 503.89 -835.844 499.282C-844.268 503.653 -824.53 512.37 -855.427 523.17C-867.634 527.437 -877.451 529.033 -890.226 525.22C-895.833 523.546 -895.019 523.751 -896.799 518.26C-906.351 518.859 -901.792 516.089 -900.863 524.1H-906.958C-910.044 517.413 -909.127 523.201 -910.758 525.369C-914.711 530.627 -907.629 529.25 -919.15 529.939C-920.873 524.627 -920.272 525.258 -925.246 522.64C-944.995 525.945 -927.336 533.947 -955.724 538.698C-958.43 530.354 -954.687 531.231 -953.692 522.64C-963.129 522.075 -957.246 524.205 -961.82 519.72L-968.237 522.543C-972.216 524.51 -971.718 521.41 -974.011 528.479C-969.379 529.255 -969.338 529.611 -963.852 529.939C-964.193 540.943 -981.321 543.079 -982.698 537.104C-983.619 533.107 -980.466 536.145 -978.075 531.399C-984.573 528.272 -979.498 529.002 -988.235 528.479C-988.235 511.491 -953.677 507.254 -936.569 499.906C-918.439 492.119 -917.355 489.713 -903.308 482.927C-895.495 479.153 -889.94 475.609 -882.201 471.815L-834.486 452.082C-822.998 447.61 -821.973 444.286 -807.4 446.725V449.645C-813.599 450.683 -814.036 450.764 -819 452.99C-824.958 455.662 -823.764 455.602 -831.782 456.944C-825.863 462.749 -811.689 454.487 -805.958 450.681C-798.969 446.041 -803.89 446.463 -793.889 443.295C-788.079 441.454 -782.85 440.978 -777.249 439.192C-766.268 435.692 -763.272 430.97 -747.086 428.746C-724.249 425.607 -724.094 433.979 -724.094 413.148L-673.298 402.929C-673.41 399.327 -674.521 397.222 -674.417 395.306C-674.134 390.084 -670.322 389.485 -674.591 387.762C-679.249 385.882 -686.053 386.87 -691.585 386.87C-695.936 391.539 -694.922 387.892 -695.648 394.17C-702.258 390.99 -700.174 391.761 -703.776 386.87C-700.707 382.703 -697.323 380.355 -695.648 375.191C-710.948 377.519 -693.604 373.764 -705.251 374.707L-728.977 380.442C-735.48 382.056 -736.225 382.815 -741.799 384.369C-751.708 387.131 -759.424 386.441 -768.646 389.941C-773.783 391.891 -772.324 393.583 -780.475 392.513C-789.003 391.394 -784.771 390.226 -791.146 386.87L-808.286 392.074C-816.499 394.473 -821.536 394.309 -823.655 400.01C-811.642 400.01 -806.171 396.257 -799.273 398.55C-807.216 407.073 -847.461 420.728 -862.286 426.269C-867.518 428.224 -869.587 429.519 -875.126 431.642C-883.78 434.959 -896.16 438.758 -900.865 443.807C-885.712 443.564 -887.681 439.842 -876.483 437.967C-878.5 443.394 -882.801 445.024 -889.278 447.752C-896.032 450.597 -900.27 452.754 -906.548 455.782C-931.718 467.922 -967.331 486.006 -997.891 489.425C-1008.52 490.614 -1012.33 490.149 -1012.62 499.283C-1021.17 496.031 -1020.74 498.296 -1020.74 489.063C-1031.33 488.894 -1034.11 485.868 -1041.06 483.224C-1039.59 478.693 -1038.47 478.995 -1037 474.465C-1051.82 477.308 -1045.88 483.722 -1045.43 487.799C-1045 491.617 -1045.57 491.954 -1048.76 493.663C-1053.59 496.25 -1048.98 493.798 -1053.08 495.016C-1053.56 495.156 -1054.13 495.252 -1054.6 495.389L-1065.66 499.238C-1077.92 503.205 -1074.41 500.896 -1071.54 506.582C-1089.69 509.619 -1089.85 525.049 -1142.22 513.567C-1146.68 512.589 -1147.41 511.866 -1152.82 510.961C-1154.29 514.917 -1152.13 513.776 -1157.48 515.117C-1160.76 515.938 -1165.28 514.682 -1167.04 513.881L-1173.42 516.73C-1173.72 516.854 -1174.3 517.043 -1174.61 517.176L-1177.08 518.228C-1183.84 521.549 -1187.6 526.368 -1193.2 530.309L-1195.31 531.783C-1205.74 537.818 -1201.75 531.476 -1199.55 525.56L-1207.78 524.173C-1215.87 521.226 -1203.27 523.912 -1213.77 521.18C-1210.73 525.307 -1208.96 525.618 -1211.74 529.94C-1213.51 530.39 -1213.9 527.565 -1219.67 532.778C-1225.57 538.106 -1221.77 537.24 -1234.09 537.24L-1236.5 522.677C-1266.81 523.056 -1268.13 537.276 -1286.88 547.489C-1296 552.457 -1302.44 554.564 -1310.5 561.19C-1319.43 568.526 -1326.64 564.028 -1337.72 569.357C-1337.34 557.165 -1333.73 559.815 -1326.36 554.156C-1316.66 546.7 -1326.44 541.975 -1315.13 537.411L-1273.58 517.623C-1260.69 510.554 -1245.52 506.534 -1233.54 498.217C-1223.95 491.558 -1216.63 486.76 -1204.51 482.582C-1197.3 480.096 -1197.57 481.543 -1195.49 475.924H-1193.45L-1195.15 474.221L-1195.49 475.924L-1203.55 478.924C-1200.43 470.283 -1194.56 474.891 -1187.36 467.165C-1197.98 466.33 -1189.77 468.353 -1194.9 463.828C-1198.57 460.592 -1194.85 461.644 -1201.58 458.406C-1204.24 466.593 -1213.42 479.49 -1227.99 474.465C-1225.1 466.672 -1218.7 469.118 -1215.8 461.325C-1223.15 454.124 -1222.57 463.157 -1225.96 454.026L-1240.12 456.215C-1246.14 458.957 -1234.31 457.654 -1246.28 458.405C-1248.61 452.132 -1259.4 451.701 -1268.59 452.484C-1278.78 453.353 -1270.88 452.137 -1277.48 454.967C-1278 455.192 -1279.41 455.901 -1279.94 456.12L-1307.2 465.729C-1313.59 467.078 -1316.64 466.995 -1321.83 469.819L-1335.11 476.333C-1335.52 476.487 -1336.08 476.648 -1336.47 476.818C-1336.84 476.983 -1337.36 477.207 -1337.7 477.39L-1346.31 484.344C-1350.38 487.383 -1353.45 489.775 -1358.03 491.982C-1366.91 490.279 -1365.12 487.117 -1374.22 484.521C-1382.75 482.092 -1398.62 488.694 -1394.8 478.567C-1393.79 475.89 -1393.9 476.748 -1392.21 474.892C-1386.24 468.331 -1371.41 462.816 -1370.22 452.565C-1377.15 455.199 -1375.13 454.243 -1380.93 458.014L-1411.46 476.953C-1443.73 494.896 -1435.68 490.859 -1465.72 489.062C-1465.11 483.812 -1463.05 479.587 -1459.14 476.269C-1454.49 472.311 -1451.71 472.976 -1447.43 467.164C-1453.94 468.413 -1468.95 473.806 -1479.94 474.464C-1473.29 467.94 -1471.1 472.778 -1457.02 460.279C-1453.04 456.746 -1453.15 457.642 -1451.5 452.566C-1453.88 450.013 -1454.09 449.317 -1458.53 447.395C-1474.12 440.655 -1481.32 445.421 -1490.1 449.646L-1493.75 447.621C-1496.72 445.495 -1497.02 447.711 -1495.6 443.747C-1494.58 440.928 -1489.8 442.41 -1496.2 440.887C-1488.17 432.894 -1497.64 443.537 -1487.61 436.856C-1481.69 432.915 -1485.72 432.528 -1477.85 429.255C-1471.67 426.684 -1467.43 427.552 -1456.36 416.954C-1449.7 410.572 -1449.11 405.632 -1438.94 401.731C-1432.48 399.251 -1422.92 397.536 -1412.89 392.71L-1430.04 380.213C-1436.47 376.614 -1443.52 378.064 -1455.56 372.272C-1460 378.291 -1465.81 383.477 -1475.88 385.411C-1476.78 377.622 -1480.62 375.32 -1490.1 373.732C-1498.59 382.834 -1497.83 383.928 -1508.05 387.12C-1517.09 389.946 -1523.25 393.763 -1532.72 397.127C-1540.55 399.909 -1552.97 401.396 -1558.67 404.758C-1586.75 421.293 -1621.6 432.033 -1650.88 448C-1661.3 453.682 -1659.3 450.68 -1666.12 453.105C-1671.13 454.884 -1668.65 453.999 -1672.97 459.865C-1684.06 459.688 -1688.23 455.892 -1699.39 454.026C-1705.29 456.866 -1702.11 456.98 -1709.54 458.406C-1705.17 470.186 -1701.13 462.736 -1721.63 470.161C-1729.5 473.011 -1753.86 483.244 -1758.31 487.604C-1742.07 490.323 -1743.52 485.51 -1729.86 483.224C-1733.59 487.224 -1743.66 492.137 -1750.82 494.442C-1770.68 500.826 -1759.77 495.072 -1770.5 506.582C-1800.38 506.582 -1777.55 500.374 -1801.61 511.965C-1806.3 514.222 -1832.52 521.97 -1841.62 534.321C-1856.7 534.321 -1856.15 534.956 -1866 538.7C-1881.72 531.134 -1871.91 535.382 -1880.22 524.101C-1893.85 528.801 -1892.41 522.978 -1892.41 547.46C-1901.04 547.598 -1910.62 550.931 -1923.61 552.778C-1935.32 554.444 -1930.3 551.322 -1933.05 556.22C-1944.57 556.035 -1937.66 556.829 -1943.78 553.713C-1947.33 551.91 -1943.24 553.583 -1947.16 551.759L-1951.17 550.258C-1960.03 546.87 -1955.17 550.18 -1959.31 544.428C-1961.44 541.466 -1959.26 543.785 -1962.08 540.581C-1963.28 539.216 -1964.05 538.856 -1965.56 537.241C-1958.42 531.344 -1954.16 528.722 -1939.14 528.482L-1937.11 534.322C-1934.11 525.056 -1918.32 520.178 -1933.05 512.423C-1933.05 518.565 -1932.3 520.122 -1937.11 524.102C-1937.11 517.513 -1934.7 507.194 -1945.74 509.238L-1949.7 510.479C-1961.77 514.431 -2003.95 544.483 -2016.37 548.977C-2025.91 552.427 -2028.26 548.486 -2034.64 550.38C-2037.68 547.238 -2034.94 548.457 -2040.74 547.46C-2037.62 550.686 -2040.41 549.274 -2034.64 550.38C-2035.8 551.105 -2032.83 552.7 -2039.92 552.047L-2044.8 550.38C-2046.74 553.281 -2047.72 555.6 -2048.86 559.139C-2055.47 558.744 -2052.21 558.759 -2056.23 557.128C-2056.61 556.973 -2057.07 556.705 -2057.44 556.543L-2073.25 548.92C-2078.16 556.272 -2072.2 553.395 -2081.53 559.13C-2090.46 564.624 -2084.53 562.721 -2095.6 562.058V551.839L-2103.65 553.478L-2103.72 537.241C-2107.25 535.902 -2109.06 535.593 -2112.28 534.631C-2130.09 529.324 -2114.39 525.151 -2129.2 517.588C-2140.39 511.875 -2138.15 515.729 -2143.69 509.018C-2151.5 499.552 -2156.54 495.292 -2178.97 497.702C-2185.13 498.364 -2196.67 499.037 -2201.88 500.291C-2207.05 501.534 -2214.8 505.78 -2220.4 506.007C-2228.54 506.337 -2222.19 501.009 -2223.74 492.151C-2226.48 476.462 -2251.14 476.164 -2267.16 466.344C-2275.64 461.145 -2270.75 457.683 -2276.02 452.27C-2282.65 445.463 -2308.25 448.234 -2323.18 448.179C-2351.69 448.071 -2348.88 450.673 -2358.35 451.685C-2362.84 452.165 -2362.51 451.226 -2369.9 451.108C-2379.31 461.208 -2379 459.807 -2390.01 467.312L-2400.38 475.926C-2413.81 475.123 -2404.64 467.54 -2420.69 483.228C-2423.26 485.737 -2426.11 489.03 -2429.81 491.276C-2431.61 492.37 -2433.54 493.105 -2435.68 494.353C-2438.03 495.72 -2437.53 495.992 -2441.01 497.825C-2451.97 497.169 -2465.94 492.28 -2471.52 487.63C-2481.37 479.424 -2480.8 475.926 -2501.97 475.926C-2513.8 488.619 -2505.52 483.249 -2504 496.365C-2513.61 493.052 -2511.45 496.951 -2516.3 489.145C-2516.5 488.822 -2516.65 488.401 -2516.85 488.079C-2517.05 487.762 -2517.24 487.356 -2517.44 487.047C-2517.65 486.746 -2517.9 486.365 -2518.12 486.074C-2520.27 483.21 -2518.06 486.359 -2520.57 483.45C-2523.24 480.338 -2523.03 481.363 -2524.32 477.386C-2550.69 477.386 -2560.13 469.556 -2567.38 467.323C-2582.32 462.721 -2565.64 474.188 -2589.34 462.787C-2593.01 464.556 -2596.22 466.58 -2599.5 468.627C-2604.76 467.617 -2606.86 466.083 -2611.69 464.247C-2618.81 471.894 -2635.14 478.784 -2640.99 482.612L-2646.23 487.605C-2653.33 484.188 -2651.07 482.616 -2660.8 484.194C-2668.62 485.461 -2670.52 487.114 -2678.74 487.605C-2680.79 482.074 -2682.71 483.924 -2684.83 477.386C-2693.39 481.888 -2689.21 490.419 -2684.83 496.365C-2698.67 495.517 -2692.54 494.68 -2693.98 490.829C-2694.73 488.797 -2694.18 485.331 -2705.15 483.226C-2712.58 486.798 -2709.03 487.22 -2715.31 490.525C-2715.31 482.477 -2717.17 486.132 -2718.67 477.676C-2719.42 473.459 -2712.99 477.831 -2721.17 472.848C-2723.34 471.524 -2726.01 470.762 -2729.54 470.086C-2738.2 496.802 -2754.75 492.391 -2770.45 507.841C-2777.46 514.735 -2797.8 534.217 -2808.42 532.811L-2820.97 531.402C-2821.91 534.305 -2822.56 540.598 -2823 549.013V674.471C-2823 722.647 -2823 770.824 -2823 819H2153V391.252L2142.38 398.22C2135.08 397.962 2141.16 397.837 2132.68 395.632C2126.75 403.683 2121.15 414.279 2116.7 417.727C2112.43 421.04 2112.81 417.18 2110.33 424.829H2106.27C2104.8 420.298 2103.67 420.601 2102.2 416.07C2092.31 416.661 2084.11 423.3 2076.96 415.223C2075.97 414.094 2073.99 408.417 2073.86 407.139C2073.43 402.912 2076.04 392.46 2077.82 389.792C2069.22 391.442 2074.45 391.066 2067.87 395.779C2051.87 407.233 2061.05 399.63 2044.54 405.295C2039.4 407.057 2036.58 408.948 2032.76 410.073C2020.48 413.694 2017.09 406.608 2011.85 418.285C2003.45 436.993 2005.12 428.631 1998.58 435.048C1999.4 435.287 2004.57 434.121 2001.41 442.602C1999.95 446.541 1998.97 447.63 1995.86 450.612C1990.99 455.275 1984.59 458.24 1974.2 458.407C1977.42 468.357 1973.12 475.018 1957.94 475.925C1948.16 471.221 1954.21 467.915 1941.69 467.166C1944.2 470.581 1945.18 470.966 1945.75 475.925C1920.58 480.138 1933.65 470.944 1915.73 463.917L1909.09 461.386C1904.21 459.445 1901.01 457.96 1894.95 456.946C1898.19 465.656 1897.68 457.051 1906.1 465C1909.68 468.385 1911.05 472.119 1911.21 477.385H1911.21ZM-100.32 394.171L-96.3579 395.85L-100.32 394.171C-103.359 391.03 -100.617 392.249 -106.416 391.252C-103.296 394.478 -106.083 393.066 -100.32 394.171ZM190.235 411.69L187.898 414.536L190.235 411.69L192.571 408.843L190.235 411.69ZM1608.47 484.685L1610.5 483.225H1612.53L1610.84 481.522L1610.5 483.225L1608.47 484.685H1606.43L1608.13 486.388L1608.47 484.685ZM484.852 411.69L486.884 410.23H488.916L487.223 408.527L486.884 410.23L484.852 411.69H482.821L484.514 413.393L484.852 411.69ZM1403.25 483.225H1405.28L1403.59 481.522L1403.25 483.225C1398.27 485.843 1398.88 485.212 1397.15 490.524C1402.43 487.987 1402.57 489.039 1403.25 483.225ZM1612.53 315.337V313.878L1610.16 315.094L1612.53 315.337C1613.26 321.659 1613.67 323.557 1622.69 324.097C1622.01 318.225 1619.51 316.676 1612.53 315.337ZM1427.63 400.011H1429.66L1427.97 398.308L1427.63 400.011C1422.67 400.957 1424.88 399.363 1423.57 402.931L1427.63 400.011ZM525.489 382.492H527.521L525.828 380.789L525.489 382.492C518.464 383.84 519.237 383.285 517.362 388.332C524.387 386.984 523.613 387.54 525.489 382.492ZM1484.52 417.53H1482.49L1484.18 419.233L1484.52 417.53L1492.57 415.891C1490.85 415.267 1495.61 413.845 1488.77 414.942C1485.19 415.517 1486.56 415.533 1484.52 417.53ZM-1486.04 370.813H-1488.07L-1486.38 372.516L-1486.04 370.813C-1475.6 368.098 -1487.67 370.952 -1480.2 367.709C-1475.69 365.747 -1478.94 366.547 -1471.82 366.433C-1480.03 358.377 -1492.34 363.032 -1498.23 369.353C-1497.31 369.353 -1492.62 369.234 -1492.05 369.292L-1486.04 370.813V370.813ZM1332.13 531.401H1330.1L1331.79 533.104L1332.13 531.401C1336.35 530.591 1339.37 529.264 1342.75 527.354C1347.35 524.755 1347.8 524.783 1348.39 519.722C1338.53 524.464 1337.97 523.468 1332.13 531.401ZM604.731 465.706H602.699L604.392 467.409L604.731 465.706C610.529 464.709 607.788 465.927 610.827 462.786C604.886 463.808 607.899 462.598 604.731 465.706ZM-17.0149 256.942C-13.4868 254.406 -19.5015 256.005 -17.5757 256.971C-17.5598 256.979 -17.147 257.036 -17.0149 256.942ZM543.776 464.246C543.776 460.619 540.527 463.873 542.515 464.246C542.54 464.251 543.776 468.388 543.776 464.246ZM1348.39 515.342C1349.19 512.208 1345.47 514.355 1345.65 515.637L1346.38 515.916C1350.18 515.745 1347.61 518.359 1348.39 515.342ZM-130.799 446.727C-130.882 446.245 -133.041 446.4 -133.22 446.449C-133.727 446.585 -136.75 443.07 -134.103 446.841C-134.044 446.924 -130.313 449.541 -130.799 446.727H-130.799ZM-90.1621 452.567C-90.2458 452.084 -92.4033 452.24 -92.584 452.288C-93.0901 452.424 -96.1133 448.909 -93.4661 452.681C-93.4075 452.763 -89.6765 455.381 -90.1628 452.567H-90.1621ZM1705.99 512.423C1707.04 508.363 1701.15 513.123 1703.98 512.996C1707.78 512.825 1705.22 515.439 1705.99 512.423ZM1638.94 471.546C1639.99 467.486 1634.1 472.246 1636.93 472.119C1640.73 471.948 1638.16 474.562 1638.94 471.546ZM1460.14 506.583C1461.18 502.524 1455.29 507.284 1458.13 507.156C1461.93 506.985 1459.36 509.599 1460.14 506.583ZM1582.05 509.502C1582.05 507.786 1577.68 506.213 1578.9 509.502C1580.13 512.801 1573.73 509.542 1579.84 509.935C1582.4 510.1 1582.05 512.469 1582.05 509.502ZM972.495 347.454C972.495 345.738 968.123 344.165 969.35 347.454C970.58 350.753 964.18 347.494 970.288 347.887C972.847 348.052 972.495 350.422 972.495 347.454ZM1330.1 522.642C1330.1 520.925 1325.73 519.352 1326.96 522.642C1328.19 525.94 1321.79 522.681 1327.89 523.074C1330.45 523.239 1330.1 525.609 1330.1 522.642ZM-2371.93 299.278C-2371.93 297.562 -2376.3 295.988 -2375.07 299.278C-2373.84 302.577 -2380.24 299.318 -2374.14 299.711C-2371.58 299.875 -2371.93 302.246 -2371.93 299.278ZM2153 387.022C2152.45 386.037 2150.12 387.606 2150.27 388.627C2150.27 388.634 2150.41 388.862 2150.42 388.865C2152.29 389.219 2152.87 389.603 2153 389.701V389.664C2152.93 389.523 2152.79 389.129 2153 388.331V387.022ZM429.992 400.011C430.798 396.876 427.073 399.023 427.257 400.306C427.258 400.313 427.397 400.541 427.416 400.544C431.492 401.319 429.42 402.231 429.992 400.01V400.011ZM1104.57 344.534C1102.48 343.035 1097.22 346.636 1102.21 345.322C1102.26 345.309 1107.98 346.985 1104.57 344.534ZM1437.79 513.882L1433.73 518.262C1439.06 516.831 1436.74 518.29 1437.79 513.882ZM600.667 508.042C601.473 504.908 597.748 507.055 597.932 508.337C597.977 508.647 599.708 511.772 600.667 508.042ZM887.158 519.721C886.729 518.055 882.692 516.529 884.423 519.426C885.155 520.649 888.133 523.512 887.158 519.721ZM-2325.2 1.45947C-2325.34 0.904419 -2325.88 0.365601 -2326.48 0H-2328.36C-2328.37 0.259399 -2328.24 0.63916 -2327.93 1.16486C-2327.2 2.38751 -2324.22 5.25085 -2325.19 1.45947H-2325.2ZM1167.55 332.855C1167.12 331.189 1163.09 329.663 1164.82 332.56C1165.55 333.783 1168.53 336.647 1167.55 332.855ZM1728.34 502.202C1727.91 500.536 1723.88 499.01 1725.61 501.907C1726.34 503.13 1729.32 505.993 1728.34 502.202ZM1506.87 487.603C1509.99 490.829 1507.2 489.417 1512.97 490.523C1509.77 487.211 1512.59 488.817 1506.87 487.603ZM1687.71 448.186C1690.83 451.412 1688.04 450 1693.8 451.106C1690.6 447.794 1693.42 449.4 1687.71 448.186ZM734.77 465.705C736.192 469.973 734.508 467.807 738.833 470.084C737.5 466.083 739.658 467.811 734.77 465.705ZM1789.3 401.469C1790.72 405.737 1789.04 403.572 1793.36 405.849C1792.03 401.848 1794.19 403.576 1789.3 401.469ZM1435.76 493.443H1429.66V494.902H1435.76V493.443ZM785.566 440.887H783.535V445.266H785.566V440.887ZM885.127 421.908H883.096V426.288H885.127V421.908ZM1764.92 345.994H1758.82V347.453H1764.92V345.994ZM1039.55 418.988H1037.52V423.368H1039.55V418.988ZM856.681 420.448H854.65V424.828H856.681V420.448ZM1389.03 332.855H1382.93V334.315H1389.03V332.855ZM1159.43 331.395H1153.33V332.855H1159.43V331.395ZM832.3 427.748H830.267V432.128H832.3V427.748ZM1529.22 433.588H1527.19V437.968H1529.22V433.588ZM1890.89 435.048H1884.8V436.508H1890.89V435.048ZM1468.27 356.214H1462.17V357.674H1468.27V356.214ZM1689.74 464.246H1687.71V468.626H1689.74V464.246ZM-707.842 475.925C-713.782 476.947 -710.769 475.737 -713.938 478.844C-710.375 478.232 -708.494 478.661 -707.842 475.925ZM537.681 414.61C531.741 415.631 534.755 414.422 531.586 417.529C535.148 416.917 537.03 417.346 537.681 414.61ZM-762.702 500.743C-768.643 501.765 -765.629 500.555 -768.798 503.663C-765.236 503.05 -763.354 503.48 -762.702 500.743ZM-663.141 414.61C-667.632 416.851 -665.667 414.849 -667.205 418.989C-663.844 417.311 -663.298 418.68 -663.141 414.61ZM846.523 411.69C842.033 413.932 843.998 411.929 842.459 416.07C845.821 414.392 846.367 415.76 846.523 411.69ZM1395.12 491.984C1390.63 494.226 1392.6 492.223 1391.06 496.364C1394.42 494.686 1394.97 496.054 1395.12 491.984ZM-1947.27 500.743C-1951.76 502.986 -1949.8 500.983 -1951.33 505.123C-1947.97 503.445 -1947.43 504.814 -1947.27 500.743ZM-2579.17 456.947C-2583.67 459.189 -2581.7 457.186 -2583.24 461.327C-2579.88 459.649 -2579.33 461.017 -2579.17 456.947ZM1338.23 519.722C1333.74 521.965 1335.71 519.962 1334.17 524.102C1337.53 522.424 1338.08 523.793 1338.23 519.722ZM-1433.21 407.311C-1437.7 409.553 -1435.74 407.55 -1437.27 411.691C-1433.91 410.013 -1433.37 411.381 -1433.21 407.311ZM352.785 392.712C348.294 394.954 350.259 392.951 348.721 397.092C352.082 395.414 352.629 396.783 352.785 392.712ZM771.346 461.327C765.035 464.601 765.035 462.432 771.346 465.707V461.327ZM848.556 401.471C842.246 404.746 842.246 402.576 848.556 405.851V401.471ZM1472.33 515.343C1473.26 514.676 1477.09 515.478 1472.38 513.551C1470.35 512.721 1467.38 513.29 1469.84 515.373C1473.02 518.069 1470.95 516.339 1472.33 515.343ZM1393.09 437.969C1386.97 439.143 1388.63 437.951 1387 442.349C1395.17 440.223 1387.3 443.564 1393.09 437.969ZM1925.44 432.129V435.049H1931.53C1928.33 431.737 1931.15 433.343 1925.44 432.129ZM620.989 484.685H614.893C618.014 487.911 615.227 486.499 620.989 487.605V484.685ZM1417.47 410.23C1411.53 411.253 1414.55 410.043 1411.38 413.15H1417.47V410.23ZM-711.905 421.91C-717.844 422.931 -714.831 421.722 -718 424.829H-711.905V421.91ZM-754.573 497.824C-760.513 498.846 -757.5 497.636 -760.669 500.743H-754.573V497.824ZM1718.19 442.348H1714.12C1715.55 446.616 1713.86 444.451 1718.19 446.728V442.348ZM1634.88 493.444C1634.41 494.215 1628.44 494.348 1638.94 496.364C1637.86 493.442 1641.55 495.774 1637.31 493.369C1633.79 491.367 1637.61 492.469 1634.88 493.444L1634.88 493.444ZM1744.6 429.208H1738.51V432.128C1742.07 431.515 1743.95 431.945 1744.6 429.208ZM870.906 483.224H866.842V487.604C870.204 485.926 870.749 487.294 870.906 483.224ZM1277.28 467.165H1273.21V471.546C1276.57 469.867 1277.12 471.236 1277.28 467.165ZM503.141 400.011C501.083 400.406 495.294 400.212 499.077 402.93C501.258 404.497 502.98 404.196 503.141 400.011ZM1381.34 414.922L1374.8 414.61V418.989L1381.34 414.923V414.922ZM1602.37 464.246C1594.14 465.624 1596.25 464.637 1594.24 468.626C1600.88 466.104 1598.25 468.506 1602.37 464.246ZM-297.407 446.727C-306.844 447.292 -300.961 445.161 -305.535 449.647C-300.757 449.361 -298.139 449.802 -297.407 446.727ZM56.1343 433.588C49.8916 436.874 52.8562 432.647 52.0708 439.428C57.2686 436.691 56.1343 439.933 56.1343 433.588ZM1799.46 394.171C1793.22 397.457 1796.18 393.23 1795.4 400.011C1800.6 397.274 1799.46 400.516 1799.46 394.171ZM639.275 480.304L631.226 478.665C633.015 480.849 638.179 485.994 639.275 480.304ZM-309.599 446.727C-315.72 447.901 -314.06 446.708 -315.695 451.107C-311.055 450.216 -309.755 450.775 -309.599 446.727ZM-965.886 467.165C-973.28 468.403 -972.402 467.971 -976.045 471.545C-968.912 470.351 -969.344 470.741 -965.886 467.165ZM832.301 435.047H828.237V439.427H832.301V435.047ZM119.122 432.128C111.797 433.533 113.688 432.261 113.026 437.967C118.652 435.006 115.765 436.992 119.122 432.128ZM-228.325 437.967C-229.634 439.05 -229.847 438.303 -231.061 440.381C-233.051 443.784 -231.911 441.15 -232.388 445.267C-226.791 442.32 -228.325 445.37 -228.325 437.967H-228.325ZM-785.051 462.786C-780.478 467.271 -786.36 465.141 -776.923 465.705C-780.784 461.562 -779.772 461.218 -785.051 462.786ZM866.842 489.063V496.363C867.006 496.228 869.729 495.565 870.231 492.917C870.938 489.183 870.144 490.802 866.842 489.063ZM1748.67 420.449V427.748C1751.16 426.433 1751.95 427.273 1752.15 424.813C1752.46 421.139 1748.69 420.47 1748.67 420.449ZM440.154 392.711L432.087 395.711C433.566 397.598 433.137 397.244 434.058 400.011L440.154 392.711ZM1645.04 496.363V499.283H1653.17C1648.58 494.782 1654.49 496.941 1645.04 496.363ZM862.78 427.748H858.716C859.501 434.528 856.537 430.301 862.78 433.588V427.748ZM885.13 414.609H881.066V420.449C886.265 417.712 885.13 420.954 885.13 414.609ZM950.149 490.523C943.05 491.885 945.587 491.078 942.022 494.903C947.884 494.553 949.979 494.936 950.149 490.523ZM1344.33 392.711C1339.06 395.482 1340.01 395.982 1338.23 401.47C1343.5 398.699 1342.55 398.199 1344.33 392.711ZM671.786 464.245C665.664 465.42 667.325 464.227 665.69 468.625H671.786V464.245ZM1128.95 454.026C1128.95 449.915 1128.07 451.323 1124.89 449.646V456.946C1126.7 456.216 1128.95 455.996 1128.95 454.026ZM580.353 491.984H572.225V496.364C578.857 493.842 576.232 496.244 580.353 491.984ZM907.48 471.546H905.449C905.449 479.303 899.235 475.964 907.48 480.304V471.546ZM1439.82 443.808L1433.29 447.874C1442.16 450.989 1441.66 449.314 1439.82 443.808ZM397.486 433.589C392.307 436.081 391.142 436.09 389.358 440.888C396.123 438.316 395.463 439.827 397.486 433.589ZM1204.13 316.797C1207.71 320.31 1208.19 320.691 1216.32 321.177C1212.74 317.664 1212.26 317.284 1204.13 316.797ZM1730.38 328.476H1720.22V331.396C1725.64 331.31 1729.57 331.867 1730.38 328.476ZM-273.025 445.267H-283.184V448.187C-277.767 448.101 -273.831 448.658 -273.025 445.267ZM1921.37 437.968C1913.38 439.306 1913.13 439.574 1909.18 443.808C1917.17 442.47 1917.43 442.202 1921.37 437.968ZM1387 502.203C1386.75 502.612 1382.37 501.727 1387.45 504.926C1389.81 506.408 1389.1 507.131 1391.64 505.307C1397.02 501.44 1391.17 502.298 1391.14 502.277C1387.27 499.705 1388.13 501.819 1387 502.204V502.203ZM572.225 506.583H568.161V513.883H572.225V506.583ZM1679.58 487.605C1669.98 487.758 1671.6 486.119 1669.42 491.984C1676.77 491.545 1676.76 491.354 1679.58 487.605ZM683.976 468.626C676.789 470.005 677.711 470.183 675.849 475.926C685.314 474.11 679.8 474.88 683.976 468.626ZM590.511 481.766C582.028 485.847 586.499 484.362 582.384 490.525C582.402 490.52 584.999 491.115 588.316 487.488C590.743 484.834 590.042 485.812 590.511 481.766ZM1456.08 509.503C1457.14 516.47 1453.29 511.966 1462.17 515.343C1463.66 510.312 1465.34 510.057 1456.08 509.503ZM517.364 391.252C510.79 392.513 506.468 394.983 503.141 398.552C511.602 397.135 513.17 395.753 517.364 391.252ZM590.51 477.386C581.062 477.537 580.423 477.564 578.32 483.225C584.575 482.025 582.431 482.428 589.417 478.059C589.636 477.922 590.149 477.612 590.51 477.386ZM460.473 385.412C454.275 386.45 455.561 387.156 450.313 385.412C448.709 389.731 449.487 387.779 446.249 391.252C453.062 390.112 456.923 388.893 460.473 385.412ZM1198.03 321.177C1197.02 319.878 1196.71 318.257 1193.97 318.257C1188.35 318.257 1189.08 319.384 1187.87 322.637C1192.17 322.569 1195.91 322.896 1198.03 321.178V321.177ZM-695.651 443.808C-701.044 441.949 -697.824 442.476 -705.81 442.348C-705.079 444.538 -705.364 446.728 -701.746 446.728C-698.073 446.728 -696.172 445.998 -695.651 443.809V443.808ZM299.956 398.552C295.368 402.344 294.057 403.88 293.86 410.23C300.593 404.665 299.956 405.622 299.956 398.552ZM657.562 448.188C661.144 451.701 661.626 452.082 669.753 452.568C665.488 447.992 664.62 445.842 657.562 448.188ZM1072.06 423.37C1066.74 425.931 1067.86 424.108 1065.96 429.209C1066 429.233 1069.75 430.669 1070.03 430.669C1080.63 430.669 1073.06 429.933 1072.06 423.37H1072.06ZM70.3577 435.049H66.2942L61.9458 445.201C68.5381 442.233 70.1309 442.357 70.3577 435.049ZM1537.35 458.407C1536.42 458.855 1533.88 459.679 1532.4 460.689C1529.19 462.888 1530.85 461.024 1529.23 464.246C1531.67 465.712 1540.93 469.434 1537.35 458.407L1537.35 458.407ZM527.524 391.252C519.063 392.668 517.495 394.051 513.301 398.552C519.149 398.202 518.321 398.398 522.472 396.382C528.039 393.678 526.06 395.19 527.524 391.252ZM1183.81 423.37C1171.98 421.334 1174.25 420.263 1169.59 424.83C1175.57 425.831 1175.79 426.289 1183.81 426.289V423.37ZM1561.73 486.145C1554.47 487.361 1547.29 489.68 1543.45 493.445C1553.99 492.815 1557.14 491.07 1561.73 486.145ZM578.32 423.37C571.352 430.204 572.544 421.816 572.224 432.129C572.544 431.975 578.344 429.427 578.498 429.338C584.492 425.848 581.62 429.965 582.383 423.37H578.32L583.091 419.092C585.481 414.651 580.246 412.872 577.463 400.627C574.445 387.345 572.891 382.24 553.937 385.413V388.332C562.928 388.476 564.739 389.853 570.501 401.249C574.809 409.768 574.256 411.648 574.256 423.37H578.319H578.32ZM35.8154 432.129C25.2788 432.129 27.9294 430.827 23.624 435.049C24.6406 436.348 24.947 437.968 27.6877 437.968C33.6865 437.968 34.6929 435.497 35.8154 432.129V432.129ZM1500.78 347.455V345.996C1488.13 345.996 1481.03 349.203 1478.43 356.215C1484.46 353.31 1491.5 347.455 1500.78 347.455ZM306.051 357.675C300.563 357.675 300.449 358.371 295.892 359.135C297.349 359.862 296.765 359.997 299.632 360.827C303.045 361.815 301.171 361.438 304.326 361.835C307.874 362.28 312.519 362.055 316.21 362.055C313.864 359.754 311.498 357.675 306.051 357.675ZM413.739 413.151C406.488 416.639 405.829 419.352 403.58 426.29C409.432 425.167 408.655 425.285 411.218 421.559C413.345 418.466 413.605 417.456 413.739 413.151V413.151ZM879.033 509.504C870.296 508.982 875.371 509.71 868.873 506.584C868.736 511.032 867.956 511.907 866.842 515.344C876.028 515.196 877.151 515.151 879.033 509.504ZM1915.28 401.472C1913.38 396.371 1914.5 398.193 1909.18 395.632C1901.47 399.341 1899.96 403.611 1906.4 403.55C1906.42 403.55 1909.77 401.809 1915.28 401.472ZM499.076 296.359C488.86 296.523 489.138 298.009 488.917 305.119C497.605 303.664 498.841 303.941 499.076 296.359ZM2100.17 370.814C2100.73 375.637 2102.82 379.573 2104.24 383.953H2108.3C2108.3 376.014 2109.1 372.526 2100.17 370.814H2100.17ZM1655.2 483.225C1650.67 484.094 1649.1 483.566 1649.1 487.605V494.905C1661.87 494.141 1655.2 492.808 1655.2 483.226V483.225ZM-646.886 388.332C-650.761 380.642 -652.367 385.986 -667.205 386.873V389.792C-665.645 389.699 -660.455 388.992 -660.445 388.992C-658.008 388.89 -649.819 390.903 -646.886 388.332ZM1762.89 437.969C1758.23 432.97 1757.99 433.441 1750.7 430.669V442.348C1755.53 440.513 1757.62 438.979 1762.89 437.968V437.969ZM553.937 537.242V541.621H543.778L551.865 538.672C552.164 538.523 552.725 538.126 552.956 537.996C553.187 537.868 553.607 537.491 553.937 537.242ZM1250.86 489.065L1234.61 496.365L1261.9 491.158C1270.62 488.891 1264.12 492.541 1269.15 487.605L1250.86 489.065ZM915.606 486.145C906.253 487.94 907.478 489.179 907.478 497.824C907.478 501.935 908.357 500.528 911.542 502.204C913.839 495.119 915.605 495.607 915.605 486.145H915.606ZM1913.24 448.188C1920.91 450.734 1917.11 450.91 1921.37 446.728C1914.99 442.901 1907.18 447.676 1903.09 449.648C1905.8 453.707 1905.12 452.475 1905.12 458.407H1909.18C1910.14 450.083 1912.28 456.512 1913.24 448.188H1913.24ZM-870.39 413.151C-870.39 405.291 -881.729 405.851 -892.74 405.851L-886.37 408.574C-883.806 408.974 -879.263 408.771 -876.485 408.771C-874.096 416.878 -878.032 415.608 -880.549 423.37C-876.414 421.381 -870.39 417.986 -870.39 413.151V413.151ZM1502.81 363.514C1501.04 358.74 1497.71 357.189 1492.65 354.755C1483.95 357.756 1485.02 353.793 1482.49 360.595C1491.84 362.16 1495.73 365.342 1502.81 363.514ZM1086.28 445.268C1083.69 441.393 1084.43 443.706 1084.25 437.969C1081.19 439.444 1078.4 440.933 1074.85 442.891C1069.76 445.69 1069.52 446.401 1068 451.108C1079.19 450.929 1079.78 448.398 1086.28 445.268H1086.28ZM1521.1 343.076L1504.84 344.536C1512.01 347.801 1525.33 346.229 1525.16 350.376C1524.99 354.582 1541.9 355.26 1533.57 347.421C1530.47 344.505 1527.91 343.076 1521.1 343.076H1521.1ZM631.147 489.065C624.025 490.431 626.772 489.644 622.916 493.37C620.537 495.668 618.939 497.369 616.066 500.127C611.192 504.804 606.689 507.852 604.734 513.883C612.994 513.389 609.575 514.784 613.667 510.082L625.619 496.771C629.47 493.102 629.407 494.429 631.147 489.064V489.065ZM-711.905 480.305C-725.618 482.601 -732.326 486.146 -743.28 491.34C-749.359 494.223 -748.616 492.728 -750.51 497.824C-742.668 496.512 -717.64 486.459 -711.905 480.305ZM1638.94 449.648C1634.26 449.648 1628.13 451.667 1623.46 453.119C1616.78 455.192 1616.02 456.125 1612.53 459.867C1616.94 459.022 1632.45 448.709 1645.68 459.495C1653.37 465.759 1640.24 463.435 1653.17 464.246C1652.05 454.616 1639.13 449.647 1638.94 449.647V449.648ZM-902.898 443.808C-917.753 444.696 -944.477 457.256 -949.631 462.787C-940.486 461.256 -907.437 448.677 -902.898 443.808ZM1193.97 416.07C1188.7 410.901 1184.54 413.287 1181.78 405.851H1175.68L1173.65 417.53C1186.16 422.286 1181.63 420.761 1193.97 416.07ZM1143.17 418.99C1143.17 424.228 1150.8 426.76 1153.33 433.589C1163.92 431.558 1162.96 423.505 1161.49 421.914C1159.3 419.532 1143.17 413.554 1143.17 418.99ZM1295.56 391.252C1292 387.429 1290.5 385.2 1287.43 381.033L1275.31 382.714C1275.21 394.813 1276.31 391.142 1273.21 395.632C1284.19 395.632 1279.01 395.585 1287.98 393.103L1295.56 391.252H1295.56ZM-145.019 386.872C-151.075 386.969 -152.144 386.589 -159.64 390.966C-163.767 393.375 -166.619 395.567 -169.401 398.551C-148.484 395.05 -154.104 396.79 -134.86 400.011C-137.594 392.654 -141.996 396.195 -145.019 386.872V386.872ZM1777.11 451.107H1789.3C1785.76 447.636 1785.05 446.728 1766.95 446.728C1754.94 446.728 1774.22 449.765 1756.69 448.112C1756.56 448.1 1750.7 445.152 1750.7 452.568C1750.7 457.657 1760.2 454.027 1764.92 454.027C1772.57 454.027 1768.76 454.987 1777.11 455.487V451.107V451.107ZM748.995 449.648C748.995 444.24 747.013 443.053 742.899 440.888C742.443 444.83 741.947 444.86 740.868 448.188C734.856 447.035 737.574 447.594 732.74 445.268C732.74 461.864 726.644 447.473 722.581 458.408C724.372 459.117 722.936 458.96 725.071 459.115C744.115 460.501 742.014 457.768 745.811 453.204C748.556 449.905 748.995 452.175 748.995 449.648L748.995 449.648ZM-687.522 459.867C-699.024 460.051 -706.258 464.656 -714.598 468.151C-720.968 470.82 -734.839 476.893 -738.318 480.305C-729.855 479.799 -705.04 470.927 -697.227 467.493C-691.465 464.96 -689.406 464.936 -687.522 459.867ZM-616.408 446.728C-623.446 444.301 -631.613 447.539 -639.042 449.443C-657.176 454.091 -657.104 453.099 -659.076 458.407C-650.259 458.266 -641.038 455.429 -632.662 454.027C-634.995 461.027 -634.046 456.296 -632.662 458.407C-614.089 454.868 -633.577 459.298 -620.781 450.979L-616.407 446.728H-616.408ZM1368.71 367.894C1347.33 364.639 1361.81 377.288 1342.3 381.033C1345.01 385.092 1344.33 383.86 1344.33 389.792C1355.25 389.14 1355.05 387.453 1359.27 381.551C1363.07 376.241 1368.01 373.964 1368.71 367.894V367.894ZM1391.06 478.845C1398.81 478.845 1392.6 480.968 1405.28 478.845C1402.51 470.293 1402.85 475.668 1397.16 470.086C1380.92 476.257 1371.42 473.055 1360.58 484.685C1375.89 484.44 1384.8 478.845 1391.06 478.845ZM1254.93 400.012C1264.45 396.729 1263.36 401.305 1269.15 395.632C1261.22 395.632 1252.98 395.243 1245.23 396.047C1232.34 397.386 1235.41 395.632 1222.42 395.632C1222.42 412.842 1234.03 402.931 1238.67 402.931C1252.8 402.931 1247.84 402.444 1254.93 405.851V400.011L1254.93 400.012ZM1417.47 353.295C1410.57 352.882 1410.04 352.182 1405.28 350.375C1403.93 359.236 1406.95 351.607 1395.39 357.87C1390.41 360.569 1389.15 364.98 1389.85 369.05C1390.82 374.629 1391.32 374.075 1397.16 375.193C1400.35 365.336 1414.34 361.719 1417.47 353.295ZM862.779 489.064L855.956 490.002C855.588 490.13 855.027 490.427 854.705 490.565L848.494 458.451C848.469 451.818 847.007 428.597 844.491 424.83C839.622 426.242 842.549 424.237 840.021 427.567C836.772 431.844 843.809 454.359 844.52 465.686C845.531 481.787 846.176 497.358 850.587 510.963C858.914 506.642 848.846 509.522 853.574 500.082C855.226 496.783 860.613 494.89 862.778 489.064H862.779Z" fill="#F2F2F2"/>
</svg>
