<svg width="1920" height="316" viewBox="0 0 1920 316" fill="none" xmlns="http://www.w3.org/2000/svg">
<path fill-rule="evenodd" clip-rule="evenodd" d="M1826.71 184.193L1824.39 181.913C1823.38 180.698 1823.7 180.651 1822.23 179.48C1818.33 176.383 1820.29 180.639 1815.73 176.87C1817 174.119 1815.94 176.677 1816.84 176.075C1818.31 175.082 1816.69 177.773 1818.08 175.18C1807.62 171.575 1802.89 173.245 1803.06 170.295C1803.21 167.426 1804.47 171.641 1803.19 169.547C1801.05 166.898 1798.81 169.167 1796.34 166.014C1795.94 165.498 1792.98 158.749 1785.15 158.281C1785.79 157.463 1785.53 157.685 1785.94 156.592L1782.82 155.434L1782.8 158.845C1784.88 158.449 1783.45 158.89 1785.15 158.281C1785.9 159.61 1785.21 158.519 1786.97 159.793C1790.1 162.057 1794.83 166.263 1794.59 169.499C1794.18 175.123 1789.44 175.438 1788.86 178.848C1788.49 180.965 1790.41 181.455 1787.56 182.605C1784.24 183.943 1781.6 181.802 1780.52 181.39L1778.82 180.944C1776.11 179.967 1777.67 179.112 1774.18 177.433C1774.18 180.421 1774.14 180.76 1773.39 183.066C1768.98 181.546 1771.34 183.689 1770.1 180.925C1769.61 179.822 1769.47 178.003 1769.47 176.307C1766.86 177.681 1767.91 176.886 1767.91 183.629C1762.22 185.792 1763.82 187.561 1762.73 190.775C1762.5 191.435 1758.99 196.788 1755.13 197.548L1745.17 198.838C1744.81 196.458 1745.94 197.148 1741.25 197.148C1741.25 193.674 1739.99 194.88 1738.9 191.515L1737.23 193.698C1736.17 194.847 1736.91 193.879 1736.2 194.65L1733.41 199.965L1731.14 197.65C1730.27 196.284 1730.31 195.56 1729.49 194.332C1726.06 196.137 1728.84 195.335 1725.57 198.838C1722.21 198.838 1721.24 198.192 1718.06 198.475C1715.41 198.711 1713.11 199.149 1710.61 199.361C1699.39 200.315 1704.32 198.67 1700.84 198.707C1699.45 198.722 1699.13 199.103 1697.35 199.401C1696.73 198.505 1696.54 200.437 1697.35 197.711C1693.6 199.685 1697.85 199.401 1690.29 199.401C1691.12 198.27 1690.96 198.387 1692.11 197.329C1693.71 195.853 1693.43 197.005 1694.21 194.895C1690.86 196.167 1690.84 196.988 1688.28 198.001C1684.27 199.593 1688.49 198.151 1685.4 198.052C1682.65 197.964 1684.92 198.213 1681.67 198.838V196.021C1676.84 196.947 1681.32 198.483 1675.39 198.838C1676.92 197.202 1676.98 198.082 1677.75 196.021L1674.61 195.458C1679.31 194.557 1682.14 191.561 1674.61 188.699C1673.56 190.528 1674.57 191.797 1675.39 194.332C1669.92 194.762 1675.12 194.717 1672.54 195.457C1670.64 196.006 1669.5 195.112 1667.24 193.432C1664.28 191.226 1665.7 194.199 1665.2 190.952H1655.8C1653.58 192.789 1651.61 194.945 1655.8 197.148C1656.53 196.023 1654.68 196.357 1658.15 192.642C1663.18 192.642 1666.53 194.403 1667.56 197.148C1664.03 197.425 1665.59 196.305 1665.2 198.838C1658.22 198.42 1665.81 197.064 1659.71 196.585C1658.28 198.812 1661.92 200.771 1657.43 201.133L1656.76 201.131C1656.69 201.141 1656.49 201.179 1656.41 201.195C1653.85 201.778 1656.76 201.972 1652.66 202.217L1652.06 200.365C1651.47 199.583 1650.24 198.867 1649.52 198.275L1647.89 201.042C1647.81 201.162 1647.72 201.308 1647.64 201.429L1646.46 203.396C1645.95 204.059 1645.51 204.296 1644.82 205.034H1639.33C1638.65 202.945 1637.89 203.279 1639.56 201.303C1640.82 199.808 1639.51 202.723 1640.9 199.964C1637.3 200.567 1637.51 200.079 1635.25 202.667L1633.31 205.215C1633.26 205.296 1633.17 205.478 1633.06 205.597C1632.51 204.106 1633.12 205.134 1632.28 203.907C1633.07 203.152 1633.06 205.092 1633.06 202.217H1632.28V203.907H1630.71C1630.99 201.45 1630.84 202.699 1632.71 200.84C1633.05 200.501 1633.8 199.683 1633.95 199.478C1638.22 193.677 1636.45 197.842 1642.47 195.458C1642.06 191.929 1640.52 194.136 1639.33 190.952H1637.76C1636.25 195.629 1633.04 192.939 1631.49 192.642C1632.2 193.736 1632.29 194.789 1630.63 196.499C1628.76 198.426 1630.65 196.724 1628.43 197.765C1626.87 198.498 1628.62 197.399 1627.02 198.444L1626 199.401L1624.59 198.162C1621.33 199.768 1621.31 200.975 1619.73 203.344L1612.68 200.528V203.344H1608.76C1609.47 204.372 1609.36 204.049 1609.54 205.598C1605.38 204.164 1603.41 206.991 1596.18 210.08C1595.98 210.166 1595.44 210.442 1595.23 210.521C1592.78 211.443 1596.81 210.961 1592.29 211.231C1595.56 207.727 1597.2 208.326 1601.7 206.161C1600.74 204.858 1601 205.23 1599.78 204.144C1599.01 203.46 1598.47 204.14 1598.04 202.017C1597.41 198.925 1599.99 201.616 1600.13 197.149C1597.47 196.702 1589.09 195.402 1586.48 195.649L1582.6 196.339C1579.38 197.108 1580.17 195.497 1579.75 198.275C1576 198.275 1576.5 197.893 1573.48 197.712L1574.36 199.943C1570.13 200.034 1567.9 201.465 1564.63 201.89C1561.13 202.344 1565.72 201.771 1562.41 201.9C1560.08 201.992 1560.62 202.007 1558.58 202.782C1558.76 202.235 1559.14 200.999 1559.4 200.555C1560.49 198.698 1564.03 197.735 1566.42 196.586C1564.68 193.483 1568.46 199.663 1565 195.349L1564.5 193.551C1564.41 189.831 1564.46 192.988 1563.29 189.826C1561.06 189.959 1557.93 190.929 1556.23 191.516C1556.91 189.207 1555.88 189.898 1557.01 188.137C1554.35 187.977 1554.14 187.707 1552.31 187.01C1551.65 187.715 1548.44 190.613 1547.59 190.943C1543.05 192.701 1542.7 189.558 1541.33 193.769H1539.77C1538.44 189.689 1542.92 187.363 1548.39 186.447C1547.7 184.587 1546.27 183.564 1543.69 183.067C1542.55 186.129 1541.78 184.814 1537.8 185.614C1532.07 186.768 1536.85 186.835 1530.36 186.447C1529.85 182.057 1527.59 183.399 1527.22 180.251C1524.54 181.66 1526.44 181.097 1526.44 184.757C1526.03 184.896 1524.84 185.305 1524.3 185.556C1524.19 185.608 1523.99 185.73 1523.88 185.781L1522.66 186.329C1521.48 186.703 1521.39 186.382 1520.95 187.573C1515.7 187.573 1514.09 186.177 1509.19 185.883C1507.14 187.28 1506.84 188.069 1505.06 189.676C1503.16 191.387 1502.7 192.02 1499 192.079C1498.77 190.088 1497.56 189.03 1495.86 188.136C1496.83 185.519 1497.1 187.638 1497.43 184.757C1494.3 184.707 1494.53 184.497 1492.73 183.63C1492.73 186.569 1492.86 187.178 1491.36 189.409C1490.76 190.305 1491.17 189.593 1490.63 190.573L1490.02 191.828C1489.97 191.94 1489.85 192.146 1489.81 192.237C1489.76 192.328 1489.7 192.52 1489.59 192.643C1491.42 194.437 1490.89 193.101 1492.73 194.896C1488.9 195.97 1492.33 193.922 1489.88 195.154C1489.8 195.197 1489.62 195.322 1489.53 195.374L1488.76 195.909C1486.82 197.129 1485.32 197.809 1482.53 198.275C1481.93 196.653 1481.25 196.806 1479.56 195.908L1478.32 195.109C1476.42 193.338 1479.01 192.724 1473.91 192.643C1476.52 195.448 1475.05 196.021 1475.43 198.963C1475.62 200.475 1476.39 198.001 1475.48 201.092L1470.03 199.886L1469.09 203.326C1465.2 203.105 1467.27 202.558 1463.72 203.908V201.655C1461.44 202.751 1462.67 202.795 1459.8 203.345C1461.32 201.709 1461.38 202.589 1462.15 200.528C1453.08 203.654 1446.4 203.328 1440.87 204.952C1439.76 205.276 1439.03 205.824 1437.2 206.282C1431.61 207.679 1432.14 206.568 1429.22 205.035C1427.5 206.109 1427.47 206.548 1424.52 206.725C1428.49 200.772 1429.08 205.1 1429.22 200.528C1424.59 201.417 1428.87 202.359 1423.73 203.345C1418.73 202.385 1422.63 201.509 1418.25 199.402C1416.61 201.852 1418.16 201.23 1419.03 203.908C1412.88 202.878 1413.15 204.182 1408.05 205.035C1408.48 203.709 1408.79 203.371 1408.84 201.655C1407.98 202.365 1407.42 203.077 1406.49 202.781C1406.49 200.286 1406.47 198.63 1407.52 196.766C1408.53 194.961 1410.26 194.507 1411.97 193.206C1411.56 191.922 1411.37 191.91 1411.19 190.389H1409.62C1409.36 192.642 1409.16 192.776 1407.27 193.769C1407.27 190.841 1405.6 185.654 1411.19 185.32V182.503C1408.13 181.915 1408.72 180.85 1407.88 178.121C1407.3 176.228 1406.85 174.373 1406.27 171.956C1405.87 170.291 1405.37 168.335 1404.84 166.227C1404.19 163.681 1402.84 162.907 1402.57 160.535H1401C1401 167.13 1404.13 168.285 1404.13 177.434C1400.04 176.748 1402.8 177.186 1398.65 177.434C1399.21 175.711 1399.87 175.269 1401 174.054C1392.36 174.054 1392.4 176.216 1389.92 181.863C1387.88 186.494 1387.68 189.056 1381.4 192.079C1377.92 186.873 1376.98 188.526 1369.32 187.889C1366.84 187.682 1366.37 187.179 1365.72 185.883H1364.15C1363.18 188.5 1362.92 186.381 1362.58 189.263C1350.44 185.077 1351.61 189.489 1344.81 193.39C1340.01 196.142 1332.73 200.98 1329.4 200.209C1329.24 200.171 1329.02 200.087 1328.86 200.04L1327.3 199.402C1327.22 202.151 1327.18 203.681 1323.38 203.908C1323.38 201.684 1323.14 201.622 1322.6 199.965L1318.98 201.307C1318.83 201.368 1318.63 201.45 1318.49 201.515C1315.64 202.791 1312.29 205.098 1308.9 205.896C1305.57 206.681 1306.05 206.128 1303 207.288V205.035C1300.15 205.581 1301.62 205.355 1299.63 206.558C1297.46 207.869 1298.4 206.777 1296.73 208.414C1297.78 208.84 1297.59 208.722 1299.08 208.977C1297.28 210.765 1299.13 209.617 1294.38 209.541C1294.07 212.157 1295.22 210.526 1292.81 211.794C1293.49 209.69 1294.12 209.121 1296.15 207.438L1299.29 205.187C1299.42 205.113 1299.61 205.019 1299.74 204.946C1301.61 203.867 1299.34 205.954 1301.43 203.908C1300.67 201.847 1300.6 202.727 1299.08 201.091C1301.14 200.697 1300.51 200.976 1302.15 198.792C1303.93 196.414 1305.27 195.723 1305.35 193.205L1297.39 198.754C1296.38 199.303 1296.89 199.042 1295.94 199.401C1295.39 197.755 1296.04 198.59 1294.38 197.712C1299.57 190.658 1301.11 190.763 1306.32 188.268C1308.16 187.385 1307.1 187.306 1310.84 185.883C1310.3 184.226 1310.06 184.164 1310.06 181.94C1304.31 184.704 1303.04 188.535 1292.81 188.699C1295.23 186.097 1298.55 186.254 1300.65 184.193C1296.53 184.439 1296.84 185.614 1293.46 185.88C1288.34 186.281 1289.47 184.553 1288.1 182.503C1283.54 184.701 1287.46 181.859 1280.26 185.32C1280.44 183.763 1285.46 176.722 1287.32 175.744C1290.34 177.805 1287.89 177.012 1289.67 179.687C1292.74 179.503 1295.09 178.85 1296.96 177.603C1298.26 176.739 1300.49 174.501 1301.43 173.491C1298.89 173.979 1295.73 176.323 1292.81 177.434C1292.27 175.97 1293.1 176.805 1291.24 176.307C1291.87 174.35 1294.57 171.139 1296.73 164.478C1294.93 163.612 1295.15 163.402 1292.02 163.352C1292.73 162.324 1292.63 162.647 1292.81 161.099C1288.21 162.683 1287.38 160.686 1285.75 161.099C1282.33 161.754 1281.66 163.747 1278.28 164.79C1273.68 166.211 1271.87 164.411 1269.29 163.915C1265.81 167.651 1264.48 165.934 1259.92 167.322C1258.02 167.901 1259.43 167.905 1256.74 168.421C1258.32 154.779 1273.28 158.222 1275.56 152.086C1271.79 152.718 1269.7 154.067 1266.78 155.396C1263.39 156.935 1264.86 155.874 1262.54 156.415C1260.88 156.8 1259.65 157.673 1258.51 158.422C1253.73 161.57 1245.29 165.289 1243.42 167.295C1249.48 166.279 1251.75 162.62 1256.74 161.662C1252.63 167.243 1253.52 166.482 1248 168.375L1243.67 169.585C1243.64 169.584 1243.5 169.527 1243.42 169.548C1241.54 170.594 1243.81 171.634 1233.76 176.131C1231.25 177.257 1231.89 177.501 1229.3 177.997C1232.77 173.295 1234.41 174.944 1235.58 171.801C1233.07 173.007 1235.03 172.726 1231.66 172.927C1231.84 171.383 1232.56 169.499 1233.15 168.343L1234.01 164.478C1234.25 162.355 1236 161.362 1237.04 159.335C1238.4 156.707 1238.34 156.199 1240.6 154.007C1244.72 150.029 1245.36 149.182 1247.81 143.978C1249.13 141.169 1256.27 132.121 1259.51 129.286C1263.26 125.998 1263.71 128.572 1266.15 126.175C1256.37 126.175 1256.47 131.176 1249.12 136.471C1243.19 140.747 1245.13 137.047 1237.47 144.995L1230.27 151.653C1221.37 159.438 1223.06 156.281 1220.36 157.65C1219.52 158.073 1219.06 158.813 1218.45 159.471C1214.17 164.111 1214.47 161.157 1208.15 162.191C1202.27 163.153 1200.68 163.351 1193.24 163.351C1185.91 173.31 1181.54 170.5 1176.94 173.606C1169.5 178.618 1175.12 178.936 1157.18 181.94C1158.5 180.52 1159.68 179.397 1160.31 177.434H1161.1L1160.44 176.776L1160.31 177.434C1158.28 178.504 1158.93 178.704 1157 180.121C1155.56 181.177 1154.06 181.739 1152.47 182.503C1152.75 180.114 1154.1 178.557 1154.83 176.307C1152.15 177.596 1152.1 180.659 1149.34 181.377C1146.63 177.325 1158.07 166.712 1159.53 162.225C1154.66 163.16 1150.95 168.674 1149.25 171.739C1148.15 173.723 1148.27 174.4 1144.63 174.617C1144.95 171.899 1146.38 170.873 1147.77 168.984C1144.34 169.876 1144.17 172.835 1142.34 174.662C1141.03 175.981 1140.34 175.811 1138.98 176.748L1129.56 184.627C1127.37 187.164 1128.11 189.048 1123.47 189.826L1122.7 188.56C1122.63 188.43 1122.38 188.019 1122.3 187.865C1121.67 186.611 1121.27 185.504 1121.11 184.193C1118.45 185.113 1116.86 185.024 1115.53 183.1C1114.62 181.787 1115.13 179.323 1115.58 178.8C1117.7 176.33 1120.89 176.666 1118.76 170.111H1117.19C1116.59 171.975 1115.09 173.66 1113.27 174.617C1110.41 173.239 1111.78 173.076 1109.35 171.8C1109.35 175.921 1109.86 173.861 1106.81 175.603C1102.44 178.099 1103.28 181.078 1096.26 180.143C1093.2 179.736 1093.5 179.285 1088.98 179.116C1080.54 178.801 1081.82 177.649 1075.21 176.589C1067.48 175.349 1068.22 178.426 1061.24 177.701C1056.14 177.171 1051.7 177.223 1046.63 176.308C1020.24 171.542 1031.96 174.901 1016.12 173.441C1009.52 172.833 1009 168.435 1009 177.433C1005.96 178.483 1002.64 178.56 998.028 178.56L1001.96 177.444C1004.91 176.806 1004.29 177.289 1005.87 175.743C1002.95 175.743 997.375 175.969 995.143 176.567C987.121 178.714 1001.2 179.122 991.756 179.686L990.188 176.87C988.784 180.649 986.879 181.008 982.348 180.249C981.412 178.794 981.791 179.151 982.348 177.433C976.437 177.786 981.303 178.019 979.328 180.355C976.637 183.54 967.207 178.01 960.396 176.87V175.18C963.484 174.663 965.035 174.528 966.668 172.926C961.6 172.926 961.117 171.832 958.602 172.215L948.636 172.926C948.2 169.16 944.25 170.774 940.558 171.1C936.361 171.471 934.929 170.179 930.604 170.11C930.391 176.98 920.383 175.217 918.06 175.18C917.598 171.186 914.571 171.574 914.141 167.857C911.031 169.494 915.423 174.968 915.708 177.433C902.207 182.087 898.633 175.683 894.091 176.654C893.556 176.769 892.088 177.628 891.384 177.955C890.217 178.497 889.4 178.727 888.176 179.056C884.909 179.933 875.652 182.942 876.496 177.531C876.894 174.977 880.48 174.124 877.831 173.27C876.175 172.735 874.553 174.405 871.021 174.617V171.8C863.846 171.8 857.36 177.851 850.637 174.617C850.314 177.406 848.713 178.829 845.791 179.621C843.445 180.256 843.453 179.864 842.37 180.25C842.357 180.255 839.908 181.593 838.947 181.974C834.417 183.771 833.632 182.397 829.213 183.445C828.015 183.729 822.495 185.589 821.169 186.115L809.769 190.316C803.585 192.237 795.834 196.085 789.486 197.148C791.01 195.512 791.072 196.392 791.838 194.331C789.836 193.641 791.623 194.209 789.625 193.946L787.918 193.768C788.821 191.336 792.282 190.745 794.189 188.698L768.318 198.274C767.741 196.496 767.326 194.419 766.75 192.641C763.499 194.328 771.115 197.691 759.194 201.858C754.484 203.504 750.696 204.12 745.766 202.649C743.603 202.003 743.917 202.082 743.23 199.964C739.544 200.195 741.304 199.126 741.662 202.217H739.31C738.12 199.637 738.474 201.87 737.844 202.707C736.319 204.735 739.052 204.204 734.606 204.47C733.941 202.42 734.173 202.664 732.254 201.653C724.634 202.929 731.448 206.016 720.494 207.85C719.45 204.63 720.894 204.968 721.278 201.653C717.637 201.436 719.907 202.258 718.142 200.527L715.666 201.616C714.13 202.375 714.322 201.179 713.438 203.907C715.225 204.206 715.241 204.343 717.358 204.47C717.226 208.716 710.617 209.54 710.086 207.234C709.731 205.692 710.947 206.864 711.87 205.033C709.362 203.827 711.321 204.108 707.95 203.907C707.95 197.352 721.284 195.717 727.885 192.882C734.88 189.877 735.299 188.949 740.719 186.331C743.733 184.875 745.877 183.507 748.863 182.043L767.274 174.43C771.706 172.704 772.102 171.422 777.725 172.363V173.489C775.333 173.89 775.164 173.921 773.249 174.78C770.95 175.811 771.411 175.788 768.317 176.306C770.601 178.546 776.07 175.358 778.281 173.889C780.978 172.099 779.079 172.262 782.938 171.039C785.18 170.329 787.198 170.145 789.359 169.456C793.596 168.106 794.752 166.284 800.997 165.426C809.809 164.215 809.869 167.445 809.869 159.408L829.468 155.465C829.425 154.075 828.996 153.263 829.037 152.523C829.146 150.509 830.617 150.278 828.97 149.613C827.172 148.887 824.547 149.269 822.412 149.269C820.734 151.07 821.125 149.663 820.844 152.085C818.294 150.858 819.098 151.156 817.708 149.269C818.893 147.661 820.198 146.755 820.844 144.762C814.941 145.661 821.634 144.212 817.139 144.576L807.984 146.788C805.475 147.411 805.188 147.704 803.037 148.304C799.214 149.369 796.236 149.103 792.678 150.453C790.696 151.206 791.259 151.859 788.114 151.446C784.823 151.014 786.456 150.563 783.997 149.269L777.383 151.276C774.214 152.202 772.27 152.139 771.453 154.338C776.088 154.338 778.199 152.891 780.861 153.775C777.796 157.064 762.267 162.332 756.547 164.47C754.528 165.225 753.73 165.724 751.593 166.543C748.254 167.823 743.477 169.289 741.661 171.237C747.508 171.143 746.748 169.707 751.069 168.984C750.291 171.078 748.631 171.706 746.132 172.759C743.526 173.857 741.891 174.689 739.468 175.857C729.757 180.541 716.015 187.519 704.224 188.838C700.123 189.297 698.651 189.117 698.542 192.642C695.242 191.387 695.406 192.261 695.406 188.699C691.322 188.633 690.25 187.466 687.566 186.445C688.133 184.697 688.567 184.814 689.134 183.066C683.414 184.163 685.705 186.638 685.881 188.211C686.046 189.684 685.825 189.814 684.595 190.473C682.733 191.471 684.509 190.525 682.928 190.995C682.745 191.049 682.524 191.086 682.341 191.139L678.076 192.624C673.344 194.155 674.7 193.264 675.805 195.458C668.804 196.63 668.741 202.583 648.534 198.153C646.812 197.776 646.532 197.497 644.446 197.147C643.878 198.674 644.708 198.234 642.644 198.751C641.382 199.068 639.636 198.583 638.958 198.274L636.496 199.373C636.38 199.421 636.157 199.494 636.036 199.545L635.083 199.951C632.473 201.233 631.023 203.092 628.863 204.613L628.051 205.181C624.026 207.51 625.566 205.063 626.414 202.78L623.239 202.245C620.115 201.108 624.978 202.144 620.926 201.09C622.098 202.683 622.783 202.803 621.71 204.47C621.026 204.644 620.876 203.554 618.649 205.565C616.373 207.621 617.84 207.287 613.086 207.287L612.157 201.668C600.46 201.814 599.952 207.301 592.718 211.241C589.199 213.158 586.713 213.971 583.602 216.528C580.157 219.358 577.375 217.622 573.102 219.679C573.248 214.975 574.64 215.997 577.482 213.814C581.227 210.937 577.453 209.114 581.818 207.353L597.847 199.718C602.824 196.99 608.676 195.439 613.298 192.23C616.998 189.661 619.823 187.81 624.501 186.198C627.283 185.239 627.176 185.797 627.982 183.629H628.766L628.112 182.972L627.982 183.629L624.868 184.786C626.073 181.452 628.339 183.23 631.117 180.249C627.02 179.927 630.185 180.708 628.206 178.962C626.79 177.713 628.226 178.119 625.63 176.87C624.605 180.028 621.063 185.005 615.438 183.066C616.555 180.059 619.024 181.003 620.142 177.996C617.308 175.217 617.531 178.703 616.222 175.18L610.759 176.024C608.437 177.082 613.001 176.58 608.382 176.87C607.482 174.449 603.319 174.283 599.774 174.585C595.843 174.92 598.891 174.451 596.344 175.543C596.142 175.63 595.6 175.903 595.395 175.988L584.875 179.695C582.41 180.216 581.234 180.184 579.232 181.273L574.106 183.787C573.949 183.846 573.732 183.908 573.583 183.974C573.438 184.037 573.24 184.124 573.106 184.195L569.784 186.878C568.214 188.05 567.032 188.973 565.262 189.825C561.836 189.167 562.529 187.947 559.015 186.946C555.727 186.009 549.603 188.556 551.077 184.649C551.466 183.616 551.423 183.947 552.074 183.231C554.377 180.699 560.1 178.571 560.558 174.616C557.885 175.632 558.665 175.263 556.428 176.719L544.647 184.026C532.195 190.949 535.304 189.391 523.71 188.698C523.945 186.672 524.742 185.042 526.248 183.762C528.046 182.235 529.115 182.492 530.766 180.249C528.255 180.731 522.464 182.812 518.222 183.065C520.789 180.548 521.635 182.415 527.068 177.592C528.604 176.229 528.563 176.575 529.198 174.616C528.28 173.631 528.199 173.363 526.485 172.621C520.471 170.021 517.691 171.86 514.302 173.49L512.894 172.708C511.748 171.888 511.632 172.743 512.184 171.214C512.576 170.126 514.418 170.698 511.95 170.11C515.05 167.026 511.396 171.133 515.266 168.555C517.548 167.034 515.995 166.885 519.031 165.622C521.416 164.63 523.051 164.965 527.322 160.876C529.894 158.414 530.122 156.507 534.042 155.002C536.536 154.046 540.224 153.384 544.094 151.522L537.477 146.7C534.995 145.311 532.275 145.871 527.63 143.636C525.92 145.958 523.678 147.96 519.79 148.706C519.442 145.7 517.962 144.812 514.302 144.2C511.029 147.711 511.322 148.133 507.38 149.365C503.889 150.455 501.512 151.928 497.858 153.226C494.836 154.3 490.047 154.873 487.844 156.171C477.011 162.55 463.566 166.694 452.267 172.855C448.247 175.047 449.019 173.889 446.385 174.824C444.451 175.511 445.41 175.169 443.743 177.433C439.464 177.365 437.854 175.9 433.551 175.18C431.274 176.275 432.499 176.319 429.631 176.87C431.32 181.415 432.877 178.541 424.968 181.405C421.932 182.505 412.53 186.453 410.815 188.135C417.083 189.184 416.521 187.328 421.791 186.445C420.352 187.989 416.469 189.884 413.703 190.774C406.042 193.237 410.25 191.017 406.111 195.458C394.582 195.458 403.39 193.063 394.106 197.535C392.298 198.406 382.181 201.395 378.671 206.16C372.851 206.16 373.063 206.406 369.263 207.85C363.195 204.931 366.981 206.57 363.775 202.217C358.515 204.031 359.072 201.784 359.072 211.23C355.744 211.283 352.044 212.569 347.032 213.282C342.515 213.925 344.453 212.72 343.391 214.61C338.946 214.539 341.612 214.845 339.25 213.643C337.882 212.947 339.458 213.593 337.947 212.889L336.401 212.31C332.981 211.003 334.856 212.28 333.26 210.06C332.438 208.918 333.277 209.812 332.19 208.576C331.726 208.049 331.429 207.911 330.848 207.287C333.6 205.012 335.247 204 341.04 203.908L341.823 206.161C342.983 202.586 349.075 200.704 343.391 197.712C343.391 200.081 343.681 200.682 341.823 202.218C341.823 199.675 342.753 195.694 338.496 196.482L336.966 196.962C332.309 198.486 316.033 210.082 311.241 211.815C307.561 213.146 306.653 211.626 304.192 212.357C303.02 211.145 304.077 211.615 301.84 211.23C303.043 212.475 301.968 211.93 304.192 212.357C303.744 212.637 304.89 213.252 302.156 213L300.272 212.357C299.524 213.476 299.146 214.371 298.704 215.736C296.155 215.584 297.413 215.59 295.864 214.96C295.717 214.901 295.539 214.797 295.394 214.735L289.296 211.793C287.401 214.63 289.698 213.52 286.101 215.733C282.653 217.853 284.943 217.118 280.672 216.863V212.92L277.567 213.552L277.536 207.287C276.177 206.771 275.479 206.651 274.234 206.28C267.361 204.233 273.42 202.622 267.706 199.705C263.389 197.5 264.255 198.987 262.116 196.398C259.1 192.745 257.159 191.102 248.501 192.032C246.127 192.287 241.671 192.547 239.661 193.031C237.669 193.51 234.679 195.148 232.517 195.236C229.376 195.363 231.825 193.308 231.228 189.89C230.17 183.836 220.655 183.721 214.474 179.933C211.202 177.927 213.09 176.591 211.056 174.502C208.498 171.876 198.619 172.945 192.86 172.924C181.856 172.882 182.942 173.886 179.287 174.277C177.555 174.462 177.685 174.1 174.833 174.054C171.201 177.951 171.32 177.41 167.071 180.306L163.073 183.63C157.888 183.32 161.427 180.394 155.235 186.447C154.244 187.415 153.145 188.686 151.716 189.552C151.02 189.974 150.278 190.258 149.449 190.74C148.542 191.267 148.736 191.372 147.393 192.079C143.164 191.826 137.773 189.94 135.62 188.145C131.822 184.979 132.042 183.63 123.874 183.63C119.309 188.527 122.503 186.455 123.09 191.516C119.382 190.237 120.215 191.742 118.343 188.73C118.266 188.605 118.209 188.443 118.131 188.319C118.054 188.197 117.982 188.04 117.901 187.92C117.823 187.804 117.724 187.657 117.64 187.545C116.812 186.44 117.663 187.655 116.697 186.533C115.664 185.332 115.747 185.727 115.25 184.193C105.073 184.193 101.43 181.172 98.6321 180.31C92.8679 178.535 99.3051 182.959 90.162 178.56C88.7432 179.243 87.5059 180.024 86.2418 180.813C84.2108 180.424 83.4015 179.832 81.5378 179.123C78.7881 182.074 72.4899 184.732 70.2328 186.209L68.2102 188.136C65.47 186.818 66.3434 186.211 62.5862 186.82C59.5692 187.309 58.8368 187.946 55.6663 188.136C54.8732 186.002 54.1324 186.716 53.3141 184.193C50.0145 185.93 51.6245 189.222 53.3141 191.516C47.9772 191.189 50.3401 190.865 49.786 189.38C49.4937 188.596 49.7079 187.258 45.4741 186.446C42.6099 187.824 43.9769 187.987 41.5542 189.263C41.5542 186.157 40.8367 187.568 40.2587 184.305C39.9702 182.678 42.4492 184.365 39.2944 182.442C38.4559 181.931 37.4248 181.637 36.0659 181.377C32.7235 191.684 26.3372 189.983 20.2773 195.944C17.5736 198.604 9.7262 206.12 5.62891 205.578L0.786133 205.034C0.422852 206.155 0.171753 208.583 0.00244141 211.829V260.236C0.00244141 278.824 0.00244141 297.412 0.00244141 316H1920V150.959L1915.9 153.648C1913.09 153.548 1915.43 153.5 1912.16 152.649C1909.87 155.756 1907.71 159.844 1905.99 161.174C1904.35 162.453 1904.49 160.963 1903.54 163.915H1901.97C1901.4 162.166 1900.97 162.283 1900.4 160.535C1896.58 160.763 1893.42 163.325 1890.66 160.208C1890.28 159.773 1889.51 157.582 1889.46 157.089C1889.3 155.458 1890.3 151.425 1890.99 150.396C1887.67 151.033 1889.69 150.887 1887.15 152.706C1880.98 157.125 1884.52 154.192 1878.15 156.378C1876.17 157.058 1875.08 157.787 1873.61 158.221C1868.87 159.618 1867.56 156.884 1865.54 161.39C1862.3 168.608 1862.94 165.382 1860.42 167.857C1860.73 167.95 1862.73 167.5 1861.51 170.772C1860.95 172.292 1860.57 172.712 1859.37 173.862C1857.49 175.662 1855.02 176.806 1851.01 176.87C1852.25 180.709 1850.59 183.279 1844.74 183.629C1840.96 181.814 1843.3 180.539 1838.46 180.25C1839.43 181.567 1839.81 181.716 1840.03 183.629C1830.32 185.255 1835.36 181.707 1828.45 178.996L1825.89 178.019C1824.01 177.271 1822.77 176.698 1820.43 176.307C1821.68 179.667 1821.48 176.347 1824.73 179.414C1826.11 180.72 1826.64 182.161 1826.7 184.193H1826.71ZM1050.55 152.086L1052.08 152.733L1050.55 152.086C1049.38 150.874 1050.44 151.344 1048.2 150.959C1049.4 152.204 1048.33 151.659 1050.55 152.086ZM1162.66 158.845L1161.76 159.943L1162.66 158.845L1163.57 157.747L1162.66 158.845ZM1709.89 187.009L1710.67 186.446H1711.46L1710.81 185.789L1710.67 186.446L1709.89 187.009H1709.11L1709.76 187.666L1709.89 187.009ZM1276.34 158.845L1277.13 158.282H1277.91L1277.26 157.624L1277.13 158.282L1276.34 158.845H1275.56L1276.21 159.502L1276.34 158.845ZM1630.71 186.446H1631.49L1630.84 185.789L1630.71 186.446C1628.79 187.456 1629.02 187.212 1628.36 189.262C1630.39 188.283 1630.45 188.689 1630.71 186.446ZM1711.46 121.669V121.105L1710.54 121.575L1711.46 121.669C1711.74 124.108 1711.9 124.84 1715.38 125.048C1715.12 122.783 1714.15 122.185 1711.46 121.669ZM1640.12 154.339H1640.9L1640.25 153.682L1640.12 154.339C1638.2 154.704 1639.06 154.089 1638.55 155.465L1640.12 154.339ZM1292.02 147.579H1292.81L1292.15 146.922L1292.02 147.579C1289.31 148.1 1289.61 147.885 1288.89 149.833C1291.6 149.313 1291.3 149.527 1292.02 147.579ZM1662.07 161.098H1661.28L1661.94 161.755L1662.07 161.098L1665.17 160.466C1664.51 160.225 1666.34 159.677 1663.71 160.1C1662.33 160.321 1662.85 160.328 1662.07 161.098ZM515.87 143.073H515.086L515.739 143.73L515.87 143.073C519.897 142.026 515.243 143.127 518.123 141.875C519.865 141.118 518.609 141.427 521.358 141.383C518.188 138.275 513.439 140.071 511.166 142.51C511.521 142.51 513.33 142.464 513.55 142.486L515.87 143.073V143.073ZM1603.27 205.034H1602.48L1603.14 205.691L1603.27 205.034C1604.9 204.722 1606.06 204.21 1607.37 203.472C1609.14 202.47 1609.31 202.48 1609.54 200.528C1605.74 202.357 1605.52 201.973 1603.27 205.034ZM1322.6 179.686H1321.81L1322.47 180.343L1322.6 179.686C1324.84 179.302 1323.78 179.772 1324.95 178.56C1322.66 178.954 1323.82 178.487 1322.6 179.686ZM1082.7 99.1373C1084.06 98.1591 1081.74 98.7758 1082.48 99.1487C1082.49 99.1519 1082.65 99.174 1082.7 99.1373ZM1299.08 179.123C1299.08 177.724 1297.82 178.979 1298.59 179.123C1298.6 179.125 1299.08 180.721 1299.08 179.123ZM1609.54 198.838C1609.85 197.629 1608.41 198.457 1608.48 198.952L1608.76 199.059C1610.23 198.993 1609.24 200.002 1609.54 198.838ZM1038.79 172.364C1038.76 172.177 1037.93 172.238 1037.86 172.256C1037.66 172.309 1036.5 170.952 1037.52 172.408C1037.54 172.439 1038.98 173.449 1038.79 172.364H1038.79ZM1054.47 174.617C1054.44 174.431 1053.61 174.491 1053.54 174.509C1053.34 174.562 1052.18 173.206 1053.2 174.661C1053.22 174.693 1054.66 175.702 1054.47 174.617H1054.47ZM1747.52 197.711C1747.92 196.145 1745.65 197.982 1746.75 197.933C1748.21 197.867 1747.22 198.875 1747.52 197.711ZM1721.65 181.939C1722.05 180.373 1719.78 182.21 1720.87 182.161C1722.34 182.095 1721.35 183.103 1721.65 181.939ZM1652.66 195.458C1653.06 193.892 1650.79 195.729 1651.88 195.679C1653.35 195.613 1652.36 196.622 1652.66 195.458ZM1699.7 196.585C1699.7 195.923 1698.01 195.315 1698.48 196.585C1698.96 197.857 1696.49 196.6 1698.85 196.751C1699.83 196.815 1699.7 197.729 1699.7 196.585ZM1464.5 134.061C1464.5 133.398 1462.81 132.791 1463.29 134.061C1463.76 135.333 1461.29 134.076 1463.65 134.228C1464.64 134.291 1464.5 135.206 1464.5 134.061ZM1602.48 201.654C1602.48 200.992 1600.8 200.385 1601.27 201.654C1601.74 202.927 1599.28 201.67 1601.63 201.821C1602.62 201.885 1602.48 202.799 1602.48 201.654ZM174.049 115.472C174.049 114.81 172.362 114.203 172.835 115.472C173.31 116.745 170.841 115.488 173.198 115.639C174.185 115.703 174.049 116.617 174.049 115.472ZM1920 149.327C1919.79 148.947 1918.89 149.552 1918.94 149.946C1918.95 149.949 1919 150.037 1919.01 150.038C1919.73 150.175 1919.95 150.323 1920 150.361V150.346C1919.97 150.292 1919.92 150.14 1920 149.832V149.327ZM1255.17 154.339C1255.49 153.129 1254.05 153.958 1254.12 154.453C1254.12 154.455 1254.17 154.543 1254.18 154.544C1255.75 154.843 1254.95 155.195 1255.17 154.338V154.339ZM1515.46 132.934C1514.65 132.355 1512.62 133.745 1514.55 133.238C1514.57 133.233 1516.78 133.879 1515.46 132.934ZM1644.03 198.274L1642.47 199.964C1644.53 199.412 1643.63 199.975 1644.03 198.274ZM1321.03 196.021C1321.34 194.812 1319.9 195.64 1319.97 196.135C1319.99 196.255 1320.66 197.46 1321.03 196.021ZM1431.57 200.527C1431.41 199.885 1429.85 199.296 1430.52 200.413C1430.8 200.885 1431.95 201.99 1431.57 200.527ZM192.081 0.562866C192.026 0.348724 191.816 0.140839 191.586 -0.000244141H190.861C190.857 0.0998535 190.905 0.246368 191.026 0.449188C191.309 0.920959 192.458 2.02573 192.081 0.562866H192.081ZM1539.76 128.428C1539.6 127.785 1538.04 127.196 1538.71 128.314C1538.99 128.786 1540.14 129.89 1539.76 128.428ZM1756.15 193.768C1755.98 193.125 1754.42 192.536 1755.09 193.654C1755.37 194.126 1756.52 195.231 1756.15 193.768ZM1670.69 188.135C1671.89 189.38 1670.82 188.835 1673.04 189.262C1671.81 187.984 1672.89 188.604 1670.69 188.135ZM1740.47 172.926C1741.67 174.171 1740.59 173.627 1742.82 174.053C1741.58 172.775 1742.67 173.395 1740.47 172.926ZM1372.77 179.686C1373.32 181.333 1372.67 180.497 1374.34 181.376C1373.83 179.832 1374.66 180.499 1372.77 179.686ZM1779.67 154.901C1780.21 156.548 1779.56 155.713 1781.23 156.591C1780.72 155.047 1781.55 155.714 1779.67 154.901ZM1643.25 190.388H1640.9V190.951H1643.25V190.388ZM1392.37 170.11H1391.59V171.8H1392.37V170.11ZM1430.79 162.788H1430.01V164.477H1430.79V162.788ZM1770.26 133.497H1767.91V134.06H1770.26V133.497ZM1490.37 161.661H1489.59V163.351H1490.37V161.661ZM1419.81 162.224H1419.03V163.914H1419.81V162.224ZM1625.22 128.428H1622.87V128.991H1625.22V128.428ZM1536.63 127.864H1534.28V128.428H1536.63V127.864ZM1410.41 165.041H1409.62V166.731H1410.41V165.041ZM1679.32 167.294H1678.53V168.984H1679.32V167.294ZM1818.87 167.857H1816.51V168.421H1818.87V167.857ZM1655.8 137.44H1653.44V138.004H1655.8V137.44ZM1741.25 179.123H1740.47V180.813H1741.25V179.123ZM816.139 183.629C813.848 184.023 815.01 183.557 813.787 184.756C815.162 184.519 815.888 184.685 816.139 183.629ZM1296.73 159.972C1294.43 160.366 1295.6 159.899 1294.37 161.098C1295.75 160.862 1296.48 161.027 1296.73 159.972ZM794.972 193.205C792.68 193.599 793.842 193.132 792.619 194.331C793.994 194.095 794.72 194.261 794.972 193.205ZM833.387 159.972C831.655 160.837 832.413 160.064 831.819 161.661C833.116 161.014 833.327 161.542 833.387 159.972ZM1415.89 158.845C1414.16 159.71 1414.92 158.937 1414.33 160.535C1415.62 159.888 1415.83 160.416 1415.89 158.845ZM1627.57 189.825C1625.84 190.691 1626.6 189.918 1626 191.515C1627.3 190.868 1627.51 191.396 1627.57 189.825ZM337.904 193.205C336.172 194.07 336.93 193.297 336.336 194.895C337.633 194.248 337.844 194.776 337.904 193.205ZM94.0829 176.307C92.3501 177.172 93.1083 176.399 92.5148 177.997C93.8116 177.349 94.0227 177.877 94.0829 176.307ZM1605.62 200.528C1603.89 201.393 1604.65 200.62 1604.05 202.218C1605.35 201.57 1605.56 202.098 1605.62 200.528ZM536.255 157.155C534.522 158.021 535.28 157.248 534.687 158.845C535.984 158.198 536.194 158.726 536.255 157.155ZM1225.38 151.523C1223.65 152.388 1224.41 151.615 1223.82 153.213C1225.11 152.565 1225.32 153.093 1225.38 151.523ZM1386.89 177.997C1384.45 179.26 1384.45 178.423 1386.89 179.687V177.997ZM1416.68 154.902C1414.24 156.166 1414.24 155.329 1416.68 156.592V154.902ZM1657.36 198.838C1657.72 198.581 1659.2 198.89 1657.38 198.147C1656.6 197.827 1655.45 198.046 1656.4 198.85C1657.63 199.89 1656.83 199.222 1657.36 198.838ZM1626.79 168.984C1624.43 169.437 1625.07 168.977 1624.44 170.674C1627.59 169.854 1624.55 171.143 1626.79 168.984ZM1832.19 166.731V167.858H1834.55C1833.31 166.58 1834.4 167.2 1832.19 166.731ZM1328.87 187.009H1326.52C1327.72 188.254 1326.65 187.709 1328.87 188.136V187.009ZM1636.2 158.282C1633.9 158.676 1635.07 158.209 1633.84 159.408H1636.2V158.282ZM814.572 162.788C812.28 163.182 813.443 162.716 812.22 163.915H814.572V162.788ZM798.108 192.079C795.816 192.473 796.979 192.006 795.756 193.205H798.108V192.079ZM1752.23 170.674H1750.66C1751.21 172.321 1750.56 171.485 1752.23 172.364V170.674ZM1720.08 190.389C1719.9 190.686 1717.6 190.737 1721.65 191.515C1721.23 190.388 1722.66 191.288 1721.02 190.36C1719.66 189.587 1721.14 190.013 1720.08 190.389L1720.08 190.389ZM1762.42 165.604H1760.07V166.731C1761.44 166.494 1762.17 166.66 1762.42 165.604ZM1425.3 186.446H1423.73V188.136C1425.03 187.488 1425.24 188.016 1425.3 186.446ZM1582.1 180.249H1580.53V181.939C1581.83 181.292 1582.04 181.82 1582.1 180.249ZM1283.4 154.339C1282.6 154.491 1280.37 154.416 1281.83 155.465C1282.67 156.07 1283.34 155.954 1283.4 154.339ZM1622.25 160.092L1619.73 159.972V161.661L1622.25 160.092V160.092ZM1707.54 179.123C1704.36 179.655 1705.18 179.274 1704.4 180.813C1706.96 179.84 1705.95 180.767 1707.54 179.123ZM974.506 172.364C970.865 172.581 973.135 171.76 971.37 173.49C973.214 173.38 974.224 173.55 974.506 172.364ZM1110.92 167.294C1108.51 168.562 1109.66 166.931 1109.35 169.547C1111.36 168.491 1110.92 169.742 1110.92 167.294ZM1783.59 152.085C1781.18 153.354 1782.32 151.723 1782.02 154.339C1784.02 153.283 1783.59 154.534 1783.59 152.085ZM1335.93 185.319L1332.82 184.687C1333.51 185.529 1335.5 187.514 1335.93 185.319ZM969.802 172.364C967.44 172.817 968.081 172.356 967.45 174.053C969.24 173.71 969.742 173.925 969.802 172.364ZM716.573 180.249C713.72 180.727 714.059 180.56 712.653 181.939C715.405 181.479 715.238 181.629 716.573 180.249ZM1410.41 167.857H1408.84V169.547H1410.41V167.857ZM1135.22 166.731C1132.4 167.273 1133.13 166.782 1132.87 168.984C1135.04 167.841 1133.93 168.607 1135.22 166.731ZM1001.16 168.984C1000.66 169.401 1000.57 169.113 1000.11 169.915C999.339 171.228 999.778 170.212 999.594 171.8C1001.75 170.663 1001.16 171.84 1001.16 168.984H1001.16ZM786.348 178.56C788.113 180.29 785.843 179.468 789.484 179.686C787.995 178.088 788.385 177.955 786.348 178.56ZM1423.73 188.699V191.515C1423.8 191.463 1424.85 191.207 1425.04 190.186C1425.31 188.745 1425.01 189.369 1423.73 188.699ZM1763.99 162.224V165.041C1764.95 164.533 1765.25 164.857 1765.33 163.908C1765.45 162.491 1764 162.232 1763.99 162.224ZM1259.1 151.522L1255.98 152.68C1256.55 153.408 1256.39 153.271 1256.74 154.339L1259.1 151.522ZM1724 191.515V192.642H1727.14C1725.37 190.905 1727.65 191.738 1724 191.515ZM1422.17 165.041H1420.6C1420.9 167.657 1419.76 166.026 1422.17 167.294V165.041ZM1430.79 159.971H1429.22V162.224C1431.23 161.169 1430.79 162.419 1430.79 159.971ZM1455.88 189.262C1453.14 189.787 1454.12 189.476 1452.74 190.952C1455 190.817 1455.81 190.964 1455.88 189.262ZM1607.97 151.522C1605.94 152.591 1606.31 152.784 1605.62 154.902C1607.65 153.833 1607.29 153.64 1607.97 151.522ZM1348.47 179.123C1346.11 179.576 1346.75 179.116 1346.12 180.813H1348.47V179.123ZM1524.87 175.18C1524.87 173.594 1524.53 174.137 1523.3 173.49V176.306C1524 176.025 1524.87 175.94 1524.87 175.18ZM1313.19 189.825H1310.06V191.515C1312.61 190.542 1311.6 191.469 1313.19 189.825ZM1439.41 181.939H1438.63C1438.63 184.933 1436.23 183.644 1439.41 185.319V181.939ZM1644.82 171.237L1642.3 172.806C1645.72 174.008 1645.53 173.362 1644.82 171.237ZM1242.63 167.294C1240.63 168.256 1240.18 168.259 1239.5 170.111C1242.11 169.118 1241.85 169.701 1242.63 167.294ZM1553.88 122.232C1555.26 123.587 1555.45 123.734 1558.58 123.922C1557.2 122.566 1557.01 122.419 1553.88 122.232ZM1756.93 126.738H1753.01V127.864C1755.1 127.831 1756.62 128.046 1756.93 126.738ZM983.914 171.8H979.995V172.927C982.085 172.894 983.603 173.109 983.914 171.8ZM1830.63 168.984C1827.54 169.5 1827.44 169.604 1825.92 171.237C1829.01 170.721 1829.1 170.618 1830.63 168.984ZM1624.44 193.768C1624.34 193.926 1622.65 193.585 1624.61 194.819C1625.52 195.391 1625.25 195.67 1626.23 194.966C1628.3 193.474 1626.05 193.805 1626.03 193.797C1624.54 192.805 1624.88 193.62 1624.44 193.768V193.768ZM1310.06 195.458H1308.49V198.275H1310.06V195.458ZM1737.33 188.136C1733.62 188.195 1734.25 187.563 1733.41 189.826C1736.24 189.656 1736.24 189.582 1737.33 188.136ZM1353.17 180.813C1350.4 181.345 1350.76 181.414 1350.04 183.63C1353.69 182.929 1351.56 183.226 1353.17 180.813ZM1317.11 185.883C1313.84 187.458 1315.56 186.885 1313.98 189.262C1313.98 189.26 1314.98 189.49 1316.26 188.091C1317.2 187.067 1316.93 187.444 1317.11 185.883ZM1651.09 196.585C1651.5 199.273 1650.02 197.535 1653.44 198.838C1654.02 196.897 1654.66 196.799 1651.09 196.585ZM1288.89 150.959C1286.35 151.446 1284.68 152.399 1283.4 153.776C1286.66 153.229 1287.27 152.696 1288.89 150.959ZM1317.11 184.193C1313.47 184.251 1313.22 184.262 1312.41 186.446C1314.82 185.983 1313.99 186.138 1316.69 184.453C1316.77 184.4 1316.97 184.28 1317.11 184.193ZM1266.94 148.706C1264.54 149.106 1265.04 149.379 1263.02 148.706C1262.4 150.373 1262.7 149.619 1261.45 150.959C1264.08 150.519 1265.57 150.049 1266.94 148.706ZM1551.52 123.922C1551.13 123.42 1551.01 122.795 1549.96 122.795C1547.79 122.795 1548.07 123.23 1547.6 124.485C1549.26 124.459 1550.71 124.585 1551.52 123.922V123.922ZM820.844 171.237C818.763 170.52 820.005 170.724 816.924 170.674C817.206 171.519 817.096 172.364 818.492 172.364C819.909 172.364 820.643 172.082 820.844 171.238V171.237ZM1205 153.776C1203.23 155.239 1202.72 155.832 1202.65 158.282C1205.25 156.135 1205 156.504 1205 153.776ZM1342.98 172.927C1344.36 174.283 1344.55 174.43 1347.69 174.617C1346.04 172.852 1345.71 172.022 1342.98 172.927ZM1502.92 163.351C1500.86 164.34 1501.3 163.636 1500.57 165.605C1500.58 165.614 1502.03 166.168 1502.13 166.168C1506.22 166.168 1503.3 165.884 1502.92 163.351H1502.92ZM1116.41 167.858H1114.84L1113.16 171.775C1115.71 170.63 1116.32 170.678 1116.41 167.858ZM1682.45 176.87C1682.09 177.043 1681.11 177.361 1680.54 177.751C1679.3 178.599 1679.94 177.88 1679.32 179.123C1680.26 179.689 1683.83 181.125 1682.45 176.87L1682.45 176.87ZM1292.81 150.959C1289.54 151.506 1288.94 152.039 1287.32 153.776C1289.58 153.641 1289.26 153.716 1290.86 152.938C1293.01 151.895 1292.24 152.479 1292.81 150.959ZM1546.04 163.351C1541.47 162.566 1542.35 162.153 1540.55 163.915C1542.86 164.301 1542.94 164.478 1546.04 164.478V163.351ZM1691.86 187.573C1689.06 188.042 1686.28 188.936 1684.8 190.389C1688.87 190.146 1690.09 189.473 1691.86 187.573ZM1312.41 163.351C1309.72 165.988 1310.18 162.752 1310.05 166.731C1310.18 166.672 1312.42 165.689 1312.48 165.654C1314.79 164.308 1313.68 165.896 1313.98 163.351H1312.41L1314.25 161.701C1315.17 159.987 1313.15 159.301 1312.08 154.576C1310.91 149.452 1310.31 147.482 1303 148.706V149.833C1306.47 149.888 1307.17 150.42 1309.39 154.817C1311.05 158.104 1310.84 158.829 1310.84 163.351H1312.41H1312.41ZM1103.08 166.731C1099.02 166.731 1100.04 166.229 1098.38 167.858C1098.77 168.359 1098.89 168.984 1099.94 168.984C1102.26 168.984 1102.65 168.031 1103.08 166.731V166.731ZM1668.34 134.061V133.498C1663.46 133.498 1660.72 134.735 1659.72 137.441C1662.04 136.32 1664.76 134.061 1668.34 134.061ZM1207.35 138.004C1205.23 138.004 1205.19 138.273 1203.43 138.567C1203.99 138.848 1203.77 138.9 1204.88 139.22C1206.19 139.602 1205.47 139.456 1206.69 139.609C1208.06 139.781 1209.85 139.694 1211.27 139.694C1210.37 138.806 1209.45 138.004 1207.35 138.004ZM1248.9 159.409C1246.11 160.755 1245.85 161.801 1244.98 164.478C1247.24 164.045 1246.94 164.09 1247.93 162.653C1248.75 161.459 1248.85 161.07 1248.9 159.409V159.409ZM1428.44 196.585C1425.07 196.384 1427.02 196.665 1424.52 195.459C1424.46 197.175 1424.16 197.512 1423.73 198.838C1427.28 198.782 1427.71 198.764 1428.44 196.585ZM1828.27 154.902C1827.54 152.934 1827.98 153.637 1825.92 152.649C1822.95 154.08 1822.36 155.728 1824.85 155.704C1824.86 155.704 1826.15 155.033 1828.27 154.902ZM1281.83 114.346C1277.89 114.409 1278 114.983 1277.91 117.726C1281.26 117.165 1281.74 117.271 1281.83 114.346ZM1899.62 143.074C1899.83 144.934 1900.64 146.453 1901.19 148.143H1902.75C1902.75 145.08 1903.06 143.734 1899.62 143.074H1899.62ZM1727.92 186.446C1726.18 186.781 1725.57 186.578 1725.57 188.136V190.952C1730.5 190.658 1727.92 190.143 1727.92 186.446V186.446ZM839.659 149.833C838.164 146.865 837.545 148.927 831.819 149.27V150.396C832.421 150.36 834.424 150.087 834.428 150.087C835.368 150.048 838.528 150.825 839.659 149.833ZM1769.47 168.984C1767.68 167.056 1767.58 167.237 1764.77 166.168V170.674C1766.63 169.966 1767.44 169.374 1769.47 168.984V168.984ZM1303 207.288V208.977H1299.08L1302.2 207.84C1302.31 207.782 1302.53 207.629 1302.62 207.579C1302.71 207.529 1302.87 207.384 1303 207.288ZM1571.91 188.699L1565.64 191.516L1576.17 189.507C1579.53 188.632 1577.02 190.04 1578.96 188.136L1571.91 188.699ZM1442.55 187.573C1438.94 188.265 1439.41 188.743 1439.41 192.079C1439.41 193.665 1439.75 193.122 1440.98 193.769C1441.87 191.035 1442.55 191.223 1442.55 187.573H1442.55ZM1827.49 172.927C1830.45 173.909 1828.98 173.978 1830.63 172.364C1828.17 170.887 1825.15 172.73 1823.57 173.491C1824.62 175.057 1824.35 174.581 1824.35 176.87H1825.92C1826.29 173.658 1827.12 176.139 1827.49 172.927H1827.49ZM753.42 159.409C753.42 156.376 749.045 156.592 744.796 156.592L747.254 157.643C748.243 157.797 749.996 157.719 751.068 157.719C751.99 160.847 750.471 160.357 749.5 163.352C751.096 162.584 753.42 161.274 753.42 159.409V159.409ZM1669.12 140.257C1668.44 138.415 1667.16 137.817 1665.2 136.878C1661.85 138.035 1662.26 136.506 1661.28 139.131C1664.89 139.735 1666.39 140.962 1669.12 140.257ZM1508.4 171.801C1507.41 170.306 1507.69 171.198 1507.62 168.984C1506.44 169.553 1505.36 170.128 1503.99 170.883C1502.03 171.964 1501.94 172.238 1501.35 174.054C1505.67 173.985 1505.9 173.008 1508.41 171.801H1508.4ZM1676.18 132.371L1669.91 132.934C1672.67 134.194 1677.81 133.588 1677.75 135.188C1677.68 136.81 1684.21 137.072 1680.99 134.048C1679.79 132.923 1678.81 132.371 1676.18 132.371H1676.18ZM1332.79 188.699C1330.04 189.226 1331.1 188.923 1329.61 190.36C1328.7 191.247 1328.08 191.903 1326.97 192.967C1325.09 194.772 1323.35 195.948 1322.6 198.275C1325.79 198.084 1324.47 198.622 1326.05 196.808L1330.66 191.673C1332.14 190.257 1332.12 190.769 1332.79 188.699V188.699ZM814.572 185.319C809.281 186.205 806.692 187.573 802.466 189.577C800.12 190.689 800.407 190.113 799.676 192.079C802.702 191.572 812.359 187.694 814.572 185.319ZM1721.65 173.491C1719.84 173.491 1717.48 174.27 1715.67 174.83C1713.1 175.63 1712.81 175.989 1711.46 177.433C1713.16 177.107 1719.14 173.128 1724.25 177.29C1727.22 179.707 1722.15 178.81 1727.14 179.123C1726.71 175.408 1721.72 173.49 1721.65 173.49V173.491ZM740.877 171.237C735.145 171.58 724.834 176.426 722.845 178.56C726.374 177.969 739.126 173.116 740.877 171.237ZM1549.96 160.535C1547.92 158.541 1546.32 159.461 1545.25 156.592H1542.9L1542.12 161.098C1546.94 162.933 1545.2 162.345 1549.96 160.535ZM1530.36 161.662C1530.36 163.683 1533.3 164.659 1534.28 167.295C1538.36 166.511 1537.99 163.404 1537.43 162.79C1536.58 161.871 1530.36 159.564 1530.36 161.662ZM1589.16 150.959C1587.78 149.484 1587.2 148.624 1586.02 147.016L1581.34 147.665C1581.31 152.333 1581.73 150.917 1580.53 152.649C1584.77 152.649 1582.77 152.631 1586.23 151.674L1589.16 150.959H1589.16ZM1033.31 149.269C1030.97 149.307 1030.56 149.16 1027.66 150.849C1026.07 151.778 1024.97 152.624 1023.9 153.776C1031.97 152.425 1029.8 153.096 1037.23 154.339C1036.17 151.5 1034.47 152.866 1033.31 149.269V149.269ZM1774.96 174.054H1779.67C1778.3 172.714 1778.03 172.364 1771.04 172.364C1766.41 172.364 1773.85 173.536 1767.08 172.898C1767.03 172.893 1764.77 171.756 1764.77 174.617C1764.77 176.581 1768.44 175.18 1770.26 175.18C1773.21 175.18 1771.74 175.551 1774.96 175.744V174.054V174.054ZM1378.26 173.491C1378.26 171.404 1377.5 170.946 1375.91 170.111C1375.73 171.632 1375.54 171.643 1375.13 172.927C1372.81 172.482 1373.86 172.698 1371.99 171.801C1371.99 178.204 1369.64 172.651 1368.07 176.87C1368.76 177.144 1368.21 177.084 1369.03 177.143C1376.38 177.678 1375.57 176.624 1377.03 174.863C1378.09 173.59 1378.26 174.466 1378.26 173.491L1378.26 173.491ZM823.98 177.433C819.542 177.504 816.751 179.281 813.533 180.63C811.075 181.659 805.723 184.003 804.38 185.319C807.646 185.124 817.221 181.701 820.235 180.376C822.458 179.398 823.253 179.389 823.98 177.433ZM851.42 172.364C848.704 171.428 845.553 172.677 842.686 173.412C835.689 175.205 835.717 174.822 834.956 176.87C838.358 176.816 841.916 175.721 845.148 175.18C844.248 177.881 844.614 176.056 845.148 176.87C852.314 175.505 844.795 177.214 849.732 174.004L851.42 172.364H851.42ZM1617.38 141.947C1609.13 140.691 1614.72 145.572 1607.19 147.016C1608.23 148.582 1607.97 148.107 1607.97 150.396C1612.19 150.144 1612.11 149.494 1613.74 147.216C1615.2 145.168 1617.11 144.289 1617.38 141.947V141.947ZM1626 184.756C1629 184.756 1626.6 185.575 1631.49 184.756C1630.42 181.456 1630.55 183.53 1628.36 181.376C1622.09 183.757 1618.43 182.522 1614.24 187.009C1620.15 186.915 1623.59 184.756 1626 184.756ZM1573.48 154.339C1577.15 153.073 1576.73 154.838 1578.96 152.649C1575.91 152.649 1572.73 152.499 1569.74 152.809C1564.76 153.326 1565.95 152.649 1560.93 152.649C1560.93 159.289 1565.41 155.466 1567.2 155.466C1572.66 155.466 1570.74 155.278 1573.48 156.592V154.339L1573.48 154.339ZM1636.2 136.314C1633.53 136.155 1633.33 135.885 1631.49 135.187C1630.97 138.606 1632.13 135.663 1627.68 138.079C1625.75 139.121 1625.27 140.822 1625.54 142.393C1625.91 144.545 1626.11 144.332 1628.36 144.763C1629.59 140.96 1634.99 139.564 1636.2 136.314ZM1422.17 188.699L1419.53 189.061C1419.39 189.11 1419.17 189.225 1419.05 189.278L1416.65 176.887C1416.64 174.328 1416.08 165.368 1415.11 163.915C1413.23 164.46 1414.36 163.686 1413.38 164.971C1412.13 166.621 1414.85 175.308 1415.12 179.679C1415.51 185.891 1415.76 191.899 1417.46 197.148C1420.67 195.481 1416.79 196.592 1418.61 192.95C1419.25 191.677 1421.33 190.947 1422.17 188.699H1422.17Z" fill="white"/>
</svg>
