<svg width="1920" height="312" viewBox="0 0 1920 312" fill="none" xmlns="http://www.w3.org/2000/svg">
<path fill-rule="evenodd" clip-rule="evenodd" d="M93.2946 181.861L95.6101 179.61C96.6176 178.411 96.3016 178.364 97.7744 177.208C101.672 174.151 99.7108 178.352 104.271 174.631C103.001 171.915 104.056 174.44 103.164 173.846C101.692 172.866 103.307 175.522 101.919 172.963C112.375 169.403 117.106 171.052 116.944 168.14C116.786 165.307 115.525 169.468 116.815 167.401C118.947 164.786 121.187 167.026 123.657 163.912C124.061 163.403 127.02 156.74 134.847 156.278C134.206 155.47 134.466 155.689 134.063 154.609L137.176 153.467L137.199 156.834C135.124 156.444 136.554 156.879 134.847 156.278C134.1 157.59 134.787 156.513 133.03 157.77C129.903 160.006 125.166 164.159 125.406 167.353C125.822 172.906 130.557 173.217 131.143 176.584C131.506 178.674 129.585 179.158 132.44 180.293C135.762 181.615 138.395 179.501 139.483 179.094L141.179 178.654C143.886 177.689 142.332 176.845 145.822 175.187C145.822 178.137 145.858 178.471 146.606 180.749C151.016 179.248 148.661 181.364 149.899 178.635C150.393 177.546 150.526 175.75 150.526 174.075C153.137 175.432 152.094 174.647 152.094 181.305C157.782 183.44 156.185 185.187 157.274 188.36C157.498 189.012 161.007 194.297 164.866 195.047L174.83 196.321C175.192 193.971 174.057 194.652 178.75 194.652C178.75 191.223 180.011 192.413 181.102 189.091L182.769 191.246C183.832 192.38 183.092 191.424 183.805 192.186L186.59 197.433L188.856 195.148C189.732 193.799 189.689 193.085 190.51 191.872C193.939 193.654 191.165 192.862 194.43 196.321C197.786 196.321 198.761 195.683 201.94 195.962C204.594 196.195 206.895 196.628 209.393 196.837C220.614 197.779 215.684 196.155 219.165 196.192C220.547 196.206 220.872 196.583 222.654 196.877C223.274 195.992 223.457 197.9 222.654 195.208C226.403 197.157 222.155 196.877 229.71 196.877C228.877 195.76 229.038 195.876 227.89 194.831C226.292 193.374 226.574 194.511 225.79 192.428C229.136 193.684 229.162 194.495 231.717 195.495C235.734 197.067 231.509 195.643 234.596 195.545C237.351 195.458 235.077 195.704 238.334 196.321V193.54C243.157 194.454 238.677 195.971 244.605 196.321C243.081 194.706 243.019 195.574 242.253 193.54L245.39 192.984C240.691 192.094 237.861 189.136 245.39 186.31C246.441 188.116 245.427 189.37 244.605 191.872C250.084 192.297 244.884 192.252 247.456 192.983C249.361 193.525 250.502 192.642 252.758 190.983C255.719 188.805 254.303 191.741 254.798 188.535H264.205C266.421 190.348 268.39 192.478 264.205 194.652C263.467 193.541 265.316 193.871 261.853 190.203C256.816 190.203 253.465 191.942 252.445 194.652C255.97 194.926 254.412 193.82 254.798 196.321C261.779 195.909 254.188 194.57 260.285 194.096C261.719 196.295 258.083 198.229 262.568 198.587L263.237 198.585C263.306 198.595 263.513 198.632 263.587 198.648C266.149 199.224 263.245 199.416 267.341 199.658L267.944 197.828C268.527 197.057 269.761 196.349 270.477 195.765L272.113 198.497C272.19 198.615 272.284 198.76 272.359 198.879L273.54 200.821C274.05 201.475 274.493 201.71 275.181 202.438H280.669C281.346 200.376 282.111 200.706 280.44 198.755C279.175 197.279 280.491 200.157 279.101 197.433C282.705 198.028 282.488 197.546 284.746 200.102L286.688 202.617C286.744 202.697 286.835 202.877 286.941 202.995C287.491 201.523 286.878 202.537 287.724 201.326C286.929 200.58 286.941 202.496 286.941 199.658H287.724V201.326H289.292C289.008 198.9 289.156 200.133 287.29 198.297C286.95 197.962 286.2 197.156 286.049 196.953C281.78 191.226 283.553 195.338 277.532 192.984C277.941 189.499 279.485 191.679 280.668 188.535H282.236C283.753 193.153 286.961 190.496 288.508 190.204C287.804 191.284 287.709 192.323 289.37 194.012C291.24 195.914 289.35 194.234 291.569 195.262C293.13 195.985 291.385 194.9 292.977 195.932L293.996 196.877L295.407 195.654C298.667 197.239 298.686 198.431 300.268 200.77L307.324 197.99V200.77H311.244C310.535 201.785 310.639 201.466 310.46 202.995C314.618 201.58 316.595 204.371 323.822 207.421C324.023 207.506 324.564 207.778 324.775 207.856C327.221 208.767 323.195 208.29 327.708 208.557C324.443 205.098 322.799 205.688 318.3 203.551C319.259 202.265 319.004 202.632 320.224 201.56C320.992 200.884 321.533 201.556 321.962 199.459C322.588 196.407 320.006 199.064 319.868 194.653C322.534 194.212 330.913 192.929 333.52 193.173L337.405 193.853C340.623 194.613 339.829 193.022 340.252 195.765C343.996 195.765 343.502 195.388 346.524 195.209L345.644 197.412C349.87 197.502 352.099 198.915 355.375 199.334C358.87 199.782 354.278 199.217 357.586 199.345C359.923 199.435 359.383 199.45 361.42 200.215C361.242 199.675 360.859 198.454 360.599 198.016C359.508 196.183 355.967 195.232 353.579 194.097C355.323 191.034 351.543 197.135 355 192.876L355.505 191.1C355.593 187.428 355.54 190.545 356.715 187.423C358.936 187.554 362.069 188.512 363.771 189.092C363.091 186.812 364.121 187.494 362.987 185.755C365.65 185.598 365.857 185.331 367.691 184.643C368.349 185.339 371.557 188.2 372.409 188.526C376.952 190.262 377.302 187.158 378.667 191.316H380.235C381.558 187.288 377.083 184.991 371.611 184.086C372.302 182.25 373.727 181.24 376.315 180.75C377.453 183.773 378.221 182.475 382.199 183.265C387.933 184.404 383.148 184.47 389.643 184.086C390.152 179.752 392.415 181.078 392.779 177.969C395.456 179.36 393.563 178.804 393.563 182.418C393.968 182.556 395.16 182.96 395.7 183.207C395.813 183.259 396.01 183.379 396.116 183.429L397.344 183.97C398.523 184.34 398.609 184.023 399.051 185.199C404.299 185.199 405.907 183.82 410.811 183.53C412.862 184.91 413.156 185.689 414.941 187.275C416.843 188.965 417.305 189.589 421.003 189.648C421.234 187.681 422.441 186.637 424.139 185.755C423.167 183.171 422.905 185.263 422.572 182.418C425.7 182.368 425.474 182.161 427.276 181.306C427.276 184.208 427.145 184.808 428.641 187.011C429.241 187.896 428.828 187.193 429.371 188.161L429.978 189.399C430.035 189.511 430.146 189.713 430.192 189.803C430.239 189.893 430.304 190.083 430.412 190.204C428.581 191.976 429.106 190.656 427.276 192.428C431.1 193.489 427.674 191.467 430.119 192.684C430.204 192.726 430.38 192.849 430.468 192.901L431.237 193.429C433.179 194.633 434.684 195.305 437.467 195.765C438.07 194.164 438.755 194.314 440.444 193.428L441.684 192.639C443.576 190.891 440.987 190.285 446.091 190.204C443.476 192.974 444.946 193.54 444.575 196.444C444.384 197.937 443.612 195.495 444.523 198.546L449.975 197.356L450.914 200.752C454.802 200.534 452.733 199.994 456.283 201.327V199.102C458.56 200.184 457.335 200.228 460.203 200.771C458.678 199.156 458.617 200.024 457.851 197.99C466.917 201.076 473.597 200.754 479.134 202.358C480.239 202.677 480.97 203.219 482.803 203.671C488.391 205.05 487.866 203.953 490.779 202.439C492.5 203.5 492.529 203.933 495.483 204.108C491.507 198.23 490.92 202.504 490.779 197.99C495.409 198.867 491.127 199.797 496.266 200.771C501.269 199.823 497.374 198.958 501.754 196.878C503.39 199.296 501.839 198.683 500.97 201.327C507.125 200.31 506.851 201.597 511.946 202.439C511.516 201.13 511.215 200.797 511.162 199.102C512.022 199.804 512.585 200.506 513.514 200.215C513.514 197.751 513.526 196.116 512.479 194.275C511.466 192.494 509.744 192.045 508.026 190.76C508.443 189.492 508.634 189.481 508.81 187.979H510.378C510.639 190.204 510.844 190.336 512.73 191.316C512.73 188.425 514.405 183.304 508.81 182.974V180.193C511.874 179.613 511.28 178.561 512.119 175.867C512.702 173.997 513.152 172.165 513.729 169.779C514.127 168.135 514.633 166.204 515.164 164.123C515.806 161.609 517.16 160.845 517.434 158.503H519.002C519.002 165.014 515.866 166.154 515.866 175.188C519.965 174.51 517.204 174.943 521.354 175.188C520.795 173.487 520.134 173.05 519.002 171.851C527.638 171.851 527.605 173.985 530.084 179.561C532.117 184.133 532.319 186.663 538.602 189.648C542.079 184.507 543.023 186.14 550.679 185.51C553.164 185.306 553.629 184.809 554.281 183.53H555.849C556.822 186.114 557.083 184.022 557.417 186.867C569.56 182.734 568.388 187.09 575.193 190.942C579.993 193.659 587.275 198.435 590.599 197.675C590.766 197.637 590.981 197.555 591.138 197.508L592.697 196.877C592.782 199.592 592.824 201.103 596.617 201.327C596.617 199.131 596.864 199.07 597.401 197.434L601.021 198.759C601.172 198.819 601.37 198.9 601.515 198.964C604.359 200.224 607.711 202.502 611.098 203.289C614.432 204.065 613.95 203.518 617.001 204.664V202.439C619.85 202.979 618.379 202.755 620.369 203.943C622.536 205.237 621.604 204.16 623.273 205.776C622.216 206.197 622.406 206.08 620.921 206.332C622.717 208.097 620.873 206.963 625.625 206.888C625.928 209.471 624.784 207.861 627.193 209.113C626.511 207.036 625.886 206.474 623.848 204.812L620.708 202.59C620.581 202.517 620.386 202.424 620.26 202.352C618.389 201.286 620.656 203.347 618.569 201.327C619.335 199.292 619.396 200.161 620.921 198.546C618.865 198.156 619.486 198.432 617.85 196.275C616.069 193.927 614.727 193.246 614.649 190.76L622.607 196.238C623.621 196.78 623.111 196.522 624.057 196.877C624.606 195.251 623.956 196.076 625.625 195.209C620.43 188.244 618.887 188.348 613.681 185.885C611.837 185.013 612.904 184.935 609.161 183.53C609.699 181.894 609.945 181.832 609.945 179.637C615.69 182.366 616.957 186.149 627.193 186.31C624.768 183.742 621.455 183.896 619.353 181.861C623.473 182.105 623.165 183.264 626.546 183.527C631.657 183.923 630.528 182.217 631.897 180.193C636.465 182.363 632.543 179.557 639.737 182.974C639.556 181.436 634.539 174.485 632.681 173.519C629.656 175.555 632.115 174.771 630.329 177.412C627.257 177.231 624.911 176.586 623.037 175.355C621.738 174.501 619.51 172.292 618.569 171.295C621.112 171.776 624.271 174.091 627.193 175.188C627.733 173.742 626.902 174.567 628.761 174.075C628.126 172.143 625.432 168.972 623.273 162.396C625.074 161.541 624.848 161.333 627.977 161.284C627.268 160.27 627.372 160.588 627.193 159.059C631.788 160.623 632.619 158.652 634.249 159.059C637.668 159.707 638.342 161.674 641.722 162.704C646.325 164.107 648.13 162.329 650.713 161.84C654.194 165.528 655.522 163.833 660.082 165.204C661.985 165.776 660.566 165.78 663.257 166.289C661.677 152.819 646.721 156.219 644.441 150.161C648.214 150.785 650.298 152.117 653.224 153.429C656.611 154.949 655.137 153.901 657.461 154.435C659.119 154.815 660.352 155.677 661.49 156.416C666.273 159.525 674.715 163.196 676.584 165.177C670.517 164.174 668.25 160.562 663.257 159.616C667.367 165.126 666.478 164.375 672.003 166.244L676.332 167.438C676.357 167.437 676.503 167.381 676.584 167.402C678.459 168.434 676.191 169.461 686.237 173.902C688.753 175.013 688.111 175.254 690.696 175.744C687.233 171.101 685.592 172.729 684.425 169.626C686.932 170.817 684.974 170.539 688.344 170.738C688.165 169.213 687.438 167.353 686.855 166.212L685.993 162.396C685.747 160.3 684.005 159.319 682.959 157.318C681.605 154.724 681.666 154.221 679.399 152.058C675.284 148.13 674.64 147.293 672.19 142.155C670.868 139.382 663.733 130.448 660.495 127.649C656.74 124.403 656.293 126.944 653.849 124.578C663.627 124.578 663.526 129.516 670.878 134.744C676.813 138.965 674.874 135.312 682.534 143.16L689.731 149.733C698.632 157.42 696.941 154.303 699.646 155.654C700.483 156.072 700.943 156.802 701.55 157.452C705.829 162.034 705.529 159.117 711.849 160.138C717.728 161.088 719.318 161.284 726.76 161.284C734.094 171.116 738.459 168.342 743.064 171.408C750.497 176.357 744.878 176.671 762.824 179.637C761.5 178.235 760.324 177.126 759.688 175.188H758.904L759.557 174.539L759.688 175.188C761.722 176.245 761.071 176.442 763.003 177.841C764.444 178.884 765.938 179.438 767.528 180.193C767.251 177.834 765.905 176.297 765.175 174.075C767.855 175.348 767.904 178.372 770.663 179.081C773.369 175.08 761.926 164.601 760.471 160.171C765.345 161.095 769.047 166.539 770.749 169.565C771.851 171.524 771.73 172.192 775.367 172.407C775.053 169.723 773.623 168.71 772.231 166.845C775.661 167.726 775.834 170.647 777.656 172.451C778.971 173.753 779.664 173.585 781.026 174.51L790.443 182.29C792.632 184.794 791.888 186.655 796.535 187.423L797.301 186.173C797.374 186.045 797.62 185.639 797.698 185.487C798.335 184.249 798.735 183.156 798.887 181.861C801.556 182.77 803.137 182.682 804.468 180.782C805.376 179.486 804.868 177.053 804.419 176.536C802.301 174.098 799.113 174.43 801.239 167.957H802.807C803.411 169.798 804.91 171.462 806.727 172.407C809.591 171.046 808.224 170.885 810.647 169.626C810.647 173.694 810.143 171.661 813.193 173.381C817.563 175.844 816.723 178.786 823.746 177.863C826.802 177.461 826.499 177.016 831.021 176.849C839.462 176.537 838.18 175.4 844.789 174.353C852.52 173.13 851.781 176.167 858.759 175.452C863.859 174.929 868.302 174.98 873.368 174.076C899.766 169.37 888.037 172.687 903.88 171.246C910.481 170.646 910.998 166.303 910.998 175.187C914.042 176.223 917.363 176.299 921.973 176.299L918.038 175.198C915.09 174.568 915.71 175.045 914.134 173.519C917.051 173.519 922.627 173.741 924.859 174.332C932.88 176.452 918.805 176.854 928.245 177.412L929.813 174.631C931.218 178.362 933.122 178.717 937.653 177.968C938.59 176.531 938.21 176.883 937.653 175.187C943.564 175.536 938.698 175.766 940.673 178.072C943.365 181.216 952.794 175.756 959.605 174.631V172.962C956.517 172.452 954.966 172.319 953.333 170.737C958.401 170.737 958.884 169.657 961.399 170.035L971.365 170.737C971.801 167.019 975.752 168.613 979.443 168.934C983.64 169.3 985.072 168.025 989.397 167.957C989.61 174.74 999.618 172.999 1001.94 172.962C1002.4 169.019 1005.43 169.402 1005.86 165.732C1008.97 167.348 1004.58 172.753 1004.29 175.187C1017.79 179.782 1021.37 173.459 1025.91 174.418C1026.45 174.531 1027.91 175.38 1028.62 175.702C1029.78 176.238 1030.6 176.465 1031.83 176.79C1035.09 177.656 1044.35 180.626 1043.51 175.284C1043.11 172.762 1039.52 171.92 1042.17 171.076C1043.83 170.549 1045.45 172.197 1048.98 172.406V169.625C1056.16 169.625 1062.64 175.6 1069.36 172.406C1069.69 175.161 1071.29 176.566 1074.21 177.347C1076.56 177.974 1076.55 177.587 1077.63 177.969C1077.64 177.973 1080.09 179.294 1081.05 179.671C1085.58 181.445 1086.37 180.088 1090.79 181.123C1091.99 181.404 1097.51 183.24 1098.83 183.759L1110.23 187.907C1116.42 189.804 1124.17 193.603 1130.52 194.652C1128.99 193.037 1128.93 193.906 1128.16 191.871C1130.17 191.19 1128.38 191.751 1130.38 191.491L1132.08 191.315C1131.18 188.914 1127.72 188.331 1125.81 186.309L1151.68 195.764C1152.26 194.008 1152.68 191.958 1153.25 190.203C1156.5 191.868 1148.89 195.188 1160.81 199.303C1165.52 200.928 1169.31 201.537 1174.24 200.084C1176.4 199.446 1176.08 199.524 1176.77 197.433C1180.46 197.661 1178.7 196.605 1178.34 199.657H1180.69C1181.88 197.11 1181.53 199.314 1182.16 200.141C1183.68 202.143 1180.95 201.619 1185.4 201.882C1186.06 199.858 1185.83 200.098 1187.75 199.101C1195.37 200.36 1188.55 203.408 1199.51 205.218C1200.55 202.04 1199.11 202.374 1198.72 199.101C1202.36 198.886 1200.09 199.697 1201.86 197.989L1204.34 199.064C1205.87 199.813 1205.68 198.632 1206.56 201.325C1204.78 201.621 1204.76 201.757 1202.64 201.882C1202.78 206.074 1209.38 206.887 1209.92 204.611C1210.27 203.088 1209.05 204.246 1208.13 202.438C1210.64 201.247 1208.68 201.524 1212.05 201.325C1212.05 194.854 1198.72 193.24 1192.12 190.44C1185.12 187.474 1184.7 186.557 1179.28 183.972C1176.27 182.534 1174.12 181.184 1171.14 179.739L1152.73 172.222C1148.3 170.518 1147.9 169.252 1142.28 170.181V171.293C1144.67 171.689 1144.84 171.72 1146.75 172.568C1149.05 173.586 1148.59 173.563 1151.68 174.074C1149.4 176.285 1143.93 173.138 1141.72 171.688C1139.02 169.92 1140.92 170.081 1137.06 168.874C1134.82 168.173 1132.8 167.992 1130.64 167.311C1126.41 165.978 1125.25 164.179 1119 163.332C1110.19 162.136 1110.13 165.325 1110.13 157.39L1090.53 153.497C1090.58 152.124 1091 151.323 1090.96 150.593C1090.86 148.603 1089.38 148.375 1091.03 147.719C1092.83 147.003 1095.45 147.379 1097.59 147.379C1099.27 149.158 1098.88 147.769 1099.16 150.16C1101.71 148.948 1100.9 149.242 1102.29 147.379C1101.11 145.791 1099.8 144.897 1099.16 142.93C1105.06 143.817 1098.37 142.386 1102.86 142.745L1112.02 144.93C1114.53 145.545 1114.81 145.834 1116.96 146.426C1120.79 147.479 1123.77 147.215 1127.32 148.549C1129.31 149.292 1128.74 149.936 1131.89 149.529C1135.18 149.102 1133.55 148.657 1136 147.379L1142.62 149.361C1145.79 150.275 1147.73 150.213 1148.55 152.385C1143.91 152.385 1141.8 150.955 1139.14 151.829C1142.21 155.075 1157.73 160.277 1163.45 162.388C1165.47 163.133 1166.27 163.626 1168.41 164.435C1171.75 165.699 1176.52 167.146 1178.34 169.069C1172.49 168.977 1173.25 167.559 1168.93 166.845C1169.71 168.912 1171.37 169.533 1173.87 170.572C1176.48 171.656 1178.11 172.478 1180.53 173.631C1190.24 178.256 1203.99 185.145 1215.78 186.447C1219.88 186.9 1221.35 186.723 1221.46 190.203C1224.76 188.964 1224.6 189.827 1224.6 186.31C1228.68 186.245 1229.75 185.093 1232.44 184.085C1231.87 182.359 1231.43 182.474 1230.87 180.748C1236.59 181.832 1234.3 184.275 1234.12 185.828C1233.96 187.283 1234.18 187.411 1235.41 188.062C1237.27 189.048 1235.49 188.114 1237.07 188.577C1237.26 188.631 1237.48 188.667 1237.66 188.72L1241.93 190.186C1246.66 191.697 1245.3 190.817 1244.2 192.984C1251.2 194.141 1251.26 200.019 1271.47 195.645C1273.19 195.272 1273.47 194.997 1275.56 194.652C1276.12 196.159 1275.29 195.724 1277.36 196.235C1278.62 196.548 1280.37 196.069 1281.04 195.764L1283.51 196.85C1283.62 196.897 1283.84 196.969 1283.97 197.019L1284.92 197.42C1287.53 198.685 1288.98 200.521 1291.14 202.022L1291.95 202.584C1295.98 204.883 1294.44 202.467 1293.59 200.213L1296.76 199.685C1299.89 198.562 1295.02 199.585 1299.08 198.545C1297.9 200.117 1297.22 200.236 1298.29 201.882C1298.98 202.053 1299.13 200.977 1301.35 202.963C1303.63 204.993 1302.16 204.663 1306.92 204.663L1307.84 199.115C1319.54 199.259 1320.05 204.677 1327.28 208.567C1330.8 210.46 1333.29 211.262 1336.4 213.787C1339.84 216.581 1342.63 214.868 1346.9 216.898C1346.75 212.253 1345.36 213.263 1342.52 211.107C1338.77 208.267 1342.55 206.467 1338.18 204.728L1322.15 197.19C1317.18 194.497 1311.33 192.965 1306.7 189.797C1303 187.26 1300.18 185.432 1295.5 183.841C1292.72 182.894 1292.83 183.445 1292.02 181.304H1291.24L1291.89 180.656L1292.02 181.304L1295.13 182.447C1293.93 179.155 1291.66 180.911 1288.88 177.968C1292.98 177.649 1289.82 178.42 1291.8 176.696C1293.21 175.464 1291.78 175.864 1294.37 174.631C1295.4 177.75 1298.94 182.663 1304.56 180.748C1303.45 177.78 1300.98 178.712 1299.86 175.743C1302.69 172.999 1302.47 176.441 1303.78 172.962L1309.24 173.796C1311.57 174.841 1307 174.344 1311.62 174.631C1312.52 172.241 1316.68 172.077 1320.23 172.375C1324.16 172.706 1321.11 172.243 1323.66 173.321C1323.86 173.407 1324.4 173.677 1324.61 173.76L1335.13 177.421C1337.59 177.934 1338.77 177.903 1340.77 178.979L1345.9 181.46C1346.05 181.519 1346.27 181.58 1346.42 181.645C1346.56 181.708 1346.76 181.793 1346.9 181.863L1350.22 184.512C1351.79 185.67 1352.97 186.581 1354.74 187.422C1358.17 186.773 1357.47 185.568 1360.99 184.579C1364.27 183.654 1370.4 186.169 1368.93 182.311C1368.54 181.291 1368.58 181.618 1367.93 180.911C1365.62 178.412 1359.9 176.311 1359.44 172.406C1362.12 173.409 1361.34 173.045 1363.57 174.482L1375.35 181.696C1387.81 188.532 1384.7 186.994 1396.29 186.309C1396.06 184.309 1395.26 182.7 1393.75 181.436C1391.96 179.928 1390.89 180.181 1389.24 177.967C1391.75 178.443 1397.54 180.498 1401.78 180.748C1399.21 178.263 1398.37 180.106 1392.93 175.344C1391.4 173.998 1391.44 174.34 1390.8 172.406C1391.72 171.434 1391.8 171.168 1393.52 170.436C1399.53 167.868 1402.31 169.684 1405.7 171.294L1407.11 170.522C1408.25 169.712 1408.37 170.556 1407.82 169.047C1407.43 167.973 1405.58 168.537 1408.05 167.957C1404.95 164.912 1408.61 168.967 1404.74 166.421C1402.45 164.92 1404.01 164.773 1400.97 163.526C1398.59 162.546 1396.95 162.877 1392.68 158.84C1390.11 156.408 1389.88 154.526 1385.96 153.04C1383.47 152.096 1379.78 151.442 1375.91 149.604L1382.52 144.843C1385.01 143.472 1387.73 144.024 1392.37 141.818C1394.08 144.111 1396.32 146.087 1400.21 146.823C1400.56 143.856 1402.04 142.979 1405.7 142.374C1408.97 145.841 1408.68 146.258 1412.62 147.474C1416.11 148.551 1418.49 150.005 1422.14 151.287C1425.17 152.346 1429.95 152.913 1432.16 154.194C1442.99 160.493 1456.44 164.584 1467.73 170.667C1471.75 172.831 1470.98 171.688 1473.62 172.611C1475.55 173.289 1474.59 172.952 1476.26 175.187C1480.54 175.119 1482.15 173.673 1486.45 172.962C1488.73 174.044 1487.5 174.087 1490.37 174.631C1488.68 179.118 1487.12 176.28 1495.03 179.109C1498.07 180.195 1507.47 184.093 1509.19 185.754C1502.92 186.79 1503.48 184.956 1498.21 184.085C1499.65 185.609 1503.53 187.481 1506.3 188.359C1513.96 190.791 1509.75 188.599 1513.89 192.984C1525.42 192.984 1516.61 190.619 1525.9 195.034C1527.7 195.894 1537.82 198.846 1541.33 203.551C1547.15 203.551 1546.94 203.793 1550.74 205.219C1556.81 202.337 1553.02 203.955 1556.23 199.658C1561.49 201.448 1560.93 199.23 1560.93 208.556C1564.26 208.609 1567.96 209.878 1572.97 210.582C1577.49 211.217 1575.55 210.027 1576.61 211.893C1581.06 211.823 1578.39 212.125 1580.75 210.938C1582.12 210.251 1580.54 210.889 1582.05 210.194L1583.6 209.622C1587.02 208.332 1585.15 209.592 1586.74 207.401C1587.56 206.273 1586.72 207.156 1587.81 205.936C1588.28 205.416 1588.57 205.279 1589.15 204.663C1586.4 202.417 1584.75 201.418 1578.96 201.326L1578.18 203.551C1577.02 200.021 1570.93 198.163 1576.61 195.209C1576.61 197.548 1576.32 198.142 1578.18 199.658C1578.18 197.148 1577.25 193.217 1581.51 193.995L1583.04 194.468C1587.69 195.974 1603.97 207.422 1608.76 209.134C1612.44 210.448 1613.35 208.947 1615.81 209.669C1616.98 208.472 1615.93 208.936 1618.16 208.556C1616.96 209.785 1618.03 209.247 1615.81 209.669C1616.26 209.945 1615.11 210.553 1617.85 210.304L1619.73 209.669C1620.48 210.774 1620.86 211.657 1621.3 213.005C1623.85 212.855 1622.59 212.861 1624.14 212.239C1624.29 212.18 1624.46 212.078 1624.61 212.016L1630.71 209.112C1632.6 211.913 1630.3 210.817 1633.9 213.002C1637.35 215.095 1635.06 214.37 1639.33 214.118V210.225L1642.44 210.849L1642.47 204.663C1643.82 204.153 1644.52 204.035 1645.77 203.669C1652.64 201.647 1646.58 200.058 1652.3 197.176C1656.61 195 1655.75 196.468 1657.89 193.912C1660.9 190.306 1662.84 188.683 1671.5 189.601C1673.88 189.853 1678.33 190.109 1680.34 190.587C1682.33 191.061 1685.32 192.678 1687.48 192.764C1690.63 192.89 1688.18 190.861 1688.77 187.486C1689.83 181.509 1699.35 181.396 1705.53 177.655C1708.8 175.674 1706.91 174.355 1708.95 172.294C1711.5 169.7 1721.38 170.756 1727.14 170.735C1738.15 170.694 1737.06 171.685 1740.71 172.071C1742.45 172.253 1742.32 171.896 1745.17 171.851C1748.8 175.698 1748.68 175.165 1752.93 178.023L1756.93 181.305C1762.11 180.999 1758.58 178.111 1764.77 184.087C1765.76 185.043 1766.86 186.297 1768.29 187.153C1768.98 187.57 1769.72 187.85 1770.55 188.325C1771.46 188.846 1771.27 188.949 1772.61 189.648C1776.84 189.398 1782.23 187.535 1784.38 185.764C1788.18 182.638 1787.96 181.305 1796.13 181.305C1800.69 186.141 1797.5 184.095 1796.91 189.091C1800.62 187.829 1799.79 189.315 1801.66 186.341C1801.74 186.218 1801.79 186.058 1801.87 185.935C1801.95 185.814 1802.02 185.659 1802.1 185.542C1802.18 185.427 1802.28 185.282 1802.36 185.171C1803.19 184.08 1802.34 185.279 1803.31 184.171C1804.34 182.986 1804.25 183.376 1804.75 181.861C1814.93 181.861 1818.57 178.879 1821.37 178.028C1827.13 176.275 1820.7 180.643 1829.84 176.3C1831.26 176.974 1832.5 177.745 1833.76 178.525C1835.79 178.14 1836.6 177.555 1838.46 176.856C1841.21 179.769 1847.51 182.394 1849.77 183.852L1851.79 185.754C1854.53 184.453 1853.66 183.854 1857.42 184.455C1860.43 184.938 1861.17 185.567 1864.34 185.754C1865.13 183.647 1865.87 184.352 1866.69 181.861C1869.99 183.576 1868.38 186.826 1866.69 189.091C1872.03 188.769 1869.66 188.449 1870.22 186.982C1870.51 186.208 1870.29 184.888 1874.53 184.086C1877.39 185.447 1876.03 185.607 1878.45 186.867C1878.45 183.801 1879.17 185.193 1879.74 181.972C1880.03 180.365 1877.55 182.031 1880.71 180.133C1881.55 179.628 1882.58 179.338 1883.94 179.081C1887.28 189.258 1893.67 187.578 1899.73 193.463C1902.43 196.09 1910.28 203.511 1914.37 202.976L1919.22 202.439C1919.58 203.545 1919.83 205.942 1920 209.148V256.941C1920 275.294 1920 293.647 1920 312H0.000262852V149.048L4.09839 151.703C6.91485 151.605 4.56784 151.557 7.84009 150.717C10.1277 153.784 12.2904 157.821 14.0061 159.134C15.6547 160.396 15.5072 158.926 16.464 161.84H18.0319C18.5989 160.114 19.0331 160.229 19.5998 158.503C23.4162 158.728 26.5817 161.257 29.339 158.18C29.7241 157.75 30.4872 155.587 30.5368 155.1C30.7011 153.49 29.6954 149.508 29.0078 148.492C32.3279 149.121 30.3092 148.977 32.8486 150.773C39.0199 155.136 35.4803 152.24 41.8505 154.398C43.8324 155.069 44.9206 155.79 46.3937 156.218C51.1313 157.598 52.4406 154.898 54.4635 159.347C57.7039 166.473 57.0589 163.288 59.5836 165.733C59.2655 165.824 57.2731 165.38 58.4898 168.61C59.055 170.111 59.434 170.526 60.6339 171.662C62.5104 173.438 64.9802 174.568 68.9918 174.631C67.747 178.422 69.4077 180.959 75.2638 181.305C79.0362 179.513 76.7018 178.253 81.5354 177.968C80.5652 179.269 80.1891 179.416 79.9678 181.305C89.6788 182.91 84.6355 179.407 91.5506 176.73L94.1116 175.766C95.9944 175.027 97.229 174.461 99.5673 174.075C98.3185 177.393 98.5156 174.115 95.2684 177.143C93.8855 178.432 93.3585 179.855 93.2954 181.861H93.2946ZM869.448 150.16L867.919 150.8L869.448 150.16C870.621 148.964 869.563 149.428 871.8 149.048C870.596 150.277 871.672 149.739 869.448 150.16ZM757.337 156.834L758.239 157.919L757.337 156.834L756.436 155.75L757.337 156.834ZM210.11 184.642L209.326 184.086H208.542L209.195 183.437L209.326 184.086L210.11 184.642H210.894L210.24 185.291L210.11 184.642ZM643.658 156.834L642.874 156.278H642.09L642.744 155.629L642.874 156.278L643.658 156.834H644.442L643.789 157.483L643.658 156.834ZM289.293 184.086H288.509L289.163 183.437L289.293 184.086C291.212 185.083 290.981 184.843 291.645 186.866C289.61 185.9 289.553 186.301 289.293 184.086ZM208.542 120.129V119.572L209.457 120.036L208.542 120.129C208.259 122.537 208.102 123.26 204.622 123.465C204.884 121.229 205.849 120.639 208.542 120.129ZM279.885 152.385H279.101L279.755 151.736L279.885 152.385C281.801 152.746 280.945 152.138 281.453 153.497L279.885 152.385ZM627.979 145.711H627.195L627.848 145.063L627.979 145.711C630.689 146.225 630.391 146.013 631.114 147.936C628.404 147.423 628.702 147.634 627.979 145.711ZM257.934 159.059H258.718L258.065 159.708L257.934 159.059L254.828 158.435C255.492 158.197 253.657 157.655 256.294 158.073C257.675 158.292 257.148 158.298 257.934 159.059ZM1404.13 141.262H1404.92L1404.26 141.911L1404.13 141.262C1400.1 140.228 1404.76 141.315 1401.88 140.08C1400.14 139.332 1401.39 139.637 1398.64 139.593C1401.81 136.524 1406.56 138.298 1408.84 140.706C1408.48 140.706 1406.67 140.661 1406.45 140.683L1404.13 141.262V141.262ZM316.733 202.438H317.517L316.864 203.087L316.733 202.438C315.105 202.13 313.94 201.625 312.635 200.897C310.86 199.907 310.688 199.917 310.461 197.989C314.264 199.796 314.479 199.416 316.733 202.438ZM597.403 177.412H598.187L597.534 178.061L597.403 177.412C595.166 177.032 596.223 177.496 595.051 176.299C597.343 176.689 596.18 176.228 597.403 177.412ZM837.305 97.8825C835.943 96.9166 838.264 97.5256 837.521 97.8937C837.515 97.8969 837.356 97.9187 837.305 97.8825ZM620.923 176.855C620.923 175.474 622.176 176.713 621.409 176.855C621.399 176.857 620.923 178.433 620.923 176.855ZM310.461 196.321C310.15 195.127 311.587 195.945 311.517 196.433L311.237 196.539C309.771 196.474 310.761 197.47 310.461 196.321ZM881.208 170.182C881.241 169.998 882.073 170.057 882.143 170.076C882.338 170.128 883.505 168.788 882.483 170.225C882.461 170.257 881.021 171.254 881.209 170.182H881.208ZM865.529 172.407C865.561 172.223 866.394 172.282 866.463 172.3C866.659 172.352 867.825 171.013 866.804 172.45C866.781 172.481 865.341 173.478 865.529 172.407H865.529ZM172.479 195.209C172.076 193.662 174.349 195.476 173.255 195.427C171.788 195.362 172.778 196.358 172.479 195.209ZM198.351 179.636C197.948 178.09 200.22 179.903 199.127 179.855C197.66 179.79 198.65 180.786 198.351 179.636ZM267.342 192.984C266.939 191.438 269.212 193.251 268.118 193.202C266.651 193.137 267.642 194.133 267.342 192.984ZM220.302 194.096C220.302 193.442 221.99 192.843 221.516 194.096C221.041 195.353 223.511 194.111 221.154 194.261C220.167 194.324 220.302 195.226 220.302 194.096ZM455.5 132.364C455.5 131.71 457.187 131.111 456.714 132.364C456.239 133.62 458.709 132.379 456.352 132.528C455.364 132.591 455.5 133.494 455.5 132.364ZM317.517 199.102C317.517 198.448 319.204 197.848 318.731 199.102C318.256 200.358 320.725 199.117 318.369 199.266C317.382 199.329 317.517 200.232 317.517 199.102ZM1745.95 114.011C1745.95 113.357 1747.64 112.757 1747.17 114.011C1746.69 115.267 1749.16 114.026 1746.8 114.176C1745.82 114.238 1745.95 115.141 1745.95 114.011ZM0 147.437C0.211859 147.062 1.1116 147.659 1.05509 148.048C1.05483 148.051 1.0012 148.138 0.993581 148.139C0.274155 148.274 0.051519 148.42 0 148.458V148.443C0.0270738 148.39 0.0791185 148.24 0 147.936V147.437ZM664.826 152.385C664.515 151.191 665.953 152.009 665.882 152.497C665.881 152.5 665.827 152.587 665.82 152.588C664.247 152.883 665.047 153.231 664.826 152.385V152.385ZM404.541 131.251C405.346 130.68 407.376 132.052 405.45 131.551C405.431 131.546 403.225 132.185 404.541 131.251ZM275.966 195.764L277.533 197.433C275.474 196.888 276.37 197.444 275.966 195.764ZM598.971 193.54C598.66 192.346 600.097 193.164 600.026 193.652C600.009 193.77 599.341 194.961 598.971 193.54ZM488.428 197.989C488.593 197.354 490.151 196.773 489.483 197.876C489.201 198.342 488.052 199.433 488.428 197.989ZM1727.92 0.556C1727.98 0.344543 1728.19 0.139282 1728.42 0H1729.14C1729.15 0.0988159 1729.1 0.2435 1728.98 0.443756C1728.69 0.909546 1727.54 2.00034 1727.92 0.556H1727.92ZM380.237 126.802C380.402 126.167 381.96 125.586 381.292 126.69C381.01 127.155 379.861 128.246 380.237 126.802ZM163.854 191.315C164.02 190.681 165.578 190.099 164.91 191.203C164.627 191.669 163.478 192.759 163.854 191.315ZM249.31 185.754C248.106 186.983 249.181 186.445 246.958 186.866C248.193 185.604 247.105 186.216 249.31 185.754ZM179.534 170.737C178.33 171.967 179.406 171.429 177.182 171.85C178.418 170.588 177.33 171.2 179.534 170.737ZM547.227 177.411C546.678 179.037 547.328 178.212 545.659 179.08C546.174 177.555 545.341 178.214 547.227 177.411ZM140.334 152.941C139.786 154.567 140.435 153.742 138.767 154.609C139.281 153.085 138.448 153.743 140.334 152.941ZM276.749 187.978H279.101V188.534H276.749V187.978ZM527.627 167.957H528.411V169.625H527.627V167.957ZM489.211 160.727H489.995V162.395H489.211V160.727ZM149.742 131.807H152.094V132.363H149.742V131.807ZM429.628 159.615H430.412V161.283H429.628V159.615ZM500.187 160.171H500.971V161.839H500.187V160.171ZM294.781 126.802H297.133V127.358H294.781V126.802ZM383.372 126.246H385.724V126.802H383.372V126.246ZM509.595 162.952H510.379V164.62H509.595V162.952ZM240.685 165.176H241.469V166.845H240.685V165.176ZM101.134 165.732H103.487V166.289H101.134V165.732ZM264.205 135.701H266.557V136.257H264.205V135.701ZM178.75 176.855H179.534V178.524H178.75V176.855ZM1103.86 181.305C1106.15 181.694 1104.99 181.233 1106.21 182.417C1104.84 182.183 1104.11 182.347 1103.86 181.305ZM623.274 157.947C625.566 158.336 624.403 157.875 625.626 159.059C624.251 158.825 623.525 158.989 623.274 157.947ZM1125.03 190.759C1127.32 191.149 1126.16 190.688 1127.38 191.871C1126.01 191.638 1125.28 191.802 1125.03 190.759ZM1086.61 157.947C1088.35 158.801 1087.59 158.038 1088.18 159.615C1086.89 158.976 1086.67 159.497 1086.61 157.947ZM504.107 156.834C505.839 157.688 505.081 156.925 505.675 158.503C504.378 157.864 504.167 158.385 504.107 156.834ZM292.429 187.422C294.161 188.277 293.403 187.514 293.997 189.091C292.7 188.452 292.489 188.973 292.429 187.422ZM1582.1 190.759C1583.83 191.614 1583.07 190.851 1583.67 192.428C1582.37 191.789 1582.16 192.31 1582.1 190.759ZM1825.92 174.075C1827.65 174.929 1826.89 174.166 1827.49 175.743C1826.19 175.104 1825.98 175.626 1825.92 174.075ZM314.38 197.989C316.113 198.844 315.355 198.081 315.948 199.658C314.651 199.019 314.44 199.54 314.38 197.989ZM1383.75 155.166C1385.48 156.02 1384.72 155.257 1385.32 156.835C1384.02 156.195 1383.81 156.717 1383.75 155.166ZM694.617 149.605C696.35 150.459 695.591 149.696 696.185 151.273C694.888 150.634 694.677 151.155 694.617 149.605ZM533.114 175.743C535.549 176.991 535.549 176.164 533.114 177.412V175.743ZM503.322 152.941C505.757 154.189 505.757 153.362 503.322 154.61V152.941ZM262.636 196.321C262.278 196.067 260.8 196.373 262.62 195.638C263.404 195.322 264.547 195.539 263.599 196.333C262.372 197.36 263.171 196.7 262.636 196.321ZM293.212 166.845C295.574 167.293 294.933 166.838 295.564 168.514C292.411 167.704 295.448 168.977 293.212 166.845ZM87.8057 164.621V165.733H85.4537C86.6894 164.471 85.6015 165.083 87.8057 164.621ZM591.13 184.642H593.482C592.278 185.871 593.353 185.333 591.13 185.754V184.642ZM283.804 156.278C286.096 156.668 284.934 156.207 286.156 157.391H283.804V156.278ZM1105.43 160.727C1107.72 161.117 1106.56 160.656 1107.78 161.84H1105.43V160.727ZM1121.89 189.647C1124.19 190.036 1123.02 189.576 1124.25 190.759H1121.89V189.647ZM167.773 168.513H169.341C168.793 170.139 169.442 169.315 167.773 170.182V168.513ZM199.917 187.979C200.1 188.272 202.404 188.323 198.349 189.091C198.768 187.978 197.345 188.866 198.979 187.95C200.338 187.188 198.864 187.607 199.917 187.979L199.917 187.979ZM157.582 163.508H159.934V164.62C158.559 164.387 157.833 164.55 157.582 163.508ZM494.699 184.085H496.267V185.754C494.97 185.115 494.759 185.636 494.699 184.085ZM337.9 177.968H339.468V179.636C338.171 178.997 337.96 179.518 337.9 177.968ZM636.602 152.385C637.396 152.535 639.629 152.462 638.17 153.497C637.328 154.094 636.664 153.979 636.602 152.385ZM297.748 158.066L300.269 157.947V159.615L297.748 158.066V158.066ZM212.461 176.855C215.638 177.381 214.822 177.004 215.597 178.524C213.038 177.563 214.051 178.479 212.461 176.855ZM945.495 170.182C949.136 170.397 946.866 169.585 948.631 171.294C946.787 171.185 945.777 171.353 945.495 170.182ZM809.08 165.176C811.489 166.428 810.345 164.818 810.648 167.401C808.642 166.359 809.08 167.593 809.08 165.176ZM136.414 150.16C138.822 151.412 137.678 149.802 137.982 152.385C135.976 151.343 136.414 152.577 136.414 150.16ZM584.074 182.973L587.18 182.349C586.489 183.181 584.497 185.141 584.074 182.973ZM950.199 170.182C952.561 170.629 951.92 170.175 952.551 171.85C950.761 171.511 950.259 171.724 950.199 170.182ZM1203.43 177.968C1206.28 178.439 1205.94 178.275 1207.35 179.636C1204.6 179.181 1204.76 179.33 1203.43 177.968ZM509.595 165.732H511.162V167.401H509.595V165.732ZM784.776 164.62C787.602 165.155 786.873 164.671 787.128 166.845C784.957 165.716 786.071 166.473 784.776 164.62ZM918.839 166.845C919.344 167.257 919.426 166.972 919.895 167.764C920.663 169.061 920.223 168.057 920.407 169.625C918.247 168.503 918.839 169.665 918.839 166.845H918.839ZM1133.65 176.299C1131.89 178.008 1134.16 177.197 1130.52 177.412C1132.01 175.833 1131.62 175.702 1133.65 176.299ZM496.267 186.31V189.091C496.203 189.039 495.153 188.787 494.959 187.778C494.686 186.355 494.993 186.972 496.267 186.31ZM156.013 160.171V162.952C155.049 162.451 154.747 162.771 154.667 161.834C154.548 160.434 156.004 160.179 156.013 160.171ZM660.905 149.604L664.018 150.747C663.447 151.466 663.613 151.331 663.257 152.385L660.905 149.604ZM195.997 189.091V190.203H192.861C194.632 188.488 192.352 189.311 195.997 189.091ZM497.834 162.952H499.402C499.099 165.535 500.243 163.924 497.834 165.176V162.952ZM489.21 157.946H490.778V160.171C488.772 159.129 489.21 160.363 489.21 157.946ZM464.122 186.866C466.862 187.385 465.883 187.078 467.259 188.535C464.996 188.401 464.188 188.547 464.122 186.866ZM312.028 149.604C314.059 150.66 313.693 150.85 314.38 152.941C312.349 151.885 312.715 151.695 312.028 149.604ZM571.53 176.855C573.892 177.303 573.251 176.848 573.882 178.524H571.53V176.855ZM395.131 172.962C395.131 171.396 395.47 171.933 396.699 171.294V174.075C396.001 173.797 395.131 173.713 395.131 172.962ZM606.809 187.422H609.945V189.091C607.386 188.13 608.399 189.045 606.809 187.422ZM480.586 179.636H481.37C481.37 182.592 483.768 181.32 480.586 182.973V179.636ZM275.18 169.07L277.7 170.619C274.279 171.805 274.472 171.167 275.18 169.07ZM677.369 165.177C679.367 166.126 679.817 166.129 680.505 167.957C677.895 166.978 678.149 167.553 677.369 165.177ZM366.124 120.685C364.741 122.023 364.555 122.168 361.42 122.353C362.802 121.015 362.988 120.87 366.124 120.685ZM163.069 125.134H166.989V126.246C164.899 126.213 163.38 126.426 163.069 125.134ZM936.087 169.626H940.007V170.738C937.917 170.705 936.398 170.917 936.087 169.626ZM89.3736 166.845C92.4564 167.355 92.5552 167.457 94.0777 169.07C90.9949 168.56 90.8961 168.458 89.3736 166.845ZM295.564 191.315C295.661 191.471 297.35 191.134 295.388 192.353C294.48 192.917 294.753 193.193 293.773 192.498C291.696 191.025 293.953 191.352 293.966 191.344C295.459 190.364 295.125 191.169 295.564 191.316V191.315ZM609.945 192.984H611.513V195.765H609.945V192.984ZM182.669 185.754C186.376 185.813 185.748 185.188 186.589 187.423C183.756 187.255 183.759 187.182 182.669 185.754ZM566.826 178.524C569.599 179.049 569.243 179.117 569.962 181.305C566.31 180.613 568.437 180.907 566.826 178.524ZM602.89 183.53C606.163 185.085 604.438 184.519 606.025 186.867C606.019 186.865 605.017 187.092 603.737 185.71C602.8 184.699 603.07 185.071 602.89 183.53ZM268.908 194.097C268.499 196.75 269.984 195.035 266.556 196.321C265.984 194.405 265.336 194.307 268.908 194.097ZM631.113 149.048C633.65 149.529 635.318 150.47 636.602 151.829C633.337 151.29 632.732 150.763 631.113 149.048ZM602.89 181.861C606.536 181.919 606.782 181.929 607.594 184.086C605.18 183.629 606.007 183.782 603.312 182.118C603.227 182.066 603.029 181.947 602.89 181.861ZM653.065 146.824C655.457 147.219 654.96 147.488 656.985 146.824C657.604 148.469 657.304 147.725 658.553 149.048C655.925 148.614 654.435 148.15 653.065 146.824ZM368.476 122.353C368.868 121.858 368.986 121.241 370.044 121.241C372.212 121.241 371.929 121.67 372.396 122.909C370.739 122.883 369.295 123.008 368.476 122.353V122.353ZM1099.16 169.07C1101.24 168.361 1100 168.562 1103.08 168.514C1102.8 169.348 1102.91 170.182 1101.51 170.182C1100.09 170.182 1099.36 169.904 1099.16 169.07V169.07ZM715.001 151.829C716.771 153.274 717.277 153.859 717.353 156.278C714.755 154.158 715.001 154.523 715.001 151.829ZM577.018 170.738C575.636 172.076 575.45 172.222 572.314 172.407C573.96 170.663 574.294 169.845 577.018 170.738ZM417.083 161.284C419.137 162.259 418.704 161.565 419.435 163.508C419.42 163.518 417.973 164.065 417.868 164.065C413.778 164.065 416.698 163.784 417.083 161.284H417.083ZM803.592 165.733H805.16L806.838 169.6C804.294 168.47 803.679 168.517 803.592 165.733ZM237.549 174.631C237.907 174.802 238.89 175.116 239.459 175.501C240.697 176.338 240.058 175.628 240.684 176.856C239.743 177.414 236.169 178.832 237.548 174.631L237.549 174.631ZM627.193 149.048C630.458 149.588 631.063 150.115 632.681 151.829C630.425 151.696 630.744 151.771 629.143 151.003C626.995 149.973 627.758 150.549 627.193 149.048ZM373.964 161.284C378.53 160.508 377.655 160.1 379.452 161.84C377.145 162.221 377.059 162.396 373.964 162.396V161.284ZM228.141 185.198C230.944 185.661 233.715 186.545 235.197 187.979C231.13 187.739 229.912 187.074 228.141 185.198ZM607.594 161.284C610.282 163.887 609.822 160.692 609.946 164.621C609.822 164.562 607.584 163.591 607.525 163.557C605.212 162.228 606.32 163.796 606.026 161.284H607.594L605.753 159.654C604.831 157.962 606.851 157.285 607.924 152.62C609.089 147.56 609.688 145.615 617.002 146.824V147.936C613.533 147.991 612.834 148.516 610.61 152.857C608.948 156.102 609.162 156.818 609.162 161.284H607.594H607.594ZM816.92 164.621C820.986 164.621 819.963 164.124 821.624 165.733C821.232 166.228 821.114 166.845 820.056 166.845C817.742 166.845 817.353 165.904 816.92 164.62V164.621ZM251.661 132.364V131.808C256.542 131.808 259.279 133.03 260.285 135.701C257.956 134.594 255.242 132.364 251.661 132.364ZM712.649 136.257C714.767 136.257 714.811 136.522 716.569 136.813C716.007 137.09 716.232 137.142 715.126 137.458C713.809 137.834 714.532 137.691 713.315 137.842C711.946 138.012 710.154 137.926 708.729 137.926C709.634 137.049 710.547 136.257 712.649 136.257ZM671.097 157.391C673.895 158.72 674.15 159.753 675.017 162.396C672.759 161.969 673.059 162.013 672.07 160.594C671.249 159.416 671.149 159.031 671.097 157.391V157.391ZM491.563 194.097C494.934 193.898 492.976 194.175 495.483 192.984C495.536 194.679 495.837 195.012 496.267 196.321C492.722 196.265 492.289 196.248 491.563 194.097ZM91.7264 152.942C92.4577 150.998 92.0245 151.693 94.0784 150.717C97.0531 152.13 97.6364 153.756 95.1517 153.733C95.1419 153.733 93.8524 153.07 91.7264 152.942ZM638.17 112.899C642.112 112.961 642.005 113.527 642.09 116.236C638.737 115.682 638.261 115.787 638.17 112.899ZM20.3829 141.263C20.1673 143.1 19.363 144.599 18.815 146.268H17.247C17.247 143.243 16.9392 141.915 20.3831 141.263H20.3829ZM192.077 184.086C193.825 184.417 194.43 184.216 194.43 185.754V188.535C189.503 188.244 192.077 187.736 192.077 184.086V184.086ZM1080.34 147.936C1081.84 145.006 1082.46 147.042 1088.18 147.38V148.492C1087.58 148.457 1085.58 148.188 1085.57 148.187C1084.63 148.149 1081.47 148.915 1080.34 147.936ZM150.526 166.845C152.323 164.941 152.417 165.121 155.23 164.065V168.514C153.366 167.814 152.557 167.23 150.526 166.845V166.845ZM617.002 204.664V206.332H620.922L617.801 205.209C617.686 205.152 617.47 205 617.38 204.951C617.291 204.902 617.129 204.759 617.002 204.664ZM348.092 186.31L354.364 189.091L343.832 187.108C340.468 186.244 342.978 187.634 341.036 185.754L348.092 186.31ZM477.451 185.198C481.06 185.882 480.587 186.354 480.587 189.647C480.587 191.213 480.248 190.677 479.019 191.316C478.133 188.617 477.451 188.803 477.451 185.198H477.451ZM92.5103 170.738C89.5542 171.708 91.0196 171.775 89.3742 170.182C91.8347 168.724 94.8491 170.543 96.4302 171.294C95.3843 172.841 95.6464 172.371 95.6464 174.631H94.0784C93.7065 171.46 92.8825 173.909 92.5105 170.738H92.5103ZM1166.58 157.391C1166.58 154.397 1170.96 154.61 1175.21 154.61L1172.75 155.647C1171.76 155.8 1170.01 155.722 1168.93 155.722C1168.01 158.811 1169.53 158.327 1170.5 161.284C1168.91 160.526 1166.58 159.233 1166.58 157.391V157.391ZM250.877 138.482C251.562 136.663 252.845 136.072 254.797 135.145C258.155 136.288 257.742 134.778 258.717 137.369C255.109 137.966 253.607 139.178 250.877 138.482ZM411.596 169.626C412.594 168.15 412.311 169.031 412.379 166.845C413.562 167.407 414.637 167.975 416.008 168.72C417.97 169.787 418.063 170.057 418.651 171.851C414.333 171.782 414.105 170.818 411.595 169.626H411.596ZM243.821 130.696L250.093 131.252C247.329 132.496 242.189 131.897 242.253 133.476C242.318 135.079 235.794 135.337 239.01 132.351C240.206 131.24 241.193 130.696 243.821 130.696H243.821ZM587.21 186.31C589.958 186.831 588.898 186.531 590.386 187.951C591.304 188.826 591.921 189.474 593.029 190.524C594.91 192.306 596.647 193.467 597.402 195.765C594.214 195.577 595.534 196.108 593.955 194.317L589.343 189.246C587.857 187.848 587.881 188.354 587.21 186.31V186.31ZM1105.43 182.973C1110.72 183.848 1113.31 185.199 1117.54 187.177C1119.88 188.276 1119.59 187.706 1120.33 189.647C1117.3 189.147 1107.64 185.318 1105.43 182.973ZM198.349 171.294C200.157 171.294 202.524 172.064 204.325 172.617C206.9 173.406 207.195 173.762 208.541 175.187C206.841 174.865 200.855 170.937 195.75 175.046C192.785 177.432 197.851 176.547 192.861 176.856C193.292 173.187 198.276 171.294 198.349 171.294V171.294ZM1179.12 169.07C1184.86 169.408 1195.17 174.193 1197.16 176.3C1193.63 175.716 1180.88 170.925 1179.12 169.07ZM370.044 158.503C372.078 156.534 373.681 157.443 374.748 154.61H377.1L377.884 159.059C373.057 160.871 374.805 160.29 370.044 158.503ZM389.644 159.615C389.644 161.611 386.703 162.575 385.723 165.177C381.638 164.403 382.01 161.335 382.575 160.729C383.422 159.822 389.644 157.545 389.644 159.615ZM330.844 149.048C332.219 147.592 332.796 146.743 333.98 145.155L338.658 145.796C338.695 150.405 338.273 149.006 339.468 150.717C335.233 150.717 337.231 150.699 333.77 149.754L330.844 149.048H330.844ZM886.695 147.38C889.032 147.417 889.444 147.272 892.337 148.939C893.93 149.857 895.03 150.692 896.103 151.829C888.032 150.495 890.201 151.158 882.775 152.385C883.831 149.583 885.529 150.931 886.695 147.38V147.38ZM145.038 171.85H140.334C141.699 170.528 141.974 170.182 148.958 170.182C153.593 170.182 146.154 171.339 152.918 170.709C152.969 170.705 155.229 169.582 155.229 172.407C155.229 174.345 151.562 172.963 149.742 172.963C146.789 172.963 148.259 173.329 145.038 173.519V171.85V171.85ZM541.738 171.294C541.738 169.234 542.503 168.782 544.09 167.958C544.267 169.459 544.458 169.47 544.874 170.738C547.194 170.299 546.145 170.512 548.01 169.626C548.01 175.948 550.363 170.466 551.93 174.632C551.239 174.902 551.793 174.842 550.97 174.901C543.621 175.429 544.432 174.388 542.967 172.649C541.908 171.393 541.738 172.257 541.738 171.295L541.738 171.294ZM1096.02 175.187C1100.46 175.258 1103.25 177.012 1106.47 178.343C1108.93 179.36 1114.28 181.674 1115.62 182.973C1112.36 182.781 1102.78 179.401 1099.77 178.092C1097.54 177.128 1096.75 177.118 1096.02 175.187ZM1068.58 170.182C1071.3 169.258 1074.45 170.491 1077.32 171.217C1084.31 172.987 1084.28 172.609 1085.05 174.631C1081.64 174.577 1078.09 173.497 1074.85 172.963C1075.75 175.63 1075.39 173.827 1074.85 174.631C1067.69 173.283 1075.21 174.971 1070.27 171.802L1068.58 170.182H1068.58ZM302.62 140.15C310.871 138.91 305.281 143.729 312.812 145.155C311.766 146.702 312.028 146.232 312.028 148.492C307.815 148.244 307.892 147.601 306.262 145.353C304.796 143.33 302.891 142.463 302.62 140.15V140.15ZM293.996 182.417C291.005 182.417 293.4 183.226 288.508 182.417C289.578 179.159 289.448 181.207 291.644 179.08C297.907 181.431 301.574 180.211 305.756 184.642C299.849 184.549 296.412 182.417 293.996 182.417ZM346.524 152.385C342.85 151.135 343.268 152.878 341.036 150.717C344.093 150.717 347.275 150.569 350.264 150.875C355.239 151.385 354.053 150.717 359.068 150.717C359.068 157.273 354.586 153.498 352.796 153.498C347.343 153.498 349.256 153.312 346.524 154.61V152.385L346.524 152.385ZM283.804 134.588C286.467 134.431 286.674 134.165 288.508 133.476C289.029 136.852 287.866 133.946 292.325 136.332C294.247 137.36 294.734 139.04 294.463 140.59C294.09 142.716 293.894 142.505 291.644 142.931C290.411 139.175 285.012 137.798 283.804 134.588ZM497.835 186.31L500.467 186.667C500.609 186.716 500.826 186.829 500.95 186.882L503.346 174.648C503.356 172.121 503.92 163.275 504.891 161.84C506.77 162.378 505.64 161.614 506.616 162.883C507.869 164.512 505.154 173.089 504.88 177.404C504.49 183.538 504.241 189.47 502.539 194.653C499.326 193.006 503.211 194.104 501.386 190.507C500.749 189.251 498.67 188.53 497.835 186.31H497.835Z" fill="#FAFAFA"/>
</svg>
