<svg width="1920" height="420" viewBox="0 0 1920 420" fill="none" xmlns="http://www.w3.org/2000/svg">
<path fill-rule="evenodd" clip-rule="evenodd" d="M1826.71 70.1929L1824.39 67.913C1823.38 66.6985 1823.7 66.6509 1822.23 65.4806C1818.33 62.3836 1820.29 66.639 1815.73 62.8703C1817 60.1193 1815.94 62.6769 1816.84 62.0754C1818.31 61.0826 1816.69 63.773 1818.08 61.1802C1807.62 57.5754 1802.89 59.2451 1803.06 56.2954C1803.21 53.4265 1804.47 57.6414 1803.19 55.5475C1801.05 52.8987 1798.81 55.1672 1796.34 52.0141C1795.94 51.4985 1792.98 44.7497 1785.15 44.2817C1785.79 43.4632 1785.53 43.6853 1785.94 42.5919L1782.82 41.4345L1782.8 44.845C1784.88 44.4496 1783.45 44.89 1785.15 44.2817C1785.9 45.6103 1785.21 44.5195 1786.97 45.7927C1790.1 48.0574 1794.83 52.2633 1794.59 55.4988C1794.18 61.1232 1789.44 61.438 1788.86 64.8481C1788.49 66.9648 1790.41 67.4551 1787.56 68.6052C1784.24 69.9434 1781.6 67.8024 1780.52 67.3907L1778.82 66.9442C1776.11 65.9671 1777.67 65.1125 1774.18 63.4335C1774.18 66.4215 1774.14 66.7597 1773.39 69.0663C1768.98 67.5461 1771.34 69.6896 1770.1 66.9255C1769.61 65.8223 1769.47 64.0034 1769.47 62.3069C1766.86 63.681 1767.91 62.8863 1767.91 69.6295C1762.22 71.7917 1763.82 73.5615 1762.73 76.7748C1762.5 77.4354 1758.99 82.7882 1755.13 83.548L1745.17 84.8382C1744.81 82.4583 1745.94 83.1482 1741.25 83.1482C1741.25 79.6746 1739.99 80.8804 1738.9 77.5154L1737.23 79.698C1736.17 80.847 1736.91 79.8788 1736.2 80.6504L1733.41 85.9647L1731.14 83.65C1730.27 82.284 1730.31 81.5605 1729.49 80.3318C1726.06 82.1371 1728.84 81.335 1725.57 84.838C1722.21 84.838 1721.24 84.1918 1718.06 84.4747C1715.41 84.7108 1713.11 85.1487 1710.61 85.361C1699.39 86.3148 1704.32 84.6705 1700.84 84.7072C1699.45 84.7219 1699.13 85.1032 1697.35 85.4012C1696.73 84.5047 1696.54 86.4373 1697.35 83.7114C1693.6 85.6849 1697.85 85.4012 1690.29 85.4012C1691.12 84.27 1690.96 84.3873 1692.11 83.3287C1693.71 81.8536 1693.43 83.005 1694.21 80.895C1690.86 82.1669 1690.84 82.9884 1688.28 84.0012C1684.27 85.5936 1688.49 84.1514 1685.4 84.0526C1682.65 83.9646 1684.92 84.2135 1681.67 84.838V82.0215C1676.84 82.9469 1681.32 84.4836 1675.39 84.838C1676.92 83.202 1676.98 84.0821 1677.75 82.0215L1674.61 81.4583C1679.31 80.5569 1682.14 77.5612 1674.61 74.6989C1673.56 76.5281 1674.57 77.7976 1675.39 80.3318C1669.92 80.7622 1675.12 80.7173 1672.54 81.4576C1670.64 82.006 1669.5 81.1122 1667.24 79.4318C1664.28 77.226 1665.7 80.1991 1665.2 76.9521H1655.8C1653.58 78.7887 1651.61 80.9456 1655.8 83.1482C1656.53 82.0228 1654.68 82.3573 1658.15 78.6422C1663.18 78.6422 1666.53 80.4034 1667.56 83.1482C1664.03 83.4252 1665.59 82.3055 1665.2 84.8382C1658.22 84.4207 1665.81 83.0643 1659.71 82.585C1658.28 84.8123 1661.92 86.7711 1657.43 87.1334L1656.76 87.1309C1656.69 87.1415 1656.49 87.1791 1656.41 87.1955C1653.85 87.7783 1656.76 87.9726 1652.66 88.2176L1652.06 86.3647C1651.47 85.5835 1650.24 84.8667 1649.52 84.2747L1647.89 87.0423C1647.81 87.1617 1647.72 87.3082 1647.64 87.4291L1646.46 89.3964C1645.95 90.0587 1645.51 90.2959 1644.82 91.0341H1639.33C1638.65 88.9452 1637.89 89.2795 1639.56 87.3035C1640.82 85.8086 1639.51 88.7231 1640.9 85.9645C1637.3 86.5675 1637.51 86.0792 1635.25 88.6674L1633.31 91.2154C1633.26 91.296 1633.17 91.4785 1633.06 91.5975C1632.51 90.1067 1633.12 91.1342 1632.28 89.9076C1633.07 89.1522 1633.06 91.0923 1633.06 88.2176H1632.28V89.9076H1630.71C1630.99 87.4506 1630.84 88.6993 1632.71 86.8397C1633.05 86.5007 1633.8 85.6835 1633.95 85.4782C1638.22 79.6776 1636.45 83.8422 1642.47 81.4585C1642.06 77.9289 1640.52 80.1364 1639.33 76.9523H1637.76C1636.25 81.6294 1633.04 78.939 1631.49 78.6423C1632.2 79.7362 1632.29 80.789 1630.63 82.4997C1628.76 84.426 1630.65 82.7244 1628.43 83.7654C1626.87 84.4979 1628.62 83.3988 1627.02 84.4443L1626 85.4016L1624.59 84.1625C1621.33 85.7681 1621.31 86.9753 1619.73 89.3446L1612.68 86.5283V89.3446H1608.76C1609.47 90.372 1609.36 90.0493 1609.54 91.5978C1605.38 90.1645 1603.41 92.9914 1596.18 96.0801C1595.98 96.1664 1595.44 96.4417 1595.23 96.5212C1592.78 97.4434 1596.81 96.9609 1592.29 97.2307C1595.56 93.7275 1597.2 94.3258 1601.7 92.1612C1600.74 90.8585 1601 91.2299 1599.78 90.1446C1599.01 89.46 1598.47 90.1399 1598.04 88.0168C1597.41 84.9253 1599.99 87.6166 1600.13 83.1487C1597.47 82.7025 1589.09 81.4022 1586.48 81.6494L1582.6 82.3387C1579.38 83.1083 1580.17 81.497 1579.75 84.2755C1576 84.2755 1576.5 83.8928 1573.48 83.7123L1574.36 85.9434C1570.13 86.0346 1567.9 87.4652 1564.63 87.8903C1561.13 88.3439 1565.72 87.7715 1562.41 87.9007C1560.08 87.9919 1560.62 88.0076 1558.58 88.7819C1558.76 88.2353 1559.14 86.9989 1559.4 86.5553C1560.49 84.6985 1564.03 83.7348 1566.42 82.5858C1564.68 79.4831 1568.46 85.663 1565 81.349L1564.5 79.5507C1564.41 75.8307 1564.46 78.9885 1563.29 75.8264C1561.06 75.9591 1557.93 76.9295 1556.23 77.5164C1556.91 75.2069 1555.88 75.8981 1557.01 74.1367C1554.35 73.9775 1554.14 73.7072 1552.31 73.0102C1551.65 73.7155 1548.44 76.6135 1547.59 76.9432C1543.05 78.7011 1542.7 75.5578 1541.33 79.7694H1539.77C1538.44 75.6891 1542.92 73.3628 1548.39 72.4468C1547.7 70.587 1546.27 69.5638 1543.69 69.0673C1542.55 72.1296 1541.78 70.8142 1537.8 71.6146C1532.07 72.7685 1536.85 72.8351 1530.36 72.4468C1529.85 68.0568 1527.59 69.3995 1527.22 66.2508C1524.54 67.66 1526.44 67.097 1526.44 70.757C1526.03 70.8965 1524.84 71.3056 1524.3 71.556C1524.19 71.6085 1523.99 71.7303 1523.88 71.7811L1522.66 72.3292C1521.48 72.7035 1521.39 72.382 1520.95 73.5733C1515.7 73.5733 1514.09 72.1768 1509.19 71.8835C1507.14 73.2806 1506.84 74.0696 1505.06 75.6758C1503.16 77.3876 1502.7 78.0203 1499 78.0794C1498.77 76.0877 1497.56 75.0303 1495.86 74.1365C1496.83 71.5196 1497.1 73.6383 1497.43 70.7568C1494.3 70.7067 1494.53 70.4967 1492.73 69.6303C1492.73 72.5696 1492.86 73.1779 1491.36 75.409C1490.76 76.3049 1491.17 75.5927 1490.63 76.5736L1490.02 77.8278C1489.97 77.9406 1489.85 78.1458 1489.81 78.2371C1489.76 78.3279 1489.7 78.5204 1489.59 78.6427C1491.42 80.4374 1490.89 79.1009 1492.73 80.8958C1488.9 81.9699 1492.33 79.9222 1489.88 81.1547C1489.8 81.1974 1489.62 81.3221 1489.53 81.3741L1488.76 81.9088C1486.82 83.1289 1485.32 83.8094 1482.53 84.2755C1481.93 82.6536 1481.25 82.806 1479.56 81.9078L1478.32 81.1089C1476.42 79.3387 1479.01 78.7245 1473.91 78.6429C1476.52 81.4483 1475.05 82.0217 1475.43 84.9629C1475.62 86.4749 1476.39 84.0012 1475.48 87.0918L1470.03 85.8865L1469.09 89.3261C1465.2 89.1053 1467.27 88.5586 1463.72 89.9084V87.6552C1461.44 88.7507 1462.67 88.7949 1459.8 89.345C1461.32 87.7092 1461.38 88.5891 1462.15 86.5287C1453.08 89.654 1446.4 89.3278 1440.87 90.9521C1439.76 91.2762 1439.03 91.8243 1437.2 92.2826C1431.61 93.6796 1432.14 92.5682 1429.22 91.0349C1427.5 92.1096 1427.47 92.548 1424.52 92.7247C1428.49 86.7721 1429.08 91.1002 1429.22 86.5287C1424.59 87.4172 1428.87 88.3592 1423.73 89.345C1418.73 88.3853 1422.63 87.5094 1418.25 85.4022C1416.61 87.8518 1418.16 87.23 1419.03 89.9084C1412.88 88.878 1413.15 90.182 1408.05 91.0349C1408.48 89.7088 1408.79 89.3712 1408.84 87.6552C1407.98 88.3654 1407.42 89.0771 1406.49 88.7817C1406.49 86.2862 1406.47 84.6301 1407.52 82.7659C1408.53 80.9616 1410.26 80.5071 1411.97 79.2059C1411.56 77.9219 1411.37 77.9106 1411.19 76.3895H1409.62C1409.36 78.6424 1409.16 78.7761 1407.27 79.769C1407.27 76.8411 1405.6 71.6542 1411.19 71.3198V68.5034C1408.13 67.9157 1408.72 66.8502 1407.88 64.1216C1407.3 62.2284 1406.85 60.3727 1406.27 57.9558C1405.87 56.2909 1405.37 54.3347 1404.84 52.2273C1404.19 49.681 1402.84 48.9069 1402.57 46.5355H1401C1401 53.1302 1404.13 54.2849 1404.13 63.4338C1400.04 62.7477 1402.8 63.1857 1398.65 63.4338C1399.21 61.7113 1399.87 61.2688 1401 60.0541C1392.36 60.0541 1392.4 62.2158 1389.92 67.8636C1387.88 72.4943 1387.68 75.0562 1381.4 78.0792C1377.92 72.8731 1376.98 74.5265 1369.32 73.8887C1366.84 73.6818 1366.37 73.1788 1365.72 71.8831H1364.15C1363.18 74.5001 1362.92 72.3813 1362.58 75.2628C1350.44 71.0767 1351.61 75.4889 1344.81 79.39C1340.01 82.142 1332.73 86.9798 1329.4 86.2093C1329.24 86.1708 1329.02 86.0877 1328.86 86.0405L1327.3 85.4018C1327.22 88.1509 1327.18 89.6812 1323.38 89.908C1323.38 87.6842 1323.14 87.6223 1322.6 85.9651L1318.98 87.3071C1318.83 87.3683 1318.63 87.4506 1318.49 87.5154C1315.64 88.7909 1312.29 91.0981 1308.9 91.896C1305.57 92.6816 1306.05 92.1278 1303 93.2879V91.0347C1300.15 91.5812 1301.62 91.355 1299.63 92.5582C1297.46 93.869 1298.4 92.7776 1296.73 94.4142C1297.78 94.8406 1297.59 94.7222 1299.08 94.9775C1297.28 96.7648 1299.13 95.6168 1294.38 95.5407C1294.07 98.1569 1295.22 96.526 1292.81 97.7939C1293.49 95.6907 1294.12 95.1216 1296.15 93.438L1299.29 91.1875C1299.42 91.1136 1299.61 91.019 1299.74 90.9461C1301.61 89.8674 1299.34 91.9544 1301.43 89.908C1300.67 87.8474 1300.6 88.7275 1299.08 87.0914C1301.14 86.6971 1300.51 86.9764 1302.15 84.792C1303.93 82.4139 1305.27 81.7233 1305.35 79.2055L1297.39 84.754C1296.38 85.3034 1296.89 85.0418 1295.94 85.4016C1295.39 83.7548 1296.04 84.5901 1294.38 83.7117C1299.57 76.6577 1301.11 76.7634 1306.32 74.2685C1308.16 73.3852 1307.1 73.3058 1310.84 71.8829C1310.3 70.2257 1310.06 70.1638 1310.06 67.9401C1304.31 70.7039 1303.04 74.5354 1292.81 74.6993C1295.23 72.0977 1298.55 72.2538 1300.65 70.1932C1296.53 70.4395 1296.84 71.614 1293.46 71.8797C1288.34 72.2814 1289.47 70.5532 1288.1 68.5034C1283.54 70.7015 1287.46 67.8589 1280.26 71.3198C1280.44 69.7628 1285.46 62.722 1287.32 61.7441C1290.34 63.8055 1287.89 63.0121 1289.67 65.687C1292.74 65.5035 1295.09 64.8499 1296.96 63.6032C1298.26 62.7389 1300.49 60.5011 1301.43 59.491C1298.89 59.979 1295.73 62.3232 1292.81 63.4338C1292.27 61.97 1293.1 62.8055 1291.24 62.3073C1291.87 60.3504 1294.57 57.139 1296.73 50.4783C1294.93 49.6119 1295.15 49.4019 1292.02 49.3518C1292.73 48.3244 1292.63 48.6474 1292.81 47.0988C1288.21 48.6827 1287.38 46.6862 1285.75 47.0988C1282.33 47.7545 1281.66 49.7471 1278.28 50.7905C1273.68 52.2111 1271.87 50.4107 1269.29 49.9152C1265.81 53.6508 1264.48 51.9338 1259.92 53.3224C1258.02 53.9017 1259.43 53.9054 1256.74 54.4216C1258.32 40.7788 1273.28 44.222 1275.56 38.0864C1271.79 38.7179 1269.7 40.0671 1266.78 41.3964C1263.39 42.9354 1264.86 41.8746 1262.54 42.4149C1260.88 42.8003 1259.65 43.6728 1258.51 44.4218C1253.73 47.57 1245.29 51.2887 1243.42 53.2951C1249.48 52.2794 1251.75 48.6202 1256.74 47.6622C1252.63 53.2432 1253.52 52.4826 1248 54.3751L1243.67 55.5853C1243.64 55.5838 1243.5 55.5275 1243.42 55.5481C1241.54 56.5941 1243.81 57.6341 1233.76 62.1313C1231.25 63.2574 1231.89 63.5015 1229.3 63.9972C1232.77 59.2948 1234.41 60.944 1235.58 57.8011C1233.07 59.0075 1235.03 58.7261 1231.66 58.9276C1231.84 57.383 1232.56 55.499 1233.15 54.3428L1234.01 50.4783C1234.25 48.3554 1236 47.3623 1237.04 45.3351C1238.4 42.7076 1238.34 42.1989 1240.6 40.0072C1244.72 36.029 1245.36 35.182 1247.81 29.9781C1249.13 27.1692 1256.27 18.1208 1259.51 15.2862C1263.26 11.9984 1263.71 14.5719 1266.15 12.1752C1256.37 12.1752 1256.47 17.1762 1249.12 22.4716C1243.19 26.7473 1245.13 23.0475 1237.47 30.9955L1230.27 37.6533C1221.37 45.4386 1223.06 42.2813 1220.36 43.6498C1219.52 44.0734 1219.06 44.8127 1218.45 45.4709C1214.17 50.1114 1214.47 47.157 1208.15 48.1913C1202.27 49.1534 1200.68 49.3516 1193.24 49.3516C1185.91 59.31 1181.54 56.5006 1176.94 59.6058C1169.5 64.6177 1175.12 64.9362 1157.18 67.9401C1158.5 66.5201 1159.68 65.3973 1160.31 63.4338H1161.1L1160.44 62.7766L1160.31 63.4338C1158.28 64.5045 1158.93 64.7043 1157 66.1212C1155.56 67.1777 1154.06 67.7387 1152.47 68.5032C1152.75 66.1146 1154.1 64.5575 1154.83 62.3071C1152.15 63.5964 1152.1 66.6593 1149.34 67.3767C1146.63 63.3253 1158.07 52.7119 1159.53 48.2251C1154.66 49.1601 1150.95 54.6747 1149.25 57.7393C1148.15 59.7236 1148.27 60.3999 1144.63 60.6173C1144.95 57.8995 1146.38 56.8735 1147.77 54.9844C1144.34 55.8763 1144.17 58.8353 1142.34 60.6624C1141.03 61.981 1140.34 61.811 1138.98 62.7477L1129.56 70.6272C1127.37 73.1637 1128.11 75.0481 1123.47 75.8258L1122.7 74.5601C1122.63 74.4305 1122.38 74.0194 1122.3 73.8653C1121.67 72.6113 1121.27 71.5045 1121.11 70.1931C1118.45 71.1129 1116.86 71.0242 1115.53 69.0998C1114.62 67.7873 1115.13 65.3227 1115.58 64.8C1117.7 62.3304 1120.89 62.6661 1118.76 56.1109H1117.19C1116.59 57.9756 1115.09 59.6606 1113.27 60.6171C1110.41 59.2389 1111.78 59.076 1109.35 57.8005C1109.35 61.9207 1109.86 59.8617 1106.81 61.6036C1102.44 64.0992 1103.28 67.0783 1096.26 66.1431C1093.2 65.7361 1093.5 65.2853 1088.98 65.1165C1080.54 64.8009 1081.82 63.6488 1075.21 62.5889C1067.48 61.3495 1068.22 64.4262 1061.24 63.7012C1056.14 63.1715 1051.7 63.2233 1046.63 62.3085C1020.24 57.542 1031.96 60.9007 1016.12 59.4417C1009.52 58.8336 1009 54.4356 1009 63.4333C1005.96 64.4828 1002.64 64.5598 998.028 64.5598L1001.96 63.4446C1004.91 62.8065 1004.29 63.2896 1005.87 61.7434C1002.95 61.7434 997.375 61.9691 995.143 62.5668C987.121 64.7144 1001.2 65.122 991.756 65.6863L990.188 62.8699C988.784 66.6491 986.879 67.0081 982.348 66.2495C981.412 64.7945 981.791 65.1512 982.348 63.4331C976.437 63.7866 981.303 64.0193 979.328 66.3554C976.637 69.5399 967.207 64.0099 960.396 62.8699V61.1799C963.484 60.663 965.035 60.5283 966.668 58.9267C961.6 58.9267 961.117 57.8325 958.602 58.2153L948.636 58.9267C948.2 55.1602 944.25 56.7745 940.558 57.1005C936.361 57.471 934.929 56.1796 930.604 56.1103C930.391 62.9802 920.383 61.2169 918.06 61.1799C917.598 57.1866 914.571 57.5745 914.141 53.8573C911.031 55.4941 915.423 60.9682 915.708 63.4331C902.207 68.0876 898.633 61.6833 894.091 62.6544C893.556 62.769 892.088 63.6285 891.384 63.9553C890.217 64.4973 889.4 64.7277 888.176 65.0565C884.909 65.9335 875.652 68.9419 876.496 63.5315C876.894 60.9772 880.48 60.1244 877.831 59.2698C876.175 58.7356 874.553 60.4054 871.021 60.6167V57.8002C863.846 57.8002 857.36 63.8514 850.637 60.6167C850.314 63.4064 848.713 64.8297 845.791 65.6209C843.445 66.2563 843.453 65.8638 842.37 66.2505C842.357 66.2553 839.908 67.5928 838.947 67.9742C834.417 69.7715 833.632 68.3969 829.213 69.4452C828.015 69.7296 822.495 71.5894 821.169 72.1148L809.769 76.3163C803.585 78.2373 795.834 82.0851 789.486 83.1478C791.01 81.512 791.072 82.3918 791.838 80.3315C789.836 79.6416 791.623 80.2093 789.625 79.9458L787.918 79.7679C788.821 77.3362 792.282 76.7455 794.189 74.6983L768.318 84.2741C767.741 82.4959 767.326 80.4195 766.75 78.6414C763.499 80.3281 771.115 83.6911 759.194 87.8582C754.484 89.5046 750.696 90.1206 745.766 88.6493C743.603 88.0034 743.917 88.0824 743.23 85.964C739.544 86.1952 741.304 85.126 741.662 88.217H739.31C738.12 85.6369 738.474 87.8701 737.844 88.7069C736.319 90.7354 739.051 90.2043 734.606 90.47C733.941 88.4204 734.173 88.6638 732.254 87.6537C724.634 88.9292 731.448 92.0164 720.494 93.8497C719.45 90.6304 720.894 90.9686 721.278 87.6537C717.637 87.4359 719.907 88.2578 718.142 86.5271L715.666 87.6165C714.13 88.3753 714.322 87.1791 713.438 89.9069C715.225 90.206 715.241 90.3435 717.358 90.47C717.226 94.7158 710.617 95.5399 710.086 93.2346C709.731 91.6924 710.947 92.8647 711.87 91.0334C709.362 89.827 711.321 90.1084 707.95 89.9069C707.95 83.3521 721.284 81.7174 727.885 78.8822C734.88 75.8776 735.299 74.9493 740.719 72.3311C743.733 70.8748 745.877 69.5073 748.863 68.0435L767.274 60.4299C771.706 58.7044 772.102 57.4221 777.725 58.3631V59.4896C775.333 59.89 775.164 59.9216 773.249 60.7803C770.95 61.8114 771.411 61.7882 768.317 62.306C770.601 64.5458 776.07 61.3578 778.281 59.8894C780.978 58.0989 779.079 58.2619 782.938 57.0395C785.18 56.3292 787.198 56.1456 789.359 55.4565C793.596 54.106 794.752 52.2841 800.997 51.426C809.809 50.2151 809.869 53.4452 809.869 45.4078L829.468 41.465C829.425 40.075 828.996 39.2627 829.037 38.5236C829.146 36.5087 830.617 36.2777 828.97 35.613C827.172 34.8874 824.547 35.2689 822.412 35.2689C820.734 37.0703 821.125 35.6632 820.844 38.0852C818.294 36.8582 819.098 37.1559 817.708 35.2689C818.893 33.6608 820.198 32.755 820.844 30.7626C814.941 31.6608 821.634 30.2119 817.139 30.5757L807.984 32.7887C805.475 33.4112 805.188 33.7042 803.037 34.3038C799.214 35.3695 796.236 35.1031 792.678 36.4536C790.696 37.2059 791.259 37.8588 788.114 37.4462C784.823 37.0143 786.456 36.5634 783.997 35.2689L777.383 37.2766C774.214 38.2021 772.271 38.1389 771.453 40.3384C776.088 40.3384 778.199 38.8907 780.861 39.7753C777.796 43.0638 762.267 48.3322 756.547 50.4702C754.528 51.2247 753.73 51.7242 751.593 52.5435C748.254 53.8231 743.477 55.2892 741.661 57.237C747.508 57.1433 746.748 55.7071 751.069 54.9838C750.291 57.0778 748.631 57.7067 746.132 58.7593C743.526 59.8571 741.891 60.6892 739.468 61.8575C729.757 66.5416 716.015 73.5191 704.224 74.8381C700.123 75.2968 698.651 75.1174 698.542 78.6418C695.242 77.3871 695.406 78.2611 695.406 74.6987C691.322 74.6334 690.25 73.4659 687.566 72.4455C688.133 70.6975 688.567 70.814 689.134 69.066C683.414 70.1632 685.705 72.6378 685.881 74.2107C686.046 75.684 685.825 75.8139 684.595 76.4734C682.733 77.4716 684.509 76.5257 682.928 76.9954C682.745 77.0496 682.524 77.0866 682.341 77.1395L678.076 78.6246C673.344 80.1551 674.7 79.264 675.805 81.4579C668.804 82.6298 668.741 88.5834 648.534 84.1533C646.812 83.7759 646.532 83.4968 644.446 83.1476C643.878 84.6739 644.708 84.2337 642.644 84.7513C641.382 85.0679 639.636 84.5833 638.958 84.2741L636.496 85.3736C636.38 85.4214 636.157 85.4941 636.036 85.5455L635.083 85.9513C632.473 87.2329 631.023 89.0922 628.863 90.6128L628.051 91.1816C624.026 93.5102 625.566 91.063 626.414 88.7805L623.239 88.2451C620.115 87.1084 624.978 88.1445 620.926 87.0907C622.098 88.6829 622.783 88.803 621.71 90.4704C621.026 90.6441 620.876 89.5539 618.649 91.5654C616.373 93.6212 617.84 93.287 613.086 93.287L612.157 87.6682C600.46 87.8144 599.952 93.3011 592.718 97.2413C589.199 99.1584 586.713 99.9712 583.602 102.528C580.157 105.358 577.375 103.623 573.102 105.679C573.248 100.975 574.64 101.997 577.482 99.8137C581.227 96.9371 577.453 95.1139 581.818 93.353L597.847 85.7179C602.824 82.9905 608.676 81.4395 613.298 78.2307C616.998 75.6611 619.823 73.81 624.501 72.1979C627.283 71.239 627.176 71.797 627.982 69.6292H628.766L628.112 68.9719L627.982 69.6292L624.868 70.7864C626.073 67.4524 628.339 69.2305 631.117 66.2495C627.02 65.9273 630.185 66.708 628.206 64.962C626.79 63.7135 628.226 64.1192 625.63 62.8699C624.605 66.0287 621.063 71.0051 615.438 69.066C616.555 66.0593 619.024 67.0029 620.142 63.9962C617.308 61.2176 617.531 64.7031 616.222 61.1799L610.759 62.0244C608.437 63.0826 613.001 62.5798 608.382 62.8697C607.482 60.4492 603.319 60.283 599.774 60.5852C595.843 60.9204 598.891 60.4511 596.344 61.5432C596.142 61.6299 595.6 61.9036 595.395 61.9878L584.875 65.6956C582.41 66.2159 581.233 66.1839 579.232 67.2734L574.106 69.7868C573.948 69.8463 573.732 69.9085 573.583 69.974C573.438 70.0376 573.24 70.1239 573.106 70.1948L569.784 72.878C568.214 74.0502 567.032 74.9733 565.262 75.8249C561.836 75.1677 562.529 73.9477 559.015 72.946C555.727 72.0089 549.603 74.5563 551.077 70.6488C551.466 69.6159 551.423 69.947 552.074 69.231C554.377 66.6995 560.1 64.5715 560.558 60.6163C557.885 61.6325 558.665 61.2635 556.428 62.7188L544.647 70.0259C532.195 76.9491 535.304 75.3914 523.71 74.6983C523.945 72.6725 524.742 71.0425 526.248 69.7623C528.046 68.2349 529.115 68.4917 530.766 66.2491C528.255 66.731 522.464 68.812 518.222 69.0656C520.789 66.5484 521.635 68.4154 527.068 63.5925C528.604 62.2293 528.563 62.5751 529.198 60.6165C528.28 59.6317 528.199 59.3631 526.485 58.6217C520.471 56.0208 517.691 57.8598 514.302 59.49L512.894 58.7086C511.748 57.8884 511.632 58.7433 512.184 57.2142C512.576 56.1264 514.418 56.698 511.95 56.1103C515.05 53.0263 511.396 57.1331 515.266 54.5553C517.548 53.0347 515.996 52.8855 519.031 51.6224C521.416 50.6304 523.051 50.9654 527.322 46.8763C529.894 44.4137 530.122 42.5076 534.042 41.0026C536.536 40.0457 540.224 39.384 544.094 37.5221L537.477 32.7001C534.995 31.3114 532.275 31.871 527.63 29.6361C525.92 31.9586 523.678 33.9597 519.79 34.7057C519.442 31.7003 517.962 30.8122 514.302 30.1997C511.029 33.7114 511.322 34.1337 507.38 35.365C503.889 36.4554 501.512 37.9283 497.858 39.2263C494.836 40.2997 490.047 40.8735 487.844 42.1707C477.011 48.5505 463.566 52.6942 452.267 58.8551C448.247 61.0473 449.019 59.8891 446.385 60.8246C444.452 61.5111 445.41 61.1697 443.743 63.4331C439.464 63.3647 437.854 61.9001 433.551 61.1799C431.274 62.2756 432.499 62.3196 429.631 62.8699C431.32 67.4151 432.877 64.5407 424.968 67.4054C421.932 68.5051 412.53 72.4532 410.815 74.1356C417.083 75.1846 416.521 73.3278 421.791 72.4455C420.352 73.9892 416.469 75.8845 413.703 76.7738C406.042 79.237 410.25 77.0169 406.111 81.4581C394.582 81.4581 403.39 79.0629 394.106 83.5349C392.298 84.4059 382.181 87.3955 378.671 92.1606C372.851 92.1606 373.063 92.4059 369.263 93.8505C363.195 90.931 366.981 92.5703 363.775 88.2176C358.515 90.0311 359.072 87.7841 359.072 97.2302C355.744 97.2834 352.044 98.5694 347.032 99.2823C342.515 99.925 344.453 98.7202 343.391 100.61C338.946 100.539 341.612 100.845 339.25 99.643C337.882 98.9472 339.458 99.5929 337.947 98.8889L336.401 98.3101C332.981 97.0028 334.856 98.2798 333.26 96.0606C332.438 94.9177 333.277 95.8125 332.19 94.5762C331.726 94.0495 331.429 93.9107 330.848 93.2875C333.6 91.012 335.247 90.0003 341.04 89.9078L341.823 92.161C342.983 88.586 349.075 86.7037 343.391 83.7117C343.391 86.0815 343.681 86.6824 341.823 88.2177C341.823 85.6756 342.753 81.694 338.496 82.4827L336.966 82.9618C332.309 84.4866 316.033 96.0818 311.241 97.8154C307.561 99.1467 306.653 97.6262 304.192 98.3569C303.02 97.1448 304.077 97.6151 301.84 97.2304C303.043 98.4751 301.968 97.9303 304.192 98.3569C303.744 98.6367 304.89 99.2522 302.156 99.0003L300.272 98.3569C299.524 99.4762 299.146 100.371 298.704 101.737C296.155 101.584 297.413 101.59 295.864 100.961C295.717 100.901 295.539 100.797 295.394 100.735L289.296 97.7935C287.401 100.63 289.698 99.5202 286.101 101.733C282.653 103.853 284.943 103.118 280.672 102.863V98.92L277.567 99.5523L277.536 93.2875C276.177 92.7708 275.479 92.6515 274.234 92.2805C267.361 90.2328 273.42 88.6227 267.706 85.7047C263.389 83.5004 264.255 84.9872 262.116 82.3981C259.1 78.7457 257.159 77.1021 248.501 78.032C246.127 78.2871 241.671 78.547 239.661 79.0308C237.669 79.5105 234.679 81.1484 232.517 81.2361C229.376 81.3633 231.825 79.3079 231.228 75.89C230.17 69.8365 220.655 69.7215 214.474 65.9327C211.202 63.9269 213.09 62.591 211.056 60.5026C208.498 57.8759 198.619 58.9453 192.86 58.9238C181.856 58.8823 182.942 59.8864 179.287 60.2768C177.555 60.4621 177.685 60.0999 174.833 60.0541C171.201 63.9509 171.32 63.4106 167.071 66.3061L163.073 69.6299C157.888 69.32 161.427 66.3943 155.235 72.447C154.244 73.4155 153.145 74.6859 151.716 75.5523C151.02 75.9746 150.278 76.2583 149.449 76.7398C148.542 77.2669 148.736 77.3721 147.393 78.0792C143.164 77.8263 137.773 75.9398 135.62 74.1456C131.822 70.9795 132.042 69.6299 123.874 69.6299C119.309 74.5272 122.503 72.4553 123.09 77.5158C119.382 76.2377 120.215 77.7421 118.343 74.7301C118.266 74.6056 118.209 74.4432 118.131 74.3189C118.054 74.1967 117.982 74.04 117.901 73.9207C117.823 73.8045 117.724 73.6574 117.64 73.5452C116.812 72.4404 117.663 73.6551 116.697 72.5328C115.664 71.3322 115.747 71.7277 115.25 70.1932C105.073 70.1932 101.43 67.1721 98.6321 66.3104C92.868 64.535 99.3051 68.9593 90.162 64.5603C88.7432 65.2429 87.5059 66.024 86.2418 66.8135C84.2108 66.4237 83.4015 65.8321 81.5378 65.1235C78.7882 68.0739 72.4899 70.7325 70.2328 72.2095L68.2102 74.1361C65.47 72.8177 66.3434 72.2112 62.5862 72.82C59.5692 73.309 58.8368 73.9465 55.6663 74.1361C54.8733 72.0021 54.1323 72.7158 53.3141 70.1932C50.0145 71.9301 51.6245 75.2218 53.3141 77.5158C47.9772 77.1889 50.3401 76.8656 49.786 75.3799C49.4938 74.5958 49.7079 73.2585 45.4741 72.4463C42.6099 73.8245 43.9769 73.9873 41.5542 75.2628C41.5542 72.1573 40.8367 73.5679 40.2587 70.3051C39.9703 68.6779 42.4492 70.3647 39.2944 68.4424C38.4559 67.9313 37.4248 67.6373 36.0659 67.3767C32.7235 77.6847 26.3372 75.9827 20.2773 81.9439C17.5736 84.6039 9.7262 92.1206 5.62891 91.5782L0.786133 91.0345C0.422852 92.1548 0.171753 94.5828 0.00244141 97.8296V146.236C0.00244141 164.824 0.00244141 400.912 0.00244141 419.5H1920V36.9595L1915.9 39.6478C1913.09 39.5485 1915.43 39.5003 1912.16 38.6494C1909.87 41.7558 1907.71 45.8443 1905.99 47.1746C1904.35 48.4527 1904.49 46.9636 1903.54 49.9148H1901.97C1901.4 48.1666 1900.97 48.2833 1900.4 46.5351C1896.58 46.7632 1893.42 49.3248 1890.66 46.2084C1890.28 45.7729 1889.51 43.5824 1889.46 43.0891C1889.3 41.4584 1890.3 37.4254 1890.99 36.3961C1887.67 37.0329 1889.69 36.8875 1887.15 38.7062C1880.98 43.1255 1884.52 40.1921 1878.15 42.3777C1876.17 43.0577 1875.08 43.7871 1873.61 44.2214C1868.87 45.6186 1867.56 42.8842 1865.54 47.3898C1862.3 54.608 1862.94 51.3818 1860.42 53.8577C1860.73 53.9498 1862.73 53.5 1861.51 56.772C1860.95 58.2921 1860.57 58.7121 1859.37 59.8626C1857.49 61.6618 1855.02 62.8061 1851.01 62.8703C1852.25 66.7095 1850.59 69.2796 1844.74 69.6295C1840.96 67.8146 1843.3 66.5388 1838.46 66.2498C1839.43 67.5676 1839.81 67.7162 1840.03 69.6295C1830.32 71.255 1835.36 67.7076 1828.45 64.9962L1825.89 64.0197C1824.01 63.2708 1822.77 62.6981 1820.43 62.3068C1821.68 65.6674 1821.48 62.347 1824.73 65.4141C1826.11 66.7202 1826.64 68.1608 1826.71 70.1929ZM1050.55 38.0858C1049.38 36.8737 1050.44 37.344 1048.2 36.9593C1049.4 38.2042 1048.33 37.6594 1050.55 38.0858ZM1709.89 73.0092L1710.67 72.4459H1711.46L1710.81 71.7889L1710.67 72.4459L1709.89 73.0092H1709.11L1709.76 73.6664L1709.89 73.0092ZM1276.34 44.8452L1277.13 44.2819H1277.91L1277.26 43.6247L1277.13 44.2819L1276.34 44.8452H1275.56L1276.21 45.5024L1276.34 44.8452ZM1630.71 72.4459H1631.49L1630.84 71.7889L1630.71 72.4459C1628.79 73.4563 1629.02 73.2126 1628.36 75.2625C1630.39 74.2833 1630.45 74.6895 1630.71 72.4459ZM1711.46 7.66879V7.10562L1710.54 7.57489L1711.46 7.66879C1711.74 10.108 1711.9 10.8404 1715.38 11.0485C1715.12 8.78302 1714.15 8.1853 1711.46 7.66879ZM1640.12 40.339H1640.9L1640.25 39.6818L1640.12 40.339C1638.2 40.704 1639.06 40.0891 1638.55 41.4655L1640.12 40.339ZM1292.02 33.5796H1292.81L1292.15 32.9225L1292.02 33.5796C1289.31 34.0997 1289.61 33.8853 1288.89 35.8328C1291.6 35.3129 1291.3 35.5272 1292.02 33.5796ZM1662.07 47.0984H1661.28L1661.94 47.7554L1662.07 47.0984L1665.17 46.4659C1664.51 46.2252 1666.34 45.6768 1663.71 46.1C1662.33 46.3217 1662.85 46.3279 1662.07 47.0984ZM515.87 29.0734H515.086L515.739 29.7306L515.87 29.0734C519.897 28.0258 515.243 29.127 518.123 27.8757C519.865 27.1186 518.609 27.4275 521.358 27.3833C518.188 24.275 513.439 26.0712 511.166 28.5098C511.521 28.5098 513.33 28.4641 513.55 28.4864L515.87 29.0734ZM1603.27 91.0341H1602.48L1603.14 91.6913L1603.27 91.0341C1604.9 90.7217 1606.06 90.2097 1607.37 89.4725C1609.14 88.47 1609.31 88.4806 1609.54 86.5279C1605.74 88.3575 1605.52 87.9732 1603.27 91.0341ZM1322.6 65.6865H1321.81L1322.47 66.3437L1322.6 65.6865C1324.84 65.3018 1323.78 65.7718 1324.95 64.5599C1322.66 64.9541 1323.82 64.4874 1322.6 65.6865ZM1299.08 65.1231C1299.08 63.7237 1297.82 64.9792 1298.59 65.1231C1298.6 65.125 1299.08 66.7212 1299.08 65.1231ZM1609.54 84.838C1609.85 83.6288 1608.41 84.4571 1608.48 84.9517L1608.76 85.0594C1610.23 84.9933 1609.24 86.002 1609.54 84.838ZM1038.79 58.3639C1038.76 58.1777 1037.93 58.2377 1037.86 58.2564C1037.66 58.3089 1036.5 56.9526 1037.52 58.4077C1037.54 58.4396 1038.98 59.4494 1038.79 58.3639ZM1054.47 60.6171C1054.44 60.4309 1053.61 60.491 1053.54 60.5095C1053.34 60.562 1052.18 59.2058 1053.2 60.6609C1053.22 60.6928 1054.66 61.7026 1054.47 60.6171ZM1747.52 83.7115C1747.92 82.1454 1745.65 83.982 1746.75 83.9329C1748.21 83.8668 1747.22 84.8755 1747.52 83.7115ZM1721.65 67.9397C1722.05 66.3735 1719.78 68.2101 1720.87 68.161C1722.34 68.0949 1721.35 69.1036 1721.65 67.9397ZM1652.66 81.4583C1653.06 79.8922 1650.79 81.7288 1651.88 81.6797C1653.35 81.6136 1652.36 82.6222 1652.66 81.4583ZM1699.7 82.5848C1699.7 81.9227 1698.01 81.3156 1698.48 82.5848C1698.96 83.8575 1696.49 82.5999 1698.85 82.7516C1699.83 82.8152 1699.7 83.7297 1699.7 82.5848ZM1464.5 20.0607C1464.5 19.3986 1462.81 18.7916 1463.29 20.0607C1463.76 21.3334 1461.29 20.076 1463.65 20.2277C1464.64 20.2911 1464.5 21.2057 1464.5 20.0607ZM1602.48 87.6544C1602.48 86.9923 1600.8 86.3851 1601.27 87.6544C1601.74 88.9271 1599.28 87.6697 1601.63 87.8214C1602.62 87.8848 1602.48 88.7993 1602.48 87.6544ZM1920 35.3272C1919.79 34.9473 1918.89 35.5525 1918.94 35.9465C1918.95 35.9495 1919 36.0371 1919.01 36.0385C1919.73 36.1752 1919.95 36.3231 1920 36.3612V36.3466C1919.97 36.2924 1919.92 36.1404 1920 35.8326V35.3272ZM1255.17 40.3388C1255.49 39.1296 1254.05 39.9579 1254.12 40.4527C1254.12 40.4555 1254.17 40.5434 1254.18 40.5447C1255.75 40.8436 1254.95 41.1958 1255.17 40.3388ZM1515.46 18.9341C1514.65 18.3554 1512.62 19.7448 1514.55 19.2379C1514.57 19.233 1516.78 19.8795 1515.46 18.9341ZM1644.03 84.2745L1642.47 85.9645C1644.53 85.4125 1643.63 85.9753 1644.03 84.2745ZM1321.03 82.0213C1321.34 80.8121 1319.9 81.6406 1319.97 82.1352C1319.99 82.2547 1320.66 83.4605 1321.03 82.0213ZM1431.57 86.5275C1431.41 85.8849 1429.85 85.296 1430.52 86.4136C1430.8 86.8856 1431.95 87.9904 1431.57 86.5275ZM1539.76 14.4278C1539.6 13.785 1538.04 13.1963 1538.71 14.3139C1538.99 14.7857 1540.14 15.8907 1539.76 14.4278ZM1756.15 79.7681C1755.98 79.1254 1754.42 78.5366 1755.09 79.6544C1755.37 80.1262 1756.52 81.231 1756.15 79.7681ZM1670.69 74.1354C1671.89 75.3801 1670.82 74.8353 1673.04 75.2619C1671.81 73.9841 1672.89 74.6037 1670.69 74.1354ZM1740.47 58.9267C1741.67 60.1716 1740.59 59.6267 1742.82 60.0532C1741.58 58.7756 1742.67 59.3952 1740.47 58.9267ZM1372.77 65.6861C1373.32 67.3329 1372.67 66.4974 1374.34 67.3759C1373.83 65.8319 1374.66 66.4987 1372.77 65.6861ZM1779.67 40.9016C1780.21 42.5484 1779.56 41.7131 1781.23 42.5917C1780.72 41.0476 1781.55 41.7144 1779.67 40.9016ZM1643.25 76.3884H1640.9V76.9515H1643.25V76.3884ZM1392.37 56.1103H1391.59V57.8002H1392.37V56.1103ZM1430.79 48.7877H1430.01V50.4776H1430.79V48.7877ZM1770.26 19.4972H1767.91V20.0604H1770.26V19.4972ZM1490.37 47.6612H1489.59V49.3511H1490.37V47.6612ZM1419.81 48.2244H1419.03V49.9144H1419.81V48.2244ZM1625.22 14.4278H1622.87V14.991H1625.22V14.4278ZM1536.63 13.8645H1534.28V14.4278H1536.63V13.8645ZM1410.41 51.0411H1409.62V52.731H1410.41V51.0411ZM1679.32 53.2943H1678.53V54.9842H1679.32V53.2943ZM1818.87 53.8575H1816.51V54.4208H1818.87V53.8575ZM1655.8 23.4405H1653.44V24.0038H1655.8V23.4405ZM1741.25 65.1231H1740.47V66.8132H1741.25V65.1231ZM816.139 69.6293C813.848 70.0237 815.01 69.5568 813.787 70.7559C815.162 70.5194 815.888 70.6852 816.139 69.6293ZM1296.73 45.9717C1294.43 46.3659 1295.6 45.8992 1294.37 47.0983C1295.75 46.8618 1296.48 47.0274 1296.73 45.9717ZM794.972 79.2051C792.679 79.5995 793.842 79.1326 792.619 80.3316C793.994 80.0952 794.72 80.261 794.972 79.2051ZM833.387 45.9717C831.655 46.8367 832.413 46.0639 831.819 47.6616C833.116 47.014 833.327 47.5422 833.387 45.9717ZM1415.89 44.8452C1414.16 45.7102 1414.92 44.9374 1414.33 46.5351C1415.62 45.8877 1415.83 46.4157 1415.89 44.8452ZM1627.57 75.8256C1625.84 76.6908 1626.6 75.918 1626 77.5157C1627.3 76.8681 1627.51 77.3961 1627.57 75.8256ZM337.904 79.2053C336.172 80.0705 336.93 79.2977 336.336 80.8952C337.633 80.2478 337.844 80.7758 337.904 79.2053ZM94.0829 62.3069C92.3502 63.1721 93.1083 62.3993 92.5148 63.9968C93.8116 63.3494 94.0227 63.8774 94.0829 62.3069ZM1605.62 86.5281C1603.89 87.3932 1604.65 86.6205 1604.05 88.218C1605.35 87.5706 1605.56 88.0986 1605.62 86.5281ZM536.255 43.1556C534.522 44.0207 535.28 43.2479 534.687 44.8456C535.984 44.198 536.194 44.7261 536.255 43.1556ZM1225.38 37.5228C1223.65 38.3878 1224.41 37.615 1223.82 39.2127C1225.11 38.5653 1225.32 39.0933 1225.38 37.5228ZM1386.89 63.9968C1384.45 65.2602 1384.45 64.4232 1386.89 65.6868V63.9968ZM1416.68 40.9023C1414.24 42.1658 1414.24 41.3288 1416.68 42.5924V40.9023ZM1657.36 84.8384C1657.72 84.581 1659.2 84.8906 1657.38 84.1469C1656.6 83.8268 1655.45 84.0462 1656.4 84.8501C1657.63 85.8903 1656.83 85.2225 1657.36 84.8384ZM1626.79 54.9846C1624.43 55.4376 1625.07 54.9776 1624.44 56.6744C1627.59 55.8544 1624.55 57.1433 1626.79 54.9846ZM1832.19 52.7314V53.8578H1834.55C1833.31 52.5803 1834.4 53.1999 1832.19 52.7314ZM1328.87 73.0094H1326.52C1327.72 74.2542 1326.65 73.7093 1328.87 74.1359V73.0094ZM1636.2 44.2821C1633.9 44.6764 1635.07 44.2095 1633.84 45.4086H1636.2V44.2821ZM814.572 48.7883C812.28 49.1824 813.443 48.7158 812.22 49.9148H814.572V48.7883ZM798.108 78.0788C795.816 78.4731 796.979 78.0063 795.756 79.2053H798.108V78.0788ZM1752.23 56.674H1750.66C1751.21 58.3208 1750.56 57.4855 1752.23 58.3641V56.674ZM1720.08 76.3889C1719.9 76.6864 1717.6 76.7375 1721.65 77.5154C1721.23 76.388 1722.66 77.2881 1721.02 76.36C1719.66 75.5876 1721.14 76.0129 1720.08 76.3889ZM1762.42 51.6045H1760.07V52.731C1761.44 52.4945 1762.17 52.6603 1762.42 51.6045ZM1425.3 72.4457H1423.73V74.1357C1425.03 73.4882 1425.24 74.0162 1425.3 72.4457ZM1582.1 66.2496H1580.53V67.9397C1581.83 67.2921 1582.04 67.8201 1582.1 66.2496ZM1283.4 40.3388C1282.61 40.4912 1280.37 40.4166 1281.83 41.4653C1282.67 42.07 1283.34 41.9537 1283.4 40.3388ZM1622.25 46.0922L1619.73 45.9717V47.6616L1622.25 46.0922ZM1707.54 65.1231C1704.36 65.6549 1705.18 65.274 1704.4 66.8132C1706.96 65.8402 1705.95 66.7671 1707.54 65.1231ZM974.506 58.3639C970.865 58.5816 973.135 57.7597 971.37 59.4904C973.214 59.3801 974.224 59.5501 974.506 58.3639ZM1110.92 53.2943C1108.51 54.5623 1109.66 52.9314 1109.35 55.5475C1111.36 54.4917 1110.92 55.7422 1110.92 53.2943ZM1783.59 38.0856C1781.18 39.3538 1782.32 37.7228 1782.02 40.3388C1784.02 39.2831 1783.59 40.5337 1783.59 38.0856ZM1335.93 71.319L1332.82 70.6867C1333.51 71.5294 1335.5 73.5144 1335.93 71.319ZM969.802 58.3637C967.44 58.8168 968.081 58.3565 967.45 60.0536C969.24 59.71 969.742 59.9255 969.802 58.3637ZM716.573 66.2495C713.72 66.7271 714.059 66.5605 712.653 67.9395C715.405 67.4787 715.238 67.6292 716.573 66.2495ZM1410.41 53.8573H1408.84V55.5473H1410.41V53.8573ZM1135.22 52.7308C1132.4 53.273 1133.13 52.7821 1132.87 54.984C1135.04 53.8412 1133.93 54.6076 1135.22 52.7308ZM1001.16 54.984C1000.66 55.4015 1000.57 55.1133 1000.11 55.9152C999.339 57.2283 999.778 56.2119 999.594 57.8004C1001.75 56.6635 1001.16 57.84 1001.16 54.984ZM786.348 64.5598C788.113 66.2904 785.843 65.4685 789.484 65.6863C787.995 64.0878 788.385 63.955 786.348 64.5598ZM1423.73 74.6987V77.5153C1423.8 77.463 1424.85 77.2074 1425.04 76.1857C1425.31 74.7448 1425.01 75.3695 1423.73 74.6987ZM1763.99 48.2245V51.0411C1764.95 50.5337 1765.25 50.8575 1765.33 49.9086C1765.45 48.491 1764 48.2327 1763.99 48.2245ZM1259.1 37.5225L1255.98 38.6797C1256.55 39.408 1256.39 39.2714 1256.74 40.3388L1259.1 37.5225ZM1724 77.5153V78.6418H1727.14C1725.37 76.9053 1727.65 77.7383 1724 77.5153ZM1422.17 51.0411H1420.6C1420.9 53.6571 1419.76 52.0262 1422.17 53.2943V51.0411ZM1430.79 45.9716H1429.22V48.2245C1431.23 47.1689 1430.79 48.4195 1430.79 45.9716ZM1455.88 75.2621C1453.14 75.7874 1454.12 75.4762 1452.74 76.9519C1455 76.8167 1455.81 76.9646 1455.88 75.2621ZM1607.97 37.5223C1605.94 38.5914 1606.31 38.7844 1605.62 40.9018C1607.65 39.8327 1607.29 39.6399 1607.97 37.5223ZM1348.47 65.1229C1346.11 65.5762 1346.75 65.116 1346.12 66.813H1348.47V65.1229ZM1524.87 61.1801C1524.87 59.5939 1524.53 60.137 1523.3 59.4902V62.3066C1524 62.025 1524.87 61.94 1524.87 61.1801ZM1313.19 75.8254H1310.06V77.5154C1312.61 76.5425 1311.6 77.4694 1313.19 75.8254ZM1439.41 67.9397H1438.63C1438.63 70.933 1436.23 69.6447 1439.41 71.3192V67.9397ZM1644.82 57.2374L1642.3 58.8064C1645.72 60.008 1645.53 59.362 1644.82 57.2374ZM1242.63 53.2945C1240.63 54.256 1240.18 54.2596 1239.5 56.1109C1242.11 55.1187 1241.85 55.7014 1242.63 53.2945ZM1553.88 8.23212C1555.26 9.58752 1555.45 9.73447 1558.58 9.922C1557.2 8.56659 1557.01 8.41965 1553.88 8.23212ZM1756.93 12.7382H1753.01V13.8647C1755.1 13.8315 1756.62 14.0465 1756.93 12.7382ZM983.914 57.8005H979.995V58.9271C982.084 58.8938 983.603 59.1089 983.914 57.8005ZM1830.63 54.9842C1827.54 55.5003 1827.44 55.6038 1825.92 57.2374C1829.01 56.7212 1829.1 56.6178 1830.63 54.9842ZM1624.44 79.7685C1624.34 79.9261 1622.65 79.5847 1624.61 80.8191C1625.52 81.3909 1625.25 81.67 1626.23 80.9662C1628.3 79.4742 1626.05 79.8053 1626.03 79.7972C1624.54 78.8047 1624.88 79.62 1624.44 79.7685ZM1310.06 81.4585H1308.49V84.2749H1310.06V81.4585ZM1737.33 74.1359C1733.62 74.1952 1734.25 73.5628 1733.41 75.8258C1736.24 75.6564 1736.24 75.5823 1737.33 74.1359ZM1353.17 66.8134C1350.4 67.3452 1350.76 67.4139 1350.04 69.6297C1353.69 68.929 1351.56 69.2261 1353.17 66.8134ZM1317.11 71.8829C1313.84 73.4578 1315.56 72.8848 1313.98 75.2626C1313.98 75.2606 1314.98 75.4904 1316.26 74.0908C1317.2 73.0668 1316.93 73.4442 1317.11 71.8829ZM1651.09 82.5852C1651.5 85.2732 1650.02 83.5353 1653.44 84.8384C1654.02 82.8972 1654.66 82.7988 1651.09 82.5852ZM1288.89 36.9595C1286.35 37.4461 1284.68 38.3989 1283.4 39.776C1286.66 39.2295 1287.27 38.696 1288.89 36.9595ZM1317.11 70.1931C1313.47 70.2514 1313.22 70.2618 1312.41 72.4461C1314.82 71.983 1313.99 72.1386 1316.69 70.4529C1316.77 70.4001 1316.97 70.2803 1317.11 70.1931ZM1266.94 34.7063C1264.54 35.1067 1265.04 35.3792 1263.02 34.7063C1262.4 36.3727 1262.7 35.6196 1261.45 36.9595C1264.08 36.5194 1265.57 36.0492 1266.94 34.7063ZM1551.52 9.922C1551.13 9.42059 1551.01 8.79547 1549.96 8.79547C1547.79 8.79547 1548.07 9.23022 1547.6 10.4854C1549.26 10.4591 1550.71 10.5851 1551.52 9.922ZM820.844 57.2375C818.763 56.5201 820.005 56.7237 816.924 56.6742C817.205 57.5193 817.096 58.3643 818.492 58.3643C819.909 58.3643 820.643 58.0821 820.844 57.2375ZM1205 39.776C1203.23 41.2391 1202.72 41.8317 1202.65 44.2821C1205.25 42.1348 1205 42.504 1205 39.776ZM1342.98 58.9274C1344.36 60.2828 1344.55 60.4297 1347.69 60.6175C1346.04 58.8517 1345.71 58.0225 1342.98 58.9274ZM1502.92 49.3516C1500.86 50.3399 1501.3 49.6366 1500.57 51.6049C1500.58 51.6141 1502.03 52.1682 1502.13 52.1682C1506.22 52.1682 1503.3 51.8842 1502.92 49.3516ZM1116.41 53.8578H1114.84L1113.16 57.7748C1115.71 56.6298 1116.32 56.6778 1116.41 53.8578ZM1682.45 62.8705C1682.09 63.0431 1681.11 63.3613 1680.54 63.7509C1679.3 64.5994 1679.94 63.8801 1679.32 65.1233C1680.26 65.6887 1683.83 67.1252 1682.45 62.8705ZM1292.81 36.9595C1289.54 37.5058 1288.94 38.0395 1287.32 39.776C1289.58 39.641 1289.26 39.7166 1290.86 38.9387C1293.01 37.8954 1292.24 38.479 1292.81 36.9595ZM1546.04 49.3516C1541.47 48.5664 1542.35 48.1528 1540.55 49.915C1542.86 50.3012 1542.94 50.4781 1546.04 50.4781V49.3516ZM1691.86 73.5728C1689.06 74.0419 1686.28 74.9365 1684.8 76.3893C1688.87 76.1461 1690.09 75.4728 1691.86 73.5728ZM1312.41 49.3516C1309.72 51.9884 1310.18 48.7522 1310.05 52.7314C1310.18 52.6719 1312.42 51.6889 1312.48 51.6543C1314.79 50.308 1313.68 51.8964 1313.98 49.3516H1312.41L1314.25 47.7012C1315.17 45.9876 1313.15 45.3013 1312.08 40.5766C1310.91 35.4519 1310.31 33.4823 1303 34.7065V35.833C1306.47 35.8885 1307.17 36.4197 1309.39 40.8168C1311.05 44.1038 1310.84 44.829 1310.84 49.3516H1312.41ZM1103.08 52.7314C1099.02 52.7314 1100.04 52.2288 1098.38 53.8578C1098.77 54.3593 1098.89 54.9844 1099.94 54.9844C1102.26 54.9844 1102.65 54.031 1103.08 52.7314ZM1668.34 20.0611V19.498C1663.46 19.498 1660.72 20.7353 1659.72 23.4408C1662.04 22.3202 1664.76 20.0611 1668.34 20.0611ZM1207.35 24.0042C1205.23 24.0042 1205.19 24.2729 1203.43 24.5673C1203.99 24.848 1203.77 24.9001 1204.88 25.2204C1206.19 25.6017 1205.47 25.4563 1206.69 25.6093C1208.06 25.7811 1209.85 25.694 1211.27 25.694C1210.37 24.8062 1209.45 24.0042 1207.35 24.0042ZM1248.9 45.4088C1246.11 46.7547 1245.85 47.8015 1244.98 50.4783C1247.24 50.0453 1246.94 50.0906 1247.93 48.6529C1248.75 47.4595 1248.85 47.0697 1248.9 45.4088ZM1428.44 82.5854C1425.07 82.3839 1427.02 82.6651 1424.52 81.4589C1424.46 83.175 1424.16 83.5125 1423.73 84.8386C1427.28 84.7818 1427.71 84.7644 1428.44 82.5854ZM1828.27 40.9025C1827.54 38.9345 1827.98 39.6376 1825.92 38.6495C1822.95 40.0807 1822.36 41.7278 1824.85 41.7046C1824.86 41.7044 1826.15 41.0328 1828.27 40.9025ZM1281.83 0.346375C1277.89 0.409454 1278 0.982971 1277.91 3.72607C1281.26 3.16479 1281.74 3.27151 1281.83 0.346375ZM1899.62 29.0737C1899.83 30.9345 1900.64 32.4531 1901.19 34.1433H1902.75C1902.75 31.0801 1903.06 29.7343 1899.62 29.0737ZM1727.92 72.4461C1726.18 72.7813 1725.57 72.5777 1725.57 74.1361V76.9525C1730.5 76.6579 1727.92 76.1432 1727.92 72.4461ZM839.659 35.833C838.164 32.8656 837.545 34.9276 831.819 35.2698V36.3963C832.421 36.3604 834.424 36.0876 834.428 36.0874C835.368 36.0483 838.528 36.8249 839.659 35.833ZM1769.47 54.9846C1767.68 53.056 1767.58 53.2377 1764.77 52.1682V56.6742C1766.63 55.966 1767.44 55.3744 1769.47 54.9846ZM1303 93.2879L1303 94.9775H1299.08L1302.2 93.8397C1302.32 93.7821 1302.53 93.6288 1302.62 93.5789C1302.71 93.5292 1302.87 93.3842 1303 93.2879ZM1571.91 74.6993L1565.64 77.5158L1576.17 75.5068C1579.53 74.632 1577.02 76.0403 1578.96 74.1361L1571.91 74.6993ZM1442.55 73.5728C1438.94 74.2653 1439.41 74.7433 1439.41 78.079C1439.41 79.6652 1439.75 79.122 1440.98 79.7689C1441.87 77.035 1442.55 77.2235 1442.55 73.5728ZM1827.49 58.9274C1830.45 59.9097 1828.98 59.9778 1830.63 58.3643C1828.17 56.8876 1825.15 58.7301 1823.57 59.4908C1824.62 61.0568 1824.35 60.5814 1824.35 62.8705H1825.92C1826.29 59.6587 1827.12 62.1393 1827.49 58.9274ZM753.42 45.4088C753.42 42.3763 749.045 42.5924 744.796 42.5924L747.254 43.643C748.243 43.7973 749.996 43.7191 751.068 43.7191C751.99 46.8469 750.471 46.357 749.5 49.3518C751.096 48.5843 753.42 47.274 753.42 45.4088ZM1669.12 26.2572C1668.44 24.4153 1667.16 23.8169 1665.2 22.8777C1661.85 24.0353 1662.26 22.5064 1661.28 25.1307C1664.89 25.7348 1666.39 26.9626 1669.12 26.2572ZM1508.4 57.8009C1507.41 56.3058 1507.69 57.1983 1507.62 54.9846C1506.44 55.5536 1505.36 56.1283 1503.99 56.8837C1502.03 57.9637 1501.94 58.2379 1501.35 60.0541C1505.67 59.985 1505.9 59.0084 1508.4 57.8009ZM1676.18 18.3715L1669.91 18.9346C1672.67 20.1945 1677.81 19.5878 1677.75 21.1878C1677.68 22.8106 1684.21 23.0724 1680.99 20.0477C1679.79 18.9229 1678.81 18.3715 1676.18 18.3715ZM1332.79 74.6993C1330.04 75.2266 1331.1 74.9229 1329.61 76.3604C1328.7 77.2471 1328.08 77.9034 1326.97 78.9673C1325.09 80.772 1323.35 81.948 1322.6 84.2749C1325.79 84.0843 1324.47 84.6226 1326.05 82.8086L1330.66 77.6728C1332.14 76.257 1332.12 76.7693 1332.79 74.6993ZM814.572 71.3196C809.281 72.2053 806.692 73.5732 802.466 75.5773C800.12 76.6896 800.407 76.1128 799.676 78.079C802.702 77.5725 812.359 73.694 814.572 71.3196ZM1721.65 59.4908C1719.84 59.4908 1717.48 60.27 1715.67 60.8299C1713.1 61.6297 1712.81 61.9897 1711.46 63.4337C1713.16 63.1075 1719.14 59.1284 1724.25 63.2901C1727.22 65.707 1722.15 64.8102 1727.14 65.1233C1726.71 61.4078 1721.72 59.4908 1721.65 59.4908ZM740.877 57.2375C735.145 57.5801 724.834 62.4263 722.845 64.5602C726.374 63.9694 739.126 59.1161 740.877 57.2375ZM1549.96 46.5353C1547.92 44.5408 1546.32 45.4613 1545.25 42.5924H1542.9L1542.12 47.0986C1546.94 48.9335 1545.2 48.3451 1549.96 46.5353ZM1530.36 47.6618C1530.36 49.6827 1533.3 50.6596 1534.28 53.2947C1538.36 52.5109 1537.99 49.4039 1537.43 48.7902C1536.58 47.8708 1530.36 45.5646 1530.36 47.6618ZM1589.16 36.9595C1587.78 35.4845 1587.2 34.6245 1586.02 33.0166L1581.34 33.6652C1581.31 38.3334 1581.73 36.917 1580.53 38.6494C1584.77 38.6494 1582.77 38.6314 1586.23 37.6737L1589.16 36.9595ZM1033.31 35.2697C1030.97 35.307 1030.56 35.1603 1027.66 36.849C1026.07 37.7785 1024.97 38.6242 1023.9 39.7758C1031.97 38.4248 1029.8 39.0962 1037.23 40.339C1036.17 37.5005 1034.47 38.8667 1033.31 35.2697ZM1774.96 60.0539H1779.67C1778.3 58.7146 1778.03 58.3641 1771.04 58.3641C1766.41 58.3641 1773.85 59.5359 1767.08 58.8981C1767.03 58.8934 1764.77 57.7562 1764.77 60.6173C1764.77 62.5808 1768.44 61.1804 1770.26 61.1804C1773.21 61.1804 1771.74 61.551 1774.96 61.7438V60.0539ZM1378.26 59.4908C1378.26 57.4043 1377.5 56.9464 1375.91 56.1111C1375.73 57.6319 1375.54 57.6434 1375.13 58.9274C1372.81 58.4827 1373.86 58.6983 1371.99 57.8009C1371.99 64.2042 1369.64 58.6515 1368.07 62.8707C1368.76 63.1443 1368.21 63.0837 1369.03 63.1436C1376.38 63.6784 1375.57 62.6238 1377.03 60.8628C1378.09 59.5901 1378.26 60.4656 1378.26 59.4908ZM823.98 63.4337C819.542 63.5047 816.751 65.2814 813.533 66.6298C811.075 67.6596 805.723 70.0031 804.38 71.3196C807.646 71.1243 817.221 67.7012 820.235 66.376C822.458 65.3987 823.253 65.3894 823.98 63.4337ZM851.42 58.3641C848.704 57.4277 845.553 58.6772 842.686 59.4118C835.689 61.205 835.717 60.8224 834.956 62.8703C838.358 62.8159 841.916 61.7213 845.148 61.1802C844.248 63.8814 844.614 62.0558 845.148 62.8703C852.314 61.5047 844.795 63.214 849.732 60.0045L851.42 58.3641ZM1617.38 27.9471C1609.13 26.6914 1614.72 31.5717 1607.19 33.0166C1608.23 34.5826 1607.97 34.1072 1607.97 36.3963C1612.19 36.1444 1612.11 35.4938 1613.74 33.2164C1615.2 31.1678 1617.11 30.289 1617.38 27.9471ZM1626 70.7562C1629 70.7562 1626.6 71.5751 1631.49 70.7562C1630.42 67.4566 1630.55 69.5302 1628.36 67.3765C1622.09 69.7576 1618.43 68.5221 1614.24 73.0094C1620.15 72.9148 1623.59 70.7562 1626 70.7562ZM1573.48 40.3392C1577.15 39.0727 1576.73 40.8382 1578.96 38.6494C1575.91 38.6494 1572.73 38.4994 1569.74 38.8097C1564.76 39.326 1565.95 38.6494 1560.93 38.6494C1560.93 45.2896 1565.41 41.4657 1567.2 41.4657C1572.66 41.4657 1570.74 41.2778 1573.48 42.5922L1573.48 40.3392ZM1636.2 22.3141C1633.53 22.1549 1633.33 21.8849 1631.49 21.1876C1630.97 24.6064 1632.13 21.663 1627.68 24.0795C1625.75 25.1208 1625.27 26.8226 1625.54 28.3931C1625.91 30.5457 1626.11 30.3319 1628.36 30.7634C1629.59 26.9599 1634.99 25.5645 1636.2 22.3141ZM1422.17 74.6991L1419.53 75.0609C1419.39 75.1104 1419.17 75.2249 1419.05 75.2779L1416.65 62.8873C1416.64 60.3281 1416.08 51.3686 1415.11 49.915C1413.23 50.4598 1414.36 49.6865 1413.38 50.9713C1412.13 52.6212 1414.85 61.3087 1415.12 65.6787C1415.51 71.8912 1415.76 77.899 1417.46 83.1484C1420.67 81.4812 1416.79 82.5924 1418.61 78.95C1419.25 77.6771 1421.33 76.947 1422.17 74.6991Z" fill="#001C54"/>
</svg>
