<svg width="21" height="21" fill="none" xmlns="http://www.w3.org/2000/svg"><path d="M3.768 9.262c.3-.203.708-.13.913.169 2.27 3.296 6.418 7.006 9.057 8.103 1.068.496 1.862.527 2.454.103.46-.28 1.77-1.58 1.747-2.258-.008-.08-.099-.229-.254-.387-.504-.516-2.195-1.796-2.549-1.929-.279-.059-.57.11-1.012.39l-.224.139a.657.657 0 0 1-.677-1.124l.202-.125c.49-.309 1.166-.73 2.017-.554.67.14 2.778 1.873 3.181 2.284.38.389.59.803.626 1.228.057 1.612-2.102 3.297-2.35 3.438-.47.34-1.022.511-1.644.511-.618 0-1.304-.17-2.046-.516-2.857-1.186-7.178-5.031-9.609-8.56a.656.656 0 0 1 .168-.912ZM5.515 1.75l.155.002c.451.038.864.248 1.252.626.413.403 2.147 2.512 2.286 3.18.15.717-.173 1.278-.409 1.687-.231.404-.312.576-.232.794.585 1.431 1.49 2.601 2.68 3.451a.656.656 0 0 1-.763 1.068c-1.395-.998-2.452-2.36-3.142-4.048-.304-.835.057-1.461.32-1.919.198-.343.307-.547.26-.766-.122-.315-1.4-2.003-1.916-2.505-.16-.157-.31-.249-.42-.257-.627-.015-1.908 1.223-2.198 1.705-.451.62-.42 1.412.064 2.475a.656.656 0 0 1-1.194.543c-.689-1.51-.676-2.771.038-3.745.266-.445 1.939-2.38 3.375-2.287l-.155-.002Z" fill="#fff"/></svg>