<svg width="108" height="108" fill="none" xmlns="http://www.w3.org/2000/svg"><path d="m1.083 43.178.018-.019 28.16-28.205 13.83-13.85c-1.172.24-2.33.521-3.472.837L1.937 39.682v.001l-.036.036a53.836 53.836 0 0 0-.819 3.459ZM100.9 80.869 88.744 93.046l-7.654 7.667a54.228 54.228 0 0 0 10.188-7.667h.1l2.25-2.253a54.24 54.24 0 0 0 7.273-9.924Zm6.016-16.047-.019.019-28.16 28.205-13.83 13.851a53.98 53.98 0 0 0 3.473-.838l37.681-37.74.001-.002.035-.036c.309-1.139.584-2.291.819-3.459Zm1.063-11.086L68.73 93.046l-14.927 14.952.204.002a55.5 55.5 0 0 0 2.488-.059l51.445-51.526a55.68 55.68 0 0 0 .059-2.492l-.002-.204-.018.017Zm-.832-9.189-48.423 48.5-14.114 14.135c.757.133 1.518.25 2.285.351L61.36 93.046l8.882-8.897 37.29-37.349a53.85 53.85 0 0 0-.35-2.288l-.035.035Zm-2.054-7.965L48.719 93.046l-12.076 12.096c.661.225 1.33.434 2.002.633l67.134-67.239c-.2-.674-.409-1.343-.633-2.006l-.052.052Zm-2.976-7.041L38.713 93.046l-9.11 9.125a53.81 53.81 0 0 0 1.775.861l71.661-71.774a53.813 53.813 0 0 0-.859-1.779l-.062.062Zm-3.748-6.268L28.706 93.046h.002l-5.373 5.381c.52.36 1.045.716 1.579 1.058l74.584-74.703a54.403 54.403 0 0 0-1.056-1.581l-.072.072Zm-4.435-5.58L18.701 93.045l-.947.95c.46.418.931.826 1.406 1.23L95.245 19.02c-.402-.476-.81-.947-1.228-1.41l-.082.083Zm-5.096-4.919L12.754 88.98c.402.476.81.947 1.229 1.409l.082-.082 75.234-75.354.947-.948a54.79 54.79 0 0 0-1.407-1.23Zm-5.753-4.26L8.5 83.219c.342.534.696 1.06 1.056 1.581l.073-.072 69.663-69.773h-.001l5.373-5.381a56.433 56.433 0 0 0-1.58-1.058ZM76.62 4.969 4.96 76.742c.276.6.562 1.193.859 1.78l.062-.063 63.406-63.505h-.001l9.11-9.126a54.363 54.363 0 0 0-1.775-.86Zm-7.267-2.744L2.22 69.464c.2.674.409 1.343.633 2.006l.052-.052L59.28 14.954 71.356 2.858a53.223 53.223 0 0 0-2.002-.634ZM61.102.467 46.638 14.954l-8.882 8.896L.466 61.2c.1.768.217 1.53.35 2.288l.035-.035 48.423-48.5L63.388.818a54.722 54.722 0 0 0-2.286-.35ZM53.992 0c-.834 0-1.663.022-2.488.06L.059 51.585a55.44 55.44 0 0 0-.06 2.492c0 .068.003.135.003.203l.017-.017 39.249-39.31L54.195.003c-.068 0-.135-.003-.203-.003ZM7.098 27.13l12.158-12.176h-.001l7.655-7.667a54.201 54.201 0 0 0-10.188 7.667h-.102l-2.249 2.253a54.276 54.276 0 0 0-7.273 9.924Z" fill="#E4E4E4"/></svg>