<svg width="21" height="21" fill="none" xmlns="http://www.w3.org/2000/svg"><path d="M10.53 1.75c4.1.016 7.423 3.362 7.407 7.457v.081c-.055 2.927-1.814 5.356-3.28 6.877a17.99 17.99 0 0 1-1.32 1.243.653.653 0 0 1-.847-.993c.424-.361.837-.75 1.225-1.154 1.304-1.353 2.869-3.493 2.916-5.996.013-3.439-2.726-6.197-6.107-6.211H10.5c-3.37 0-6.118 2.731-6.131 6.1a7.98 7.98 0 0 0 1.627 4.571c1.176 1.566 2.959 3.223 4.654 4.326a.65.65 0 0 1-.357 1.199.648.648 0 0 1-.356-.106c-1.815-1.18-3.725-2.956-4.984-4.633a9.28 9.28 0 0 1-1.89-5.312C3.079 5.063 6.412 1.75 10.5 1.75h.03Zm-.032 4.71c1.56 0 2.83 1.268 2.83 2.827a2.832 2.832 0 0 1-5.66 0 .653.653 0 0 1 1.305 0 1.526 1.526 0 0 0 3.049 0c0-.84-.684-1.523-1.524-1.523a.652.652 0 1 1 0-1.304Z" fill="#fff"/></svg>