<svg width="71" height="71" fill="none" xmlns="http://www.w3.org/2000/svg"><path d="M67.024 39.016a10.66 10.66 0 0 0-3.616-2.393c-.452-.18-.915-.329-1.387-.444-.47-.118-.949-.202-1.432-.251a10.676 10.676 0 0 0-4.314.437l-.865-.853.432-.433a3.45 3.45 0 0 0 .74-1.105 3.458 3.458 0 0 0 .259-1.306 3.47 3.47 0 0 0-.26-1.304 3.44 3.44 0 0 0-.739-1.107l-2.514-2.514c.06-.25.09-.505.091-.763a3.38 3.38 0 0 0-.26-1.305 3.384 3.384 0 0 0-.742-1.106l-2.513-2.514a3.376 3.376 0 0 0-.17-2.068 3.365 3.365 0 0 0-.74-1.105l-1.332-1.332a3.404 3.404 0 0 0-1.474-.867 3.394 3.394 0 0 0-1.71-.043l-2.526-2.502a3.37 3.37 0 0 0-1.75-.939 3.472 3.472 0 0 0-1.333 0 3.433 3.433 0 0 0-1.233.512c-.187.125-.36.267-.518.427l-1.57 1.558-1.854-1.843a10.745 10.745 0 0 0 .378-4.445 10.77 10.77 0 0 0-1.459-4.215 10.895 10.895 0 0 0-1.883-2.318 10.443 10.443 0 0 0-1.165-.94 10.647 10.647 0 0 0-5.593-1.92 10.54 10.54 0 0 0-1.497.026 10.798 10.798 0 0 0-2.91.673 1.1 1.1 0 0 0-.45.328 1.111 1.111 0 0 0-.243.503 1.12 1.12 0 0 0 .028.558c.056.183.153.343.29.477l5.369 5.346a2.493 2.493 0 0 1 .728 1.741c.01.29-.036.571-.14.843a2.165 2.165 0 0 1-.451.727 2.402 2.402 0 0 1-.794.516 2.327 2.327 0 0 1-.932.165 2.304 2.304 0 0 1-.923-.215 2.364 2.364 0 0 1-.764-.557l-5.335-5.358a1.169 1.169 0 0 0-.475-.284 1.204 1.204 0 0 0-.276-.046 1.208 1.208 0 0 0-.277.022 1.123 1.123 0 0 0-.827.683 10.648 10.648 0 0 0-.665 5.075 10.563 10.563 0 0 0 1.776 4.8c.324.477.683.922 1.078 1.342.396.417.823.8 1.28 1.148a10.582 10.582 0 0 0 4.635 2.08c.845.153 1.697.205 2.553.15a10.42 10.42 0 0 0 2.516-.467l.137.137-4.618 4.562a1.098 1.098 0 0 0-.33.807v9.796l-2.89 3.092-.887-.897a1.141 1.141 0 0 0-1.246-.25 1.14 1.14 0 0 0-.37.25l-5.687 5.687a1.125 1.125 0 0 0-.337.807 1.132 1.132 0 0 0 .337.809l.342.33L0 57.171l1.614 1.616L13.321 47.07l10.908 10.91-10.58 10.568 1.616 1.614 10.568-10.58.33.342a1.123 1.123 0 0 0 .807.337 1.13 1.13 0 0 0 .81-.337l5.687-5.688a1.15 1.15 0 0 0 .336-.807 1.13 1.13 0 0 0-.336-.809l-.626-.613 2.65-2.844h5.779c.315.001.584-.107.807-.33l6.906-6.894.841.831a10.48 10.48 0 0 0-.47 2.512 10.487 10.487 0 0 0 .908 4.993 10.874 10.874 0 0 0 3.047 3.94 10.901 10.901 0 0 0 6.821 2.444 9.942 9.942 0 0 0 3.846-.75 1.128 1.128 0 0 0 .374-1.854l-5.369-5.358a2.464 2.464 0 0 1-.728-1.741 2.2 2.2 0 0 1 .638-1.57c.112-.107.234-.203.366-.285a2.313 2.313 0 0 1 .86-.334 2.407 2.407 0 0 1 1.768.396c.127.09.242.19.35.303l5.382 5.357c.133.134.292.228.472.282.181.055.364.063.55.025.187-.036.354-.115.5-.236.148-.12.258-.269.331-.445a10.483 10.483 0 0 0 .703-3.006 10.54 10.54 0 0 0-3.149-8.427Zm-12.433-6.348c.002.315-.109.584-.33.809l-4.664 4.64-.103.103a1.149 1.149 0 0 1-.807.337 1.13 1.13 0 0 1-.808-.337l-1.342-1.332a1.132 1.132 0 0 1-.25-1.244c.06-.14.142-.264.25-.37l.671-.66 4.902-4.892 2.163 2.093c.229.239.336.523.318.853Zm-3.413-5.688a1.09 1.09 0 0 1-.33.808l-5.244 5.165-.672.67a1.138 1.138 0 0 1-1.614 0l-.092-.09a5.52 5.52 0 0 0 1.502-1.047l1.342-1.33c.108-.107.191-.231.249-.371.06-.14.087-.286.087-.438a1.11 1.11 0 0 0-.087-.437 1.1 1.1 0 0 0-.25-.37l-1.478-1.467 4.096-4.085 2.172 2.14c.226.24.329.524.307.852h.012Zm-5.097-7.826 1.365 1.286a1.1 1.1 0 0 1 .25.37c.059.14.087.285.087.437 0 .151-.028.298-.088.437-.057.14-.14.264-.249.371l-4.425 4.414-2.957-2.946 4.425-4.414a1.135 1.135 0 0 1 1.58.045h.012Zm-7.325-3.413a1.14 1.14 0 0 1 1.255-.253c.14.06.264.144.371.253l2.14 2.139-4.096 4.085-2.56-2.549c-.137-.137-.295-.239-.444-.364l3.334-3.311Zm-11.602 2.173a8.309 8.309 0 0 1-6.32-.05 8.301 8.301 0 0 1-1.86-1.087 8.45 8.45 0 0 1-1.588-1.59 8.408 8.408 0 0 1-1.116-1.95 8.43 8.43 0 0 1-.564-2.175 8.406 8.406 0 0 1 .026-2.248l3.993 3.992a4.682 4.682 0 0 0 1.488 1.017 4.634 4.634 0 0 0 1.763.373 4.585 4.585 0 0 0 1.773-.325 4.47 4.47 0 0 0 .805-.413c.256-.163.494-.35.712-.561a4.476 4.476 0 0 0 1.309-3.184A4.66 4.66 0 0 0 27.21 7.9a4.67 4.67 0 0 0-1.035-1.531l-4.005-4.04a8.444 8.444 0 0 1 3.916.338 8.456 8.456 0 0 1 3.34 2.075c.291.282.56.586.808.908a8.288 8.288 0 0 1 1.172 2.122 8.234 8.234 0 0 1 .307 4.785 8.142 8.142 0 0 1-.363 1.16 1.102 1.102 0 0 0-.06.652c.045.223.149.414.309.576l2.355 2.367-.693.693a5.098 5.098 0 0 0-2.189-.015 5.084 5.084 0 0 0-1.998.892l-.705-.717a1.105 1.105 0 0 0-.576-.31 1.1 1.1 0 0 0-.652.06h.012Zm-.184 39.599L13.786 44.329l4.084-4.084L31.055 53.43l-4.085 4.084Zm13.833-10.625H34.99c-.328 0-.606.123-.83.364l-2.923 3.15L21.18 40.336l3.241-3.48a1.1 1.1 0 0 0 .309-.775v-9.76l5.3-5.29a3.095 3.095 0 0 1 2.115-.846 3.11 3.11 0 0 1 1.14.22c.18.072.354.162.517.267.165.104.319.225.46.358l9.384 9.364-.523.523c-.159.16-.33.302-.519.427a3.298 3.298 0 0 1-.59.319 3.376 3.376 0 0 1-1.982.196 3.255 3.255 0 0 1-.645-.196 3.389 3.389 0 0 1-1.11-.746l-4.755-4.79a1.12 1.12 0 0 0-.807-.333 1.137 1.137 0 0 0-1.055.705 1.136 1.136 0 0 0 .248 1.244c.196.196.384.403.562.617a8.306 8.306 0 0 1 .93 1.386 8.356 8.356 0 0 1 .845 2.352 8.285 8.285 0 0 1 .124 2.497 8.734 8.734 0 0 1-.327 1.638 8.378 8.378 0 0 1-.642 1.542 8.306 8.306 0 0 1-.93 1.386c-.178.214-.366.42-.562.617l1.614 1.616a10.643 10.643 0 0 0 2.345-3.5 10.723 10.723 0 0 0 .817-4.133 10.02 10.02 0 0 0-.08-1.342l.069.067a5.66 5.66 0 0 0 1.808 1.235 5.61 5.61 0 0 0 2.14.46l1.137 1.138a3.398 3.398 0 0 0 2.276.99 3.408 3.408 0 0 0 .988 2.274l1.286 1.195c.274.28.59.499.944.66l-6.45 6.45Zm27.028.977-4.004-3.992a4.59 4.59 0 0 0-1.487-1.018 4.59 4.59 0 0 0-2.667-.299 4.659 4.659 0 0 0-2.387 1.226 4.405 4.405 0 0 0-1.307 3.174 4.66 4.66 0 0 0 .361 1.819 4.638 4.638 0 0 0 1.037 1.537l3.994 3.982a8.605 8.605 0 0 1-4.418-.55 8.58 8.58 0 0 1-3.545-2.693 8.172 8.172 0 0 1-1.086-1.85 8.205 8.205 0 0 1-.59-4.217 8.168 8.168 0 0 1 .538-2.078 1.11 1.11 0 0 0 .048-.655 1.113 1.113 0 0 0-.322-.573l-1.341-1.342.5-.502 2.73-2.707 1.343 1.342c.162.164.357.27.581.314.226.046.446.025.659-.063a8.39 8.39 0 0 1 2.672-.525 8.653 8.653 0 0 1 1.092.033 8.48 8.48 0 0 1 1.08.175c.176.04.353.086.528.139a7.915 7.915 0 0 1 1.025.378 8.324 8.324 0 0 1 2.281 1.487c.135.124.266.25.393.381a9.378 9.378 0 0 1 .706.833 8.447 8.447 0 0 1 .593.92 8.4 8.4 0 0 1 1.066 3.643c.011.181.016.364.015.546a8.661 8.661 0 0 1-.076 1.091l-.012.044Z" fill="#012E89"/></svg>