<svg width="71" height="71" fill="none" xmlns="http://www.w3.org/2000/svg"><path d="m52.132 39.814 1.804-1.804v-.47c0-11.29-9.185-20.476-20.476-20.476h-.47l-1.804 1.804-1.806-1.804 7.493-7.493 3.745 3.747 1.61-1.61-3.747-3.744 1.804-1.804 3.746 3.744 1.61-1.607-3.747-3.747 1.804-1.804 24.556 24.556-1.804 1.804-3.747-3.747-1.61 1.61 3.747 3.745-1.804 1.804-3.746-3.745-1.608 1.607 3.745 3.747-7.491 7.491-1.804-1.804Zm-17.96 7.92a14.73 14.73 0 0 0-10.905-10.905L39.649 20.44a18.283 18.283 0 0 1 10.91 10.905L34.17 47.733Zm-3.556 12.655-2.812-2.817a10.192 10.192 0 0 0 2.243-6.381c0-5.648-4.59-10.24-10.238-10.24-2.413 0-4.63.846-6.386 2.245l-2.812-2.812 5.786-5.787 4.102 4.098.408.035a12.47 12.47 0 0 1 11.358 11.364l.04.407 4.096 4.102-5.785 5.786ZM19.81 59.153c-4.39 0-7.962-3.572-7.962-7.962s3.572-7.964 7.962-7.964 7.963 3.574 7.963 7.964c0 4.39-3.573 7.962-7.963 7.962Zm-.688 4.529-.41-.037A12.478 12.478 0 0 1 7.35 52.29l-.037-.415-4.096-4.096 5.786-5.787 2.816 2.814a10.193 10.193 0 0 0-2.248 6.386c0 5.643 4.595 10.238 10.238 10.238 2.413 0 4.631-.845 6.386-2.25l2.812 2.818-5.785 5.786-4.101-4.101Zm49.435-39.3L46.613 2.444C58.09 3.781 67.217 12.908 68.556 24.382ZM43.698 0h-.47L26.162 17.064l5.023 5.021 2.741-2.742c1.101.027 2.177.169 3.222.382L20.946 35.93l-4.549-4.55L0 47.777l5.128 5.128a14.742 14.742 0 0 0 12.966 12.966L23.222 71 39.62 54.603l-4.55-4.55 16.204-16.207a18.27 18.27 0 0 1 .383 3.227l-2.742 2.741 5.02 5.023L71 27.772v-.47C71 12.246 58.754 0 43.698 0Z" fill="#012E89"/><path d="M19.809 54.602a3.418 3.418 0 0 1-3.412-3.411 3.414 3.414 0 0 1 6.825 0 3.416 3.416 0 0 1-3.413 3.412Zm0-9.1a5.694 5.694 0 0 0-5.688 5.689 5.693 5.693 0 0 0 5.688 5.688 5.693 5.693 0 0 0 5.688-5.688c0-3.138-2.55-5.69-5.688-5.69Zm31.852-25.026a1.14 1.14 0 0 1-1.138-1.137A1.14 1.14 0 0 1 51.66 18.2c.626 0 1.138.51 1.138 1.138a1.14 1.14 0 0 1-1.138 1.137Zm0-4.55a3.418 3.418 0 0 0-3.413 3.413 3.42 3.42 0 0 0 3.413 3.413 3.414 3.414 0 0 0 0-6.826ZM42.56 31.38l-2.94-2.94 1.803-1.805 2.942 2.941-1.804 1.804Zm-9.767 3.884 1.804-1.804 2.943 2.943-1.806 1.804-2.94-2.943Zm5.217-5.216 2.942 2.942-1.804 1.804-2.942-2.941 1.804-1.805Zm-8.434 5.216 6.158 6.16 11.847-11.848-6.158-6.157-11.847 11.845Z" fill="#012E89"/></svg>