<svg width="73" height="71" fill="none" xmlns="http://www.w3.org/2000/svg"><path d="M44.738 65.468h.011-.011ZM8.131 25.098c-.426 0-.827.189-1.258.565l-1.288 1.221-.267.253c-2.22 2.07-3.223 5.801-2.56 9.508a21.46 21.46 0 0 0 1.033 3.714c2.375 6.37 6.891 11.913 10.261 15.442 3.354 3.552 8.659 8.35 14.904 11.06a21.62 21.62 0 0 0 3.66 1.226c3.673.86 7.46.061 9.646-2.037l.294-.279c.42-.396 1.167-1.1 1.278-1.208 1.28-1.319.599-2.454-2.09-5.184l-.697-.715c-1.74-1.802-4.652-4.832-7.073-4.534-.636.076-1.329.558-2.062 1.068-.72.504-1.536 1.073-2.487 1.374-2.538.798-5.115.273-7.25-1.483a38.674 38.674 0 0 1-3.694-3.494 38.346 38.346 0 0 1-3.277-3.845c-1.643-2.225-2.033-4.821-1.094-7.309.352-.93.964-1.714 1.505-2.406.55-.703 1.068-1.366 1.179-1.995.414-2.398-2.448-5.465-4.16-7.297l-.674-.73c-1.794-1.959-2.874-2.916-3.83-2.916Zm27.455 45.884a15.77 15.77 0 0 1-3.555-.404 24.295 24.295 0 0 1-4.096-1.374c-6.644-2.881-12.227-7.922-15.741-11.644-3.53-3.697-8.275-9.533-10.802-16.308a24.24 24.24 0 0 1-1.154-4.158c-.647-3.61-.112-8.614 3.329-11.82l.254-.243c.459-.434 1.334-1.264 1.368-1.294 3.508-3.075 6.609.31 8.662 2.552l.659.711c2.033 2.18 5.44 5.826 4.807 9.475-.22 1.263-.998 2.257-1.683 3.135-.47.6-.914 1.167-1.127 1.734-.633 1.67-.368 3.362.757 4.886a35.828 35.828 0 0 0 3.075 3.608 36.157 36.157 0 0 0 3.464 3.277c1.466 1.205 3.145 1.557 4.85 1.019.577-.183 1.168-.594 1.794-1.032.916-.637 1.95-1.358 3.225-1.51 3.685-.434 7.148 3.154 9.22 5.298l.68.697c2.13 2.165 5.352 5.435 2.082 8.773l-.003.005c-.03.03-.873.829-1.336 1.263l-.282.267c-2.367 2.272-5.534 3.087-8.447 3.087Zm1.921-62.408a1.28 1.28 0 0 1-1.279-1.279V1.277a1.28 1.28 0 0 1 2.56 0v6.018a1.28 1.28 0 0 1-1.28 1.28Zm-5.329 1.02a1.278 1.278 0 0 1-1.251-1.012l-1.255-5.885c-.146-.69.294-1.37.986-1.515a1.28 1.28 0 0 1 1.52.983l1.254 5.886a1.278 1.278 0 0 1-1.254 1.543ZM27.18 11.7c-.49 0-.959-.284-1.17-.759l-2.454-5.496a1.28 1.28 0 0 1 2.34-1.04l2.453 5.496a1.277 1.277 0 0 1-1.169 1.8Zm-4.451 3.096c-.398 0-.787-.183-1.038-.526l-3.544-4.869a1.277 1.277 0 0 1 .284-1.786 1.283 1.283 0 0 1 1.788.283l3.543 4.868a1.276 1.276 0 0 1-1.033 2.03Zm-3.712 3.954a1.28 1.28 0 0 1-.857-.33l-4.48-4.026a1.277 1.277 0 0 1-.095-1.804 1.284 1.284 0 0 1 1.81-.096l4.479 4.027c.526.472.567 1.28.095 1.804-.254.28-.602.424-.952.424Zm35.678 43.826a1.28 1.28 0 0 1-1.17-.76l-2.453-5.497a1.281 1.281 0 0 1 2.339-1.038l2.453 5.496a1.279 1.279 0 0 1-1.169 1.799Zm5.545-3.726a1.28 1.28 0 0 1-1.039-.527l-3.544-4.867a1.278 1.278 0 0 1 .284-1.786 1.283 1.283 0 0 1 1.79.282l3.543 4.869c.416.57.287 1.37-.284 1.784a1.268 1.268 0 0 1-.75.246Zm4.644-4.795a1.27 1.27 0 0 1-.857-.329l-4.48-4.025a1.276 1.276 0 0 1-.093-1.806 1.284 1.284 0 0 1 1.807-.094l4.48 4.027a1.275 1.275 0 0 1-.857 2.227Zm3.545-5.653a1.27 1.27 0 0 1-.639-.172l-5.222-3.009a1.278 1.278 0 1 1 1.282-2.213l5.22 3.007a1.279 1.279 0 0 1-.64 2.387Zm2.292-6.267c-.13 0-.264-.02-.396-.063l-5.732-1.86a1.277 1.277 0 1 1 .79-2.431l5.734 1.86a1.278 1.278 0 0 1-.396 2.494Zm.938-6.605c-.045 0-.09-.004-.136-.008l-5.996-.628a1.279 1.279 0 0 1-1.139-1.406 1.28 1.28 0 0 1 1.407-1.135l5.996.628a1.279 1.279 0 0 1 1.14 1.405 1.28 1.28 0 0 1-1.272 1.144ZM65.2 29.504a1.277 1.277 0 0 1-.132-2.548l5.995-.631a1.282 1.282 0 0 1 1.408 1.137 1.282 1.282 0 0 1-1.14 1.406l-5.995.63c-.046.002-.09.006-.135.006Zm-1.572-5.183a1.28 1.28 0 0 1-1.218-.883 1.276 1.276 0 0 1 .822-1.61l5.732-1.86a1.279 1.279 0 1 1 .792 2.431l-5.734 1.86a1.27 1.27 0 0 1-.394.062Zm-2.62-4.745a1.278 1.278 0 0 1-.642-2.385l5.22-3.007a1.277 1.277 0 1 1 1.28 2.213l-5.219 3.01c-.201.115-.422.17-.639.17Zm-3.552-4.095a1.277 1.277 0 0 1-.857-2.228l4.48-4.025a1.28 1.28 0 0 1 1.81.094c.471.523.43 1.332-.097 1.804l-4.479 4.027a1.28 1.28 0 0 1-.857.328Zm-4.327-3.271a1.277 1.277 0 0 1-1.035-2.028l3.544-4.867a1.281 1.281 0 0 1 2.073 1.501l-3.545 4.87a1.28 1.28 0 0 1-1.037.524Zm-4.912-2.299a1.276 1.276 0 0 1-1.169-1.797L49.5 2.616a1.282 1.282 0 0 1 1.691-.647c.646.287.936 1.043.647 1.687l-2.45 5.496a1.28 1.28 0 0 1-1.17.76Zm-5.283-1.23c-.087 0-.177-.01-.267-.03a1.277 1.277 0 0 1-.986-1.514l1.253-5.886a1.279 1.279 0 1 1 2.504.532l-1.253 5.885c-.127.6-.66 1.013-1.251 1.013Z" fill="#012E89"/><path d="M24.216 39.535c-.005-.37-.012-.684-.017-.939-.006-.254-.01-.526-.01-.812 0-.289.004-.672.01-1.15.03-.99.271-1.825.72-2.507.45-.684 1.114-1.261 1.989-1.735l1.198-.647c.42-.228.688-.502.806-.822.117-.322.183-.622.203-.903a17.541 17.541 0 0 0 .016-2.113c-.041-.646-.477-.97-1.304-.97-.419 0-.724.084-.91.253a.903.903 0 0 0-.296.657c-.012.465-.022.9-.027 1.3-.006.403.005.84.035 1.313h-2.395c-.018-.402-.031-.78-.04-1.136-.01-.357-.006-.69.006-1.002.047-1.193.354-2.046.922-2.561.566-.515 1.469-.773 2.705-.773 1.309 0 2.243.258 2.804.773.561.515.865 1.368.913 2.561.023.598.023 1.164 0 1.698-.035.958-.282 1.73-.736 2.313-.459.586-1.051 1.078-1.784 1.479l-1.36.736a1.675 1.675 0 0 0-.796.939 3.438 3.438 0 0 0-.22 1.147v.809h4.726v2.092h-7.158Zm10.327-5.859h2.033l.316-3.431.279-2.992h-.504l-.936 2.992-1.188 3.431Zm2.033 5.86v-3.784h-4.355v-1.967l3.401-8.627h3.224v8.518h1.584v2.076h-1.584v3.783h-2.27Zm13.351-.001 4.131-12.282H48.91v-2.095h7.561v2.147l-4.032 12.23h-2.512Zm-6.288 1.613 4.36-17.056h-2.34l-4.362 17.056h2.342Z" fill="#012E89"/></svg>