<svg width="24" height="24" fill="none" xmlns="http://www.w3.org/2000/svg"><g clip-path="url(#a)"><path d="M12 24c6.627 0 12-5.373 12-12S18.627 0 12 0 0 5.373 0 12s5.373 12 12 12Z" fill="#40B3E0"/><path d="M17.987 6.259a.647.647 0 0 1 .868.734L16.709 17.25a.676.676 0 0 1-1.06.406l-3.24-2.377-1.65 1.685a.549.549 0 0 1-.915-.219l-1.191-3.78-3.193-.944a.458.458 0 0 1-.037-.866L17.987 6.26Zm-1.575 2.275c.14-.123-.023-.342-.181-.243l-6.892 4.274a.313.313 0 0 0-.134.36l.94 4.126c.019.064.11.055.117-.01l.21-3.146a.31.31 0 0 1 .104-.2l5.836-5.16Z" fill="#fff"/><path d="M16.23 8.291c.16-.099.322.12.182.243l-5.836 5.16a.311.311 0 0 0-.104.201l-.21 3.145c-.008.066-.098.075-.117.011l-.94-4.126a.313.313 0 0 1 .135-.36l6.89-4.274Z" fill="#9EC2E5"/><path d="M10.18 17.094a.54.54 0 0 1-.336-.35l-1.191-3.78-3.193-.944a.458.458 0 0 1-.037-.866L17.987 6.26a.644.644 0 0 1 .678.133L10.14 13.35v.305l-.047-.034.047 1.919v1.538c.012.006.025.01.038.015v.001Z" fill="#fff"/><path d="M18.868 6.821a.706.706 0 0 1-.013.172L16.709 17.25a.676.676 0 0 1-1.06.406l-3.24-2.377-2.268-1.623v-.304l8.524-6.959a.678.678 0 0 1 .102.122l.017.028.016.028.014.029.012.03a.634.634 0 0 1 .042.192Z" fill="#D1D1D1"/><path d="m12.41 15.278-1.652 1.685a.662.662 0 0 1-.087.073.573.573 0 0 1-.096.052c-.017.006-.033.013-.05.017a.546.546 0 0 1-.276.01l-.053-.016a.07.07 0 0 1-.017-.006l-.038-1.553v-1.885l2.268 1.623Z" fill="#D1D1D1"/><path d="M10.716 17.003Zm-.044.033v.002s0-.002-.002 0l.002-.002Zm-.097.052Zm-.263.036a.547.547 0 0 0 .01.002c-.004 0-.007 0-.01-.002Z" fill="#DADDE0"/><path d="M10.369 17.128Zm-.057-.004Z" fill="#fff"/><path d="M10.312 17.124Zm-.116-.024.053.014-.021-.004-.01-.003a.133.133 0 0 1-.022-.008Z" fill="#DADDE0"/><path d="m10.228 17.11.021.005a.105.105 0 0 1-.021-.005Zm-.032-.01a.202.202 0 0 1-.014-.004c.005 0 .01.002.014.003Z" fill="#fff"/><path d="m10.196 17.1-.014-.005h-.003v-.002a.058.058 0 0 0 .017.006Z" fill="#DADDE0"/><path d="m10.141 15.54.038 1.553a.304.304 0 0 1-.038-.015V15.54Z" fill="#D1D1D1"/><path d="M10.141 13.655v1.885l-.047-1.919.047.034Z" fill="#DADDE0"/><path d="m16.412 8.534-5.836 5.16a.311.311 0 0 0-.104.201l-.21 3.145c-.007.066-.098.075-.117.012l-.94-4.127a.313.313 0 0 1 .135-.36l6.89-4.274c.16-.099.322.12.182.243Z" fill="#ADBCC9"/></g><defs><clipPath id="a"><path fill="#fff" d="M0 0h24v24H0z"/></clipPath></defs></svg>