<svg width="24" height="24" fill="none" xmlns="http://www.w3.org/2000/svg"><g clip-path="url(#a)"><path d="M12 24c6.627 0 12-5.373 12-12S18.627 0 12 0 0 5.373 0 12s5.373 12 12 12Z" fill="#4D76A1"/><path fill-rule="evenodd" clip-rule="evenodd" d="M11.547 17.263h.941s.285-.031.43-.188c.134-.143.13-.413.13-.413s-.019-1.264.568-1.45c.578-.184 1.32 1.221 2.107 1.761.596.409 1.048.32 1.048.32l2.104-.03s1.1-.068.579-.933c-.043-.071-.304-.64-1.565-1.81-1.32-1.225-1.142-1.027.447-3.146.968-1.29 1.355-2.077 1.234-2.415-.115-.32-.827-.236-.827-.236l-2.37.015s-.175-.024-.305.054c-.128.076-.21.254-.21.254s-.375.998-.875 1.847c-1.055 1.792-1.476 1.886-1.649 1.775-.401-.259-.3-1.041-.3-1.597 0-1.736.262-2.46-.514-2.647-.257-.063-.447-.104-1.105-.11-.846-.01-1.561.002-1.966.2-.27.133-.478.427-.351.444.156.02.511.095.7.351.242.33.233 1.073.233 1.073s.14 2.043-.325 2.297c-.32.174-.758-.181-1.699-1.806-.481-.833-.845-1.753-.845-1.753s-.07-.172-.196-.264a.966.966 0 0 0-.364-.147l-2.251.015s-.338.009-.462.156c-.11.13-.009.401-.009.401s1.763 4.124 3.758 6.202c1.83 1.905 3.909 1.78 3.909 1.78Z" fill="#fff"/></g><defs><clipPath id="a"><path fill="#fff" d="M0 0h24v24H0z"/></clipPath></defs></svg>