<svg width="23" height="24" fill="none" xmlns="http://www.w3.org/2000/svg"><g clip-path="url(#a)"><path d="M11.5 24C17.851 24 23 18.627 23 12S17.851 0 11.5 0 0 5.373 0 12s5.149 12 11.5 12Z" fill="#75B73B"/><path d="M11.178 5.083c-3.505.174-6.271 3.22-6.26 6.882a7.08 7.08 0 0 0 .716 3.098l-.699 3.54c-.038.192.128.36.31.314l3.324-.822a6.33 6.33 0 0 0 2.829.717c3.582.057 6.57-2.911 6.681-6.648.12-4.006-3.049-7.272-6.9-7.08Zm3.966 10.664c-.973 1.016-2.267 1.575-3.644 1.575a4.928 4.928 0 0 1-2.294-.56l-.463-.241-2.038.503.43-2.173-.229-.466a5.506 5.506 0 0 1-.56-2.441 5.46 5.46 0 0 1 1.51-3.803A5.056 5.056 0 0 1 11.5 6.566c1.377 0 2.671.56 3.645 1.575a5.463 5.463 0 0 1 1.509 3.803 5.508 5.508 0 0 1-1.51 3.803Z" fill="#fff"/><path d="m14.694 13.434-1.275-.382a.462.462 0 0 0-.47.129l-.312.331a.45.45 0 0 1-.505.112c-.603-.255-1.871-1.432-2.195-2.021a.502.502 0 0 1 .036-.537l.272-.368a.514.514 0 0 0 .06-.504L9.767 8.93a.466.466 0 0 0-.743-.178c-.356.314-.778.791-.829 1.32-.09.932.293 2.107 1.741 3.518 1.674 1.63 3.014 1.846 3.887 1.625.495-.125.89-.626 1.14-1.037.17-.28.036-.652-.27-.743Z" fill="#fff"/><path d="m15.992 6.924-.998 1.068a5.463 5.463 0 0 1 1.66 3.952 5.51 5.51 0 0 1-1.51 3.803c-.973 1.016-2.267 1.575-3.644 1.575a4.928 4.928 0 0 1-2.294-.56l-.463-.241-2.038.503.042-.213-1.804 1.93c.04.125.166.21.302.176l3.324-.822c.854.444 1.813.7 2.829.717 3.582.057 6.57-2.911 6.681-6.648.062-2.07-.753-3.94-2.087-5.24Z" fill="#D1D1D1"/><path d="m14.695 13.434-1.276-.382a.462.462 0 0 0-.47.129l-.312.331a.45.45 0 0 1-.505.112c-.348-.148-.918-.603-1.4-1.074l-.887.948.092.091c1.674 1.63 3.014 1.846 3.887 1.625.495-.125.89-.626 1.14-1.037.17-.28.036-.652-.27-.743Z" fill="#D1D1D1"/></g><defs><clipPath id="a"><path fill="#fff" d="M0 0h23v24H0z"/></clipPath></defs></svg>