<svg width="55" height="62" fill="none" xmlns="http://www.w3.org/2000/svg"><path d="M12.905 20.242a.991.991 0 0 1 .018 1.403l-3.238 3.344a.991.991 0 0 1-1.403.02l-.953-.925a.992.992 0 0 1-.023-1.401.993.993 0 0 1 1.401-.024l.242.235 2.55-2.636a.997.997 0 0 1 1.406-.016Zm-8.36 6.955v-9.145c0-.55.447-.996.996-.996h9.147c.55 0 .996.447.996.996V27.2c0 .55-.447.996-.996.996H5.54a.998.998 0 0 1-.996-.998Zm1.993-.996h7.154v-7.152H6.538V26.2Zm12.276-7.152h21.9a.997.997 0 0 0 0-1.993h-21.9a.997.997 0 0 0 0 1.992Zm0 4.574h17.043a.997.997 0 0 0 0-1.993H18.814a.997.997 0 0 0 0 1.993ZM30.61 42.12v3.14a.999.999 0 0 1-.922.993l-3.023.23c-.088.291-.19.571-.303.843a9.047 9.047 0 0 1-.385.815l1.93 2.245a.997.997 0 0 1-.003 1.407l-2.222 2.22a.998.998 0 0 1-1.349.05l-2.301-1.975a9.663 9.663 0 0 1-.816.383h-.003a9.459 9.459 0 0 1-.841.3l-.226 2.976a.995.995 0 0 1-.996.97h-3.142a.996.996 0 0 1-.991-.921l-.23-3.025a8.785 8.785 0 0 1-.844-.302 9.592 9.592 0 0 1-.814-.385l-2.245 1.93a.994.994 0 0 1-1.407-.004l-2.222-2.22a.999.999 0 0 1-.05-1.351l1.976-2.302a8.77 8.77 0 0 1-.385-.813 9.721 9.721 0 0 1-.302-.845l-2.976-.224a.998.998 0 0 1-.971-.996v-3.142c0-.515.4-.953.922-.99l3.025-.23c.083-.27.175-.534.28-.79l.022-.055c.115-.276.242-.546.385-.813l-1.93-2.248a.992.992 0 0 1 .004-1.404l2.22-2.22a1 1 0 0 1 1.351-.053l2.303 1.978c.246-.13.5-.251.763-.362l.053-.023c.27-.112.555-.215.842-.302l.226-2.976a.996.996 0 0 1 .996-.97h3.143c.515 0 .952.399.99.921l.232 3.025a8.928 8.928 0 0 1 1.656.687l2.247-1.931a.992.992 0 0 1 1.405.004l2.222 2.22a1 1 0 0 1 .05 1.35l-1.977 2.302c.13.25.253.502.36.761l.023.052c.114.273.215.555.304.845l2.974.224c.54.02.972.46.972 1.002Zm-1.992.923-2.806-.214a.997.997 0 0 1-.91-.844 7.58 7.58 0 0 0-.377-1.168l-.018-.049a7.473 7.473 0 0 0-.579-1.106.993.993 0 0 1 .083-1.18l1.835-2.138-.92-.92-2.139 1.837a.995.995 0 0 1-1.222.054 7.127 7.127 0 0 0-1.108-.571l-.004-.002a7.613 7.613 0 0 0-1.233-.39.992.992 0 0 1-.775-.897l-.217-2.806H16.93l-.212 2.806a.994.994 0 0 1-.846.909 7.69 7.69 0 0 0-1.166.378l-.049.018a7.347 7.347 0 0 0-1.107.584 1 1 0 0 1-1.23-.13l-2.087-1.792-.92.92 1.837 2.14a.99.99 0 0 1 .052 1.22 7.745 7.745 0 0 0-.571 1.111l-.02.047c-.156.384-.28.781-.37 1.188a.996.996 0 0 1-.896.776l-2.806.215v1.298l2.806.213a.993.993 0 0 1 .91.845 7.55 7.55 0 0 0 .976 2.321.99.99 0 0 1-.083 1.177l-1.835 2.139.92.922 2.137-1.837a.991.991 0 0 1 1.179-.083c.374.235.76.437 1.153.6l.002.002c.403.164.815.296 1.235.39.44.098.745.47.776.895l.215 2.806h1.298l.213-2.806a.997.997 0 0 1 .844-.909 7.389 7.389 0 0 0 2.322-.978.997.997 0 0 1 1.231.13l2.088 1.79.92-.92-1.837-2.137a.995.995 0 0 1-.054-1.223 7.572 7.572 0 0 0 .964-2.345.992.992 0 0 1 .897-.775l2.804-.215v-1.296h-.002Zm-7.134-3.258c1 1 1.618 2.38 1.618 3.907a5.5 5.5 0 0 1-1.616 3.898l-.006.005c-1 1-2.38 1.618-3.901 1.618a5.5 5.5 0 0 1-3.905-1.618c-1-1-1.62-2.38-1.62-3.905 0-1.523.62-2.902 1.62-3.902l.003-.003c1-1 2.381-1.62 3.902-1.62a5.528 5.528 0 0 1 3.905 1.62Zm-.376 3.907a3.527 3.527 0 0 0-3.531-3.533 3.53 3.53 0 0 0-2.5 1.032 3.53 3.53 0 0 0 .003 4.996c.64.64 1.52 1.034 2.497 1.034.978 0 1.862-.394 2.498-1.029l.004-.005a3.512 3.512 0 0 0 1.029-2.495Zm27.779.73-8.16 8.432-1.903-1.84a.993.993 0 0 0-1.401.023.992.992 0 0 0 .023 1.401l2.614 2.53a.993.993 0 0 0 1.402-.024l8.85-9.144a.993.993 0 0 0-.024-1.401.993.993 0 0 0-1.401.023Zm5.568-3.046V51.98h-.002v.024c-.19 7.03-4.825 8.257-9.329 9.448l-.76.204-.113.03-.184.048a.985.985 0 0 1-.537.002l-.118-.033H.996A.997.997 0 0 1 0 60.707l.004-.09.072-52.682c0-.548.446-.992.993-.992v-.004h9.072V5.267c0-.55.446-.997.996-.997h6.07a6.946 6.946 0 0 1 2.225-2.881 6.828 6.828 0 0 1 8.257 0 6.9 6.9 0 0 1 2.225 2.88h6.071c.55 0 .996.446.996.996v1.672h9.073c.55 0 .996.447.996.996v30.42c.329.163.672.32 1.029.474 1.867.798 3.96 1.387 5.42 1.553a.999.999 0 0 1 .956.997ZM19.44 4.27h8.244a4.935 4.935 0 0 0-1.193-1.294 4.854 4.854 0 0 0-5.86 0A4.9 4.9 0 0 0 19.44 4.27Zm-7.306 1.993v3.344H34.99V6.263H12.133ZM1.99 59.713h35.446c-2.379-1.266-4.153-3.372-4.294-7.61l-.007-.125V41.375a.997.997 0 0 1 .892-.987c1.462-.158 3.59-.752 5.483-1.56 1.546-.66 2.895-1.438 3.502-2.19l.06-.07.043-.044a.964.964 0 0 1 .268-.179l.027-.012a.987.987 0 0 1 .385-.076c.128 0 .258.023.383.076l.03.012a.996.996 0 0 1 .267.18c.04.035.068.071.105.113.128.157.289.318.477.477V8.931H36.98v1.673c0 .55-.446.996-.996.996H11.137a.996.996 0 0 1-.996-.996V8.93H2.059l-.07 50.782Zm50.478-7.733-.004-9.745c-1.539-.273-3.45-.847-5.16-1.578a19.882 19.882 0 0 1-1.623-.777 1.053 1.053 0 0 1-.2-.109 11.381 11.381 0 0 1-1.686-1.126c-.891.741-2.148 1.433-3.508 2.012-1.71.73-3.62 1.305-5.16 1.578l-.001 9.794c.18 5.474 4.07 6.501 7.844 7.501l.684.183h.282l.683-.183c3.79-1.001 7.69-2.034 7.849-7.55Z" fill="#012E89"/></svg>