<svg width="62" height="62" fill="none" xmlns="http://www.w3.org/2000/svg"><path d="M59.078 57.144a3.652 3.652 0 0 1-.775 1.159 3.627 3.627 0 0 1-.54.444 3.563 3.563 0 0 1-1.985.6H6.01a3.394 3.394 0 0 1-.696-.068 3.577 3.577 0 0 1-1.287-.532 3.625 3.625 0 0 1-.54-.444m55.591-1.159-56.47-.69-.099.02c.046.231.113.454.203.67a3.647 3.647 0 0 0 .776 1.159m55.59-1.159c.09-.216.157-.439.203-.67l-.203.67Zm-55.59 1.159.07-.07-.07.07ZM2.712 4.644a3.646 3.646 0 0 1 .776-1.159m-.776 1.16 2.621-2.038-.019-.098a3.578 3.578 0 0 0-1.287.532c-.194.13-.374.279-.54.444m-.775 1.16c-.09.215-.157.438-.203.669l.203-.67Zm.776-1.16.07.071-.07-.07Zm55.59 1.159c.09.216.157.44.203.67l-.203-.67Zm0 0a3.65 3.65 0 0 0-.775-1.159l.775 1.159ZM3.75.552A5.859 5.859 0 0 1 6.01.1h49.769a5.86 5.86 0 0 1 2.261.451 5.874 5.874 0 0 1 1.917 1.28 5.928 5.928 0 0 1 1.282 1.917 5.859 5.859 0 0 1 .449 2.262v49.769a5.92 5.92 0 0 1-.995 3.282 5.928 5.928 0 0 1-2.653 2.176 5.864 5.864 0 0 1-2.261.451H6.009a5.854 5.854 0 0 1-2.26-.451 5.874 5.874 0 0 1-1.916-1.28A5.927 5.927 0 0 1 .552 58.04 5.973 5.973 0 0 1 .1 55.778V6.01c.002-.388.04-.772.116-1.152a5.912 5.912 0 0 1 1.617-3.026A5.901 5.901 0 0 1 3.75.552Zm52.726 1.957-.02.098.02-.098Z" fill="transparent" stroke="#012E89" stroke-width="2"/><path d="M29.578 26.883a3.337 3.337 0 0 1 .258 1.301 3.338 3.338 0 0 1-.258 1.3 3.372 3.372 0 0 1-.738 1.104 3.387 3.387 0 0 1-.514.422c-.187.125-.382.23-.588.314h-.001a3.207 3.207 0 0 1-.637.193 3.37 3.37 0 0 1-1.326 0h-.001a3.212 3.212 0 0 1-.636-.192h-.001a3.255 3.255 0 0 1-.588-.315 3.318 3.318 0 0 1-.937-.937l-.001-.001a3.338 3.338 0 0 1-.508-1.226 3.372 3.372 0 0 1 .193-1.963c.087-.208.19-.402.315-.589a3.3 3.3 0 0 1 .423-.514 3.315 3.315 0 0 1 1.103-.738 3.345 3.345 0 0 1 1.3-.258 3.36 3.36 0 0 1 1.301.258 3.38 3.38 0 0 1 1.527 1.252c.124.186.228.381.314.589Zm-2.738 2.28h.001a1.06 1.06 0 0 0-.809-1.957 1.04 1.04 0 0 0-.343.23.987.987 0 0 0-.23.343 1.043 1.043 0 0 0 0 .809 1.05 1.05 0 0 0 .573.573l.033-.079-.033.079a1.042 1.042 0 0 0 .808.002Zm5.37 4.407a3.503 3.503 0 0 0-.26 1.301c0 .224.023.445.067.663.042.22.107.432.194.639.084.206.189.402.314.586v.001a3.301 3.301 0 0 0 .938.94c.184.122.38.227.586.314.208.084.42.149.64.193a3.38 3.38 0 0 0 1.963-.193 3.38 3.38 0 0 0 1.526-1.253 3.377 3.377 0 0 0 .573-1.89 3.336 3.336 0 0 0-.258-1.3v.001a3.473 3.473 0 0 0-.736-1.103 3.414 3.414 0 0 0-1.103-.738m-4.444 1.84 4.444-1.84m-4.444 1.84a3.395 3.395 0 0 1 1.842-1.84c.206-.086.419-.15.638-.195m-2.48 2.034 2.48-2.034m1.964.195a3.498 3.498 0 0 0-1.3-.26 3.43 3.43 0 0 0-.664.066m1.964.194-1.964-.195m.664 4.396h.002a1.076 1.076 0 0 0 .745-.312 1.05 1.05 0 0 0 .312-.748 1.05 1.05 0 0 0-.31-.75 1.093 1.093 0 0 0-.344-.232h-.001a1.048 1.048 0 0 0-.406-.08 1.052 1.052 0 0 0-.75.31 1.063 1.063 0 0 0-.311.752 1.05 1.05 0 0 0 .311.749 1.061 1.061 0 0 0 .752.31Zm-9.271 2.395.028-.096a1.173 1.173 0 0 1-.405-.21l-.045.056.045-.057a1.145 1.145 0 0 1-.431-.784l-.099.011.099-.01a1.16 1.16 0 0 1 .038-.455c.044-.15.113-.285.212-.407l8.915-11.144a1.161 1.161 0 0 1 .784-.433 1.148 1.148 0 0 1 .86.25 1.178 1.178 0 0 1 .433.785c.016.154.003.306-.04.454a1.14 1.14 0 0 1-.211.406L27.35 37.837a1.16 1.16 0 0 1-1.24.393l-.027.097Zm0 0c.163.047.327.061.494.043l-1.36-1.616a1.287 1.287 0 0 0 .107.965 1.274 1.274 0 0 0 .76.607Zm9.624-13.587a1.305 1.305 0 0 0-.494-.042 1.253 1.253 0 0 0-.473.15l.967-.108Z" fill="#012E89" stroke="#fff" stroke-width=".2"/><path d="M43.406 29.12V13.965a1.172 1.172 0 0 0-.343-.828 1.14 1.14 0 0 0-.378-.253 1.149 1.149 0 0 0-.448-.09H19.553c-.155 0-.305.03-.448.09a1.173 1.173 0 0 0-.721 1.081V29.12H12.97a1.15 1.15 0 0 0-.626.182c-.19.122-.335.285-.431.49-.097.203-.13.417-.102.642.027.224.113.423.257.598l17.925 21.766c.056.067.115.127.183.18.069.052.142.097.22.133h.002a1.126 1.126 0 0 0 .496.114 1.126 1.126 0 0 0 .498-.113l.002-.001c.078-.036.151-.081.22-.133a1.17 1.17 0 0 0 .183-.18l11.61-23.678Zm0 0h.1m-.1 0h.1m0 0h5.214v.01h.1c.227 0 .434.06.626.182.19.122.335.284.43.487.096.206.131.42.103.645m-6.473-1.325 6.473 1.326m0 0a1.14 1.14 0 0 1-.256.597l.256-.597Zm-.257.597L31.797 52.797l17.925-21.755ZM30.817 50.12l.077.094.077-.094 15.236-18.499.135-.163h-4.105a1.168 1.168 0 0 1-1.17-1.17V15.135H20.723v15.153a1.18 1.18 0 0 1-.342.829 1.167 1.167 0 0 1-.827.34h-4.106l.135.164 15.234 18.5Z" fill="#012E89" stroke="#fff" stroke-width=".2"/></svg>