<svg width="62" height="62" fill="none" xmlns="http://www.w3.org/2000/svg"><path d="M17.868 59.836H5.032v-4.828h12.936v4.828h-.1ZM2.526 44.394c-.774-1.157-.774-2.605.092-3.856l8.4-15.156c.29-.483 1.057-.676 1.64-.483.58.29.866.871.674 1.354l-4.536 9.94c-.291.483-.385.866-.385 1.448v7.625c0 .576.385.96.965.96.577 0 .966-.384.966-.96V37.64c0-.582.482-.965 1.159-.965.772 0 1.448.575 1.448 1.256v7.334c0 .285.092.576.383.768a6.456 6.456 0 0 1 2.513 5.118v1.931H7.156l-4.63-8.689Zm16.308 8.69h-1.157v-1.932c0-2.413-1.065-4.73-2.897-6.37v-6.855c0-1.734-1.448-3.084-3.187-3.182l3.478-7.723c.575-1.443-.191-3.182-1.64-3.857-1.448-.674-3.187-.1-4.055 1.251L.886 39.572c-1.164 1.832-1.164 4.048-.1 5.885l4.054 7.626h-.774c-.575 0-.965.383-.965.965v6.753c0 .58.39.966.965.966h14.862c.58 0 .965-.386.965-.966v-6.753c-.094-.482-.477-.965-1.06-.965Zm40.433-8.592-4.537 8.586h-8.683v-1.926c0-1.93.965-3.862 2.513-5.118.191-.192.383-.483.383-.774v-7.333c0-.676.675-1.251 1.448-1.251.577 0 1.157.483 1.157.965v7.62c0 .581.385.964.966.964.576 0 .965-.383.965-.965v-7.619c0-.482-.191-.965-.389-1.448l-4.438-9.846c-.192-.483.1-1.159.676-1.35.58-.291 1.354-.098 1.64.385l8.497 15.248a3.962 3.962 0 0 1-.199 3.862ZM56.76 59.836H43.924v-4.828h12.929v4.828h-.092Zm4.147-20.264-8.492-15.25c-.868-1.256-2.605-1.837-4.053-1.157-1.542.675-2.222 2.314-1.642 3.857l3.473 7.723c-1.831.092-3.182 1.448-3.182 3.182v6.856c-1.837 1.64-2.896 3.956-2.896 6.37v1.93h-1.157c-.582 0-.966.383-.966.96v6.758c0 .575.384.966.966.966h14.86c.581 0 .965-.39.965-.966v-6.758c0-.577-.384-.96-.966-.96h-.866l4.054-7.626c1.065-1.837 1.065-4.15-.098-5.885Zm-30.011-18.82c-1.93 0-3.379-1.543-3.379-3.473a3.36 3.36 0 0 1 3.38-3.38c1.93 0 3.472 1.543 3.472 3.38-.094 1.925-1.641 3.473-3.473 3.473Zm0-8.783a5.293 5.293 0 0 0-5.31 5.31c0 2.99 2.414 5.404 5.31 5.404a5.393 5.393 0 0 0 5.404-5.404c-.094-2.897-2.408-5.31-5.404-5.31Z" fill="#012E89"/><path d="m40.645 29.435-3.67-1.833a1.323 1.323 0 0 0-.868 0c-.58.291-1.157.483-1.64.676a.872.872 0 0 0-.58.58l-1.257 3.857h-3.282L28.1 28.858a.878.878 0 0 0-.582-.58c-.577-.193-1.157-.385-1.64-.676a1.323 1.323 0 0 0-.868 0l-3.668 1.833-2.316-2.316 1.833-3.668a1.323 1.323 0 0 0 0-.868c-.285-.575-.482-1.157-.676-1.64a.87.87 0 0 0-.575-.582l-3.861-1.25v-3.28l3.861-1.255a.87.87 0 0 0 .575-.583c.194-.576.39-1.157.676-1.64a1.323 1.323 0 0 0 0-.867l-1.833-3.668 2.316-2.316 3.668 1.833c.291.097.577.097.868 0 .58-.286 1.157-.483 1.64-.676.1-.29.389-.575.483-.866l1.256-3.862h3.28l1.256 3.862a.858.858 0 0 0 .577.576c.58.197 1.157.39 1.645.68.286.092.575.092.866 0l3.665-1.839 2.32 2.322-1.837 3.665c-.094.289-.094.58 0 .866.29.582.483 1.162.674 1.645.1.285.291.477.582.577l3.857 1.256v3.28l-3.665 1.448a.856.856 0 0 0-.577.575c-.191.582-.388 1.164-.68 1.647a1.39 1.39 0 0 0 0 .866l1.84 3.665-2.414 2.413Zm4.339-2.605-1.931-3.862c.197-.385.289-.676.488-1.06l4.053-1.348c.384-.1.67-.483.67-.965v-4.636c0-.383-.286-.768-.67-.966l-4.053-1.348c-.1-.385-.291-.676-.488-1.06l1.93-3.861a1.034 1.034 0 0 0-.187-1.158L41.51 3.38a1.024 1.024 0 0 0-1.158-.192l-3.861 1.931a4.926 4.926 0 0 0-1.06-.39L34.083.68C33.985.29 33.694 0 33.21 0h-4.628a.933.933 0 0 0-.873.674L26.36 4.728c-.385.1-.674.29-1.06.39l-3.861-1.93a1.024 1.024 0 0 0-1.157.191l-3.285 3.38c-.286.29-.386.773-.194 1.156l1.931 3.862c-.192.385-.29.674-.483 1.06l-4.053 1.348a.933.933 0 0 0-.674.873v4.629c0 .39.29.773.674.873l4.053 1.349c.1.383.291.674.483 1.06l-1.93 3.86c-.192.384-.093.867.193 1.158l3.285 3.28c.29.29.768.39 1.157.197l3.861-1.931c.386.193.675.285 1.06.482l1.349 4.056c.1.383.482.674.873.674h4.628a.938.938 0 0 0 .873-.674l1.35-4.055c.384-.098.674-.29 1.059-.39l3.861 1.932c.384.191.866.1 1.158-.192l3.28-3.281c.29-.39.384-.866.193-1.255ZM28.192 41.306c-.575 0-.966.389-.966.966v14.382c0 .576.39.965.966.965.582 0 .965-.389.965-.965V42.272c0-.483-.483-.966-.965-.966Zm5.403 0c-.576 0-.965.389-.965.966v14.382c0 .576.389.965.965.965.58 0 .966-.389.966-.965V42.272a.967.967 0 0 0-.966-.966Zm-10.9-6.178c-.582 0-.965.39-.965.966v14.384c0 .575.383.965.965.965.577 0 .96-.39.96-.965V36.094c0-.483-.383-.966-.96-.966Zm16.407 0c-.582 0-.965.39-.965.966v14.384c0 .575.383.965.965.965.577 0 .96-.39.96-.965V36.094c0-.483-.482-.966-.96-.966Z" fill="#012E89"/></svg>