<svg width="85" height="62" fill="none" xmlns="http://www.w3.org/2000/svg"><path d="M12.512 22.697v-.2H1.405a1.205 1.205 0 0 1 0-2.41h11.107V17.79a3.72 3.72 0 0 1 3.712-3.721h33.928l-.066-.25a10.858 10.858 0 0 1-.368-2.756C49.718 5.073 54.59.2 60.58.2s10.862 4.873 10.862 10.863c0 5.563-4.205 10.156-9.602 10.784l-.177.021v3.575h8.164c.15 0 .301.006.457.014h.016l.016-.001.06-.008c.026-.003.042-.006.064-.006.104 0 .205.018.313.046l.016.005.017.001c7.588.664 13.27 6.71 13.27 14.178v11.72a3.721 3.721 0 0 1-3.716 3.717h-1.089l-.03.164c-.648 3.592-3.79 6.326-7.564 6.326s-6.916-2.734-7.565-6.326l-.03-.164h-4.805v-.004H36.021l-.03.165c-.647 3.591-3.791 6.33-7.567 6.33-3.775 0-6.917-2.737-7.564-6.33l-.03-.165h-4.606a3.717 3.717 0 0 1-3.712-3.714V35.794H8.22a1.205 1.205 0 0 1 0-2.407h4.293v-4.242H5.136a1.204 1.204 0 1 1 0-2.408h7.376v-4.04ZM35.99 52.53l.03.165h23.236v-8.213H14.92v6.909c0 .72.585 1.305 1.304 1.305h4.606l.03-.165c.65-3.59 3.793-6.32 7.564-6.32 3.773 0 6.915 2.73 7.565 6.32Zm45.459-10.457h.2v-2.402c0-5.772-4.108-10.514-9.764-11.596l-.238-.045v14.043h9.802ZM61.866 27.85h-.2V52.7h2.398l.03-.165c.648-3.59 3.79-6.325 7.564-6.325s6.916 2.735 7.565 6.325l.03.164h1.088c.72 0 1.307-.585 1.307-1.306v-6.911H70.44a1.204 1.204 0 0 1-1.205-1.203V27.85h-7.37ZM51.237 16.575l-.058-.098H16.225c-.71 0-1.305.6-1.305 1.313v2.297h1.858a1.205 1.205 0 0 1 0 2.41H14.92v4.24h9.28c.665 0 1.203.538 1.203 1.205 0 .665-.538 1.203-1.203 1.203h-9.28v4.24h16.095a1.204 1.204 0 0 1 0 2.409H14.92v6.28h44.335v-20.24l-.173-.024a10.865 10.865 0 0 1-7.845-5.235ZM23.14 53.904a5.292 5.292 0 0 0 5.285 5.286 5.292 5.292 0 0 0 5.286-5.286 5.292 5.292 0 0 0-5.286-5.286 5.292 5.292 0 0 0-5.285 5.286Zm43.233 0a5.292 5.292 0 0 0 5.286 5.286 5.292 5.292 0 0 0 5.286-5.286 5.292 5.292 0 0 0-5.286-5.286 5.292 5.292 0 0 0-5.286 5.286Zm2.664-42.841c0-4.661-3.793-8.455-8.455-8.455s-8.454 3.794-8.454 8.455c0 4.663 3.792 8.455 8.454 8.455 4.662 0 8.455-3.792 8.455-8.455Z" fill="#012E89" stroke="#fff" stroke-width=".4"/><path d="M61.785 9.658v.2h2.753a1.205 1.205 0 0 1 0 2.41h-3.957c-.666 0-1.205-.54-1.205-1.205V5.05a1.205 1.205 0 0 1 2.41 0v4.607Z" fill="#012E89" stroke="#fff" stroke-width=".4"/></svg>