<svg width="25" height="25" fill="none" xmlns="http://www.w3.org/2000/svg"><path d="M12.975 24.05C19.616 24.05 25 18.666 25 12.025S19.616 0 12.975 0 .95 5.384.95 12.025 6.334 24.05 12.975 24.05Z" fill="#EA2029"/><path d="M20.076 8.642a1.697 1.697 0 0 0-1.194-1.196c-1.06-.291-5.302-.296-5.302-.296s-4.241-.005-5.302.274a1.733 1.733 0 0 0-1.196 1.203c-.28 1.06-.282 3.26-.282 3.26s-.003 2.21.275 3.26c.156.58.613 1.038 1.194 1.194 1.07.292 5.301.296 5.301.296s4.242.005 5.302-.273a1.703 1.703 0 0 0 1.197-1.193c.28-1.06.282-3.258.282-3.258s.014-2.211-.275-3.271Zm-7.853 5.282.004-4.062 3.525 2.034-3.529 2.028Z" fill="#fff"/></svg>